<svg width="24" height="24" viewBox="0 0 24 24" fill="none" xmlns="http://www.w3.org/2000/svg">
<g clip-path="url(#clip0_20577_57866)">
<mask id="mask0_20577_57866" style="mask-type:luminance" maskUnits="userSpaceOnUse" x="-45" y="0" width="113" height="113">
<path fill-rule="evenodd" clip-rule="evenodd" d="M-16.9161 0.0513615L-12.0813 0L38.2075 0.0205472C38.971 0.0273957 39.447 0.0376646 39.9195 0.0513615C42.4122 0.116422 44.9289 0.260242 47.3942 0.701969C49.8637 1.11866 52.258 1.89871 54.499 3.01676C56.7315 4.13991 58.7791 5.60548 60.5493 7.36212C62.3203 9.1104 63.8031 11.1283 64.9423 13.3408C66.1065 15.5906 66.8358 17.8951 67.2844 20.3674C67.7295 22.8055 67.8767 25.2915 67.9418 27.7569C67.976 28.8869 67.9897 30.0169 67.9932 31.1503L68 33.1672V77.8091C68 79.1514 68 80.4971 67.9932 81.8428C67.9863 82.9728 67.976 84.1028 67.9418 85.2328C67.8733 87.6983 67.7295 90.1877 67.2844 92.6223C66.8619 95.0691 66.0723 97.438 64.9423 99.6489C63.8024 101.862 62.3198 103.881 60.5493 105.631C58.7722 107.387 56.7306 108.853 54.499 109.976C52.258 111.095 49.8638 111.875 47.3942 112.291C44.9289 112.729 42.4122 112.873 39.9195 112.942L32.4072 113L-15.2075 112.973C-15.7771 112.966 -16.3467 112.955 -16.9161 112.938C-19.4088 112.877 -21.9254 112.729 -24.3907 112.291C-26.8592 111.874 -29.2523 111.094 -31.4922 109.976C-35.9758 107.72 -39.6329 104.106 -41.9423 99.6489C-43.0706 97.4373 -43.8601 95.0686 -44.2844 92.6223C-44.7295 90.1877 -44.8733 87.6983 -44.9384 85.2362C-44.9726 84.1062 -44.9829 82.9728 -44.9897 81.8428L-45 79.8191V35.1841C-45 33.8418 -45 32.4961 -44.9897 31.1538C-44.9829 30.0238 -44.9692 28.8938 -44.9384 27.7603C-44.8699 25.2949 -44.7261 22.8089 -44.2844 20.3708C-43.8604 17.9245 -43.0709 15.5558 -41.9423 13.3443C-39.6362 8.88619 -35.9797 5.27141 -31.4956 3.01676C-29.2546 1.89867 -26.8603 1.11861 -24.3907 0.701969C-21.9254 0.263666 -19.4088 0.119846 -16.9161 0.0513615Z" fill="white"/>
</mask>
<g mask="url(#mask0_20577_57866)">
<path d="M0 -0.00195312H23.9641V23.9621H0V-0.00195312Z" fill="#19AA1E"/>
<path fill-rule="evenodd" clip-rule="evenodd" d="M0 -0.00195312H23.9641V7.86045L0 4.11659V-0.00195312Z" fill="#FFB919"/>
<path fill-rule="evenodd" clip-rule="evenodd" d="M0 21.3396L23.9641 17.5957V23.9608H0V21.3396Z" fill="#82D714"/>
<path fill-rule="evenodd" clip-rule="evenodd" d="M0 3.64258L8.36487 4.94959C9.40613 4.29028 10.6449 3.92867 11.9817 3.92867C13.8333 3.92867 15.4975 4.62211 16.7087 5.83908C16.8612 5.99302 17.0049 6.15349 17.1407 6.3205L23.9641 7.38644V8.33402L17.8334 7.37555C18.2923 8.25271 18.5327 9.22765 18.5342 10.2176C18.5342 11.5013 18.2473 12.7815 17.6534 14.0667L17.6359 14.1059L17.3833 14.6462H16.7878C15.5563 14.6462 14.7402 15.0143 14.2058 15.6671C13.7868 16.179 13.5443 16.8703 13.4629 17.624L13.46 17.6472L13.4484 17.7677L13.4433 17.82L13.4332 17.9224C13.402 18.2593 13.3816 18.5447 13.3707 18.777L23.9641 17.1215V18.0691L0 21.8137V20.8661L10.6049 19.2091L10.6006 18.9963L10.5991 18.9368L10.5977 18.9056L10.5962 18.8584C10.5868 18.6006 10.5628 18.2702 10.5251 17.8694L10.5178 17.7932L10.5047 17.6617C10.4292 16.9037 10.1903 16.2044 9.77136 15.6845C9.24348 15.0274 8.43531 14.6534 7.21325 14.6462H6.58008L6.32811 14.1059C5.72253 12.8076 5.42918 11.5144 5.42918 10.2176C5.42918 8.58671 6.09067 7.00958 7.25537 5.83908L7.35702 5.73961L0 4.58944V3.64258Z" fill="white"/>
<path fill-rule="evenodd" clip-rule="evenodd" d="M11.9798 4.86523C15.3257 4.86523 17.5963 7.44005 17.5963 10.2182C17.5963 11.3335 17.3531 12.4938 16.7852 13.7108C13.4938 13.7108 12.6812 16.0678 12.5273 17.552L12.5171 17.65C12.4656 18.1801 12.4351 18.6048 12.4271 18.9243L11.5354 19.0637V19.0347C11.523 18.5628 11.491 18.0916 11.4396 17.6224L11.4374 17.5963C11.2951 16.1157 10.5 13.7108 7.17508 13.7108C6.60653 12.4938 6.36328 11.3335 6.36328 10.2182C6.36328 7.44005 8.63458 4.86523 11.9798 4.86523Z" fill="#0073FA"/>
</g>
</g>
<defs>
<clipPath id="clip0_20577_57866">
<rect width="24" height="24" rx="4" fill="white"/>
</clipPath>
</defs>
</svg>
