<svg width="100" height="100" viewBox="0 0 100 100" fill="none" xmlns="http://www.w3.org/2000/svg">
<path fill-rule="evenodd" clip-rule="evenodd" d="M50 76.6973C49.3731 76.6973 49.2305 76.4941 49.0156 76.1602C47.8809 74.3965 46.2539 72.0469 44.3711 69.3281C35.752 56.8789 22.7285 38.0664 22.7285 27.291C22.7285 12.252 34.9629 0.0175781 50 0.0175781C65.0391 0.0175781 77.2734 12.252 77.2734 27.291C77.2734 38.0664 64.2481 56.8789 55.6289 69.3262C53.7461 72.0469 52.1191 74.3965 50.9863 76.1602C50.8796 76.3247 50.7336 76.4601 50.5613 76.5538C50.3891 76.6476 50.1961 76.6969 50 76.6973Z" fill="#194BCB"/>
<path fill-rule="evenodd" clip-rule="evenodd" d="M50 43.459C41.6621 43.459 34.877 36.6758 34.877 28.3359C34.877 19.998 41.6621 13.2129 50 13.2129C58.3398 13.2129 65.123 19.998 65.123 28.3359C65.123 36.6758 58.3398 43.459 50 43.459Z" fill="#006FFD"/>
<path fill-rule="evenodd" clip-rule="evenodd" d="M50.0272 90.6914C49.5311 90.6914 49.035 90.6836 48.535 90.666C42.8065 90.4571 37.5526 89.0625 33.742 86.7383C29.908 84.4024 27.8983 81.3321 28.0819 78.0957C28.285 74.5371 31.0506 71.3496 35.8709 69.1172C36.4569 68.8457 37.1541 69.1016 37.4256 69.6895C37.6971 70.2754 37.4412 70.9727 36.8553 71.2442C32.9158 73.0684 30.5701 75.6133 30.4217 78.2285C30.2889 80.5606 31.9022 82.8731 34.9608 84.7383C42.1873 89.1426 54.8299 89.5938 63.1463 85.7442C67.0838 83.9199 69.4295 81.3731 69.578 78.7578C69.7108 76.4258 68.0994 74.1153 65.0389 72.25C64.4862 71.9121 64.3104 71.1914 64.6483 70.6387C64.9842 70.086 65.7049 69.9121 66.2576 70.2481C70.0916 72.586 72.1014 75.6543 71.9178 78.8906C71.7147 82.4492 68.9491 85.6387 64.1287 87.8692C60.1659 89.7051 55.2049 90.6914 50.0272 90.6914Z" fill="#194BCB"/>
<path fill-rule="evenodd" clip-rule="evenodd" d="M50.0447 99.9824C49.2596 99.9824 48.4725 99.9668 47.6834 99.9395C38.6346 99.6094 30.3494 97.4141 24.3514 93.7578C18.449 90.1602 15.3533 85.4766 15.6326 80.5703C15.9412 75.1465 20.2225 70.2578 27.6873 66.8008C28.2732 66.5293 28.9705 66.7852 29.242 67.3731C29.5135 67.959 29.2576 68.6563 28.6717 68.9278C22.1248 71.9571 18.2244 76.25 17.9725 80.7031C17.7439 84.7051 20.4432 88.6309 25.5721 91.7578C37.3084 98.9121 57.8357 99.6504 71.3299 93.4043C77.8748 90.3731 81.7752 86.0821 82.0291 81.6289C82.2576 77.627 79.5584 73.7012 74.4295 70.5742C73.8767 70.2363 73.701 69.5156 74.0389 68.9649C74.1187 68.8334 74.2238 68.7189 74.3479 68.6281C74.4721 68.5373 74.613 68.4718 74.7625 68.4356C74.912 68.3993 75.0672 68.3928 75.2192 68.4166C75.3712 68.4404 75.517 68.494 75.6482 68.5742C81.5506 72.1719 84.6482 76.8555 84.367 81.7617C84.0584 87.1836 79.7771 92.0742 72.3142 95.5293C66.0603 98.4258 58.2303 99.9824 50.0447 99.9824Z" fill="#194BCB"/>
</svg>
