<svg width="128" height="42" viewBox="0 0 128 42" fill="none" xmlns="http://www.w3.org/2000/svg">
<rect x="0.5" y="0.5" width="127" height="41" rx="20.5" stroke="white"/>
<g clip-path="url(#clip0_19952_31484)">
<mask id="mask0_19952_31484" style="mask-type:luminance" maskUnits="userSpaceOnUse" x="12" y="8" width="104" height="26">
<path d="M116 8H12V33.9984H116V8Z" fill="white"/>
</mask>
<g mask="url(#mask0_19952_31484)">
<path d="M25.2407 8.15625C25.338 9.47522 24.9363 10.7816 24.121 11.798C23.7306 12.3023 23.2352 12.7079 22.6718 12.9845C22.1086 13.2611 21.4922 13.4013 20.8692 13.3946C20.8295 12.7604 20.9105 12.1242 21.1076 11.5224C21.3048 10.9207 21.6142 10.3652 22.0183 9.88772C22.8446 8.91032 23.9951 8.29211 25.2407 8.15625Z" fill="white"/>
<path d="M27.5137 17.7564C27.0997 18.5137 26.877 19.3676 26.8662 20.2384C26.8672 21.2179 27.1459 22.1754 27.6674 22.9916C28.1889 23.8078 28.9303 24.4464 29.799 24.828C29.4575 25.9802 28.9427 27.0692 28.2736 28.0544C27.3751 29.4502 26.4329 30.8139 24.9376 30.8391C24.2265 30.8562 23.7464 30.6438 23.2462 30.4225C22.7244 30.1917 22.1806 29.9512 21.3299 29.9512C20.4275 29.9512 19.8595 30.1994 19.3116 30.4389C18.8382 30.6458 18.3798 30.8461 17.7338 30.8739C16.3098 30.9287 15.2214 29.3842 14.2902 28.0014C12.429 25.1776 10.9797 20.0435 12.9227 16.5501C13.3712 15.7131 14.0209 15.011 14.8084 14.5122C15.596 14.0135 16.4945 13.7351 17.4164 13.7041C18.2241 13.6869 18.9991 14.0102 19.6786 14.2936C20.1982 14.5103 20.662 14.7038 21.0417 14.7038C21.3756 14.7038 21.8264 14.518 22.3518 14.3014C23.1794 13.9603 24.1921 13.5429 25.224 13.6554C26.0149 13.6811 26.7891 13.898 27.4851 14.2887C28.1811 14.6795 28.7799 15.2334 29.2338 15.9065C28.5193 16.3626 27.9276 16.999 27.5137 17.7564Z" fill="white"/>
<path d="M77.0071 29.3934C75.3647 29.3934 74.1629 28.5498 74.0245 27.265L72.1133 27.2649C72.2339 29.6083 74.102 31.0907 76.8687 31.0907C79.8257 31.0907 81.6849 29.5726 81.6849 27.1488C81.6849 25.2538 80.6214 24.186 78.0617 23.5574L76.6872 23.2069C75.0792 22.7943 74.4218 22.2553 74.4218 21.3394C74.4218 20.1901 75.451 19.4005 76.9551 19.4005C78.4591 19.4005 79.4882 20.181 79.6011 21.4739H81.4858C81.425 19.2385 79.6177 17.7031 76.9815 17.7031C74.3179 17.7031 72.4419 19.2385 72.4419 21.4739C72.4419 23.2793 73.5055 24.3918 75.7964 24.9665L77.4132 25.371C79.0302 25.7836 79.713 26.3857 79.713 27.3913C79.713 28.5498 78.5807 29.3934 77.0071 29.3934Z" fill="white"/>
<path fill-rule="evenodd" clip-rule="evenodd" d="M39.7226 27.3758H44.4781L45.6191 30.8775H47.6676L43.1634 17.9219H41.0707L36.5664 30.8775H38.5806L39.7226 27.3758ZM43.9846 25.7599H40.2152L42.0745 20.0768H42.1265L43.9846 25.7599Z" fill="white"/>
<path fill-rule="evenodd" clip-rule="evenodd" d="M53.6022 30.9732C55.8852 30.9732 57.3981 29.0874 57.3981 26.1521C57.3981 23.2249 55.8764 21.3299 53.5679 21.3299C52.9849 21.3103 52.4077 21.4553 51.8976 21.7494C51.3876 22.0434 50.9639 22.4755 50.6716 22.9998H50.6373V21.4287H48.8301V33.9992H50.6972V29.3207H50.7403C51.0198 29.8474 51.4364 30.2818 51.9426 30.574C52.4487 30.8663 53.0239 31.0047 53.6022 30.9732ZM53.0754 22.9824C54.5274 22.9824 55.479 24.2397 55.479 26.1521C55.479 28.0818 54.5274 29.3298 53.0754 29.3298C51.6489 29.3298 50.6893 28.0553 50.6893 26.1521C50.6893 24.2662 51.6489 22.9824 53.0754 22.9824Z" fill="white"/>
<path fill-rule="evenodd" clip-rule="evenodd" d="M67.4079 26.1521C67.4079 29.0874 65.8951 30.9732 63.612 30.9732C63.0336 31.0046 62.4585 30.8663 61.9523 30.574C61.4462 30.2818 61.0296 29.8474 60.7502 29.3206H60.7069V33.9992H58.8398V21.4287H60.647V22.9997H60.6814C60.9737 22.4755 61.3974 22.0434 61.9074 21.7494C62.4174 21.4553 62.9946 21.3103 63.5776 21.3299C65.8862 21.3299 67.4079 23.2249 67.4079 26.1521ZM65.4889 26.1521C65.4889 24.2397 64.5372 22.9824 63.0852 22.9824C61.6586 22.9824 60.6991 24.2662 60.6991 26.1521C60.6991 28.0553 61.6586 29.3298 63.0852 29.3298C64.5372 29.3298 65.4889 28.0818 65.4889 26.1521Z" fill="white"/>
<path d="M85.716 19.1953V21.4307H87.4456V22.9661H85.716V28.1734C85.716 28.9823 86.0623 29.3593 86.8226 29.3593C87.028 29.3556 87.233 29.3406 87.4369 29.3144V30.8407C87.0949 30.907 86.7475 30.937 86.3998 30.9303C84.5583 30.9303 83.8401 30.212 83.8401 28.3802V22.9661H82.5176V21.4307H83.84V19.1953H85.716Z" fill="white"/>
<path fill-rule="evenodd" clip-rule="evenodd" d="M92.7651 21.3125C90.1367 21.3125 88.4512 23.18 88.4512 26.152C88.4512 29.1321 90.12 30.9915 92.7651 30.9915C95.4112 30.9915 97.0801 29.1321 97.0801 26.152C97.0801 23.18 95.4023 21.3125 92.7651 21.3125ZM92.7651 22.91C94.278 22.91 95.1777 24.1133 95.1777 26.152C95.1777 28.1989 94.278 29.393 92.7651 29.393C91.2522 29.393 90.3536 28.1989 90.3536 26.152C90.3536 24.1225 91.2522 22.91 92.7651 22.91Z" fill="white"/>
<path d="M98.6133 21.4286H100.394V23.0363H100.437C100.558 22.5342 100.841 22.0905 101.239 21.7797C101.638 21.4689 102.127 21.31 102.625 21.3298C102.84 21.329 103.055 21.3533 103.265 21.4021V23.2157C102.993 23.1295 102.71 23.0899 102.426 23.0985C102.155 23.0871 101.884 23.1367 101.633 23.2441C101.382 23.3514 101.157 23.5139 100.972 23.7203C100.787 23.9268 100.647 24.1724 100.563 24.4401C100.478 24.7079 100.45 24.9916 100.48 25.2717V30.8743H98.6133V21.4286Z" fill="white"/>
<path fill-rule="evenodd" clip-rule="evenodd" d="M107.958 30.9915C110.016 30.9915 111.624 29.8148 111.875 28.1H110.102C109.937 28.5268 109.643 28.8867 109.264 29.1261C108.885 29.3654 108.443 29.4715 108.002 29.4286C107.666 29.4414 107.331 29.3799 107.02 29.2482C106.709 29.1164 106.428 28.9174 106.197 28.6643C105.965 28.4113 105.788 28.11 105.678 27.7805C105.567 27.451 105.525 27.1008 105.555 26.7531V26.636H111.979V25.9717C111.979 23.1077 110.397 21.3125 107.88 21.3125C105.321 21.3125 103.67 23.234 103.67 26.1968C103.67 29.1505 105.312 30.9915 107.958 30.9915ZM110.111 25.2809H105.563C105.563 24.9652 105.622 24.6524 105.738 24.3606C105.855 24.0689 106.025 23.8039 106.241 23.581C106.456 23.3581 106.712 23.1818 106.993 23.062C107.274 22.9423 107.576 22.8817 107.88 22.8836C108.181 22.8768 108.481 22.9349 108.76 23.054C109.038 23.1732 109.29 23.3509 109.499 23.576C109.709 23.8011 109.872 24.0688 109.977 24.3622C110.082 24.6555 110.127 24.9683 110.111 25.2809Z" fill="white"/>
<path d="M39.6899 10.7992H38.8883V11.6444H39.7154C40.5503 11.6444 41.0281 12.0244 41.0281 12.6414C41.0281 13.2496 40.5208 13.6811 39.7438 13.6811C38.9668 13.6811 38.4399 13.2969 38.3859 12.7014H37.4922C37.5191 12.9778 37.5993 13.2457 37.728 13.4892C37.8568 13.7327 38.0314 13.9468 38.2416 14.1187C38.4517 14.2906 38.693 14.4168 38.9511 14.4898C39.2091 14.5627 39.4788 14.581 39.7438 14.5435C40.0083 14.5776 40.2767 14.5566 40.5332 14.4816C40.7898 14.4066 41.0293 14.2792 41.2378 14.1069C41.4464 13.9345 41.6196 13.7206 41.7476 13.4778C41.8755 13.235 41.9554 12.9681 41.9827 12.6928C41.9971 12.3098 41.865 11.9365 41.6151 11.6544C41.3653 11.3723 41.0181 11.2044 40.6494 11.1874V11.1141C40.9604 11.042 41.2382 10.8613 41.4364 10.6022C41.6346 10.343 41.7412 10.0211 41.7384 9.69023C41.7384 8.70246 40.9073 8.01627 39.7271 8.01627C39.4713 7.98175 39.2114 8.00229 38.9636 8.07659C38.7158 8.15089 38.4854 8.27738 38.2866 8.44817C38.088 8.61896 37.9252 8.83041 37.8086 9.06933C37.692 9.30826 37.624 9.56955 37.6089 9.83695H38.4889C38.5048 9.68965 38.549 9.54715 38.6189 9.41788C38.6888 9.28861 38.7828 9.17518 38.8956 9.08429C39.0084 8.9934 39.1375 8.9269 39.2755 8.88871C39.4134 8.85051 39.5573 8.8414 39.6986 8.86192C40.4041 8.86192 40.8201 9.23278 40.8201 9.80689C40.814 9.95116 40.7794 10.0926 40.7181 10.2222C40.6569 10.3519 40.5704 10.4669 40.4643 10.5601C40.3581 10.6534 40.2344 10.7227 40.1011 10.7639C39.9679 10.8051 39.8279 10.8171 39.6899 10.7992Z" fill="white"/>
<path fill-rule="evenodd" clip-rule="evenodd" d="M44.6845 11.6591C43.6093 11.7284 43.002 12.2159 43.002 13.0616C43.0027 13.2598 43.0435 13.4558 43.1216 13.6367C43.1997 13.8176 43.3135 13.9795 43.4556 14.112C43.5976 14.2444 43.7649 14.3445 43.9464 14.4058C44.128 14.467 44.3201 14.488 44.51 14.4675C44.779 14.4805 45.0466 14.419 45.2853 14.2894C45.524 14.1598 45.7254 13.9667 45.8688 13.7299H45.9394V14.3901H46.7999V11.1803C46.7999 10.1879 46.1602 9.60156 45.026 9.60156C43.9998 9.60156 43.2678 10.1191 43.1766 10.9261H44.041C44.141 10.5939 44.4854 10.4039 44.9838 10.4039C45.595 10.4039 45.91 10.6841 45.91 11.1803V11.5858L44.6845 11.6591ZM45.91 12.2674V12.6601C45.9003 12.8083 45.862 12.953 45.7974 13.0855C45.7328 13.218 45.6432 13.3357 45.5339 13.4315C45.4246 13.5273 45.2978 13.5993 45.1612 13.6433C45.0246 13.6872 44.8808 13.7021 44.7386 13.6871C44.2528 13.6871 43.8996 13.4411 43.8996 13.0183C43.8996 12.6041 44.1822 12.384 44.8052 12.3407L45.91 12.2674Z" fill="white"/>
<path d="M49.1662 10.4758V14.3932H48.2734V9.69531H51.2521V10.4757L49.1662 10.4758Z" fill="white"/>
<path fill-rule="evenodd" clip-rule="evenodd" d="M54.797 14.4709C55.9391 14.4709 56.666 13.5351 56.666 12.0425C56.666 10.5494 55.9391 9.61765 54.7882 9.61768C54.4986 9.61028 54.2127 9.68615 53.9619 9.83691C53.7113 9.98767 53.5056 10.2075 53.3676 10.472H53.3008V9.6956H52.4414V15.9554H53.3342V13.6818H53.4049C53.5404 13.9374 53.7434 14.1475 53.9901 14.2873C54.2368 14.4271 54.5167 14.4908 54.797 14.4709ZM54.539 10.4506C55.2954 10.4506 55.7477 11.0502 55.7477 12.0425C55.7477 13.0389 55.2954 13.6385 54.5351 13.6385C53.7875 13.6385 53.3175 13.0257 53.3175 12.0466C53.3175 11.0629 53.7875 10.4506 54.539 10.4506Z" fill="white"/>
<path d="M57.8557 16.0758V15.2776C57.9523 15.2903 58.0496 15.2961 58.1471 15.2949C58.3373 15.3095 58.526 15.2507 58.677 15.1297C58.828 15.0087 58.9307 14.834 58.9653 14.6393L59.0321 14.4105L57.3945 9.69531H58.3668L59.501 13.4268H59.5717L60.7019 9.69531H61.6487L59.9622 14.5873C59.5756 15.7304 59.1479 16.0972 58.2256 16.0972C58.151 16.0972 57.9391 16.0886 57.8557 16.0758Z" fill="white"/>
<path d="M63.2346 13.0606H62.3457C62.4281 14.0097 63.2307 14.4799 64.2187 14.4799C65.3362 14.4799 66.0681 13.889 66.0681 12.996C66.0708 12.7378 65.9823 12.4875 65.8192 12.2927C65.6561 12.0978 65.4297 11.972 65.1831 11.9389V11.8656C65.3902 11.8144 65.5742 11.691 65.7042 11.516C65.8342 11.3409 65.9024 11.1248 65.8974 10.9038C65.8974 10.1101 65.2823 9.60527 64.2069 9.60527C63.7954 9.54637 63.3781 9.65754 63.0447 9.91485C62.7113 10.1722 62.4886 10.5551 62.4243 10.9812H63.2847C63.3426 10.6104 63.7075 10.3903 64.2069 10.3903C64.7553 10.3903 65.0212 10.6536 65.0212 10.9985C65.0212 11.3913 64.7466 11.6068 64.2069 11.6068H63.5417V12.3271H64.2187C64.8506 12.3271 65.1783 12.5431 65.1783 12.996C65.1783 13.4188 64.8133 13.6908 64.2187 13.6908C63.6958 13.6908 63.322 13.4748 63.2346 13.0606Z" fill="white"/>
<path d="M67.3477 14.3932V9.69531H68.2326V12.9266H68.3032L70.3881 9.69532H71.2731V14.3932H70.3881V11.1446H70.3214L68.2326 14.3932L67.3477 14.3932Z" fill="white"/>
<path d="M74.7246 10.4757H76.1492V9.69531H72.4062V10.4757H73.8309V14.3932H74.7246V10.4757Z" fill="white"/>
<path fill-rule="evenodd" clip-rule="evenodd" d="M80.9571 13.1218C80.8354 13.5511 80.5724 13.9224 80.2139 14.1708C79.8554 14.4193 79.4242 14.529 78.9958 14.4809C78.6978 14.4891 78.4016 14.4298 78.1278 14.3072C77.854 14.1846 77.6092 14.0015 77.4104 13.7708C77.2115 13.5401 77.0634 13.2672 76.9764 12.9711C76.8892 12.675 76.8653 12.3628 76.906 12.056C76.8663 11.7484 76.8908 11.4355 76.9776 11.1385C77.0646 10.8415 77.2119 10.5673 77.4096 10.3346C77.6074 10.1019 77.851 9.91598 78.124 9.78952C78.397 9.66307 78.693 9.59899 78.9919 9.60164C80.2507 9.60164 81.011 10.4947 81.011 11.9699V12.2935H77.8165V12.3454C77.8024 12.5178 77.8231 12.6915 77.8774 12.8551C77.9317 13.0187 78.0184 13.1687 78.1318 13.2954C78.2454 13.4222 78.3831 13.5229 78.5363 13.5911C78.6895 13.6592 78.8547 13.6934 79.0213 13.6913C79.2347 13.7178 79.4509 13.6778 79.6424 13.5764C79.8339 13.4749 79.992 13.3167 80.0966 13.1217L80.9571 13.1218ZM77.8165 11.6078H80.1005C80.1118 11.4502 80.0912 11.2919 80.0401 11.143C79.9889 10.9942 79.9084 10.8581 79.8037 10.7435C79.6989 10.6289 79.5722 10.5383 79.4318 10.4776C79.2913 10.4168 79.1401 10.3872 78.9879 10.3908C78.8335 10.3886 78.6802 10.4186 78.5371 10.479C78.394 10.5394 78.264 10.6289 78.1548 10.7424C78.0456 10.8558 77.9594 10.9909 77.9012 11.1395C77.8432 11.2881 77.8144 11.4474 77.8165 11.6078Z" fill="white"/>
<path fill-rule="evenodd" clip-rule="evenodd" d="M86.7838 9.69531H84.7441V14.3932H86.8044C87.7973 14.3932 88.3909 13.8583 88.3909 13.0386C88.3941 12.7637 88.2955 12.4981 88.1155 12.2965C87.9354 12.095 87.6877 11.9729 87.4235 11.9556V11.8822C87.6411 11.8328 87.8357 11.7073 87.9749 11.5266C88.114 11.346 88.1891 11.1212 88.1878 10.8899C88.1878 10.1609 87.6688 9.69531 86.7838 9.69531ZM85.6291 11.6235V10.407L86.6132 10.407C87.087 10.407 87.3117 10.6444 87.3117 11.0106C87.3117 11.408 87.0536 11.6235 86.5141 11.6235H85.6291ZM85.6291 13.6816V12.3051L86.5759 12.3051C87.1783 12.3051 87.4981 12.5252 87.4981 12.9954C87.4981 13.4396 87.2156 13.6816 86.6877 13.6816H85.6291Z" fill="white"/>
</g>
</g>
<defs>
<clipPath id="clip0_19952_31484">
<rect width="104" height="26" fill="white" transform="translate(12 8)"/>
</clipPath>
</defs>
</svg>
