<svg width="110" height="38" viewBox="0 0 110 38" fill="none" xmlns="http://www.w3.org/2000/svg">
<rect x="0.5" y="0.5" width="109" height="37" rx="18.5" fill="white"/>
<rect x="0.5" y="0.5" width="109" height="37" rx="18.5" stroke="#1A1F28"/>
<g clip-path="url(#clip0_19952_31906)">
<mask id="mask0_19952_31906" style="mask-type:luminance" maskUnits="userSpaceOnUse" x="12" y="8" width="86" height="22">
<path d="M98 8H12V29.9986H98V8Z" fill="white"/>
</mask>
<g mask="url(#mask0_19952_31906)">
<path d="M22.9492 8.13232C23.0297 9.24838 22.6975 10.3538 22.0233 11.2138C21.7005 11.6405 21.2908 11.9838 20.8249 12.2178C20.3592 12.4518 19.8495 12.5704 19.3343 12.5648C19.3014 12.0281 19.3684 11.4898 19.5315 10.9806C19.6945 10.4715 19.9504 10.0014 20.2845 9.59741C20.9678 8.77039 21.9192 8.24728 22.9492 8.13232Z" fill="#1A1F28"/>
<path d="M24.8287 16.2554C24.4863 16.8962 24.3021 17.6187 24.2932 18.3556C24.294 19.1844 24.5245 19.9946 24.9557 20.6852C25.387 21.3758 26.0001 21.9162 26.7184 22.2391C26.436 23.214 26.0103 24.1355 25.457 24.9691C24.714 26.1502 23.9349 27.3041 22.6984 27.3254C22.1103 27.3399 21.7134 27.1601 21.2997 26.9729C20.8683 26.7776 20.4186 26.5741 19.7151 26.5741C18.9689 26.5741 18.4992 26.7841 18.0461 26.9868C17.6546 27.1618 17.2756 27.3313 16.7414 27.3548C15.5638 27.4012 14.6639 26.0943 13.8938 24.9243C12.3547 22.5349 11.1563 18.1907 12.763 15.2347C13.1339 14.5265 13.6711 13.9324 14.3224 13.5104C14.9736 13.0883 15.7166 12.8528 16.479 12.8266C17.1468 12.812 17.7877 13.0855 18.3496 13.3253C18.7793 13.5087 19.1628 13.6724 19.4768 13.6724C19.7529 13.6724 20.1256 13.5152 20.5601 13.332C21.2445 13.0433 22.0819 12.6902 22.9352 12.7854C23.5892 12.8071 24.2294 12.9906 24.805 13.3212C25.3806 13.6519 25.8757 14.1206 26.251 14.6901C25.6602 15.0761 25.1709 15.6145 24.8287 16.2554Z" fill="#1A1F28"/>
<path d="M65.7558 26.1022C64.3977 26.1022 63.4038 25.3884 63.2894 24.3013L61.709 24.3012C61.8088 26.2841 63.3535 27.5384 65.6413 27.5384C68.0866 27.5384 69.624 26.2539 69.624 24.2029C69.624 22.5995 68.7446 21.696 66.6279 21.1641L65.4912 20.8675C64.1616 20.5184 63.6179 20.0623 63.6179 19.2873C63.6179 18.3148 64.469 17.6467 65.7128 17.6467C66.9565 17.6467 67.8075 18.3071 67.9008 19.4011H69.4593C69.4091 17.5096 67.9146 16.2104 65.7347 16.2104C63.532 16.2104 61.9808 17.5096 61.9808 19.4011C61.9808 20.9288 62.8603 21.8701 64.7547 22.3564L66.0916 22.6987C67.4287 23.0478 67.9934 23.5572 67.9934 24.4081C67.9934 25.3884 67.0571 26.1022 65.7558 26.1022Z" fill="#1A1F28"/>
<path fill-rule="evenodd" clip-rule="evenodd" d="M34.9244 24.395H38.8568L39.8004 27.358H41.4943L37.7696 16.3955H36.0391L32.3145 27.358H33.9801L34.9244 24.395ZM38.4487 23.0277H35.3317L36.8692 18.2189H36.9122L38.4487 23.0277Z" fill="#1A1F28"/>
<path fill-rule="evenodd" clip-rule="evenodd" d="M46.4013 27.439C48.2891 27.439 49.5402 25.8434 49.5402 23.3596C49.5402 20.8828 48.2818 19.2793 46.3729 19.2793C45.8908 19.2627 45.4135 19.3854 44.9917 19.6343C44.57 19.883 44.2196 20.2487 43.9779 20.6923H43.9495V19.3629H42.4551V29.9995H43.999V26.0408H44.0347C44.2658 26.4864 44.6103 26.854 45.0289 27.1012C45.4474 27.3486 45.923 27.4657 46.4013 27.439ZM45.9656 20.6776C47.1663 20.6776 47.9533 21.7415 47.9533 23.3596C47.9533 24.9925 47.1664 26.0485 45.9656 26.0485C44.786 26.0485 43.9925 24.97 43.9925 23.3596C43.9925 21.7639 44.786 20.6776 45.9656 20.6776Z" fill="#1A1F28"/>
<path fill-rule="evenodd" clip-rule="evenodd" d="M57.8175 23.3596C57.8175 25.8434 56.5666 27.439 54.6786 27.439C54.2004 27.4656 53.7247 27.3486 53.3062 27.1012C52.8877 26.854 52.5432 26.4864 52.3121 26.0407H52.2764V29.9995H50.7324V19.3629H52.2268V20.6922H52.2553C52.4969 20.2487 52.8473 19.883 53.269 19.6343C53.6908 19.3854 54.1681 19.2627 54.6502 19.2793C56.5592 19.2793 57.8175 20.8828 57.8175 23.3596ZM56.2307 23.3596C56.2307 21.7415 55.4437 20.6776 54.243 20.6776C53.0633 20.6776 52.2699 21.7639 52.2699 23.3596C52.2699 24.97 53.0633 26.0485 54.243 26.0485C55.4437 26.0485 56.2307 24.9925 56.2307 23.3596Z" fill="#1A1F28"/>
<path d="M72.9573 17.4731V19.3646H74.3876V20.6638H72.9573V25.07C72.9573 25.7545 73.2437 26.0735 73.8724 26.0735C74.0423 26.0703 74.2118 26.0576 74.3804 26.0355V27.3269C74.0976 27.383 73.8103 27.4084 73.5228 27.4028C72 27.4028 71.4061 26.795 71.4061 25.245V20.6638H70.3125V19.3646H71.4061V17.4731H72.9573Z" fill="#1A1F28"/>
<path fill-rule="evenodd" clip-rule="evenodd" d="M78.7861 19.2646C76.6126 19.2646 75.2188 20.8448 75.2188 23.3596C75.2188 25.8812 76.5987 27.4546 78.7861 27.4546C80.9741 27.4546 82.3542 25.8812 82.3542 23.3596C82.3542 20.8448 80.9668 19.2646 78.7861 19.2646ZM78.7861 20.6164C80.0371 20.6164 80.781 21.6346 80.781 23.3596C80.781 25.0916 80.0371 26.102 78.7861 26.102C77.535 26.102 76.7919 25.0916 76.7919 23.3596C76.7919 21.6423 77.535 20.6164 78.7861 20.6164Z" fill="#1A1F28"/>
<path d="M83.623 19.3628H85.0956V20.7232H85.1313C85.2309 20.2983 85.4652 19.9229 85.7946 19.6599C86.1241 19.3969 86.5287 19.2625 86.9405 19.2792C87.1184 19.2786 87.2959 19.2991 87.4695 19.3404V20.875C87.2448 20.8021 87.0106 20.7685 86.7757 20.7758C86.5515 20.7662 86.3279 20.8081 86.1203 20.899C85.9127 20.9898 85.7261 21.1273 85.5733 21.302C85.4204 21.4767 85.305 21.6845 85.2349 21.911C85.1648 22.1376 85.1416 22.3777 85.167 22.6147V27.3553H83.623V19.3628Z" fill="#1A1F28"/>
<path fill-rule="evenodd" clip-rule="evenodd" d="M91.349 27.4546C93.0501 27.4546 94.3799 26.4589 94.5877 25.0079H93.1218C92.9848 25.3691 92.7419 25.6736 92.429 25.8762C92.1152 26.0786 91.7497 26.1684 91.3846 26.1321C91.107 26.1429 90.8303 26.0909 90.5729 25.9795C90.3156 25.8679 90.0835 25.6996 89.8921 25.4854C89.7008 25.2713 89.5544 25.0164 89.4629 24.7376C89.3714 24.4588 89.3367 24.1624 89.3612 23.8682V23.7691H94.6737V23.207C94.6737 20.7837 93.3654 19.2646 91.2841 19.2646C89.1681 19.2646 87.8027 20.8905 87.8027 23.3975C87.8027 25.8968 89.1609 27.4546 91.349 27.4546ZM93.1289 22.6225H89.3686C89.3679 22.3554 89.4171 22.0907 89.5132 21.8438C89.6093 21.597 89.7505 21.3728 89.9285 21.1841C90.1067 20.9955 90.3181 20.8464 90.5508 20.745C90.7834 20.6437 91.0326 20.5924 91.2841 20.594C91.5332 20.5883 91.7808 20.6374 92.0117 20.7382C92.2419 20.8391 92.4505 20.9894 92.6233 21.1799C92.7969 21.3704 92.9314 21.5969 93.0182 21.8452C93.105 22.0933 93.1425 22.358 93.1289 22.6225Z" fill="#1A1F28"/>
<path d="M34.8974 10.3686H34.2345V11.0837H34.9185C35.6089 11.0837 36.004 11.4053 36.004 11.9273C36.004 12.442 35.5845 12.8071 34.942 12.8071C34.2994 12.8071 33.8638 12.482 33.8191 11.9781H33.0801C33.1023 12.212 33.1686 12.4387 33.2751 12.6447C33.3816 12.8507 33.526 13.0319 33.6998 13.1773C33.8735 13.3228 34.0731 13.4296 34.2865 13.4913C34.4999 13.5531 34.7228 13.5686 34.942 13.5368C35.1607 13.5657 35.3826 13.5479 35.5948 13.4844C35.8069 13.421 36.005 13.3132 36.1774 13.1673C36.3499 13.0215 36.4932 12.8405 36.599 12.6351C36.7047 12.4296 36.7708 12.2038 36.7934 11.9708C36.8053 11.6468 36.6961 11.3309 36.4894 11.0922C36.2829 10.8535 35.9957 10.7114 35.6908 10.6971V10.635C35.948 10.574 36.1778 10.4211 36.3416 10.2018C36.5055 9.98256 36.5937 9.7102 36.5913 9.43019C36.5913 8.59439 35.9041 8.01377 34.9282 8.01377C34.7166 7.98456 34.5017 8.00193 34.2968 8.06481C34.0919 8.12768 33.9014 8.23471 33.737 8.37922C33.5727 8.52374 33.4382 8.70265 33.3417 8.90482C33.2453 9.10699 33.1891 9.32808 33.1766 9.55434H33.9043C33.9175 9.4297 33.954 9.30913 34.0118 9.19974C34.0696 9.09036 34.1474 8.99438 34.2406 8.91748C34.3338 8.84057 34.4406 8.7843 34.5547 8.75198C34.6688 8.71966 34.7877 8.71196 34.9046 8.72931C35.488 8.72931 35.832 9.04312 35.832 9.52891C35.827 9.65098 35.7983 9.77064 35.7477 9.88033C35.697 9.99003 35.6255 10.0874 35.5378 10.1663C35.4499 10.2452 35.3477 10.3039 35.2375 10.3387C35.1273 10.3735 35.0115 10.3837 34.8974 10.3686Z" fill="#1A1F28"/>
<path fill-rule="evenodd" clip-rule="evenodd" d="M39.0281 11.096C38.1389 11.1546 37.6367 11.5671 37.6367 12.2827C37.6374 12.4504 37.671 12.6162 37.7356 12.7693C37.8003 12.9224 37.8943 13.0594 38.0119 13.1715C38.1293 13.2836 38.2676 13.3683 38.4177 13.4201C38.5679 13.4719 38.7267 13.4897 38.8837 13.4723C39.1062 13.4833 39.3275 13.4313 39.5249 13.3216C39.7223 13.212 39.8888 13.0486 40.0074 12.8482H40.0657V13.4068H40.7773V10.6908C40.7773 9.85111 40.2483 9.35498 39.3105 9.35498C38.4618 9.35498 37.8566 9.79292 37.7812 10.4757H38.4959C38.5787 10.1947 38.8634 10.0339 39.2756 10.0339C39.781 10.0339 40.0415 10.271 40.0415 10.6908V11.0339L39.0281 11.096ZM40.0415 11.6107V11.943C40.0334 12.0684 40.0018 12.1908 39.9484 12.3029C39.8949 12.4151 39.8208 12.5146 39.7304 12.5957C39.64 12.6768 39.5352 12.7377 39.4223 12.7749C39.3093 12.812 39.1904 12.8247 39.0728 12.812C38.6711 12.812 38.379 12.6038 38.379 12.246C38.379 11.8956 38.6127 11.7094 39.1279 11.6727L40.0415 11.6107Z" fill="#1A1F28"/>
<path d="M42.7324 10.0949V13.4097H41.9941V9.43457H44.4572V10.0949L42.7324 10.0949Z" fill="#1A1F28"/>
<path fill-rule="evenodd" clip-rule="evenodd" d="M47.3893 13.4752C48.3337 13.4752 48.9348 12.6833 48.9348 11.4204C48.9348 10.1569 48.3337 9.36856 47.3821 9.36858C47.1425 9.36232 46.9061 9.42652 46.6988 9.55408C46.4915 9.68165 46.3214 9.86762 46.2073 10.0915H46.1521V9.43451H45.4414V14.7313H46.1797V12.8075H46.2381C46.3502 13.0238 46.5181 13.2015 46.7221 13.3198C46.926 13.4381 47.1575 13.492 47.3893 13.4752ZM47.176 10.0733C47.8015 10.0733 48.1755 10.5807 48.1755 11.4204C48.1755 12.2635 47.8015 12.7708 47.1727 12.7708C46.5545 12.7708 46.1659 12.2523 46.1659 11.4238C46.1659 10.5914 46.5545 10.0733 47.176 10.0733Z" fill="#1A1F28"/>
<path d="M49.9185 14.8335V14.158C49.9983 14.1688 50.0788 14.1737 50.1594 14.1727C50.3167 14.185 50.4728 14.1353 50.5976 14.0329C50.7225 13.9305 50.8074 13.7827 50.836 13.6179L50.8912 13.4244L49.5371 9.43457H50.3411L51.279 12.592H51.3375L52.2721 9.43457H53.055L51.6604 13.5739C51.3407 14.5412 50.987 14.8516 50.2243 14.8516C50.1627 14.8516 49.9874 14.8442 49.9185 14.8335Z" fill="#1A1F28"/>
<path d="M54.3659 12.282H53.6309C53.699 13.0851 54.3627 13.4829 55.1797 13.483C56.1038 13.483 56.709 12.983 56.709 12.2273C56.7113 12.0089 56.6381 11.7971 56.5032 11.6322C56.3683 11.4674 56.1811 11.3609 55.9771 11.3329V11.2708C56.1484 11.2276 56.3006 11.1231 56.4081 10.975C56.5156 10.8269 56.572 10.644 56.5678 10.457C56.5678 9.78544 56.0592 9.35827 55.1699 9.35827C54.8297 9.30843 54.4846 9.4025 54.2089 9.62022C53.9332 9.83795 53.749 10.1619 53.6958 10.5225H54.4073C54.4552 10.2087 54.757 10.0225 55.1699 10.0225C55.6234 10.0225 55.8433 10.2453 55.8433 10.5372C55.8433 10.8695 55.6162 11.0518 55.1699 11.0518H54.6199V11.6613H55.1797C55.7022 11.6613 55.9732 11.8441 55.9732 12.2273C55.9732 12.5851 55.6714 12.8153 55.1797 12.8153C54.7473 12.8153 54.4381 12.6325 54.3659 12.282Z" fill="#1A1F28"/>
<path d="M57.7676 13.4097V9.43457H58.4994V12.1687H58.5577L60.2818 9.43458H61.0136V13.4097H60.2818V10.6609H60.2266L58.4994 13.4097L57.7676 13.4097Z" fill="#1A1F28"/>
<path d="M63.8683 10.0949H65.0463V9.43457H61.9512V10.0949H63.1292V13.4097H63.8683V10.0949Z" fill="#1A1F28"/>
<path fill-rule="evenodd" clip-rule="evenodd" d="M69.0221 12.3336C68.9215 12.6969 68.704 13.0111 68.4075 13.2213C68.1111 13.4315 67.7546 13.5243 67.4003 13.4836C67.1539 13.4906 66.9089 13.4404 66.6825 13.3366C66.4561 13.2329 66.2537 13.078 66.0893 12.8828C65.9249 12.6876 65.8024 12.4567 65.7304 12.2061C65.6583 11.9556 65.6385 11.6914 65.6722 11.4318C65.6394 11.1715 65.6596 10.9067 65.7314 10.6554C65.8033 10.4041 65.9252 10.1722 66.0887 9.97524C66.2522 9.77831 66.4537 9.62103 66.6794 9.51402C66.9052 9.40703 67.1499 9.3528 67.397 9.35505C68.438 9.35505 69.0667 10.1107 69.0667 11.359V11.6327H66.4251V11.6767C66.4135 11.8226 66.4306 11.9695 66.4755 12.1079C66.5204 12.2464 66.5921 12.3733 66.6859 12.4806C66.7798 12.5878 66.8936 12.673 67.0203 12.7307C67.147 12.7884 67.2836 12.8173 67.4214 12.8155C67.5979 12.8379 67.7766 12.8041 67.9349 12.7183C68.0933 12.6325 68.2241 12.4986 68.3106 12.3336L69.0221 12.3336ZM66.4251 11.0525H68.3138C68.3231 10.9192 68.3061 10.7852 68.2638 10.6593C68.2215 10.5334 68.155 10.4182 68.0683 10.3212C67.9817 10.2243 67.8769 10.1476 67.7608 10.0962C67.6446 10.0448 67.5196 10.0198 67.3938 10.0228C67.2661 10.0209 67.1393 10.0463 67.021 10.0974C66.9026 10.1485 66.7951 10.2243 66.7048 10.3203C66.6145 10.4163 66.5433 10.5305 66.4952 10.6563C66.4471 10.7821 66.4233 10.9168 66.4251 11.0525Z" fill="#1A1F28"/>
<path fill-rule="evenodd" clip-rule="evenodd" d="M73.8409 9.43457H72.1543V13.4097H73.858C74.679 13.4097 75.1699 12.9571 75.1699 12.2635C75.1725 12.0309 75.091 11.8061 74.9421 11.6356C74.7932 11.4651 74.5884 11.3618 74.3699 11.3471V11.285C74.5499 11.2432 74.7108 11.137 74.8259 10.9841C74.9409 10.8313 75.003 10.6411 75.0019 10.4454C75.0019 9.82855 74.5727 9.43457 73.8409 9.43457ZM72.8861 11.0661V10.0368L73.6998 10.0367C74.0917 10.0367 74.2775 10.2376 74.2775 10.5475C74.2775 10.8838 74.0641 11.0661 73.6179 11.0661H72.8861ZM72.8861 12.8075V11.6428L73.669 11.6429C74.1672 11.6429 74.4316 11.8291 74.4316 12.2269C74.4316 12.6028 74.198 12.8075 73.7615 12.8075H72.8861Z" fill="#1A1F28"/>
</g>
</g>
<defs>
<clipPath id="clip0_19952_31906">
<rect width="86" height="22" fill="white" transform="translate(12 8)"/>
</clipPath>
</defs>
</svg>
