<svg width="110" height="38" viewBox="0 0 110 38" fill="none" xmlns="http://www.w3.org/2000/svg">
<rect x="0.5" y="0.5" width="109" height="37" rx="18.5" fill="white"/>
<rect x="0.5" y="0.5" width="109" height="37" rx="18.5" stroke="#1A1F28"/>
<g clip-path="url(#clip0_19952_31875)">
<mask id="mask0_19952_31875" style="mask-type:luminance" maskUnits="userSpaceOnUse" x="12" y="8" width="86" height="22">
<path d="M98 8H12V29.9986H98V8Z" fill="white"/>
</mask>
<g mask="url(#mask0_19952_31875)">
<path fill-rule="evenodd" clip-rule="evenodd" d="M44.7687 11.1267C44.7692 11.8314 44.5431 12.4367 44.0959 12.9247C43.6484 13.4148 43.0838 13.6619 42.4202 13.6613C41.7564 13.6619 41.1916 13.4148 40.7451 12.9247C40.297 12.4364 40.0717 11.8314 40.0723 11.1267C40.0717 10.422 40.297 9.8167 40.7451 9.32843C41.1916 8.83828 41.7564 8.59094 42.4202 8.5918C43.0806 8.59094 43.6435 8.83977 44.093 9.3318C44.5425 9.82195 44.7692 10.426 44.7687 11.1267ZM41.2706 12.4214C40.9576 12.0831 40.8012 11.6575 40.8004 11.1267C40.8012 10.5959 40.9576 10.1703 41.2706 9.83198C41.5863 9.49372 41.9632 9.3278 42.4202 9.32686C42.8768 9.3278 43.2549 9.49372 43.5698 9.83198C43.8835 10.1703 44.0397 10.5959 44.0405 11.1267C44.0397 11.6575 43.8835 12.0831 43.5698 12.4214C43.2549 12.7597 42.8768 12.9256 42.4202 12.9266C41.9632 12.9256 41.5863 12.7596 41.2706 12.4214Z" fill="#1A1F28"/>
<path fill-rule="evenodd" clip-rule="evenodd" d="M35.5682 12.821C35.9073 12.4972 36.0853 11.9468 36.0856 11.1513L36.0853 11.1005V8.69629H39.1875V12.821H39.6817V14.5534H38.9902V13.5554H35.781V14.5534H35.0898V12.821H35.5682ZM36.801 11.0989L36.8016 11.1641C36.8016 11.8265 36.6823 12.3805 36.4404 12.821H38.4709V9.43072H36.801V11.0989Z" fill="#1A1F28"/>
<path d="M48.5823 13.4271C48.2677 13.5836 47.9242 13.6613 47.5566 13.6613C46.8887 13.6619 46.3197 13.4182 45.8664 12.9357C45.4109 12.4536 45.1827 11.8443 45.1836 11.1267C45.1827 10.4091 45.4109 9.79984 45.8664 9.31801C46.3197 8.83523 46.8887 8.59117 47.5566 8.5918C48.2411 8.59094 48.8096 8.8585 49.2381 9.38752L49.2836 9.44348L49.2335 9.49497L48.7791 9.96247L48.7284 9.89507C48.4405 9.51488 48.0577 9.32812 47.5566 9.32686C47.0904 9.32781 46.7064 9.49129 46.3874 9.82343C46.0704 10.1547 45.9123 10.5824 45.9116 11.1267C45.9123 11.671 46.0702 12.0993 46.3871 12.43C46.7061 12.7621 47.0904 12.9256 47.5566 12.9265C48.068 12.9256 48.4961 12.7117 48.861 12.2705L48.9128 12.2074L49.4115 12.7377L49.3686 12.7925C49.1592 13.06 48.897 13.2722 48.5823 13.4271Z" fill="#1A1F28"/>
<path d="M51.687 9.43073V13.5554H50.9705V9.43073H49.7344V8.69629H52.9231V9.43073H51.687Z" fill="#1A1F28"/>
<path d="M55.003 11.3051L56.0357 8.69727H56.8663L55.1452 12.7745C54.9102 13.3515 54.5348 13.6639 54.0459 13.6614C53.8978 13.6614 53.7419 13.6234 53.578 13.5503L53.5178 13.5233L53.5357 13.4566L53.7093 12.8024L53.7912 12.8514C53.8765 12.9025 53.9615 12.9267 54.0517 12.9267C54.1745 12.927 54.2612 12.9007 54.315 12.8593C54.3704 12.818 54.4332 12.7292 54.4917 12.5917L54.6383 12.2495L53.1152 8.69727H53.9462L55.003 11.3051Z" fill="#1A1F28"/>
<path d="M57.3242 13.5554V8.69629H60.6736V13.5554H59.9571V9.43073H58.0399V13.5554H57.3242Z" fill="#1A1F28"/>
<path d="M61.5391 13.5554V8.69629H62.2551V10.7123H64.3204V8.69629H65.037V13.5554H64.3204V11.4339H62.2551V13.5554H61.5391Z" fill="#1A1F28"/>
<path fill-rule="evenodd" clip-rule="evenodd" d="M70.3195 11.1267C70.3202 11.8314 70.0942 12.4367 69.6467 12.9247C69.1994 13.4148 68.6349 13.6619 67.971 13.6613C67.3071 13.6619 66.7427 13.4148 66.2958 12.9247C65.8478 12.4364 65.6225 11.8314 65.623 11.1267C65.6225 10.422 65.8478 9.8167 66.2958 9.32843C66.7427 8.83828 67.3071 8.59094 67.971 8.5918C68.6314 8.59094 69.1944 8.83977 69.6439 9.3318C70.0934 9.82195 70.3202 10.426 70.3195 11.1267ZM66.3512 11.1267C66.3521 11.6575 66.5085 12.0831 66.8214 12.4214C67.137 12.7597 67.5143 12.9256 67.971 12.9266C68.4278 12.9256 68.8058 12.7597 69.1206 12.4214C69.4344 12.0831 69.5908 11.6575 69.5915 11.1267C69.5908 10.5959 69.4344 10.1703 69.1206 9.83198C68.8058 9.49372 68.4278 9.3278 67.971 9.32686C67.5143 9.3278 67.137 9.49372 66.8214 9.83198C66.5085 10.1703 66.3521 10.5959 66.3512 11.1267Z" fill="#1A1F28"/>
<path fill-rule="evenodd" clip-rule="evenodd" d="M75.0037 11.0392C75.1797 11.1258 75.3299 11.2535 75.4504 11.4191C75.6001 11.6249 75.6768 11.8683 75.6761 12.1374C75.6768 12.5418 75.533 12.888 75.2527 13.1541C74.9747 13.4207 74.6397 13.5561 74.2606 13.5554H72.5V8.69629H74.1743C74.5364 8.69566 74.8574 8.82576 75.1228 9.08079C75.3914 9.33676 75.5286 9.66859 75.5278 10.0553C75.5278 10.2919 75.4688 10.5066 75.3508 10.6905C75.2598 10.8343 75.143 10.9508 75.0037 11.0392ZM73.2155 12.821H74.2857C74.4871 12.8197 74.639 12.7494 74.7622 12.6036C74.8883 12.453 74.9466 12.2968 74.9473 12.1239C74.9466 11.9522 74.8868 11.7981 74.757 11.6488C74.6302 11.5058 74.4715 11.4347 74.2606 11.4339H73.2155V12.821ZM73.2155 10.7123H74.1743C74.3727 10.7113 74.5195 10.6458 74.6361 10.5114C74.7556 10.3715 74.8109 10.2273 74.8116 10.0684C74.8109 9.90896 74.757 9.7657 74.6412 9.62854C74.5291 9.49656 74.389 9.43198 74.1994 9.43073H73.2155V10.7123Z" fill="#1A1F28"/>
<path d="M83.5196 26.8024H84.896V17.0047H83.5196V26.8024ZM95.9169 20.534L94.3386 24.7818H94.2916L92.6544 20.534H91.1715L93.6267 26.4711L92.2268 29.7735H93.6633L97.4473 20.534H95.9169ZM88.1112 25.6895C87.6597 25.6895 87.0313 25.4501 87.0313 24.8575C87.0313 24.1012 87.8147 23.8113 88.4903 23.8113C89.0959 23.8113 89.3799 23.95 89.7479 24.1393C89.641 25.0467 88.9055 25.6895 88.1112 25.6895ZM88.2771 20.3197C87.2806 20.3197 86.2488 20.7863 85.8216 21.8199L87.0432 22.3617C87.3043 21.8199 87.7903 21.6432 88.3008 21.6432C89.0126 21.6432 89.7362 22.0972 89.7479 22.9039V23.0046C89.4986 22.8534 88.9653 22.6265 88.3125 22.6265C86.9959 22.6265 85.655 23.3952 85.655 24.8323C85.655 26.1432 86.7348 26.9878 87.9445 26.9878C88.8702 26.9878 89.3799 26.5467 89.7007 26.03H89.7479V26.7861H91.0763V23.0297C91.0763 21.2905 89.8549 20.3197 88.2771 20.3197ZM79.7712 21.7267H77.8135V18.3683H79.7712C80.8001 18.3683 81.3843 19.2735 81.3843 20.0475C81.3843 20.8068 80.8001 21.7267 79.7712 21.7267ZM79.7357 17.0047H76.4379V26.8024H77.8135V23.0904H79.7357C81.2611 23.0904 82.7606 21.9168 82.7606 20.0475C82.7606 18.1782 81.2611 17.0047 79.7357 17.0047ZM61.7523 25.6914C60.8015 25.6914 60.0054 24.8455 60.0054 23.6836C60.0054 22.5096 60.8015 21.6509 61.7523 21.6509C62.6911 21.6509 63.4277 22.5096 63.4277 23.6836C63.4277 24.8455 62.6911 25.6914 61.7523 25.6914ZM63.3326 21.0827H63.2851C62.9763 20.6913 62.3819 20.3378 61.6334 20.3378C60.0647 20.3378 58.627 21.8023 58.627 23.6836C58.627 25.5523 60.0647 27.0044 61.6334 27.0044C62.3819 27.0044 62.9763 26.6508 63.2851 26.247H63.3326V26.7267C63.3326 28.0022 62.6911 28.6839 61.6572 28.6839C60.8136 28.6839 60.2906 28.0398 60.0765 27.497L58.8766 28.0272C59.2211 28.9111 60.1362 29.997 61.6572 29.997C63.2733 29.997 64.6399 28.9867 64.6399 26.5246V20.5399H63.3326V21.0827ZM65.5904 26.8024H66.9689V17.0044H65.5904V26.8024ZM69.0009 23.57C68.9653 22.2821 69.9397 21.6257 70.6407 21.6257C71.1877 21.6257 71.6509 21.9159 71.8051 22.333L69.0009 23.57ZM73.2788 22.459C73.0177 21.7138 72.2211 20.3378 70.5931 20.3378C68.977 20.3378 67.6344 21.6888 67.6344 23.6711C67.6344 25.5398 68.9653 27.0044 70.7475 27.0044C72.1856 27.0044 73.0177 26.07 73.3622 25.5272L72.2926 24.7695C71.9363 25.3251 71.4488 25.6914 70.7475 25.6914C70.0465 25.6914 69.5476 25.3504 69.2265 24.6813L73.4212 22.8378L73.2788 22.459ZM39.8594 21.3606V22.7747H43.0441C42.949 23.57 42.6994 24.1508 42.3191 24.5549C41.8558 25.0475 41.1309 25.5903 39.8594 25.5903C37.8987 25.5903 36.3658 23.911 36.3658 21.8277C36.3658 19.7444 37.8987 18.065 39.8594 18.065C40.9171 18.065 41.6892 18.507 42.2597 19.0752L43.1985 18.0778C42.4024 17.2696 41.3447 16.6509 39.8594 16.6509C37.1738 16.6509 34.916 18.9742 34.916 21.8277C34.916 24.6813 37.1738 27.0044 39.8594 27.0044C41.3092 27.0044 42.4024 26.4996 43.2579 25.5523C44.1372 24.618 44.4107 23.3049 44.4107 22.2445C44.4107 21.9159 44.387 21.6131 44.3391 21.3606H39.8594ZM48.0313 25.6914C47.0804 25.6914 46.2604 24.858 46.2604 23.6711C46.2604 22.4716 47.0804 21.6509 48.0313 21.6509C48.9817 21.6509 49.8017 22.4716 49.8017 23.6711C49.8017 24.858 48.9817 25.6914 48.0313 25.6914ZM48.0313 20.3378C46.2961 20.3378 44.882 21.7393 44.882 23.6711C44.882 25.5903 46.2961 27.0044 48.0313 27.0044C49.766 27.0044 51.1801 25.5903 51.1801 23.6711C51.1801 21.7393 49.766 20.3378 48.0313 20.3378ZM54.9007 25.6914C53.9502 25.6914 53.1301 24.858 53.1301 23.6711C53.1301 22.4716 53.9502 21.6509 54.9007 21.6509C55.8512 21.6509 56.6712 22.4716 56.6712 23.6711C56.6712 24.858 55.8512 25.6914 54.9007 25.6914ZM54.9007 20.3378C53.1656 20.3378 51.7518 21.7393 51.7518 23.6711C51.7518 25.5903 53.1656 27.0044 54.9007 27.0044C56.6355 27.0044 58.0496 25.5903 58.0496 23.6711C58.0496 21.7393 56.6355 20.3378 54.9007 20.3378Z" fill="#1A1F28"/>
<path d="M12.3962 28.6715L12.3414 28.6157C12.1267 28.3744 12 27.9997 12 27.5145V27.6287V10.2957V10.4105C12 9.88505 12.1477 9.48927 12.3953 9.25195L21.534 18.962L12.3962 28.6715Z" fill="url(#paint0_linear_19952_31875)"/>
<path d="M24.5819 22.204L21.5352 18.9662L24.5815 15.729L28.2595 17.9492C28.7265 18.2311 28.9887 18.5946 29.0325 18.9659C29.0325 18.9662 29.0325 18.9669 29.0325 18.9674C28.9887 19.3379 28.7265 19.7016 28.2595 19.9835L24.5819 22.204Z" fill="url(#paint1_linear_19952_31875)"/>
<path d="M13.0476 28.9302C12.7923 28.9306 12.5696 28.842 12.3959 28.6755L21.5337 18.9658L24.5803 22.2035L13.8739 28.6672C13.5777 28.8458 13.2971 28.9302 13.0476 28.9302ZM12.3933 28.7882C12.3771 28.7726 12.3613 28.7561 12.3457 28.7389L12.3933 28.7882Z" fill="url(#paint2_linear_19952_31875)"/>
<path d="M21.5352 18.9637L12.3965 9.25367C12.5702 9.08744 12.7926 8.99927 13.0476 8.99927C13.2978 8.99927 13.5786 9.08407 13.8754 9.26284L24.5816 15.7265L21.5352 18.9637ZM13.8754 9.14841C13.5786 8.96957 13.2978 8.88477 13.0476 8.88477C13.0465 8.88477 13.0456 8.88477 13.0445 8.88477C13.0459 8.88477 13.0471 8.88477 13.0488 8.88477C13.2983 8.88477 13.5789 8.96957 13.8754 9.14841Z" fill="url(#paint3_linear_19952_31875)"/>
<path d="M12.3944 28.7922L12.3921 28.7901C12.3929 28.7907 12.3938 28.7916 12.3944 28.7922ZM12.3445 28.7408L12.3398 28.7359C12.3416 28.7378 12.343 28.7392 12.3445 28.7408Z" fill="#1A1F28"/>
<path d="M13.0467 29.0451C12.7914 29.0451 12.5684 28.9566 12.3946 28.7901C12.3941 28.7894 12.3929 28.7889 12.3921 28.7883L12.3445 28.739C12.343 28.7374 12.3416 28.7356 12.3398 28.7338L12.3946 28.6756C12.5684 28.8421 12.7911 28.9306 13.0464 28.9303C13.2958 28.9303 13.5765 28.8458 13.8727 28.6673L24.5791 22.2036L24.6478 22.2766L24.5782 22.3184L13.8727 28.7819C13.6028 28.9444 13.346 29.0292 13.1141 29.0433C13.0913 29.0445 13.0688 29.0451 13.0467 29.0451Z" fill="url(#paint4_linear_19952_31875)"/>
<path d="M12.3414 28.7311C12.1267 28.4898 12 28.1154 12 27.6299V27.5156C12 28.0009 12.1267 28.3756 12.3414 28.6169L12.3962 28.6727L12.3414 28.7311Z" fill="url(#paint5_linear_19952_31875)"/>
<path d="M24.6506 22.2758L24.582 22.2029L28.2596 19.9825C28.7267 19.7005 28.9889 19.3368 29.0327 18.9663C29.0327 19.1023 29.0042 19.2382 28.9475 19.3705C28.8331 19.6371 28.6037 19.889 28.2596 20.0969L24.6506 22.2758Z" fill="url(#paint6_linear_19952_31875)"/>
<path d="M29.0291 18.9636C28.9853 18.5923 28.7231 18.2288 28.256 17.9468L24.5781 15.7267L24.6467 15.6538L28.256 17.8327C28.7709 18.1437 29.0288 18.5536 29.0291 18.9636Z" fill="url(#paint7_linear_19952_31875)"/>
<path d="M12 10.4132V10.2987V10.2944V10.2935C12 10.2503 12.0011 10.208 12.0032 10.1671V10.1652L12.0034 10.1634V10.1597V10.1587C12.0256 9.74083 12.1477 9.41477 12.3414 9.19712L12.3953 9.25465C12.1477 9.49198 12 9.88779 12 10.4132ZM12.3938 9.14233L12.3959 9.14014L12.3938 9.14233Z" fill="url(#paint8_linear_19952_31875)"/>
<path d="M24.5789 15.728L13.8727 9.2643C13.5759 9.08553 13.295 9.00073 13.0449 9.00073C12.7899 9.00073 12.5675 9.0889 12.3938 9.25513L12.3398 9.19761C12.3569 9.17864 12.3741 9.16022 12.3923 9.14282C12.3929 9.14219 12.3938 9.14157 12.3944 9.14094C12.5667 8.97597 12.7868 8.8878 13.0395 8.88623C13.04 8.88623 13.0409 8.88623 13.0417 8.88623C13.0429 8.88623 13.0437 8.88623 13.0449 8.88623C13.295 8.88623 13.5759 8.97102 13.8727 9.14988L24.6478 15.6549L24.5789 15.728Z" fill="url(#paint9_linear_19952_31875)"/>
</g>
</g>
<defs>
<linearGradient id="paint0_linear_19952_31875" x1="20.7237" y1="10.1128" x2="7.59483" y2="22.4689" gradientUnits="userSpaceOnUse">
<stop stop-color="#00A0FF"/>
<stop offset="0.00657445" stop-color="#00A1FF"/>
<stop offset="0.2601" stop-color="#00BEFF"/>
<stop offset="0.5122" stop-color="#00D2FF"/>
<stop offset="0.7604" stop-color="#00DFFF"/>
<stop offset="1" stop-color="#00E3FF"/>
</linearGradient>
<linearGradient id="paint1_linear_19952_31875" x1="29.6016" y1="18.9667" x2="11.7539" y2="18.9667" gradientUnits="userSpaceOnUse">
<stop stop-color="#FFE000"/>
<stop offset="0.4087" stop-color="#FFBD00"/>
<stop offset="0.7754" stop-color="#FFA500"/>
<stop offset="1" stop-color="#FF9C00"/>
</linearGradient>
<linearGradient id="paint2_linear_19952_31875" x1="22.9562" y1="20.7647" x2="5.15255" y2="37.5204" gradientUnits="userSpaceOnUse">
<stop stop-color="#FF3A44"/>
<stop offset="1" stop-color="#C31162"/>
</linearGradient>
<linearGradient id="paint3_linear_19952_31875" x1="10.0278" y1="3.42653" x2="17.9779" y2="10.9086" gradientUnits="userSpaceOnUse">
<stop stop-color="#32A071"/>
<stop offset="0.0685" stop-color="#2DA771"/>
<stop offset="0.4762" stop-color="#15CF74"/>
<stop offset="0.8009" stop-color="#06E775"/>
<stop offset="1" stop-color="#00F076"/>
</linearGradient>
<linearGradient id="paint4_linear_19952_31875" x1="22.955" y1="20.7648" x2="5.15135" y2="37.5205" gradientUnits="userSpaceOnUse">
<stop stop-color="#CC2E36"/>
<stop offset="1" stop-color="#9C0E4E"/>
</linearGradient>
<linearGradient id="paint5_linear_19952_31875" x1="20.7237" y1="10.1128" x2="7.59407" y2="22.4688" gradientUnits="userSpaceOnUse">
<stop stop-color="#008DE0"/>
<stop offset="0.00657445" stop-color="#008DE0"/>
<stop offset="0.2601" stop-color="#00A7E0"/>
<stop offset="0.5122" stop-color="#00B8E0"/>
<stop offset="0.7604" stop-color="#00C4E0"/>
<stop offset="1" stop-color="#00C7E0"/>
</linearGradient>
<linearGradient id="paint6_linear_19952_31875" x1="29.6018" y1="18.9656" x2="11.7541" y2="18.9656" gradientUnits="userSpaceOnUse">
<stop stop-color="#E0C500"/>
<stop offset="0.4087" stop-color="#E0A600"/>
<stop offset="0.7754" stop-color="#E09100"/>
<stop offset="1" stop-color="#E08900"/>
</linearGradient>
<linearGradient id="paint7_linear_19952_31875" x1="29.5981" y1="18.9644" x2="11.7505" y2="18.9644" gradientUnits="userSpaceOnUse">
<stop stop-color="#FFE840"/>
<stop offset="0.4087" stop-color="#FFCE40"/>
<stop offset="0.7754" stop-color="#FFBC40"/>
<stop offset="1" stop-color="#FFB540"/>
</linearGradient>
<linearGradient id="paint8_linear_19952_31875" x1="20.7237" y1="10.1156" x2="7.59406" y2="22.4715" gradientUnits="userSpaceOnUse">
<stop stop-color="#40B8FF"/>
<stop offset="0.00657445" stop-color="#40B9FF"/>
<stop offset="0.2601" stop-color="#40CEFF"/>
<stop offset="0.5122" stop-color="#40DDFF"/>
<stop offset="0.7604" stop-color="#40E7FF"/>
<stop offset="1" stop-color="#40EAFF"/>
</linearGradient>
<linearGradient id="paint9_linear_19952_31875" x1="10.0251" y1="3.42799" x2="17.9752" y2="10.9101" gradientUnits="userSpaceOnUse">
<stop stop-color="#65B895"/>
<stop offset="0.0685" stop-color="#62BD95"/>
<stop offset="0.4762" stop-color="#50DB97"/>
<stop offset="0.8009" stop-color="#44ED98"/>
<stop offset="1" stop-color="#40F498"/>
</linearGradient>
<clipPath id="clip0_19952_31875">
<rect width="86" height="22" fill="white" transform="translate(12 8)"/>
</clipPath>
</defs>
</svg>
