<svg width="24" height="24" viewBox="0 0 24 24" fill="none" xmlns="http://www.w3.org/2000/svg">
<path d="M11.2305 5.85274L11.7497 6.78308C12.2182 7.62267 12.0301 8.72407 11.2922 9.46205C11.2922 9.46205 10.397 10.3572 12.02 11.9802C13.643 13.6032 14.5381 12.708 14.5381 12.708C15.2761 11.9701 16.3775 11.782 17.2171 12.2505L18.1475 12.7697C19.4152 13.4773 19.565 15.2552 18.4506 16.3696C17.781 17.0392 16.9607 17.5602 16.0539 17.5946C14.5274 17.6524 11.935 17.2661 9.33455 14.6656C6.73409 12.0652 6.34776 9.47278 6.40563 7.94627C6.44001 7.03948 6.96103 6.21919 7.63064 5.54959C8.74499 4.43523 10.5229 4.58495 11.2305 5.85274Z" stroke="#1A1F28" stroke-width="1.5" stroke-linecap="round"/>
</svg>
