<svg width="152" height="48" viewBox="0 0 152 48" fill="none" xmlns="http://www.w3.org/2000/svg">
<ellipse cx="23.7215" cy="16.7936" rx="4.25862" ry="4.32925" fill="#006FFD"/>
<path d="M35.2158 18.0258C34.9173 23.3578 32.6438 27.8755 29.6761 31.612C27.8757 33.9702 25.8676 36.1172 23.7902 37.7363C23.4094 37.7363 20.3625 34.9909 18.4583 32.3863C16.0693 29.3945 14.0265 26.1564 12.7109 21.44C10.495 12.9575 16.7271 6.47133 23.721 6.72755C27.8054 6.87718 30.761 8.40776 32.6537 10.6696C34.3324 12.6759 35.3967 14.7929 35.2158 18.0258ZM14.6844 17.6035C14.6844 24.3261 20.8473 31.8935 23.721 34.7093C27.6333 30.6616 29.6069 28.6906 32.2728 21.8271C33.0433 19.2246 33.0655 16.6002 32.2036 14.4357C31.8649 13.5852 31.4535 12.8132 30.8187 12.1479C29.3846 10.5584 27.5295 9.22654 23.721 9.15614C21.2281 9.11007 18.5041 9.8953 16.5194 12.3591C15.5169 13.6037 14.7784 15.2676 14.6844 17.6035Z" fill="#006FFD"/>
<path d="M15.8613 22.0382L19.6006 21.2639L23.7207 21.0879L29.3989 21.4399L31.6494 22.0382L31.1646 23.4109L28.4641 22.6718L23.7207 22.4606L19.6006 22.6718L16.4845 23.4109L15.8613 22.0382Z" fill="#006FFD"/>
<path d="M15.8965 22.1086L16.2081 21.8622L17.2122 21.5806L18.8394 21.3342L21.0207 21.1934L22.5095 21.123H23.7213H25.0369L26.1795 21.1934L27.599 21.2638L29.0878 21.4046L30.819 21.6862L31.3037 21.8622L31.7191 22.1086L31.1306 23.5165L30.819 23.1997L29.0878 22.8477L27.599 22.7069L26.1795 22.5661L23.7213 22.5309H22.5095L21.0207 22.6013L18.8394 22.7773L16.7967 23.1997L16.4505 23.5165L15.8965 22.1086Z" fill="#006FFD"/>
<path d="M34.4883 26.0572C34.4883 25.2759 35.1216 24.6426 35.9029 24.6426H36.4369C37.0434 24.6426 37.5351 25.1342 37.5351 25.7407C37.5351 26.1451 37.2073 26.4728 36.803 26.4728H34.4883V26.0572Z" fill="#006FFD"/>
<path d="M34.7592 25.9956L35.2317 26.7438L34.4767 27.2365L33.9696 26.4378L34.7592 25.9956Z" fill="#006FFD"/>
<path d="M34.9102 26.3433H36.0873L36.9124 26.4729L35.8737 26.5785L35.4582 26.6489L35.1525 26.8008L34.9102 26.3433Z" fill="#006FFD"/>
<path d="M33.9693 26.4375L35.0426 27.8102L35.7697 28.6549L36.0813 29.0773L36.3236 29.5349L36.4967 29.9572L36.6699 30.802L36.7045 31.8227L35.2503 32.4914V31.6467V31.1891L35.2157 30.7668L35.1464 30.4148L34.9733 30.0628L34.8002 29.7812L34.4886 29.3941L34.1078 28.9717L33.7615 28.5845L33.4845 28.2326L33.2422 27.8806L33.9693 26.4375Z" fill="#006FFD"/>
<rect x="35.9434" y="33.1602" width="1.45416" height="6.33549" fill="#006FFD"/>
<rect x="32.4805" y="40.7632" width="1.47828" height="3.46229" transform="rotate(-90 32.4805 40.7632)" fill="#006FFD"/>
<path d="M35.25 32.4915L36.7042 31.8228L37.0158 32.1395L37.1889 32.3507L37.2581 32.5267L37.3274 32.7027L37.3966 32.9491V33.1602H35.9425L35.25 32.4915Z" fill="#006FFD"/>
<path d="M36.3562 38.666L37.3965 39.4958L37.2581 39.9182L37.0504 40.1997L36.7734 40.4109L36.5656 40.5517L36.4272 40.6221L36.2887 40.6925L36.1502 40.7549L35.934 40.7549L35.7521 39.405L36.3562 38.666Z" fill="#006FFD"/>
<path d="M34.4883 26.0572C34.4883 25.2759 35.1216 24.6426 35.9029 24.6426H36.4369C37.0434 24.6426 37.5351 25.1342 37.5351 25.7407C37.5351 26.1451 37.2073 26.4728 36.803 26.4728H34.4883V26.0572Z" fill="#006FFD"/>
<path d="M34.9102 26.3433H36.0873L36.9124 26.4729L35.8737 26.5785L35.4582 26.6489L35.1525 26.8008L34.9102 26.3433Z" fill="#006FFD"/>
<path d="M33.9693 26.4375L35.0426 27.8102L35.7697 28.6549L36.0813 29.0773L36.3236 29.5349L36.4967 29.9572L36.6699 30.802L36.7045 31.8227L35.2503 32.4914V31.6467V31.1891L35.2157 30.7668L35.1464 30.4148L34.9733 30.0628L34.8002 29.7812L34.4886 29.3941L34.1078 28.9717L33.7615 28.5845L33.4845 28.2326L33.2422 27.8806L33.9693 26.4375Z" fill="#006FFD"/>
<rect x="35.9434" y="33.1602" width="1.45416" height="6.33549" fill="#006FFD"/>
<rect x="32.4805" y="40.7632" width="1.47828" height="3.46229" transform="rotate(-90 32.4805 40.7632)" fill="#006FFD"/>
<path d="M35.25 32.4915L36.7042 31.8228L37.0158 32.1395L37.1889 32.3507L37.2581 32.5267L37.3274 32.7027L37.3966 32.9491V33.1602H35.9425L35.25 32.4915Z" fill="#006FFD"/>
<path d="M36.3562 38.666L37.3965 39.4958L37.2581 39.9182L37.0504 40.1997L36.7734 40.4109L36.5656 40.5517L36.4272 40.6221L36.2887 40.6925L36.1502 40.7549L35.934 40.7549L35.7521 39.405L36.3562 38.666Z" fill="#006FFD"/>
<path d="M34.4883 26.0572C34.4883 25.2759 35.1216 24.6426 35.9029 24.6426H36.4369C37.0434 24.6426 37.5351 25.1342 37.5351 25.7407C37.5351 26.1451 37.2073 26.4728 36.803 26.4728H34.4883V26.0572Z" fill="#006FFD"/>
<path d="M34.9102 26.3433H36.0873L36.9124 26.4729L35.8737 26.5785L35.4582 26.6489L35.1525 26.8008L34.9102 26.3433Z" fill="#006FFD"/>
<path d="M33.9693 26.4375L35.0426 27.8102L35.7697 28.6549L36.0813 29.0773L36.3236 29.5349L36.4967 29.9572L36.6699 30.802L36.7045 31.8227L35.2503 32.4914V31.6467V31.1891L35.2157 30.7668L35.1464 30.4148L34.9733 30.0628L34.8002 29.7812L34.4886 29.3941L34.1078 28.9717L33.7615 28.5845L33.4845 28.2326L33.2422 27.8806L33.9693 26.4375Z" fill="#006FFD"/>
<rect x="35.9434" y="33.1602" width="1.45416" height="6.33549" fill="#006FFD"/>
<rect x="32.4805" y="40.7632" width="1.47828" height="3.46229" transform="rotate(-90 32.4805 40.7632)" fill="#006FFD"/>
<path d="M35.25 32.4915L36.7042 31.8228L37.0158 32.1395L37.1889 32.3507L37.2581 32.5267L37.3274 32.7027L37.3966 32.9491V33.1602H35.9425L35.25 32.4915Z" fill="#006FFD"/>
<path d="M36.3562 38.666L37.3965 39.4958L37.2581 39.9182L37.0504 40.1997L36.7734 40.4109L36.5656 40.5517L36.4272 40.6221L36.2887 40.6925L36.1502 40.7549L35.934 40.7549L35.7521 39.405L36.3562 38.666Z" fill="#006FFD"/>
<path d="M34.4883 26.0572C34.4883 25.2759 35.1216 24.6426 35.9029 24.6426H36.4369C37.0434 24.6426 37.5351 25.1342 37.5351 25.7407C37.5351 26.1451 37.2073 26.4728 36.803 26.4728H34.4883V26.0572Z" fill="#006FFD"/>
<path d="M34.9102 26.3433H36.0873L36.9124 26.4729L35.8737 26.5785L35.4582 26.6489L35.1525 26.8008L34.9102 26.3433Z" fill="#006FFD"/>
<path d="M33.9693 26.4375L35.0426 27.8102L35.7697 28.6549L36.0813 29.0773L36.3236 29.5349L36.4967 29.9572L36.6699 30.802L36.7045 31.8227L35.2503 32.4914V31.6467V31.1891L35.2157 30.7668L35.1464 30.4148L34.9733 30.0628L34.8002 29.7812L34.4886 29.3941L34.1078 28.9717L33.7615 28.5845L33.4845 28.2326L33.2422 27.8806L33.9693 26.4375Z" fill="#006FFD"/>
<rect x="35.9434" y="33.1602" width="1.45416" height="6.33549" fill="#006FFD"/>
<rect x="32.4805" y="40.7632" width="1.47828" height="3.46229" transform="rotate(-90 32.4805 40.7632)" fill="#006FFD"/>
<path d="M35.25 32.4915L36.7042 31.8228L37.0158 32.1395L37.1889 32.3507L37.2581 32.5267L37.3274 32.7027L37.3966 32.9491V33.1602H35.9425L35.25 32.4915Z" fill="#006FFD"/>
<path d="M36.3562 38.666L37.3965 39.4958L37.2581 39.9182L37.0504 40.1997L36.7734 40.4109L36.5656 40.5517L36.4272 40.6221L36.2887 40.6925L36.1502 40.7549L35.934 40.7549L35.7521 39.405L36.3562 38.666Z" fill="#006FFD"/>
<path d="M34.5137 26.0751C34.5137 25.2839 35.155 24.6426 35.9462 24.6426H36.5009C37.1074 24.6426 37.5991 25.1342 37.5991 25.7407C37.5991 26.1451 37.2713 26.4728 36.867 26.4728H34.5137V26.0751Z" fill="#006FFD"/>
<path d="M34.7889 25.9956L35.2674 26.7438L34.5028 27.2365L33.9893 26.4378L34.7889 25.9956Z" fill="#006FFD"/>
<path d="M34.9414 26.3433H36.1335L36.969 26.4729L35.9172 26.5785L35.4964 26.6489L35.1868 26.8008L34.9414 26.3433Z" fill="#006FFD"/>
<path d="M33.9882 26.4375L35.0752 27.8102L35.8115 28.6549L36.127 29.0773L36.3724 29.5349L36.5477 29.9572L36.7231 30.802L36.7581 31.8227L35.2855 32.4914V31.6467V31.1891L35.2505 30.7668L35.1803 30.4148L35.005 30.0628L34.8297 29.7812L34.5142 29.3941L34.1285 28.9717L33.7779 28.5845L33.4974 28.2326L33.252 27.8806L33.9882 26.4375Z" fill="#006FFD"/>
<rect x="35.9863" y="33.1602" width="1.47259" height="6.33549" fill="#006FFD"/>
<rect x="32.4805" y="40.7627" width="1.47828" height="3.50616" transform="rotate(-90 32.4805 40.7627)" fill="#006FFD"/>
<path d="M35.2852 32.4915L36.7577 31.8228L37.0733 32.1395L37.2486 32.3507L37.3187 32.5267L37.3889 32.7027L37.459 32.9491V33.1602H35.9864L35.2852 32.4915Z" fill="#006FFD"/>
<path d="M36.4052 38.666L37.4587 39.4958L37.3185 39.9182L37.1082 40.1997L36.8277 40.4109L36.6173 40.5517L36.4771 40.6221L36.3368 40.6925L36.1966 40.7549L35.9777 40.7549L35.7934 39.405L36.4052 38.666Z" fill="#006FFD"/>
<path d="M34.5137 26.0751C34.5137 25.2839 35.155 24.6426 35.9462 24.6426H36.5009C37.1074 24.6426 37.5991 25.1342 37.5991 25.7407C37.5991 26.1451 37.2713 26.4728 36.867 26.4728H34.5137V26.0751Z" fill="#006FFD"/>
<path d="M34.9414 26.3433H36.1335L36.969 26.4729L35.9172 26.5785L35.4964 26.6489L35.1868 26.8008L34.9414 26.3433Z" fill="#006FFD"/>
<path d="M33.9882 26.4375L35.0752 27.8102L35.8115 28.6549L36.127 29.0773L36.3724 29.5349L36.5477 29.9572L36.7231 30.802L36.7581 31.8227L35.2855 32.4914V31.6467V31.1891L35.2505 30.7668L35.1803 30.4148L35.005 30.0628L34.8297 29.7812L34.5142 29.3941L34.1285 28.9717L33.7779 28.5845L33.4974 28.2326L33.252 27.8806L33.9882 26.4375Z" fill="#006FFD"/>
<rect x="35.9863" y="33.1602" width="1.47259" height="6.33549" fill="#006FFD"/>
<rect x="32.4805" y="40.7627" width="1.47828" height="3.50616" transform="rotate(-90 32.4805 40.7627)" fill="#006FFD"/>
<path d="M35.2852 32.4915L36.7577 31.8228L37.0733 32.1395L37.2486 32.3507L37.3187 32.5267L37.3889 32.7027L37.459 32.9491V33.1602H35.9864L35.2852 32.4915Z" fill="#006FFD"/>
<path d="M36.4052 38.666L37.4587 39.4958L37.3185 39.9182L37.1082 40.1997L36.8277 40.4109L36.6173 40.5517L36.4771 40.6221L36.3368 40.6925L36.1966 40.7549L35.9777 40.7549L35.7934 39.405L36.4052 38.666Z" fill="#006FFD"/>
<path d="M34.5137 26.0751C34.5137 25.2839 35.155 24.6426 35.9462 24.6426H36.5009C37.1074 24.6426 37.5991 25.1342 37.5991 25.7407C37.5991 26.1451 37.2713 26.4728 36.867 26.4728H34.5137V26.0751Z" fill="#006FFD"/>
<path d="M34.9414 26.3433H36.1335L36.969 26.4729L35.9172 26.5785L35.4964 26.6489L35.1868 26.8008L34.9414 26.3433Z" fill="#006FFD"/>
<path d="M33.9882 26.4375L35.0752 27.8102L35.8115 28.6549L36.127 29.0773L36.3724 29.5349L36.5477 29.9572L36.7231 30.802L36.7581 31.8227L35.2855 32.4914V31.6467V31.1891L35.2505 30.7668L35.1803 30.4148L35.005 30.0628L34.8297 29.7812L34.5142 29.3941L34.1285 28.9717L33.7779 28.5845L33.4974 28.2326L33.252 27.8806L33.9882 26.4375Z" fill="#006FFD"/>
<rect x="35.9863" y="33.1602" width="1.47259" height="6.33549" fill="#006FFD"/>
<rect x="32.4805" y="40.7627" width="1.47828" height="3.50616" transform="rotate(-90 32.4805 40.7627)" fill="#006FFD"/>
<path d="M35.2852 32.4915L36.7577 31.8228L37.0733 32.1395L37.2486 32.3507L37.3187 32.5267L37.3889 32.7027L37.459 32.9491V33.1602H35.9864L35.2852 32.4915Z" fill="#006FFD"/>
<path d="M36.4052 38.666L37.4587 39.4958L37.3185 39.9182L37.1082 40.1997L36.8277 40.4109L36.6173 40.5517L36.4771 40.6221L36.3368 40.6925L36.1966 40.7549L35.9777 40.7549L35.7934 39.405L36.4052 38.666Z" fill="#006FFD"/>
<path d="M34.5137 26.0751C34.5137 25.2839 35.155 24.6426 35.9462 24.6426H36.5009C37.1074 24.6426 37.5991 25.1342 37.5991 25.7407C37.5991 26.1451 37.2713 26.4728 36.867 26.4728H34.5137V26.0751Z" fill="#006FFD"/>
<path d="M34.9414 26.3433H36.1335L36.969 26.4729L35.9172 26.5785L35.4964 26.6489L35.1868 26.8008L34.9414 26.3433Z" fill="#006FFD"/>
<path d="M33.9882 26.4375L35.0752 27.8102L35.8115 28.6549L36.127 29.0773L36.3724 29.5349L36.5477 29.9572L36.7231 30.802L36.7581 31.8227L35.2855 32.4914V31.6467V31.1891L35.2505 30.7668L35.1803 30.4148L35.005 30.0628L34.8297 29.7812L34.5142 29.3941L34.1285 28.9717L33.7779 28.5845L33.4974 28.2326L33.252 27.8806L33.9882 26.4375Z" fill="#006FFD"/>
<rect x="35.9863" y="33.1602" width="1.47259" height="6.33549" fill="#006FFD"/>
<path d="M24.8633 38.0176L26.5252 36.5393H32.2033V38.0176H24.8633Z" fill="#006FFD"/>
<rect x="32.4805" y="40.7627" width="1.47828" height="3.50616" transform="rotate(-90 32.4805 40.7627)" fill="#006FFD"/>
<rect x="30.75" y="36.6099" width="1.45416" height="2.4638" fill="#006FFD"/>
<path d="M35.2852 32.4915L36.7577 31.8228L37.0733 32.1395L37.2486 32.3507L37.3187 32.5267L37.3889 32.7027L37.459 32.9491V33.1602H35.9864L35.2852 32.4915Z" fill="#006FFD"/>
<path d="M36.4052 38.666L37.4587 39.4958L37.3185 39.9182L37.1082 40.1997L36.8277 40.4109L36.6173 40.5517L36.4771 40.6221L36.3368 40.6925L36.1966 40.7549L35.9777 40.7549L35.7934 39.405L36.4052 38.666Z" fill="#006FFD"/>
<path d="M32.5155 39.2846L32.5155 40.7629L32.1692 40.7277L31.8576 40.6573L31.5114 40.4813L31.2344 40.1997L31.0573 39.9556L30.9228 39.7422L30.8535 39.6014L30.7843 39.4254L30.7497 39.2846L30.7497 39.0734L32.2039 39.0734L32.2732 39.2142L32.4116 39.2846L32.5155 39.2846Z" fill="#006FFD"/>
<rect width="1.47828" height="3.46229" transform="matrix(0 -1 -1 0 15.0996 40.7632)" fill="#006FFD"/>
<rect width="1.47828" height="3.46229" transform="matrix(0 -1 -1 0 15.0996 40.7632)" fill="#006FFD"/>
<rect width="1.47828" height="3.46229" transform="matrix(0 -1 -1 0 15.0996 40.7632)" fill="#006FFD"/>
<rect width="1.47828" height="3.46229" transform="matrix(0 -1 -1 0 15.0996 40.7632)" fill="#006FFD"/>
<path d="M13.0664 26.0751C13.0664 25.2839 12.425 24.6426 11.6339 24.6426H11.0791C10.4726 24.6426 9.98098 25.1342 9.98098 25.7407C9.98098 26.1451 10.3087 26.4728 10.7131 26.4728H13.0664V26.0751Z" fill="#006FFD"/>
<path d="M12.7931 25.9956L12.3147 26.7438L13.0792 27.2365L13.5927 26.4378L12.7931 25.9956Z" fill="#006FFD"/>
<path d="M12.6387 26.3433H11.4466L10.6111 26.4729L11.6629 26.5785L12.0836 26.6489L12.3932 26.8008L12.6387 26.3433Z" fill="#006FFD"/>
<path d="M13.5918 26.4375L12.5049 27.8102L11.7686 28.6549L11.4531 29.0773L11.2076 29.5349L11.0323 29.9572L10.857 30.802L10.822 31.8227L12.2945 32.4914V31.6467L12.2945 31.1891L12.3296 30.7668L12.3997 30.4148L12.575 30.0628L12.7503 29.7812L13.0659 29.3941L13.4516 28.9717L13.8022 28.5845L14.0827 28.2326L14.3281 27.8806L13.5918 26.4375Z" fill="#006FFD"/>
<rect width="1.47259" height="6.33549" transform="matrix(-1 0 0 1 11.5938 33.1602)" fill="#006FFD"/>
<rect width="1.47828" height="3.50617" transform="matrix(0 -1 -1 0 15.0996 40.7627)" fill="#006FFD"/>
<path d="M12.2949 32.4915L10.8223 31.8228L10.5068 32.1395L10.3315 32.3507L10.2613 32.5267L10.1912 32.7027L10.1211 32.9491V33.1602H11.5937L12.2949 32.4915Z" fill="#006FFD"/>
<path d="M11.1748 38.666L10.1214 39.4958L10.2615 39.9182L10.4719 40.1997L10.7524 40.4109L10.9628 40.5517L11.103 40.6221L11.2433 40.6925L11.3835 40.7549L11.6024 40.7549L11.7867 39.405L11.1748 38.666Z" fill="#006FFD"/>
<path d="M13.0664 26.0751C13.0664 25.2839 12.425 24.6426 11.6339 24.6426H11.0791C10.4726 24.6426 9.98098 25.1342 9.98098 25.7407C9.98098 26.1451 10.3087 26.4728 10.7131 26.4728H13.0664V26.0751Z" fill="#006FFD"/>
<path d="M12.6387 26.3433H11.4466L10.6111 26.4729L11.6629 26.5785L12.0836 26.6489L12.3932 26.8008L12.6387 26.3433Z" fill="#006FFD"/>
<path d="M13.5918 26.4375L12.5049 27.8102L11.7686 28.6549L11.4531 29.0773L11.2076 29.5349L11.0323 29.9572L10.857 30.802L10.822 31.8227L12.2945 32.4914V31.6467L12.2945 31.1891L12.3296 30.7668L12.3997 30.4148L12.575 30.0628L12.7503 29.7812L13.0659 29.3941L13.4516 28.9717L13.8022 28.5845L14.0827 28.2326L14.3281 27.8806L13.5918 26.4375Z" fill="#006FFD"/>
<rect width="1.47259" height="6.33549" transform="matrix(-1 0 0 1 11.5938 33.1602)" fill="#006FFD"/>
<rect width="1.47828" height="3.50617" transform="matrix(0 -1 -1 0 15.0996 40.7627)" fill="#006FFD"/>
<path d="M12.2949 32.4915L10.8223 31.8228L10.5068 32.1395L10.3315 32.3507L10.2613 32.5267L10.1912 32.7027L10.1211 32.9491V33.1602H11.5937L12.2949 32.4915Z" fill="#006FFD"/>
<path d="M11.1748 38.666L10.1214 39.4958L10.2615 39.9182L10.4719 40.1997L10.7524 40.4109L10.9628 40.5517L11.103 40.6221L11.2433 40.6925L11.3835 40.7549L11.6024 40.7549L11.7867 39.405L11.1748 38.666Z" fill="#006FFD"/>
<path d="M13.0664 26.0751C13.0664 25.2839 12.425 24.6426 11.6339 24.6426H11.0791C10.4726 24.6426 9.98098 25.1342 9.98098 25.7407C9.98098 26.1451 10.3087 26.4728 10.7131 26.4728H13.0664V26.0751Z" fill="#006FFD"/>
<path d="M12.6387 26.3433H11.4466L10.6111 26.4729L11.6629 26.5785L12.0836 26.6489L12.3932 26.8008L12.6387 26.3433Z" fill="#006FFD"/>
<path d="M13.5918 26.4375L12.5049 27.8102L11.7686 28.6549L11.4531 29.0773L11.2076 29.5349L11.0323 29.9572L10.857 30.802L10.822 31.8227L12.2945 32.4914V31.6467L12.2945 31.1891L12.3296 30.7668L12.3997 30.4148L12.575 30.0628L12.7503 29.7812L13.0659 29.3941L13.4516 28.9717L13.8022 28.5845L14.0827 28.2326L14.3281 27.8806L13.5918 26.4375Z" fill="#006FFD"/>
<rect width="1.47259" height="6.33549" transform="matrix(-1 0 0 1 11.5938 33.1602)" fill="#006FFD"/>
<rect width="1.47828" height="3.50617" transform="matrix(0 -1 -1 0 15.0996 40.7627)" fill="#006FFD"/>
<path d="M12.2949 32.4915L10.8223 31.8228L10.5068 32.1395L10.3315 32.3507L10.2613 32.5267L10.1912 32.7027L10.1211 32.9491V33.1602H11.5937L12.2949 32.4915Z" fill="#006FFD"/>
<path d="M11.1748 38.666L10.1214 39.4958L10.2615 39.9182L10.4719 40.1997L10.7524 40.4109L10.9628 40.5517L11.103 40.6221L11.2433 40.6925L11.3835 40.7549L11.6024 40.7549L11.7867 39.405L11.1748 38.666Z" fill="#006FFD"/>
<path d="M13.0664 26.0751C13.0664 25.2839 12.425 24.6426 11.6339 24.6426H11.0791C10.4726 24.6426 9.98098 25.1342 9.98098 25.7407C9.98098 26.1451 10.3087 26.4728 10.7131 26.4728H13.0664V26.0751Z" fill="#006FFD"/>
<path d="M12.6387 26.3433H11.4466L10.6111 26.4729L11.6629 26.5785L12.0836 26.6489L12.3932 26.8008L12.6387 26.3433Z" fill="#006FFD"/>
<path d="M13.5918 26.4375L12.5049 27.8102L11.7686 28.6549L11.4531 29.0773L11.2076 29.5349L11.0323 29.9572L10.857 30.802L10.822 31.8227L12.2945 32.4914V31.6467L12.2945 31.1891L12.3296 30.7668L12.3997 30.4148L12.575 30.0628L12.7503 29.7812L13.0659 29.3941L13.4516 28.9717L13.8022 28.5845L14.0827 28.2326L14.3281 27.8806L13.5918 26.4375Z" fill="#006FFD"/>
<rect width="1.47259" height="6.33549" transform="matrix(-1 0 0 1 11.5938 33.1602)" fill="#006FFD"/>
<path d="M22.7168 38.0176L21.0549 36.5393H15.3767V38.0176H22.7168Z" fill="#006FFD"/>
<rect width="1.47828" height="3.50617" transform="matrix(0 -1 -1 0 15.0996 40.7627)" fill="#006FFD"/>
<rect width="1.45416" height="2.4638" transform="matrix(-1 0 0 1 16.8301 36.6099)" fill="#006FFD"/>
<path d="M12.2949 32.4915L10.8223 31.8228L10.5068 32.1395L10.3315 32.3507L10.2613 32.5267L10.1912 32.7027L10.1211 32.9491V33.1602H11.5937L12.2949 32.4915Z" fill="#006FFD"/>
<path d="M11.1748 38.666L10.1214 39.4958L10.2615 39.9182L10.4719 40.1997L10.7524 40.4109L10.9628 40.5517L11.103 40.6221L11.2433 40.6925L11.3835 40.7549L11.6024 40.7549L11.7867 39.405L11.1748 38.666Z" fill="#006FFD"/>
<path d="M15.0646 39.2846L15.0646 40.7629L15.4109 40.7277L15.7225 40.6573L16.0687 40.4813L16.3457 40.1997L16.5228 39.9556L16.6573 39.7422L16.7265 39.6014L16.7958 39.4254L16.8304 39.2846L16.8304 39.0734L15.3762 39.0734L15.3069 39.2142L15.1684 39.2846L15.0646 39.2846Z" fill="#006FFD"/>
<path d="M14.0875 30.3096C13.3906 30.2903 12.8153 30.85 12.8153 31.5471V31.8878C12.8153 32.8629 13.6057 33.6533 14.5808 33.6533H17.6214H17.9395V33.4422V33.1254L17.8688 32.8438L17.7274 32.4918L17.5861 32.2807L17.4094 32.1047L17.1267 31.9639L16.8439 31.7879L16.2785 31.3655L15.9251 31.0839L15.5364 30.7672L15.077 30.5208L14.8649 30.4152L14.5115 30.3448L14.0875 30.3096Z" fill="#006FFD"/>
<path d="M33.4926 30.3096C34.1895 30.2903 34.7648 30.85 34.7648 31.5471V31.8878C34.7648 32.8629 33.9744 33.6533 32.9993 33.6533H29.9587H29.6406V33.4422V33.1254L29.7113 32.8438L29.8527 32.4918L29.994 32.2807L30.1707 32.1047L30.4534 31.9639L30.7361 31.7879L31.3016 31.3655L31.655 31.0839L32.0437 30.7672L32.5031 30.5208L32.7151 30.4152L33.0685 30.3448L33.4926 30.3096Z" fill="#006FFD"/>
<path d="M138.446 19.8665H134.107V22.5284H138.136V24.6346H134.107V27.7608H138.446V29.8837H131.578V17.7603H138.446V19.8665Z" fill="#006FFD"/>
<path d="M128.568 29.8837H126.21V24.1454C126.21 23.7584 126.213 23.4516 126.219 23.2249C126.224 22.9983 126.262 22.0529 126.333 20.3889H126.259L123.184 29.8837H120.868L117.996 20.3723H117.923C118.026 22.2575 118.078 23.5483 118.078 24.2449V29.8837H115.818V17.7603H119.261L122.083 27.0311H122.132L125.126 17.7603H128.568V29.8837Z" fill="#006FFD"/>
<path d="M112.816 29.8837H110.287V17.7603H112.816V29.8837Z" fill="#006FFD"/>
<path d="M108.453 19.8997H105.214V29.8837H102.686V19.8997H99.4473V17.7603H108.453V19.8997Z" fill="#006FFD"/>
<path d="M98.6069 25.1131H94.2266V23.04H98.6069V25.1131Z" fill="#006FFD"/>
<path d="M82.8726 28.6228C81.8937 27.5447 81.4043 25.9968 81.4043 23.979C81.4043 21.9612 81.8937 20.4216 82.8726 19.3602C83.8569 18.2932 85.2626 17.7598 87.0898 17.7598C88.9224 17.7598 90.3254 18.296 91.2988 19.3685C92.2722 20.441 92.7589 21.9833 92.7589 23.9956C92.7589 26.0024 92.2695 27.5447 91.2907 28.6228C90.3118 29.7008 88.9088 30.2398 87.0816 30.2398C85.2544 30.2398 83.8514 29.7008 82.8726 28.6228ZM87.0979 19.8992C86.0919 19.8992 85.3333 20.2447 84.8221 20.9357C84.3109 21.6212 84.0553 22.6412 84.0553 23.9956C84.0553 26.721 85.0641 28.0838 87.0816 28.0838C89.0991 28.0838 90.1079 26.721 90.1079 23.9956C90.1079 21.2647 89.1046 19.8992 87.0979 19.8992Z" fill="#006FFD"/>
<path d="M80.0991 19.8997H76.8608V29.8837H74.3321V19.8997H71.0938V17.7603H80.0991V19.8997Z" fill="#006FFD"/>
<path d="M66.6956 29.8837H63.9385L59.8926 17.7603H62.4457L64.6889 24.9746C64.8249 25.4445 64.9554 25.9476 65.0805 26.4838C65.2055 27.0145 65.2871 27.4015 65.3252 27.6447C65.385 27.1306 65.5889 26.2406 65.937 24.9746L68.1965 17.7603H70.7496L66.6956 29.8837Z" fill="#006FFD"/>
<path d="M59.8853 29.9329H57.1608L56.288 27.0472H51.9485L51.0838 29.9329H48.3594L52.5684 17.7598H55.6599L59.8853 29.9329ZM55.6926 24.8912L54.3385 20.4548C54.2352 20.0899 54.1645 19.819 54.1264 19.6421C53.947 20.3442 53.4331 22.0939 52.5847 24.8912H55.6926Z" fill="#006FFD"/>
</svg>
