<svg width="24" height="24" viewBox="0 0 24 24" fill="none" xmlns="http://www.w3.org/2000/svg">
<path fill-rule="evenodd" clip-rule="evenodd" d="M18.0292 7.97032C18.1696 8.11094 18.2485 8.30157 18.2485 8.50032C18.2485 8.69907 18.1696 8.88969 18.0292 9.03032L11.0292 16.0303C10.8886 16.1708 10.6979 16.2497 10.4992 16.2497C10.3004 16.2497 10.1098 16.1708 9.96918 16.0303L5.96918 12.0303C5.89549 11.9617 5.83639 11.8789 5.7954 11.7869C5.7544 11.6949 5.73236 11.5955 5.73059 11.4948C5.72881 11.3941 5.74733 11.2941 5.78505 11.2007C5.82278 11.1073 5.87892 11.0225 5.95014 10.9513C6.02136 10.8801 6.10619 10.8239 6.19958 10.7862C6.29297 10.7485 6.393 10.7299 6.4937 10.7317C6.5944 10.7335 6.69372 10.7555 6.78571 10.7965C6.87771 10.8375 6.96052 10.8966 7.02918 10.9703L10.4992 14.4403L16.9692 7.97032C17.1098 7.82987 17.3004 7.75098 17.4992 7.75098C17.6979 7.75098 17.8886 7.82987 18.0292 7.97032Z" fill="#006FFD"/>
</svg>
