<svg width="60" height="43" viewBox="0 0 60 43" fill="none" xmlns="http://www.w3.org/2000/svg">
<path d="M5.04951 3.58203C5.04951 3.58203 5.84486 3.65756 5.97869 3.76637C6.03916 3.81534 6.04653 4.06145 6.03233 4.23459C6.12935 4.329 6.1304 4.38724 5.9971 4.42277C6.10148 4.52582 5.9971 4.70472 5.92532 4.66632C5.70183 5.01451 5.30008 4.87946 5.05004 4.65095C4.79973 4.42245 4.56704 4.08673 4.56704 4.08673L5.04951 3.58203Z" fill="#FFC9B6"/>
<path d="M11.3145 32.268L11.2621 32.0815C10.6571 32.3881 9.68221 32.7619 8.74645 32.4761C7.35952 32.0527 6.89204 31.2884 6.75006 30.7018C6.5618 29.9222 6.87468 28.9986 7.58748 28.2311C9.3667 26.315 8.54874 24.5568 7.60168 22.521C5.7094 18.4543 2.54771 9.35151 3.44455 5.72134C3.7619 4.43639 4.22018 3.64654 4.8065 3.37419C5.40913 3.09448 5.9384 3.4798 5.94366 3.48364L6.01439 3.34251C5.99073 3.32459 5.42307 2.91046 4.75786 3.21993C4.13026 3.51149 3.64464 4.33718 3.3144 5.67397C2.40573 9.35183 5.58135 18.5145 7.48336 22.6026C8.43936 24.6573 9.19448 26.2805 7.49755 28.1079C6.74427 28.9189 6.41614 29.9062 6.61991 30.7488C6.77319 31.3835 7.27722 32.1938 8.75776 32.6508C9.75872 32.9593 10.8801 32.5593 11.3145 32.268Z" fill="#77382C"/>
<path d="M5.96852 3.30336C6.26063 3.04669 6.69446 3.25728 6.87561 3.60228C7.0565 3.9476 7.39884 4.79665 7.39884 4.79665L11.668 9.43526L11.3816 9.93196L7.19533 5.32247C7.0636 5.5289 6.76571 5.94111 6.46834 5.98047C6.1502 6.02271 5.5105 5.28535 5.37141 4.92979C5.1963 4.48206 5.67667 3.56003 5.96852 3.30336ZM5.63986 4.8549C5.70349 5.03828 5.76238 5.07445 5.99402 5.34296C6.1736 5.5513 6.35081 5.73724 6.51461 5.61019C6.68604 5.47705 6.85589 5.1487 6.85589 5.1487L5.82706 4.05961C5.82706 4.05961 5.5268 4.5291 5.63986 4.8549Z" fill="#491D11"/>
<path d="M6.9375 5.04236L5.72042 3.71484L6.9375 5.04236Z" fill="#491D11"/>
<path d="M6.52111 22.8018C6.38202 22.4907 5.92768 22.5029 5.3545 22.7234C4.78132 22.9439 4.57046 23.0415 4.56178 23.2499C4.5531 23.4579 4.47949 24.0087 5.19359 23.9476C5.9077 23.8864 6.43355 23.4109 6.48088 23.2131C6.52821 23.0153 6.52111 22.8018 6.52111 22.8018Z" fill="#381509"/>
<path d="M1.20946 18.386C1.03094 17.5347 1.02857 16.4446 1.52182 15.8132C0.733568 14.8435 1.31516 13.0106 1.96301 12.0732C1.9567 12.0684 1.94934 12.0636 1.94303 12.0588C1.81472 11.9599 1.93409 11.71 2.0624 11.8105C2.45863 12.1216 3.22742 12.489 3.48062 12.9895C3.72462 13.4721 3.64653 14.333 3.67414 14.8825C3.75301 16.4497 3.49614 18.2016 2.54382 19.3086C2.4702 19.8514 2.10526 20.7706 1.78606 21.2637C1.74952 21.3204 0.530853 21.409 0.530327 20.534C0.530064 19.1294 0.880543 18.6554 1.20946 18.386Z" fill="#287F57"/>
<path d="M2.36886 14.1208C2.44669 13.8478 2.60707 13.3514 2.87342 13.2826C3.07692 13.2301 3.34248 13.4785 3.49682 13.5486C3.69822 13.6398 5.01995 13.6619 5.01311 13.6891C5.56552 14.805 6.13975 17.63 6.23414 19.6021C6.37796 20.4358 6.39637 22.2577 6.42187 23.1097C6.42424 23.1855 5.64203 24.6724 4.77069 23.5641C4.44966 22.9983 4.11627 21.1581 4.44835 20.6095C3.90277 20.1461 3.60014 18.9924 3.35273 18.3389C3.20339 17.9446 3.08718 17.5333 3.02881 17.1039C3.00646 16.9387 2.99541 16.7829 2.98332 16.6344C2.34967 16.0609 2.10567 15.0438 2.36886 14.1208Z" fill="#308C66"/>
<path d="M2.81983 2.63917C3.55707 2.72366 4.04691 3.0373 4.76154 3.30293C4.84936 3.33557 5.06101 3.36501 5.132 3.4335C5.24637 3.54391 5.23901 3.77754 5.18406 4.06109C5.13568 4.31168 5.00974 4.74213 4.72709 4.58723C4.52674 4.47746 3.83157 4.63556 3.17346 4.58403C3.0817 5.18922 2.90817 5.84818 2.74463 6.32631C2.64577 6.61499 2.15095 8.14604 2.02132 8.27501C1.07347 9.21784 0.649108 8.03403 0.485305 7.35907C0.117734 5.8453 1.13579 4.03453 1.77759 2.86352C1.90274 2.63501 2.51299 2.60397 2.81983 2.63917Z" fill="#308C66"/>
<path d="M5.16992 14.053C5.16992 14.053 4.79341 14.9168 3.33417 14.5311C2.2028 14.2322 1.78448 13.5397 1.78448 13.5397L1.90096 13.0234L5.0311 13.6053L5.16992 14.053Z" fill="#287F57"/>
<path d="M1.15262 6.52487C1.99503 5.12183 3.41747 6.5764 4.21492 7.18863C5.34787 8.05881 5.05602 9.90062 5.07653 10.5096C5.09914 11.1843 5.36312 11.5613 5.25479 11.8864C5.11412 12.3086 4.91272 12.4209 5.22087 12.7643C5.26925 12.8181 5.34813 12.909 5.26321 13.0431C5.1767 13.18 5.10308 13.2444 5.00869 13.3529C5.16435 13.4732 5.1767 13.7103 4.99634 13.8816C4.64402 14.2157 3.77163 14.3245 3.34279 14.1478C2.59082 13.838 1.81887 13.4127 1.55989 12.7979C1.44552 12.5268 1.52203 12.3822 1.53044 11.8967C1.53623 11.5706 1.5428 11.2592 1.40319 10.9673C0.881805 9.87854 0.411166 7.75989 1.15262 6.52487Z" fill="#3E9B77"/>
<path d="M7.79247 6.97406C7.79247 6.97406 7.63682 6.50745 7.55821 6.20982C7.47959 5.91218 7.7015 5.75792 8.04304 5.49869C8.2029 5.3774 8.43691 5.31915 8.42008 5.56814C8.53892 5.5259 8.64909 5.65135 8.58125 5.79441C8.67459 5.74288 8.81578 5.84273 8.77766 6.03027C8.84076 6.10644 8.90018 6.17493 8.81526 6.34103C8.63252 6.69851 8.36907 6.80636 8.18239 7.11392C8.00702 7.40323 7.79247 6.97406 7.79247 6.97406Z" fill="#FFC9B6"/>
<path d="M4.15098 7.18224C4.29059 7.172 4.82828 7.11376 5.17087 7.88024C5.66517 7.86648 6.10426 8.08059 6.42266 8.62369C6.53309 8.41982 6.87568 7.79767 7.13572 7.90809C7.17463 7.45171 7.27428 7.18224 7.46385 6.82028C7.60662 6.54761 7.78067 6.4484 8.0181 6.64138C8.31441 6.88173 8.41406 7.26097 8.19899 7.43987C8.24421 7.89721 8.07305 8.86724 7.97261 9.22984C7.70153 10.2082 6.85728 10.8387 5.75562 10.8409C4.74572 10.8428 3.7955 10.5932 3.43687 9.18855C3.26308 8.50688 3.47342 7.23217 4.15098 7.18224Z" fill="#308C66"/>
<path d="M2.03929 6.00221C2.20887 5.65113 2.27566 5.52663 2.31089 5.13331C2.31667 5.06802 3.51877 5.52631 3.46487 5.56856C3.52114 6.06269 3.76697 6.55395 3.91211 6.95656C3.61448 6.95656 3.41939 7.02088 3.0831 6.91079C2.81518 6.82342 2.38425 6.68581 2.16917 6.4525C2.07767 6.35393 1.97671 6.13118 2.03929 6.00221Z" fill="#FFB9A4"/>
<path d="M3.70514 2.73929C4.38849 3.14189 4.58279 4.35867 4.33327 5.23109C4.29121 5.46888 4.19603 5.68714 4.03223 5.85932C3.67202 6.23728 3.19086 5.95661 2.83328 5.7201C2.41733 5.44519 1.97088 5.04259 1.90752 4.42364C1.80734 3.44273 2.9395 2.28835 3.70514 2.73929Z" fill="#FFC9B6"/>
<path d="M2.91491 2.39315C2.95671 1.7566 3.78441 1.89966 3.96004 2.4034C4.06258 2.32019 4.20824 2.28498 4.26661 2.45204C4.27687 2.48148 4.27792 2.51029 4.27713 2.53877C4.60394 2.46996 4.95811 2.86425 4.85189 3.30686C4.70465 3.92037 3.91271 3.8218 3.49229 3.58081C3.60404 3.79011 3.63901 4.05734 3.52043 4.28297C3.3979 4.51628 3.17231 4.59501 2.98301 4.49387C2.9107 4.86704 2.68064 5.32981 2.27153 5.24212C1.75909 5.13235 1.28398 4.10119 1.9008 3.24413C1.9008 2.70711 2.4143 2.11376 2.91491 2.39315Z" fill="#381509"/>
<path d="M2.94727 4.91155C2.94727 4.91155 2.63333 4.50343 2.54841 4.94702C2.49056 5.24999 2.73561 5.40659 2.73561 5.40659L2.94727 4.91155Z" fill="#FFC9B6"/>
<path d="M4.875 13.4124C4.875 13.4124 4.59157 13.609 4.04863 13.609C3.50568 13.609 3.15178 13.3418 3.15178 13.3418C3.15178 13.3418 3.83381 13.4166 4.07124 13.4303C4.30866 13.4444 4.875 13.4124 4.875 13.4124Z" fill="#308C66"/>
<path d="M4.72656 12.8986C4.72656 12.8986 4.19335 12.8877 3.7143 12.6784C3.23524 12.4694 2.82324 11.7871 2.82324 11.7871C2.82324 11.7871 3.42245 12.3593 3.81237 12.5354C4.20229 12.7114 4.72656 12.8986 4.72656 12.8986Z" fill="#308C66"/>
<path d="M4.01303 7.02762C4.01303 7.02762 4.05405 6.5098 3.47851 6.31073C2.90296 6.11167 2.54038 6.0499 2.21567 5.61337C2.12102 5.48632 2.10524 5.6505 2.02111 5.82908C1.93697 6.00734 1.81418 6.17344 2.18465 6.58629C2.55511 6.99945 3.08385 7.08202 3.37938 7.10955C3.67517 7.13675 4.01303 7.02762 4.01303 7.02762Z" fill="#287F57"/>
<path d="M4.56005 23.2485C4.81482 23.5301 5.3107 23.4933 5.59413 23.4322C6.21753 23.2975 6.40842 23.0859 6.51937 22.8008C6.53173 23.1611 6.55671 23.55 6.52936 24.0688C6.49571 24.7082 6.40105 25.3441 6.40815 25.4276C6.76337 25.2798 7.09965 25.0433 7.40412 25.2686C7.72357 25.5051 7.74671 25.8619 7.67072 26.2143C7.5645 26.3807 7.36363 26.6335 7.0823 26.7987C6.68712 27.031 6.18493 27.1549 6.01113 27.1869C5.75715 27.3722 5.40009 27.5181 5.13612 27.3495C4.86451 27.176 4.72832 27.0307 4.80877 26.6649C4.94287 26.0549 4.87845 26.0207 4.70202 24.9985C4.60553 24.4362 4.51982 23.8729 4.56005 23.2485Z" fill="#491D11"/>
<path d="M0.202057 23.5497C0.0261593 22.5671 0.222829 20.8786 0.405562 20.3496C0.982422 20.3496 1.72913 20.5756 2.10854 20.9337C1.97655 21.5133 1.92869 21.6739 1.84429 22.0919C1.7967 22.3281 1.74017 22.5604 1.67681 22.7908C1.5811 23.14 1.60582 23.1474 1.90187 23.1374C2.35148 23.1224 2.76848 23.2274 2.76953 23.839C2.76979 23.991 2.48347 24.4218 2.36436 24.5078C1.72887 24.9677 1.33054 24.7556 1.07287 24.6787C0.853324 24.9095 0.337724 24.7063 0.0322037 24.3619C-0.0687602 24.2483 0.0921538 23.6902 0.202057 23.5497Z" fill="#491D11"/>
<path d="M5.3174 4.02603L5.58611 3.74023C5.58611 3.74023 5.82643 3.76392 5.94448 3.94474C5.99549 4.02251 6.00416 4.07691 5.97393 4.24173C6.01231 4.26381 5.98734 4.58609 5.92555 4.66578C5.95368 4.78803 5.88927 4.86388 5.84299 4.88308C5.71863 4.93461 5.59689 4.82004 5.52064 4.67058C5.4607 4.55313 5.53773 4.34894 5.60583 4.22957C5.57401 4.22509 5.53957 4.21805 5.50276 4.20589C5.36367 4.16044 5.3174 4.02603 5.3174 4.02603Z" fill="#FFC9B6"/>
<path d="M5.43945 20.2993C5.43945 20.2993 5.29353 20.5524 4.99589 20.6349C4.69852 20.7173 4.55129 20.6349 4.55129 20.6349C4.55129 20.6349 5.07188 20.2386 5.43945 20.2993Z" fill="#287F57"/>
<path d="M5.16211 19.6016C5.16211 19.6016 5.03485 19.9322 4.87368 20.0663C4.71251 20.2003 4.44958 20.3498 4.44958 20.3498C4.44958 20.3498 4.4998 20.1706 4.66176 19.9424C4.82267 19.7152 5.16211 19.6016 5.16211 19.6016Z" fill="#287F57"/>
<path d="M11.3722 9.55407C11.293 9.69117 11.2975 9.86023 11.3816 9.93246C11.466 10.0044 11.5985 9.95163 11.6777 9.81485C11.7568 9.67775 11.7526 9.50869 11.6682 9.43646C11.5838 9.36455 11.4513 9.41729 11.3722 9.55407Z" fill="#60281B"/>
<path d="M11.4551 9.82213C11.4298 9.7834 11.434 9.71172 11.4709 9.64835C11.5124 9.57634 11.5771 9.54466 11.6152 9.5773C11.6186 9.58018 14.8652 13.0289 14.8652 13.0289L14.7083 13.276C14.7083 13.276 11.459 9.82789 11.4559 9.82309L11.4551 9.82213Z" fill="#77382C"/>
<path d="M14.9219 12.767C14.9219 12.767 14.5351 12.4956 14.4018 12.5401C14.34 12.5609 14.2535 12.7049 14.2535 12.783C14.2535 13.0729 14.5338 13.3306 14.5338 13.3306L14.9219 12.767Z" fill="#60281B"/>
<path d="M14.5605 12.91C14.4638 13.0778 14.469 13.2852 14.5723 13.3731C14.6757 13.4613 14.8379 13.3968 14.9347 13.229C15.0314 13.0612 15.0262 12.8538 14.9228 12.7659C14.8195 12.678 14.6573 12.7423 14.5605 12.91Z" fill="#8E483F"/>
<path d="M0.777556 7.89062C0.777556 7.89062 1.01629 8.43917 1.90183 8.83313C2.45397 9.07892 3.15099 9.23318 3.15099 9.23318L3.16992 10.0842C3.16992 10.0842 2.45029 9.95134 1.78535 9.63322C1.38623 9.44216 1.01314 9.18069 0.793857 8.69168C0.706302 8.49645 0.777556 7.89062 0.777556 7.89062Z" fill="white"/>
<path d="M18.5306 12.3898C19.041 12.5555 20.0477 13.5937 20.3535 13.9183C20.0556 14.4918 19.5534 15.4141 19.4041 15.4138C19.1872 15.4131 18.4079 14.3637 18.1065 13.4468C17.963 13.0103 17.993 12.6589 18.121 12.4301C18.2396 12.3651 18.3763 12.3395 18.5306 12.3898Z" fill="#80B4FF"/>
<path d="M19.1827 12.1161C19.7417 12.463 20.8281 13.3924 20.8281 13.3924C20.8281 13.3924 20.4882 13.6599 20.3538 13.9188C20.048 13.5943 19.0413 12.5561 18.5309 12.3903C18.3769 12.3404 18.2401 12.366 18.1213 12.4306C18.2817 12.1439 18.8191 11.8904 19.1827 12.1161Z" fill="#94C5FF"/>
<path d="M50.393 21.7479L49.3783 20.9321L47.261 17.5768C47.261 17.5768 49.0828 16.9851 50.0293 17.981C50.9754 18.977 50.393 21.7479 50.393 21.7479Z" fill="#1F6CC9"/>
<path d="M31.3401 35.0311L28.068 32.3149L28.2082 30.86C28.2082 30.86 30.03 30.2683 30.9765 31.2642C31.9228 32.2605 31.3401 35.0311 31.3401 35.0311Z" fill="#1F6CC9"/>
<path d="M24.5085 38.0911C24.5085 35.7487 25.6786 33.0281 27.1218 32.0139C27.4864 31.7575 27.9195 31.626 28.2634 31.627C28.5332 31.6276 29.2225 31.6596 29.938 32.1976C30.7601 32.8162 30.8711 34.2215 30.8711 34.2215L27.9355 41.5612C27.9355 41.5612 26.99 42.1261 26.0188 41.4786C25.4143 41.0757 25.0496 40.41 24.8835 40.0414C24.8106 39.8794 24.7002 39.5539 24.6673 39.431C24.5648 39.0502 24.5085 38.6012 24.5085 38.0911Z" fill="#381509"/>
<path d="M26.7698 41.5783C25.6163 40.9808 25.3846 38.4848 26.2522 36.0033C27.1198 33.5218 28.7581 31.9945 29.9115 32.592C31.065 33.1895 31.2967 35.6855 30.4291 38.167C29.5615 40.6485 27.9232 42.1758 26.7698 41.5783Z" fill="#4C2011"/>
<path d="M30.4531 35.6332C30.4531 37.4856 29.5279 39.6372 28.3865 40.4392C27.2452 41.2412 26.3199 40.3899 26.3199 38.5375C26.3199 36.6851 27.2452 34.5335 28.3865 33.7315C29.5279 32.9295 30.4531 33.7808 30.4531 35.6332Z" fill="#B3DDFF"/>
<path d="M28.4585 34.1168C27.4333 34.8372 26.6025 36.7699 26.6025 38.4334C26.6025 40.0973 27.4336 40.8619 28.4585 40.1415C29.4836 39.4211 30.3145 37.4884 30.3145 35.8248C30.3145 34.1613 29.4836 33.3964 28.4585 34.1168ZM28.0559 34.6749C28.1014 34.5949 28.302 34.4003 28.4487 34.3021C28.6078 34.1958 28.7777 34.0384 29.1363 34.071C29.2138 34.0781 29.2927 34.1338 29.3308 34.1834C29.3887 34.2586 29.3771 34.352 29.3122 34.5053C29.2509 34.65 29.1615 34.8586 29.0771 35.0116C29.0351 35.0881 29.0093 35.0532 28.9223 35.0631C28.835 35.0727 28.7408 35.0814 28.6725 35.1172C28.5034 35.2056 28.3788 35.3025 28.2599 35.4187C28.2003 35.4769 28.1708 35.4581 28.1469 35.4168C28.083 35.307 28.0346 35.1559 27.9973 35.0052C27.9749 34.914 27.9802 34.8087 28.0559 34.6749ZM29.4471 36.4345C29.4471 37.3207 29.0046 38.3499 28.4585 38.7336C27.9124 39.1174 27.4699 38.71 27.4699 37.8241C27.4699 36.9379 27.9124 35.9087 28.4585 35.525C29.0043 35.1412 29.4471 35.5486 29.4471 36.4345ZM26.8722 37.1306C27.0089 36.4259 27.1475 36.1647 27.2598 35.9026C27.3634 35.6606 27.5309 35.356 27.5842 35.3019C27.6734 35.212 27.7204 35.2462 27.7499 35.3281C27.7985 35.4632 27.8427 35.6197 27.8629 35.7893C27.8706 35.853 27.8663 35.9173 27.8161 36.0082C27.7167 36.1884 27.6226 36.3881 27.514 36.6768C27.4701 36.7933 27.427 36.9715 27.386 37.1354C27.3452 37.2989 27.3494 37.3629 27.299 37.4119C27.198 37.5105 27.0715 37.595 26.9837 37.6522C26.8909 37.7127 26.8462 37.6961 26.8383 37.5527C26.8333 37.4583 26.8428 37.2829 26.8722 37.1306ZM27.2848 39.9917C27.2351 39.9911 27.0981 39.8435 27.0205 39.6954C26.9366 39.5347 26.8244 39.4032 26.776 38.7944C26.7655 38.6629 26.7799 38.4846 26.7986 38.3781C26.8267 38.2161 26.8772 38.1502 26.9682 38.1157C27.0542 38.083 27.1783 38.0382 27.2727 38.0356C27.3197 38.0344 27.3066 38.107 27.3274 38.2389C27.3481 38.371 27.3699 38.5154 27.4007 38.5935C27.477 38.7861 27.55 38.8997 27.6316 38.9861C27.6726 39.0297 27.6681 39.0943 27.6513 39.1705C27.6063 39.3737 27.5369 39.5891 27.4659 39.7859C27.4231 39.9053 27.3678 39.9927 27.2848 39.9917ZM28.9943 39.3404C28.9464 39.4345 28.8542 39.5785 28.77 39.6691C28.3812 40.0877 28.221 40.1005 28.0651 40.1568C27.9213 40.2087 27.7336 40.2148 27.696 40.1773C27.6334 40.1152 27.6426 40.0077 27.6797 39.8855C27.7407 39.6841 27.8138 39.4704 27.8976 39.2844C27.9292 39.2147 27.9634 39.1628 28.0191 39.1615C28.1303 39.159 28.2505 39.1295 28.4193 39.0434C28.4874 39.0086 28.5873 38.917 28.6796 38.8341C28.7716 38.7516 28.8037 38.6869 28.8384 38.7237C28.9075 38.7973 28.9741 38.9257 29.0195 39.0153C29.0677 39.11 29.0669 39.198 28.9943 39.3404ZM30.0339 37.2992C29.9587 37.5799 29.9027 37.8823 29.5838 38.4959C29.5149 38.6283 29.4181 38.7602 29.3587 38.8226C29.2688 38.917 29.2273 38.8908 29.1975 38.7692C29.1694 38.6543 29.1297 38.4866 29.1166 38.3314C29.11 38.2539 29.1505 38.2123 29.2181 38.0622C29.2859 37.9118 29.3603 37.7492 29.3979 37.6295C29.4912 37.3335 29.5425 37.1123 29.5785 36.9005C29.5967 36.7939 29.6316 36.7446 29.6745 36.7062C29.7886 36.6038 29.9122 36.5305 30.026 36.4767C30.0952 36.4441 30.1488 36.4598 30.1585 36.5993C30.1646 36.6825 30.1031 37.0403 30.0339 37.2992ZM30.0284 36.158C29.914 36.2182 29.792 36.2674 29.685 36.2751C29.6448 36.278 29.6145 36.2614 29.6114 36.1653C29.6051 35.9746 29.5835 35.7899 29.5283 35.5678C29.506 35.4782 29.4507 35.3803 29.4008 35.2884C29.3508 35.1969 29.3138 35.194 29.3324 35.1038C29.3703 34.923 29.4384 34.7018 29.4862 34.5488C29.5367 34.3872 29.5856 34.3155 29.6679 34.3245C29.7221 34.3303 29.8062 34.3719 29.8601 34.4432C30.1096 34.7735 30.1238 35.0407 30.1617 35.2651C30.1967 35.4718 30.2085 35.7931 30.1893 35.8892C30.158 36.0489 30.0978 36.1215 30.0284 36.158Z" fill="white"/>
<path d="M28.5624 35.9829C28.1178 36.2953 27.7576 37.1335 27.7576 37.8551C27.7576 38.5768 28.118 38.9084 28.5624 38.5957C29.007 38.2833 29.3672 37.4452 29.3672 36.7235C29.3675 36.0021 29.007 35.6702 28.5624 35.9829Z" fill="#824030"/>
<path d="M26.9832 37.6538C27.0707 37.5965 27.1975 37.512 27.2984 37.4134C27.3486 37.3641 27.3447 37.3004 27.3855 37.1369C27.4262 36.973 27.4696 36.7948 27.5135 36.6783C27.6221 36.3899 27.7162 36.1902 27.8156 36.0097C27.8656 35.9192 27.8698 35.8545 27.8624 35.7908C27.8424 35.6215 27.798 35.4647 27.7493 35.3297C27.7199 35.2477 27.6726 35.2132 27.5837 35.3034C27.5303 35.3572 27.3628 35.6622 27.2593 35.9041C27.147 36.1662 27.0084 36.4274 26.8717 37.1321C26.8422 37.2844 26.8328 37.4598 26.838 37.5542C26.8457 37.6976 26.8906 37.7142 26.9832 37.6538Z" fill="#4C2011"/>
<path d="M28.1478 35.4185C28.1717 35.4598 28.2012 35.4787 28.2608 35.4204C28.3797 35.3042 28.5043 35.2073 28.6734 35.1189C28.7415 35.0834 28.8359 35.0748 28.9231 35.0648C29.0102 35.0552 29.0357 35.0898 29.078 35.0133C29.1624 34.8603 29.2518 34.6517 29.3131 34.507C29.378 34.3537 29.3896 34.2603 29.3317 34.1851C29.2936 34.1355 29.2147 34.0798 29.1372 34.0727C28.7788 34.0401 28.6089 34.1972 28.4496 34.3038C28.3029 34.4021 28.102 34.5966 28.0568 34.6766C27.9811 34.8104 27.9758 34.9157 27.9984 35.0072C28.0355 35.1577 28.0839 35.3087 28.1478 35.4185Z" fill="#4C2011"/>
<path d="M30.1625 35.2655C30.1244 35.0412 30.1102 34.7739 29.8609 34.4437C29.807 34.3723 29.7229 34.3307 29.6687 34.3249C29.5864 34.3163 29.5375 34.3876 29.487 34.5493C29.4392 34.7022 29.3711 34.9234 29.3332 35.1042C29.3143 35.1945 29.3516 35.1973 29.4016 35.2889C29.4515 35.3807 29.5068 35.4783 29.5291 35.5683C29.5843 35.7904 29.6059 35.975 29.6122 36.1658C29.6153 36.2618 29.6456 36.2784 29.6858 36.2755C29.7928 36.2679 29.9148 36.2186 30.0292 36.1584C30.0986 36.1219 30.1588 36.0496 30.1904 35.8896C30.209 35.7936 30.1975 35.4723 30.1625 35.2655Z" fill="#4C2011"/>
<path d="M30.027 36.4772C29.9131 36.531 29.7895 36.604 29.6754 36.7067C29.6326 36.7451 29.5976 36.7944 29.5795 36.901C29.5434 37.1128 29.4922 37.334 29.3988 37.63C29.3612 37.7497 29.2868 37.9123 29.219 38.0627C29.1512 38.2128 29.1109 38.2544 29.1175 38.3319C29.1307 38.4874 29.1704 38.6548 29.1985 38.7697C29.2282 38.8913 29.2697 38.9175 29.3597 38.8231C29.4188 38.7607 29.5158 38.6292 29.5847 38.4963C29.9037 37.8828 29.9597 37.5804 30.0349 37.2997C30.1043 37.0408 30.1658 36.683 30.1597 36.5998C30.1498 36.4606 30.0961 36.4446 30.027 36.4772Z" fill="#4C2011"/>
<path d="M28.8384 38.7235C28.804 38.6867 28.7716 38.7513 28.6796 38.8339C28.5876 38.9168 28.4877 39.0083 28.4193 39.0432C28.2505 39.1293 28.1304 39.1584 28.0191 39.1613C27.9631 39.1626 27.9292 39.2144 27.8977 39.2842C27.8138 39.4704 27.7407 39.6842 27.6797 39.8852C27.6426 40.0075 27.6334 40.115 27.696 40.1771C27.7336 40.2142 27.9213 40.2084 28.0651 40.1566C28.2208 40.1003 28.3809 40.0875 28.77 39.6689C28.8542 39.5783 28.9465 39.4343 28.9943 39.3402C29.0669 39.1978 29.0677 39.1098 29.0196 39.015C28.9743 38.9254 28.9076 38.7974 28.8384 38.7235Z" fill="#4C2011"/>
<path d="M27.6321 38.9857C27.5506 38.899 27.4775 38.7857 27.4012 38.593C27.3705 38.5152 27.3489 38.3706 27.3279 38.2384C27.3071 38.1065 27.3202 38.0339 27.2732 38.0352C27.1788 38.0377 27.0547 38.0829 26.9687 38.1152C26.8777 38.1494 26.8273 38.2157 26.7991 38.3776C26.7805 38.4842 26.766 38.6624 26.7765 38.794C26.8249 39.403 26.9372 39.5345 27.021 39.6949C27.0986 39.8431 27.2356 39.9906 27.2853 39.9912C27.3681 39.9925 27.4236 39.9048 27.4667 39.7855C27.5377 39.5886 27.6068 39.3732 27.6521 39.17C27.6686 39.0939 27.6731 39.0292 27.6321 38.9857Z" fill="#4C2011"/>
<path d="M43.7839 24.4465C43.7839 22.1045 44.954 19.3835 46.3972 18.3694C46.7618 18.113 47.1949 17.9815 47.5388 17.9824C47.8085 17.9831 48.4979 18.0151 49.2134 18.5531C50.0355 19.1717 50.1465 20.577 50.1465 20.577L47.2107 27.9167C47.2107 27.9167 46.2652 28.4815 45.2939 27.8341C44.6895 27.4312 44.3248 26.7655 44.1586 26.3968C44.0858 26.2349 43.9753 25.9094 43.9425 25.7865C43.8399 25.406 43.7839 24.957 43.7839 24.4465Z" fill="#381509"/>
<path d="M46.0499 27.936C44.8964 27.3387 44.6645 24.8428 45.5319 22.3613C46.3992 19.8798 48.0374 18.3524 49.1908 18.9497C50.3443 19.547 50.5762 22.0429 49.7088 24.5244C48.8415 27.0059 47.2033 28.5333 46.0499 27.936Z" fill="#4C2011"/>
<path d="M49.7285 21.9886C49.7285 23.841 48.8033 25.9926 47.6619 26.7946C46.5206 27.5966 45.5953 26.7453 45.5953 24.8929C45.5953 23.0406 46.5206 20.889 47.6619 20.0869C48.8033 19.2849 49.7285 20.1366 49.7285 21.9886Z" fill="#B3DDFF"/>
<path d="M47.7338 20.4704C46.7087 21.1908 45.8779 23.1235 45.8779 24.787C45.8779 26.4509 46.709 27.2154 47.7338 26.495C48.759 25.7746 49.5898 23.8419 49.5898 22.1784C49.5898 20.5145 48.7587 19.75 47.7338 20.4704ZM47.3313 21.0282C47.3768 20.9482 47.5774 20.7536 47.7241 20.6553C47.8832 20.5491 48.053 20.3916 48.4117 20.4243C48.4892 20.4313 48.5681 20.487 48.6062 20.5366C48.6641 20.6118 48.6525 20.7053 48.5876 20.8586C48.5263 21.0032 48.4369 21.2119 48.3525 21.3649C48.3104 21.441 48.2849 21.4065 48.1979 21.4164C48.1106 21.426 48.0165 21.4346 47.9481 21.4702C47.7791 21.5585 47.6544 21.6558 47.5356 21.7716C47.4759 21.8299 47.4465 21.811 47.4225 21.7697C47.3587 21.6599 47.31 21.5089 47.2729 21.3581C47.2503 21.2672 47.2553 21.162 47.3313 21.0282ZM48.7222 22.7877C48.7222 23.6739 48.2797 24.7032 47.7336 25.0869C47.1878 25.4706 46.745 25.0632 46.745 24.1773C46.745 23.2912 47.1875 22.2619 47.7336 21.8782C48.2797 21.4945 48.7222 21.9019 48.7222 22.7877ZM46.1474 23.4841C46.2841 22.7794 46.4226 22.5183 46.5349 22.2562C46.6385 22.0142 46.806 21.7095 46.8594 21.6555C46.9485 21.5655 46.9956 21.5998 47.025 21.6817C47.0736 21.8168 47.1178 21.9736 47.1381 22.1429C47.1457 22.2066 47.1415 22.2709 47.0913 22.3618C46.9916 22.542 46.8977 22.7417 46.7892 23.0303C46.7452 23.1468 46.7021 23.3251 46.6611 23.4889C46.6204 23.6525 46.6246 23.7165 46.5741 23.7655C46.4731 23.864 46.3466 23.9485 46.2588 24.0058C46.166 24.0663 46.1213 24.0496 46.1134 23.9063C46.1087 23.8115 46.1179 23.6365 46.1474 23.4841ZM46.5601 26.3449C46.5105 26.3443 46.3735 26.1968 46.2959 26.0486C46.212 25.8879 46.0998 25.7567 46.0514 25.1477C46.0409 25.0162 46.0553 24.8379 46.074 24.7313C46.1021 24.5694 46.1526 24.5035 46.2436 24.4689C46.3296 24.4363 46.4537 24.3911 46.5481 24.3889C46.5951 24.3876 46.582 24.4603 46.6027 24.5921C46.6235 24.7243 46.6453 24.8686 46.6761 24.9467C46.7523 25.1394 46.8254 25.253 46.9069 25.3394C46.948 25.3829 46.9435 25.4476 46.9267 25.5237C46.8817 25.727 46.8123 25.9423 46.7413 26.1392C46.6984 26.2585 46.643 26.3462 46.5601 26.3449ZM48.2697 25.6937C48.2218 25.7878 48.1296 25.9318 48.0454 26.0224C47.6565 26.441 47.4964 26.4538 47.3405 26.5101C47.1967 26.5619 47.009 26.568 46.9714 26.5306C46.9088 26.4685 46.918 26.361 46.9551 26.2387C47.0161 26.0374 47.0892 25.8236 47.173 25.6373C47.2046 25.5676 47.2385 25.5157 47.2945 25.5145C47.4057 25.5119 47.5259 25.4824 47.6947 25.3964C47.7628 25.3615 47.8627 25.2699 47.955 25.1871C48.047 25.1045 48.0791 25.0398 48.1138 25.0766C48.1829 25.1503 48.2494 25.2786 48.2949 25.3682C48.3428 25.4632 48.3423 25.5513 48.2697 25.6937ZM49.309 23.6525C49.2338 23.9332 49.1778 24.2356 48.8589 24.8491C48.79 24.9816 48.6933 25.1134 48.6338 25.1759C48.5439 25.2703 48.5024 25.244 48.4727 25.1224C48.4445 25.0075 48.4048 24.8398 48.3917 24.6846C48.3851 24.6071 48.4256 24.5655 48.4932 24.4154C48.561 24.265 48.6354 24.1025 48.673 23.9828C48.7664 23.6867 48.8176 23.4656 48.8537 23.2537C48.8718 23.1471 48.9068 23.0982 48.9496 23.0595C49.0637 22.957 49.1873 22.8838 49.3012 22.83C49.3703 22.7973 49.4239 22.813 49.4337 22.9526C49.44 23.0358 49.3785 23.3936 49.309 23.6525ZM49.3038 22.5112C49.1894 22.5714 49.0677 22.6207 48.9604 22.6284C48.9202 22.6312 48.8899 22.6146 48.8868 22.5186C48.8805 22.3279 48.8589 22.1432 48.8037 21.9211C48.7813 21.8315 48.7261 21.7335 48.6762 21.6417C48.6262 21.5502 48.5891 21.5473 48.6081 21.457C48.6459 21.2762 48.714 21.0551 48.7619 20.9021C48.8124 20.7405 48.8613 20.6688 48.9436 20.6777C48.9977 20.6835 49.0819 20.7251 49.1358 20.7965C49.3853 21.1268 49.3995 21.3943 49.4373 21.6183C49.4723 21.8251 49.4839 22.1464 49.465 22.2424C49.4334 22.4024 49.3732 22.4747 49.3038 22.5112Z" fill="white"/>
<path d="M47.8395 22.3364C47.3948 22.6487 47.0344 23.4869 47.0344 24.2086C47.0344 24.9299 47.3948 25.2618 47.8395 24.9491C48.2841 24.6368 48.6445 23.7986 48.6445 23.0769C48.6445 22.3552 48.2841 22.024 47.8395 22.3364Z" fill="#824030"/>
<path d="M46.2586 24.0053C46.3461 23.948 46.4729 23.8635 46.5738 23.765C46.624 23.716 46.6201 23.652 46.6608 23.4885C46.7016 23.3246 46.745 23.1463 46.7889 23.0298C46.8975 22.7415 46.9916 22.5418 47.091 22.3613C47.1409 22.2707 47.1452 22.2061 47.1378 22.1424C47.1178 21.9731 47.0736 21.8163 47.0247 21.6812C46.9953 21.5993 46.948 21.5647 46.8591 21.655C46.8057 21.7087 46.6382 22.0137 46.5346 22.2557C46.4224 22.5178 46.2838 22.7789 46.1471 23.4837C46.1176 23.636 46.1082 23.8114 46.1134 23.9058C46.1211 24.0488 46.1658 24.0658 46.2586 24.0053Z" fill="#4C2011"/>
<path d="M47.4234 21.7697C47.4474 21.811 47.4768 21.8299 47.5365 21.7717C47.6553 21.6555 47.7802 21.5585 47.949 21.4702C48.0171 21.4347 48.1115 21.426 48.1988 21.4164C48.2858 21.4068 48.3113 21.4414 48.3534 21.3649C48.4378 21.2119 48.5272 21.0032 48.5885 20.8586C48.6534 20.7053 48.665 20.6118 48.6071 20.5366C48.569 20.487 48.4901 20.4313 48.4126 20.4243C48.0542 20.3917 47.8843 20.5488 47.725 20.6554C47.578 20.7536 47.3774 20.9482 47.3322 21.0282C47.2562 21.162 47.2512 21.2673 47.2738 21.3588C47.3109 21.5089 47.3595 21.66 47.4234 21.7697Z" fill="#4C2011"/>
<path d="M49.4377 21.619C49.3996 21.395 49.3854 21.1274 49.1361 20.7972C49.0822 20.7258 48.9981 20.6842 48.9439 20.6784C48.8616 20.6698 48.813 20.7412 48.7623 20.9028C48.7144 21.0558 48.6463 21.2769 48.6084 21.4577C48.5895 21.548 48.6268 21.5509 48.6765 21.6424C48.7265 21.7339 48.782 21.8318 48.8041 21.9218C48.8593 22.1439 48.8808 22.3285 48.8871 22.5193C48.8903 22.6153 48.9205 22.6319 48.9608 22.6291C49.0678 22.6214 49.1898 22.5721 49.3041 22.5119C49.3736 22.4754 49.4338 22.4031 49.4656 22.2431C49.4845 22.1471 49.4729 21.8258 49.4377 21.619Z" fill="#4C2011"/>
<path d="M49.3024 22.8308C49.1885 22.8846 49.0649 22.9575 48.9508 23.0603C48.908 23.0987 48.873 23.148 48.8549 23.2545C48.8188 23.4664 48.7676 23.6875 48.6742 23.9836C48.6366 24.1033 48.5622 24.2659 48.4944 24.4163C48.4268 24.5664 48.3863 24.608 48.3929 24.6854C48.406 24.8406 48.4457 25.0083 48.4739 25.1232C48.5036 25.2448 48.5451 25.2714 48.6351 25.1767C48.6945 25.1143 48.7912 24.9827 48.8601 24.8499C49.179 24.2364 49.235 23.934 49.3102 23.6533C49.3797 23.3944 49.4412 23.0366 49.4351 22.9531C49.4249 22.8138 49.3712 22.7982 49.3024 22.8308Z" fill="#4C2011"/>
<path d="M48.1139 25.077C48.0795 25.0402 48.0471 25.1048 47.9551 25.1874C47.8631 25.2703 47.7632 25.3618 47.6948 25.3967C47.526 25.4828 47.4059 25.5119 47.2946 25.5148C47.2386 25.5161 47.2047 25.5679 47.1732 25.6377C47.0893 25.824 47.0162 26.0377 46.9552 26.239C46.9181 26.3613 46.9089 26.4688 46.9715 26.5309C47.0091 26.568 47.1968 26.5623 47.3406 26.5104C47.4966 26.4541 47.6564 26.4413 48.0455 26.0227C48.1297 25.9321 48.222 25.7881 48.2698 25.694C48.3424 25.5516 48.3429 25.4636 48.2951 25.3689C48.2496 25.2786 48.1831 25.1506 48.1139 25.077Z" fill="#4C2011"/>
<path d="M46.9075 25.3392C46.826 25.2525 46.7529 25.1392 46.6766 24.9465C46.6459 24.8687 46.6243 24.7241 46.6033 24.5919C46.5825 24.4601 46.5956 24.3874 46.5486 24.3887C46.4542 24.3912 46.3301 24.4364 46.2441 24.4687C46.1531 24.5029 46.1026 24.5692 46.0745 24.7311C46.0558 24.8377 46.0414 25.016 46.0519 25.1475C46.1003 25.7565 46.2126 25.8881 46.2964 26.0484C46.374 26.1966 46.511 26.3441 46.5607 26.3448C46.6435 26.346 46.699 26.2583 46.7421 26.139C46.8131 25.9421 46.8822 25.7268 46.9274 25.5235C46.944 25.4474 46.9485 25.3827 46.9075 25.3392Z" fill="#4C2011"/>
<path d="M15.0519 19.0369C16.3468 17.8064 17.9373 16.3409 18.924 15.4355C19.4107 16.1684 20.3759 17.3023 22.4554 18.9095C24.2233 20.2758 26.2844 21.6164 28.2298 22.5375C28.2902 22.5663 24.4499 25.5138 21.812 29.1859C20.8818 30.4808 19.8182 31.3241 17.3586 30.5995C16.748 30.4197 14.8639 29.3005 13.2393 27.8696C12.038 26.8116 11.1364 25.4965 10.6079 24.5329C11.7106 22.3829 13.1346 20.8582 15.0519 19.0369Z" fill="#80B4FF"/>
<path d="M9.5651 26.687C9.73942 26.1803 10.2392 25.0513 10.5011 24.5405C11.8263 26.469 15.9973 29.7571 17.043 30.144C19.4049 31.018 20.4894 29.8608 21.4325 28.836C24.4223 25.5876 28.2902 22.5665 28.2297 22.5377C26.2841 21.6166 24.223 20.276 22.4553 18.9098C20.3756 17.3025 19.4106 16.1686 18.924 15.4358C19.0838 15.2892 19.2295 15.1557 19.3536 15.0418C20.389 13.4919 21.5259 10.8762 22.8805 8.61226C23.1721 8.12516 23.4736 7.68479 23.8218 7.28475C24.7762 7.65887 25.9749 7.19738 26.8396 6.76373C28.6004 5.88075 30.351 5.3018 32.2619 5.16803C34.154 5.03553 36.4864 5.34789 38.3513 5.73097C40.2165 6.11406 41.8772 7.27163 43.8565 6.93079C42.657 5.97804 39.8631 3.81107 37.9809 2.58981C37.0419 1.98046 36.0844 1.4124 35.1147 0.879539C34.7621 0.685597 34.3943 0.467652 34.0199 0.261548C34.2583 0.154656 34.4855 0.0647257 34.689 0.00551894C34.8557 -0.0431266 35.665 0.228585 36.7866 0.869298C37.5284 1.29271 38.3747 1.96766 39.3762 2.49508C39.4719 2.54565 40.2444 2.90377 40.5344 3.09739C43.1968 4.9472 51.7734 10.9815 51.7734 10.9815C51.7734 10.9815 47.2298 14.2126 42.2815 18.3129C37.3333 22.4132 29.812 28.4804 25.0617 32.4937C20.3114 36.507 21.4118 39.9541 21.4118 39.9541L11.1924 32.8073L10.1982 32.1119C9.64293 31.8024 9.27299 31.3803 9.27299 30.7153C9.27299 29.8681 8.9843 28.3764 9.5651 26.687Z" fill="#619BF7"/>
<path d="M37.9799 2.58998C39.8621 3.81124 42.6557 5.97821 43.8555 6.93096C41.8762 7.2718 40.2155 6.11423 38.3503 5.73114C36.4854 5.34806 34.153 5.0357 32.2609 5.1682C30.3503 5.30197 28.5994 5.88124 26.8386 6.7639C25.9741 7.19723 24.7752 7.65904 23.8208 7.28492C24.1418 6.91592 24.5025 6.58084 24.9353 6.27808C25.4575 5.91292 29.2299 3.27678 30.4502 2.42357C30.7333 2.22578 32.5999 0.898911 34.0189 0.261719C34.3935 0.467822 34.7611 0.686087 35.1137 0.879709C36.0834 1.41257 37.0409 1.98063 37.9799 2.58998Z" fill="#80B4FF"/>
<path d="M20.8771 34.587C21.7845 31.9483 23.9907 29.1922 26.3633 26.9375C27.868 25.5079 29.7735 23.7586 30.6653 22.9422C31.7007 21.3922 32.8376 18.7766 34.1922 16.5126C34.7528 15.5759 35.3462 14.8088 36.248 14.1783C36.7705 13.8131 40.5427 11.177 41.7629 10.3238C42.0934 10.0927 44.5867 8.31811 46.0008 7.90558C46.2776 7.82493 47.7334 8.41892 50.146 10.1222C50.5552 10.4111 51.4425 10.6829 51.7736 10.9805C52.2213 11.3828 52.2771 12.6415 52.256 14.8468C52.2497 15.5116 52.3302 18.7769 51.7423 19.7335C51.7415 19.7332 51.741 19.7325 51.7402 19.7322C51.513 20.2852 51.2314 20.7816 50.912 21.1909C50.9133 21.1231 50.9183 21.0543 50.9183 20.9871C50.9183 17.6017 49.2274 16.0457 47.1413 17.5115C45.1752 18.8934 43.5613 22.4663 43.3823 25.7073C42.6011 26.2581 40.8853 27.4608 38.3643 29.1851C35.1482 31.3851 32.4792 33.1958 31.7323 33.7024C31.5041 30.8317 29.9157 29.5986 27.9864 30.9546C25.9003 32.4207 24.2094 36.3533 24.2094 39.7387C24.2094 39.8007 24.2142 39.8577 24.2152 39.9185C23.6475 40.2123 22.9258 40.5551 22.6787 40.4783C21.5373 40.1236 20.5855 39.6817 20.5855 38.615C20.5847 37.7682 20.296 36.2768 20.8771 34.587Z" fill="#4688E8"/>
<path d="M27.9861 30.9537C29.9154 29.5981 31.5038 30.8308 31.732 33.7016C32.479 33.1953 35.1479 31.3842 38.364 29.1842C40.885 27.4596 42.6011 26.2572 43.382 25.7064C43.383 25.629 43.3907 25.5349 43.398 25.4456C43.6465 22.2759 45.2275 18.8554 47.141 17.5106C49.2271 16.0448 50.918 17.6008 50.918 20.9862C50.918 21.0537 50.913 21.1222 50.9117 21.1901C50.7539 21.392 50.5877 21.5744 50.4129 21.7287C50.4061 21.7348 50.4 21.7399 50.3932 21.746C50.3958 21.657 50.4013 21.5674 50.4013 21.4794C50.4013 18.6 48.9631 17.2766 47.1889 18.5232C45.4147 19.7701 43.9765 23.1151 43.9765 25.9944C43.9765 26.1071 43.9825 26.2133 43.9867 26.3212L43.6609 26.5478L43.3783 26.7436L31.7517 34.7951L31.3373 35.0819C31.3405 34.983 31.3463 34.8838 31.3463 34.7858C31.3463 31.9065 29.9081 30.5831 28.1338 31.8297C26.3596 33.0765 24.9214 36.4215 24.9214 39.3009C24.9214 39.3851 24.9267 39.4632 24.929 39.5448C24.831 39.5873 24.5494 39.7438 24.2144 39.9173C24.2133 39.8565 24.2086 39.7995 24.2086 39.7374C24.2091 36.3524 25.9 32.4198 27.9861 30.9537Z" fill="#3375D3"/>
<path d="M23.9647 8.8457C24.4524 9.30752 25.3895 10.1246 26.9165 11.1977C29.4057 12.947 34.0371 15.6932 34.0371 15.6932L30.6635 21.981C28.7013 19.8895 22.172 15.2804 20.8819 14.4515C21.2899 13.541 22.7799 10.7666 23.9647 8.8457Z" fill="#B5E0FF"/>
<path d="M23.5054 18.6995C20.1236 16.3181 19.6319 15.4303 19.6319 15.4303L23.5422 8.41992C23.5422 8.41992 23.6731 8.56906 23.9652 8.84525C22.7805 10.7661 21.2905 13.5402 20.8824 14.4513C22.1729 15.2802 28.7018 19.8894 30.6641 21.9808L30.2484 22.7748C30.2484 22.7748 27.1182 21.2435 23.5054 18.6995Z" fill="#97CDFC"/>
<path opacity="0.5" d="M33.8465 16.0486C33.8465 16.0486 28.6776 15.1449 25.8449 13.6407C22.5651 11.8994 21.9346 11.3012 21.9346 11.3012L23.5416 8.41992C23.5416 8.41992 25.1975 9.96186 27.4666 11.5777C28.8519 12.5641 34.0371 15.6928 34.0371 15.6928L33.8465 16.0486Z" fill="white"/>
<path d="M11.2519 28.722C11.2151 27.9971 10.9864 27.021 10.6083 26.8709C10.592 26.8645 10.5546 26.9144 10.5081 26.9922C10.5092 26.9029 10.5118 26.8139 10.517 26.7253C10.694 26.58 11.1396 26.1707 11.1425 26.1943C12.1322 28.3927 16.6827 31.6721 19.7834 31.7163C20.0597 31.7201 19.0724 32.6895 19.004 32.6648C18.3617 32.4347 17.528 32.4962 16.878 32.8197C15.963 32.1902 14.9855 31.691 14.0805 31.0256C13.3427 30.4832 12.1848 29.5362 11.2519 28.722Z" fill="#381509"/>
<path d="M14.4924 33.3914C13.5091 32.8006 12.2339 31.7477 11.3231 31.0375C11.147 30.9002 11.1193 30.5514 11.1401 30.1699C12.1342 31.2024 14.0854 32.583 15.75 33.5156C15.3496 33.7319 14.9142 33.6449 14.4924 33.3914Z" fill="#381509"/>
<path d="M16.6113 32.9728C16.4812 33.0586 16.263 33.1955 16.0387 33.3386C15.2173 32.8054 14.3602 32.3452 13.5593 31.7563C12.7503 31.1614 11.9357 30.5351 11.164 29.8566C11.1945 29.5654 11.2371 29.2837 11.2511 29.0859C12.582 30.3472 14.9507 32.0639 16.6113 32.9728Z" fill="#381509"/>
<path d="M16.0391 33.3394C15.9675 33.3852 15.8955 33.4313 15.8264 33.4761C15.8009 33.4927 15.7746 33.5039 15.7488 33.5177C14.0842 32.5851 12.133 31.2045 11.1389 30.172C11.1447 30.0683 11.1536 29.9627 11.1647 29.8574C11.9364 30.5359 12.7506 31.1622 13.5599 31.7572C14.3603 32.3457 15.2174 32.8059 16.0391 33.3394Z" fill="#4C2011"/>
<path d="M11.2573 29.0027C11.2594 28.916 11.2578 28.8215 11.2528 28.7227C12.1857 29.5368 13.3436 30.4838 14.0814 31.0263C14.9864 31.6913 15.9639 32.1909 16.8789 32.8204C16.7927 32.8633 16.7088 32.91 16.6299 32.9622C16.6252 32.9651 16.6178 32.9699 16.6128 32.9731C14.9522 32.0642 12.5832 30.3475 11.2528 29.0862C11.2549 29.0568 11.2568 29.028 11.2573 29.0027Z" fill="#4C2011"/>
<path d="M18.6452 32.9505C19.0264 31.7782 20.2109 31.0076 21.2845 30.7659C21.7514 30.661 23.3035 30.3102 23.6653 31.1173C23.7575 31.3235 23.4465 31.7085 23.0737 31.9718C22.3067 32.514 21.6139 33.4021 21.3528 34.2047C21.2319 34.5766 21.0938 34.9232 20.8814 35.209C20.6053 35.5806 19.5481 34.9427 19.2271 34.6669C18.6886 34.2041 18.3444 33.8757 18.6452 32.9505Z" fill="#B5E0FF"/>
<path d="M11.7441 22.6699C11.9295 24.168 11.0545 26.4944 10.6086 27.5905C10.3651 28.1896 9.743 28.1928 9.34335 27.5092C9.504 26.5945 10.1802 24.4788 11.7441 22.6699Z" fill="#B5E0FF"/>
<path d="M9.20292 28.5784C9.22316 28.524 9.2881 28.4788 9.33675 28.4849C9.97119 28.5653 10.2494 29.1794 10.3827 29.8835C10.5509 30.7722 10.6911 31.3243 11.411 31.8405C11.9413 32.2207 12.485 32.5763 13.0219 32.943C13.923 33.5588 14.824 34.1749 15.7251 34.7909C16.1899 34.9417 16.6345 34.957 17.0005 34.7055C17.5224 34.347 17.8866 34.0363 18.4056 34.6066C19.0682 35.3343 19.5838 36.4526 19.6182 37.5106C19.6311 37.9046 19.6195 37.9948 19.1707 37.7273C18.0967 37.0865 16.8882 36.0525 16.074 36.2212C15.6551 35.9363 12.322 33.6958 11.2858 32.8726C11.1975 32.5507 10.9753 32.303 10.7155 32.0924C10.1368 31.6229 9.57679 31.2654 9.27127 30.6C9.20081 30.0899 9.10695 29.4876 9.20292 28.5784Z" fill="#381509"/>
<path d="M17.813 34.9195C18.077 35.1051 18.291 35.6028 18.291 36.0313C18.291 36.4598 18.077 36.6567 17.813 36.471C17.549 36.2854 17.335 35.7878 17.335 35.3592C17.3348 34.9307 17.549 34.7339 17.813 34.9195Z" fill="#824030"/>
<path d="M9.49116 30.285C9.34716 29.873 9.38565 29.4587 9.57713 29.3595C9.76861 29.2603 10.0406 29.5139 10.1846 29.9259C10.3286 30.3379 10.2901 30.7523 10.0986 30.8514C9.90713 30.9506 9.63516 30.697 9.49116 30.285Z" fill="#824030"/>
<path d="M18.8639 36.1804C19.0362 36.3014 19.1758 36.6263 19.1758 36.9056C19.1758 37.185 19.0362 37.3137 18.8639 37.1924C18.6917 37.0714 18.5521 36.7466 18.5521 36.4672C18.5521 36.1878 18.6917 36.0591 18.8639 36.1804Z" fill="#824030"/>
<path d="M43.602 11.2618C44.7179 10.5423 45.8469 10.3666 46.8008 11.5821C47.0703 11.9255 47.2772 12.339 47.5117 12.723L31.9746 23.65V22.0102C32.577 20.8152 33.3087 19.3913 33.9621 18.1947C36.1954 16.5126 38.1692 15.3694 40.2247 13.8086C41.3406 12.9608 42.4393 12.011 43.602 11.2618Z" fill="#B5E0FF"/>
<path d="M35.4882 15.7378C36.4674 14.8036 40.0206 12.1685 42.8888 10.2265C44.5111 9.12811 45.2875 8.56453 46.0276 8.7047C46.6752 8.82728 46.9515 9.227 47.4101 9.93492C48.0361 10.9011 48.6035 11.9553 48.6035 11.9553L47.5124 12.7228C47.2778 12.3387 47.0709 11.9252 46.8014 11.5818C45.8478 10.3663 44.7185 10.542 43.6027 11.2615C42.44 12.011 41.3415 12.9609 40.2254 13.808C38.1698 15.3688 36.196 16.5117 33.9627 18.1941C34.6219 16.9869 35.2016 16.0111 35.4882 15.7378Z" fill="#97CDFC"/>
<path opacity="0.5" d="M19.7104 17.5879C20.5536 18.2907 22.2485 19.6851 23.8933 20.9396C24.0461 21.0561 23.9719 21.3218 23.8055 21.3342C22.1659 21.4597 20.6388 20.818 19.351 19.6636C18.1791 18.613 19.7078 17.5901 19.7104 17.5879Z" fill="white"/>
<path d="M28.9589 23.0628C28.9786 23.0513 29.006 23.0868 28.9841 23.1028C27.8004 23.9749 26.3812 25.4388 25.1486 26.7234C24.0451 27.8733 23.0231 29.2433 21.7492 30.1257C21.9356 29.4789 26.1411 24.704 28.9589 23.0628Z" fill="#4688E8"/>
<path d="M12.2261 23.8469C13.959 20.893 16.5441 18.4201 19.0075 16.4141C19.0269 16.3981 19.0506 16.4349 19.0327 16.4541C17.8827 17.667 16.6503 18.76 15.5071 19.9844C14.3603 21.2124 12.6775 23.6085 12.2261 23.8469Z" fill="#4688E8"/>
<path d="M18.867 32.9656C18.9808 32.586 19.4975 31.8646 20.0954 31.9322C20.7395 32.0051 21.5596 32.1069 21.1087 32.962C20.8268 33.4965 20.7243 34.0079 20.6007 34.3241C20.4579 34.6899 20.2297 35.0314 19.833 34.7616C19.1656 34.3068 18.5706 33.9535 18.867 32.9656Z" fill="white"/>
<path d="M10.852 24.9841C11.0605 25.204 10.7294 26.333 10.491 27.0502C10.2525 27.7678 10.11 27.7777 9.79447 27.5745C9.47896 27.3712 9.64592 26.5199 9.96143 25.8876C10.2769 25.2552 10.5735 24.6906 10.852 24.9841Z" fill="white"/>
<path d="M38.8393 12.8711C38.8393 12.8711 39.1346 17.1708 39.1346 19.2942C39.1346 21.3342 40.2236 19.371 40.2391 18.978C40.3088 17.1958 39.6284 12.416 39.6284 12.416L38.8393 12.8711Z" fill="#4688E8"/>
<path d="M21.3429 38.1556C21.4914 38.3966 21.6529 38.6229 21.8377 38.8239C22.0068 39.0076 22.2242 39.1401 22.3735 39.3471C22.4156 39.4054 22.3738 39.4803 22.3149 39.4697C22.0796 39.4275 21.8608 39.1932 21.6944 38.9983C21.5054 38.7772 21.3494 38.5192 21.2348 38.2325C21.1988 38.1428 21.295 38.0782 21.3429 38.1556Z" fill="#1F6CC9"/>
<path d="M22.7007 38.7995C22.7714 38.6158 22.9268 38.475 23.0464 38.3383C23.1671 38.2004 23.2865 38.0365 23.4332 37.9408C23.4855 37.9066 23.5389 37.9744 23.5126 38.0375C23.4369 38.2186 23.3044 38.3678 23.1937 38.5179C23.084 38.6664 22.9718 38.8584 22.8227 38.9483C22.7399 38.9982 22.6623 38.8987 22.7007 38.7995Z" fill="#1F6CC9"/>
<path opacity="0.5" d="M43.7852 21.3496C43.7852 21.3496 42.4987 21.4255 38.7115 23.8459C34.5906 26.4798 33.7577 27.1288 30.871 30.3609C31.8333 30.9933 32.1286 32.3953 32.1286 32.3953C32.1286 32.3953 40.0524 26.7368 42.9149 24.7855C43.0164 23.4827 43.1849 22.6355 43.7852 21.3496Z" fill="#619BF7"/>
<path d="M52.1194 11.7578C52.1194 11.7578 51.811 12.0567 51.4397 12.3195C51.2988 12.419 51.2507 12.7867 51.2835 13.2271C51.3345 13.9075 51.4245 14.762 51.4486 15.0929C51.4857 15.6011 51.9734 15.2472 52.2556 15.0702C52.4044 14.528 52.3071 12.4248 52.1194 11.7578Z" fill="#B5E0FF"/>
<path d="M45.412 8.44141C45.412 8.44141 46.7813 12.2575 47.034 13.627C47.1528 14.2709 46.5213 14.9039 46.4642 14.621C46.1895 13.2564 45.6142 10.4282 45.0494 8.60942C45.0152 8.49933 45.412 8.44141 45.412 8.44141Z" fill="#4688E8"/>
<path d="M39.333 12.7773C39.333 12.7773 39.826 17.1417 39.9445 19.4111C40.1649 23.6183 39.7205 27.9516 39.7205 27.9516C39.7205 27.9516 39.741 25.4287 39.6958 24.2196C39.6154 22.0642 39.6056 19.2853 39.4547 17.7683C39.2715 15.9287 39.1347 12.9242 39.1347 12.9242L39.333 12.7773Z" fill="#1F6CC9"/>
<path d="M38.3457 19.8839C38.6907 19.7216 38.9152 19.672 38.9778 19.9197C39.0664 20.2702 38.6573 20.5262 38.5111 20.6194C38.1767 20.8325 37.7557 21.2117 37.5911 20.7938C37.4239 20.3697 38.0665 20.0154 38.3457 19.8839Z" fill="#4C2011"/>
<path d="M45.9453 14.4991C46.2903 14.3369 46.5148 14.2873 46.5774 14.535C46.666 14.8854 46.2569 15.1415 46.1107 15.2346C45.7763 15.4477 45.3553 15.827 45.1907 15.409C45.0235 14.9846 45.6661 14.6304 45.9453 14.4991Z" fill="#4C2011"/>
<path d="M32.3244 31.1605C32.5074 31.2716 32.6712 31.4275 32.8386 31.5692C32.9735 31.6835 33.1634 31.7872 33.2393 31.9696C33.2683 32.039 33.2209 32.1107 33.1594 32.096C32.9961 32.057 32.8599 31.8601 32.7343 31.734C32.5768 31.5763 32.4098 31.4268 32.2723 31.2428C32.2392 31.198 32.2807 31.134 32.3244 31.1605Z" fill="#1F6CC9"/>
<path d="M36.3067 29.2372C36.3775 28.9748 36.4124 28.7041 36.4692 28.4375C36.49 28.3398 36.6075 28.3635 36.6104 28.4608C36.6188 28.7441 36.5676 29.0324 36.505 29.3038C36.4579 29.507 36.4082 29.8098 36.2436 29.9131C36.2158 29.9308 36.1763 29.917 36.1687 29.876C36.1287 29.6629 36.2528 29.4379 36.3067 29.2372Z" fill="#1F6CC9"/>
<path d="M35.7733 28.456C35.8054 28.6189 35.8374 28.7821 35.8695 28.945C35.8961 29.0804 35.9318 29.2106 35.9084 29.3492C35.895 29.4286 35.8138 29.4218 35.7812 29.3694C35.711 29.2564 35.6999 29.1088 35.6755 28.9725C35.6484 28.8202 35.6213 28.6682 35.5942 28.5158C35.5693 28.3747 35.7454 28.3139 35.7733 28.456Z" fill="#1F6CC9"/>
<path d="M37.9943 28.4022C38.0847 28.2019 38.2083 28.0268 38.289 27.8191C38.3831 27.5769 38.436 27.3013 38.4496 27.0341C38.4531 26.9688 38.5403 26.9441 38.5498 27.0174C38.6176 27.5369 38.4822 28.2384 38.0558 28.4774C38.0163 28.4998 37.9711 28.4534 37.9943 28.4022Z" fill="#1F6CC9"/>
<path d="M41.5988 24.8619C41.721 24.9784 41.8217 25.1186 41.9406 25.2421C42.0408 25.3465 42.2161 25.4319 42.2719 25.5807C42.2929 25.6367 42.2677 25.6953 42.2159 25.6998C42.065 25.7123 41.9167 25.5106 41.8207 25.3881C41.7026 25.2373 41.6098 25.0828 41.5735 24.8799C41.5701 24.861 41.5872 24.851 41.5988 24.8619Z" fill="#1F6CC9"/>
<path d="M40.9048 26.4299C40.9558 26.2917 41.0586 26.1937 41.1102 26.0513C41.1622 25.9073 41.168 25.762 41.1974 25.6122C41.2111 25.5431 41.3026 25.5223 41.3289 25.5914C41.4454 25.8977 41.3003 26.5019 41.0058 26.5896C40.9245 26.6136 40.8735 26.5144 40.9048 26.4299Z" fill="#1F6CC9"/>
<path d="M51.1831 17.7235C51.167 17.6397 51.2564 17.5955 51.2953 17.6659C51.5054 18.0464 51.4744 18.6382 51.1649 18.9246C51.1221 18.9643 51.0548 18.898 51.0729 18.8385C51.1896 18.4535 51.2609 18.1331 51.1831 17.7235Z" fill="#1F6CC9"/>
<path opacity="0.5" d="M33.9919 2.13941C34.0017 1.99731 34.2643 1.72624 34.3038 1.71184C34.873 1.43789 35.4338 1.70736 35.9221 2.07028C36.3525 2.39031 36.9338 2.81788 37.2882 3.35266C37.4499 3.59685 37.5446 3.842 37.1097 3.84136C36.6972 3.84072 34.5743 2.98014 34.191 2.69051C33.9638 2.51897 33.9249 2.31191 33.9919 2.13941Z" fill="white"/>
<path d="M38.7288 10.077C40.7083 8.96294 42.3348 7.54422 44.449 6.86959C44.5139 6.84878 44.5613 6.96912 44.4963 7.00624C42.6335 8.0742 35.6925 12.5611 34.0879 14.0102C34.7394 12.7765 37.0986 10.9945 38.7288 10.077Z" fill="#4688E8"/>
<path d="M29.4065 3.59816C31.3861 2.48411 33.0125 1.06539 35.1267 0.39107C35.1917 0.370268 35.239 0.490601 35.174 0.527725C33.3112 1.59569 26.3702 6.0826 24.7656 7.53172C25.4169 6.29766 27.7764 4.51538 29.4065 3.59816Z" fill="#4688E8"/>
<path d="M13.2698 30.0725C13.1134 30.4021 13.2777 30.8741 13.6366 31.1263C13.9955 31.3785 14.4133 31.3158 14.5697 30.9862C14.7261 30.6565 14.5618 30.1845 14.2029 29.9323C13.844 29.6798 13.4262 29.7425 13.2698 30.0725Z" fill="white"/>
<path d="M32.3965 24.0742C32.3965 24.0742 31.3464 24.3309 31.1242 24.1686C30.902 24.0064 30.9175 23.4914 31.2049 23.3919C31.4925 23.2924 32.1138 23.3919 32.1138 23.3919L32.3965 24.0742Z" fill="#4C2011"/>
<path d="M33.8104 23.7489C33.2351 23.0765 32.2128 22.3439 31.8203 22.1589C31.8503 22.1196 31.8794 22.0786 31.9118 22.0443C32.1944 21.7435 32.4166 22.012 32.6948 22.1733C33.3521 22.5551 34.3018 23.2102 34.6991 24.1675C35.0275 24.9583 34.9722 25.4982 34.4574 25.5766C34.5747 25.0533 34.3299 24.356 33.8104 23.7489Z" fill="#80B4FF"/>
<path d="M32.5878 24.939C31.6108 24.3764 31.3799 23.576 31.4927 22.9199C31.5437 22.6235 31.6665 22.3608 31.8206 22.1582C32.2131 22.3432 33.2354 23.0761 33.8107 23.7481C34.3299 24.3553 34.5747 25.0523 34.4575 25.5759C34.0854 25.6325 33.4749 25.4498 32.5878 24.939Z" fill="#619BF7"/>
<path opacity="0.5" d="M34.2881 9.28477C34.4385 9.14235 34.611 9.0473 34.794 8.98842C35.2833 8.83096 35.5917 8.76279 35.7979 8.09392C36.076 7.19077 36.5851 6.51678 37.4475 6.62463C38.1471 6.712 38.856 7.10724 39.523 7.36839C40.3031 7.67371 41.0837 7.97742 41.8633 8.28466C42.3208 8.46484 42.875 8.63094 43.1743 9.13371C43.4501 9.59713 43.4219 10.3018 43.4708 10.8414C43.6089 12.3699 43.9659 14.2559 42.98 15.4832C42.9739 15.4906 42.9676 15.4935 42.9615 15.4989C42.7294 15.7914 42.4772 16.0503 42.4946 16.5493C42.5272 17.4963 42.6329 18.4141 42.5843 19.3675C42.5545 19.9506 42.4885 22.2542 41.5123 21.6558C41.2239 21.4791 41.1471 21.0122 41.0751 20.6701C40.9289 19.9769 40.7869 18.883 40.6299 18.1936C40.0402 18.3261 40.1259 19.806 40.1077 20.0118C40.0875 20.238 40.0567 20.4604 39.9905 20.6749C39.8882 21.0058 39.7136 21.4119 39.3731 21.346C39.0879 21.2909 38.8946 20.9095 38.8131 20.6115C38.6146 19.8869 38.7616 19.0385 38.638 18.2855C38.5431 17.7059 38.476 17.0005 37.9641 16.7112C37.8416 16.6421 37.7238 16.7227 37.5876 16.6232C37.3339 16.4373 37.2879 16.0084 37.2511 15.6906C37.1843 15.1146 37.2871 14.4681 36.7042 14.2601C36.3989 14.1509 36.029 14.2073 35.7108 14.1528C35.3788 14.0962 34.9923 13.9832 34.8285 13.5768C34.7643 13.4171 34.6994 13.2385 34.7685 13.082C35.2055 12.0947 34.7964 11.5705 34.4843 11.2344C34.3852 11.1279 34.2792 11.0338 34.189 10.9147C34.0357 10.7125 33.8916 10.4747 33.8782 10.1879C33.8606 9.81955 34.0602 9.50048 34.2881 9.28477Z" fill="white"/>
<path opacity="0.5" d="M16.5755 20.353C17.151 19.9991 17.8791 19.8368 18.5164 19.9655C19.1112 20.0858 19.617 20.331 20.2336 20.2058C20.6632 20.1185 21.0742 19.9306 21.4951 19.8007C22.214 19.5786 22.8631 19.568 23.5622 19.8941C24.2004 20.1921 24.9363 20.6958 25.4156 20.8974C25.6859 21.011 26.1723 21.1039 26.5154 21.2792C26.8112 21.4306 27.0976 21.6998 27.1128 22.1235C27.1265 22.5037 26.6298 22.8817 26.4132 23.0606C26.2493 23.1959 26.2488 23.8715 27.0686 24.3641C27.2685 24.4841 27.4809 24.5596 27.6781 24.6873C28.0535 24.9305 28.414 25.2736 28.6664 25.6929C28.9196 26.1134 29.0295 26.8392 28.7385 27.1836C28.5071 27.6102 27.7083 27.4828 27.7301 28.3172C27.7551 29.2747 28.073 30.3475 27.7012 31.2705C27.5048 31.7582 27.0715 32.0757 26.6522 31.7719C25.9349 31.2525 26.1823 29.1339 25.2813 29.0395C24.6941 29.211 24.9815 30.7494 24.1173 30.7213C23.5507 30.703 23.0548 30.1122 22.7319 29.6082C22.1211 28.6551 20.832 29.2369 19.9851 28.6449C19.6949 28.442 19.4598 28.1591 19.3247 27.7833C19.1835 27.3907 19.1845 26.981 19.0007 26.6354C18.0994 25.9972 16.3378 25.6954 16.5195 24.1442C16.5639 23.765 16.656 23.4273 16.5308 23.0506C16.4511 22.8109 16.2968 22.6311 16.1727 22.4266C16.0373 22.2035 15.894 21.983 15.8511 21.7039C15.7533 21.068 16.1461 20.6171 16.5755 20.353Z" fill="white"/>
<path d="M18.0831 16.9886C18.9931 17.0741 19.865 17.3897 20.6806 17.9056C21.4423 18.3872 22.2213 18.6173 22.9864 18.8538C23.6143 19.0478 24.5061 19.0644 25.0401 19.5969C25.9275 20.4812 24.1785 20.51 23.3845 20.437C24.0576 20.9811 25.3278 21.9002 24.997 22.612C24.7972 23.0418 24.0997 22.9288 23.7844 22.8687C23.3955 22.7944 23.0427 22.6206 22.7206 22.3723C23.0782 23.1503 23.5288 24.3488 23.0385 24.7652C22.4987 25.2238 21.9531 24.4135 21.6 23.6966C21.661 24.273 21.6542 24.8545 21.5046 25.4203C21.3876 25.8633 21.0537 26.7334 20.6361 26.8663C20.3177 26.9677 20.2531 26.6243 20.1694 26.3126C19.9541 25.5103 19.8219 24.6836 19.7419 23.8473C19.5642 24.2362 19.3694 24.7006 18.9713 24.7358C18.3021 24.795 18.665 22.1793 18.5519 21.0227C18.4754 20.2405 18.3521 19.4664 18.1891 18.7044C18.0763 18.1769 17.943 17.6866 17.9614 17.1362C17.9643 17.061 18.0155 16.9822 18.0831 16.9886Z" fill="#97CDFC"/>
<path d="M16.3775 14.2629C17.2279 14.5116 18.1137 14.8294 18.9069 15.3213C19.9928 15.714 21.0277 16.2539 22.1259 16.6817C22.3999 16.7883 22.4582 17.1276 22.2671 17.2953C21.8412 17.6687 20.9401 17.5586 20.3614 17.454C20.7571 17.7929 21.1215 18.1798 21.4376 18.6317C21.6171 18.8884 22.3144 19.7547 21.9458 20.0674C21.6111 20.3513 20.1101 19.555 19.7467 19.1822C19.8921 19.5611 19.9678 19.9698 19.9938 20.4054C20.0207 20.8557 20.0982 21.6327 19.875 22.0196C19.417 22.813 18.9082 20.9494 18.62 20.1282C18.6311 20.7628 18.2696 21.9819 17.7337 21.9819C17.3617 21.9819 17.5576 20.9629 17.5026 20.1282C17.2967 16.9938 16.621 15.5511 16.2642 14.4328C16.2379 14.3484 16.2997 14.2399 16.3775 14.2629Z" fill="#CAE9F9"/>
<path d="M14.8633 13.1738C16.2728 13.6091 18.0336 13.691 19.42 14.2543C19.5107 14.2911 19.5008 14.4261 19.42 14.4671C18.9013 14.7311 18.4146 14.725 17.8969 14.6306C18.2121 14.8047 18.4738 15.0848 18.662 15.4787C18.6949 15.5475 18.6539 15.6538 18.5829 15.6467C17.9334 15.5831 17.2007 15.3232 16.659 14.9075C16.8941 15.8119 17.1113 16.7816 17.0219 17.7302C17.0122 17.8323 16.9659 18.0813 16.7358 17.8534C16.3099 17.4319 16.3041 16.7528 16.1771 16.1342C15.9578 15.0672 15.1596 13.7841 14.8633 13.1738Z" fill="#E1F4FF"/>
<path d="M15.6309 13.6094C15.6309 13.6094 17.2624 13.9603 17.5581 14.067C17.8539 14.1738 17.81 14.3697 17.1745 14.2585C16.5393 14.1466 15.6309 13.6094 15.6309 13.6094Z" fill="white"/>
<path d="M15.8885 14.5664C15.8885 14.5664 16.3032 14.9754 16.4967 15.5112C16.6334 15.8894 16.6581 16.2632 16.5485 16.1541C16.4388 16.045 16.3652 15.7045 16.2161 15.3867C16.0668 15.0685 15.8885 14.5664 15.8885 14.5664Z" fill="white"/>
<path d="M17.6012 16.5215C17.6012 16.5215 18.3571 17.6615 18.5762 18.6251C18.7952 19.5887 18.5249 19.8847 18.3571 19.2952C18.1894 18.7057 17.7655 17.0281 17.6012 16.5215Z" fill="white"/>
<path d="M18.8505 16.4668C18.8505 16.4668 20.8729 17.4515 21.4424 17.7204C22.1589 18.0583 22.1042 18.3144 21.0854 17.9457C20.275 17.6525 18.8505 16.4668 18.8505 16.4668Z" fill="white"/>
<path d="M20.353 20.748C20.353 20.748 20.7027 21.6374 20.9493 22.5729C21.196 23.5084 20.8836 24.2067 20.6207 23.2575C20.3575 22.3082 20.353 20.748 20.353 20.748Z" fill="white"/>
<path d="M22.2466 21.6484C22.2466 21.6484 23.7749 22.8335 24.4651 23.151C25.1553 23.4685 24.8188 23.9885 23.9763 23.4285C23.1339 22.8684 22.2466 21.6484 22.2466 21.6484Z" fill="white"/>
<path d="M18.13 22.3281C18.13 22.3281 18.324 23.6524 17.9601 24.2205C17.596 24.7886 17.3551 24.5533 17.6015 24.0685C17.8481 23.5836 18.13 22.3281 18.13 22.3281Z" fill="white"/>
<path d="M23.4136 18.0584C23.4136 18.0584 24.8466 17.974 25.2854 17.934C25.7245 17.8941 25.8607 18.3664 25.1466 18.4463C24.4325 18.5262 23.4136 18.0584 23.4136 18.0584Z" fill="white"/>
<path d="M36.569 7.44103C36.7822 7.01378 37.9859 7.7073 38.3109 7.88268C38.6329 8.05614 39.0799 8.14511 39.4123 8.30801C38.9558 7.79179 38.2244 7.10659 38.3082 6.28698C38.3193 6.17945 38.3921 6.12888 38.4739 6.17112C39.28 6.58653 39.9502 7.225 40.8016 7.5508C41.579 7.84844 42.3689 7.94413 43.1745 7.96109C43.1629 8.55956 43.1868 9.21179 43.3398 9.7901C42.6039 10.3895 42.0994 11.2591 41.6847 12.2038C41.4733 12.6855 41.2811 13.179 41.0716 13.6616C40.9709 13.8936 40.7721 14.3884 40.5623 14.5167C40.2949 14.6803 40.1306 14.3957 40.0583 14.0565C39.9875 13.7243 40.1056 13.3127 40.272 12.9357C39.7966 13.3067 39.2111 13.5707 39.0037 12.9687C38.7707 12.2921 39.966 11.2946 40.48 10.8456C40.3777 10.8571 38.3282 11.4412 38.1794 10.6942C38.0479 10.0346 40.3449 9.55103 40.5368 9.48638C39.9047 9.48638 35.9608 8.65973 36.569 7.44103Z" fill="#B5E0FF"/>
<path d="M42.9137 7.85498C42.3873 7.82202 41.5646 7.43765 41.2817 6.83182C41.0861 6.41258 42.0521 6.924 42.2706 6.97616C42.7662 7.09489 43.2237 7.14386 43.7301 7.11154C44.4455 7.06545 45.1604 7.01425 45.8764 7.00945C45.9142 7.23987 45.9116 7.35636 45.8025 7.60663C45.742 7.74521 45.2214 8.71684 45.2006 8.71588C44.6364 9.23274 44.0922 9.76752 43.611 10.4066C43.3278 10.7827 43.0859 11.1901 42.8346 11.5972C42.6818 11.8449 42.4349 12.234 42.2916 12.0446C41.862 11.4756 42.5685 10.4556 42.9695 9.91698C42.8672 9.9653 42.2546 10.4546 42.0332 10.5398C41.7637 10.6431 41.5602 10.3986 41.5239 10.0812C41.4866 9.75536 42.2038 9.32267 42.4678 9.08456C42.1554 9.10472 41.282 9.51277 41.1403 9.09832C40.9297 8.48257 42.5561 7.99004 42.9137 7.85498Z" fill="#CAE9F9"/>
<path d="M45.7157 7.0905C45.3889 6.96281 44.7466 6.03214 45.1636 6.10351C45.7375 6.20144 46.0473 6.37874 46.4506 6.51347C47.1097 6.73366 48.1068 6.54452 49.0078 6.38898C48.2414 6.90008 47.1991 7.47422 46.4869 8.11174C46.1196 8.44073 45.8177 8.8315 45.4801 9.1973C45.3431 9.3458 45.2219 9.49429 45.0295 9.48597C44.7121 9.47221 44.6616 9.19762 44.735 8.8843C44.7692 8.73837 44.8226 8.59627 44.8901 8.4625C44.7034 8.5057 44.5486 8.45834 44.49 8.22375C44.3498 7.66593 45.1793 7.2854 45.7157 7.0905Z" fill="#E1F4FF"/>
<path d="M47.2324 6.99219C46.8967 7.1042 46.5896 7.48344 45.9998 7.90749C45.3672 8.36226 45.505 7.86973 45.8018 7.6073C46.0987 7.34487 47.2324 6.99219 47.2324 6.99219Z" fill="white"/>
<path d="M44.916 6.75058C44.8666 6.74291 43.9792 6.34854 43.6177 6.15615C43.2562 5.96408 43.141 6.28303 43.6177 6.56299C44.0944 6.84294 44.916 6.75058 44.916 6.75058Z" fill="white"/>
<path d="M44.3242 7.42188C44.3242 7.42188 43.6269 7.44041 43.302 7.48196C42.9767 7.5235 42.9286 7.80186 43.3388 7.7926C43.7489 7.78301 44.3242 7.42188 44.3242 7.42188Z" fill="white"/>
<path d="M44.0117 9.22461C44.0117 9.22461 43.0652 10.3867 42.812 10.6949C42.4591 11.1247 42.1954 10.5473 42.7092 10.0961C43.2229 9.64482 44.0117 9.22461 44.0117 9.22461Z" fill="white"/>
<path d="M41.4648 7.42287C41.4648 7.42287 40.6332 6.82056 40.2438 6.43236C39.8544 6.04448 39.5815 6.28866 40.0056 6.76648C40.4294 7.24461 41.4648 7.42287 41.4648 7.42287Z" fill="white"/>
<path d="M40.6289 8.35847C40.6289 8.35847 39.4181 7.91137 38.8397 7.65791C38.2613 7.40444 38.0146 7.67999 38.6228 8.0922C39.2309 8.5044 40.6289 8.35847 40.6289 8.35847Z" fill="white"/>
<path d="M41.9902 10.7871C41.9902 10.7871 41.2777 11.4774 40.7742 12.2346C40.3985 12.7995 40.1182 12.2906 40.6278 11.7578C41.137 11.2246 41.9902 10.7871 41.9902 10.7871Z" fill="white"/>
<path d="M38.7539 9.67572C38.7539 9.67572 37.6036 9.63002 36.7654 9.48748C35.9272 9.34527 36.0423 10.0583 36.8148 10.0982C37.5873 10.1382 38.7539 9.67572 38.7539 9.67572Z" fill="white"/>
<path d="M52.5932 15.0806C52.5932 15.0806 52.8643 14.7731 53.1369 14.7312C53.4096 14.6892 54.0661 14.9481 54.0661 14.9481L54.1934 15.6593C54.1934 15.6593 53.4351 16.1611 53.1445 16.0625C52.854 15.9636 52.5932 15.0806 52.5932 15.0806Z" fill="#FFC9B6"/>
<path d="M48.059 6.32309C48.9425 5.91057 49.7344 5.50732 50.1943 5.35882C50.606 5.22601 50.7101 5.61549 50.8006 5.90097C50.8531 6.06674 50.9541 6.3503 51.0275 6.62905C51.1713 7.17695 51.0611 7.30849 50.7514 7.44674C50.311 7.64292 49.9687 7.79078 49.7812 7.86151C49.6043 7.92808 49.522 7.84039 49.4312 7.63748C49.3371 7.42626 49.2698 7.20255 49.1957 6.98141C49.1475 6.83803 49.0195 6.76186 48.897 6.80315C48.6953 6.871 48.4058 6.96541 48.2741 6.99485C48.0569 7.04414 47.9207 6.38774 48.059 6.32309ZM49.6794 7.31969C49.7649 7.56323 50.0134 7.38753 50.2755 7.27968C50.6844 7.11134 50.7477 7.02589 50.6644 6.76186C50.5279 6.33045 50.4919 6.22324 50.4919 6.22324L49.4504 6.67865C49.4504 6.67865 49.5816 7.04125 49.6794 7.31969Z" fill="#491D11"/>
<path d="M50.1972 30.9413C51.0235 29.3763 53.9094 28.2117 54.9577 28.1173C55.5701 28.0625 55.9689 27.8046 56.144 27.3517C56.4385 26.5888 56.0951 25.275 55.202 23.7475C53.9197 21.5549 52.9484 17.0385 52.8459 14.1957C52.7428 11.3358 52.4549 8.5467 52.2362 7.5021C52.0495 6.6108 51.8071 6.08722 51.4731 5.85391C51.2504 5.69838 50.9741 5.67277 50.6086 5.76238C50.581 5.72398 50.5708 5.66669 50.5679 5.60493C50.9762 5.50091 51.2828 5.53612 51.5386 5.71502C51.9054 5.97137 52.1675 6.52663 52.3637 7.46242C52.5843 8.5147 52.874 11.3182 52.9776 14.1886C53.0794 17.0085 54.0406 21.4851 55.3095 23.6547C56.2311 25.2305 56.5786 26.6028 56.2631 27.4199C56.0665 27.9291 55.6308 28.2174 54.9677 28.277C53.9683 28.3666 51.099 29.5296 50.3081 31.0277C50.0444 31.5269 49.9653 31.9785 50.0657 32.4083C50.301 33.4151 51.4931 34.1083 52.5451 34.7199L52.6476 34.7795L52.5908 34.9238L52.4886 34.8643C51.4116 34.2383 50.1908 33.5288 49.9392 32.4521C49.8291 31.9823 49.9158 31.4738 50.1972 30.9413Z" fill="#77382C"/>
<path d="M53.9544 28.1983C54.0969 27.8796 54.5626 27.8921 55.1499 28.118C55.7373 28.3436 55.9535 28.4441 55.9624 28.6573C55.9713 28.8707 56.0468 29.435 55.3151 29.3722C54.5833 29.3095 54.0443 28.8224 53.996 28.6195C53.9471 28.4166 53.9544 28.1983 53.9544 28.1983Z" fill="#381509"/>
<path d="M55.9526 10.8126C56.0212 10.5873 56.1135 10.3796 56.2931 10.2925C56.2968 10.2909 56.301 10.2922 56.3047 10.2913C56.8915 9.74815 57.8168 9.92673 58.1399 10.9348C58.3944 11.7292 58.254 12.7581 58.1168 13.5703C58.0389 14.0315 57.914 14.4754 57.6758 14.8524C57.4502 15.2096 55.6134 14.0549 55.585 12.8947C55.5711 12.3267 55.9169 10.899 55.9526 10.8126Z" fill="#308C66"/>
<path d="M55.875 8.8684C56.0401 9.35485 56.8047 11.1528 56.8047 11.1528L55.0633 12.2147C55.0633 12.2147 55.0084 10.7169 54.6621 9.70721C54.3158 8.69718 55.875 8.8684 55.875 8.8684Z" fill="#FFB9A4"/>
<path d="M54.9525 17.2014C55.0656 16.8407 55.1198 16.7204 55.4345 16.6992C55.7608 16.6775 56.0886 16.7569 56.4199 16.7207C56.9056 16.6676 57.3552 16.5008 57.8079 16.2934C57.9901 16.2099 58.2804 17.3425 58.3335 17.8994C58.4069 18.6691 58.3259 18.9494 58.232 19.6813C58.4768 20.4123 58.6811 21.7654 58.3482 22.7636C59.5001 24.3366 59.4825 25.5799 59.4972 26.2744C59.5377 28.1684 59.1341 27.7543 58.3898 26.9478C57.9712 26.4946 56.5524 24.0729 56.2877 23.485C55.9217 22.6724 55.7726 22.097 55.4303 21.2694C55.1663 20.6312 54.8079 19.9671 54.7146 19.2503C54.6286 18.5894 54.7596 17.8178 54.9525 17.2014Z" fill="#287F57"/>
<path d="M54.3796 18.1533C54.5584 17.7565 57.1125 17.4381 57.0796 17.4579C57.2069 18.073 57.9218 19.7539 56.8438 20.4506C56.8091 20.722 56.0958 23.849 55.6233 24.8988C55.7303 25.5753 55.9093 25.7776 55.6985 26.6615C55.9206 27.2398 55.877 29.1495 55.6233 29.4698C55.1032 30.1259 54.2716 30.2571 54.1661 28.896C54.108 28.1471 53.3866 24.7663 53.3001 23.3213C53.598 21.1114 53.8327 19.3676 54.3796 18.1533Z" fill="#308C66"/>
<path d="M57.6582 18.0434C57.6582 18.0434 57.2967 18.7616 56.0969 18.9386C54.8972 19.1155 54.2399 18.4908 54.2399 18.4908L54.379 18.1526C54.379 18.1526 55.6881 18.5155 56.5005 18.1154C57.313 17.7154 57.5759 17.6328 57.5759 17.6328L57.6582 18.0434Z" fill="#287F57"/>
<path d="M54.0884 11.9216C54.339 11.7299 56.7645 10.1633 56.988 10.3083C57.5701 10.6859 57.9613 11.9894 58.0244 12.8097C58.0652 13.3387 58.0108 15.8148 58.0518 16.2526C58.295 16.3755 58.3691 16.4674 58.1551 16.7205C58.3533 16.967 58.281 17.1968 58.0846 17.4499C57.8809 17.713 56.4808 18.7361 55.895 18.7361C55.0789 18.7361 54.5217 18.4807 54.3095 18.2878C54.162 18.1537 54.08 17.9706 54.2136 17.8339C54.1381 17.3139 53.775 16.388 53.7027 15.9025C53.5539 14.9063 53.3204 14.1967 53.2786 13.1793C53.2455 12.3767 53.6149 12.2839 54.0884 11.9216Z" fill="#3E9B77"/>
<path d="M54.0303 8.28632C54.1315 7.68465 54.3566 7.17195 54.8425 7.02953C55.3039 6.89416 55.8264 7.13642 56.1337 7.60112C56.511 8.17206 56.3959 8.79965 56.0627 9.3546C55.8655 9.68327 55.565 9.97579 55.357 10.1086C55.0852 10.2824 54.5535 10.5435 54.2488 10.0219C53.9688 9.54182 53.9386 8.83262 54.0303 8.28632Z" fill="#FFC9B6"/>
<path d="M55.9622 28.6582C55.7011 28.9468 55.1929 28.9091 54.9026 28.8463C54.2637 28.7084 54.0684 28.4917 53.9545 28.1992C53.9419 28.5682 53.9164 28.967 53.9443 29.4986C53.9787 30.1537 54.0757 30.8056 54.0684 30.891C53.7045 30.7397 53.3595 30.4971 53.0477 30.7278C52.7203 30.9701 52.6967 31.3359 52.7745 31.6972C52.8833 31.8678 53.0892 32.1267 53.3774 32.296C53.7823 32.5341 54.2971 32.6612 54.4751 32.6938C54.7354 32.8839 55.1014 33.0331 55.3717 32.8606C55.6499 32.6829 55.7895 32.5338 55.7072 32.159C55.5699 31.534 55.6359 31.4988 55.8166 30.4513C55.9157 29.8753 56.0035 29.2982 55.9622 28.6582Z" fill="#491D11"/>
<path d="M59.7935 29.0333C59.9736 28.0262 59.7722 26.2957 59.5847 25.7539C58.9934 25.7539 58.2283 25.9856 57.8394 26.3524C57.9746 26.946 58.0237 27.1109 58.1102 27.5394C58.1589 27.7813 58.217 28.0194 58.2817 28.2556C58.3797 28.6134 58.3545 28.6211 58.0511 28.6109C57.5902 28.5955 57.1632 28.703 57.1619 29.3297C57.1616 29.4855 57.455 29.9269 57.5773 30.0152C58.2286 30.4866 58.6366 30.2693 58.9009 30.1903C59.1257 30.4268 59.6544 30.2184 59.9673 29.8657C60.0706 29.7492 59.906 29.1773 59.7935 29.0333Z" fill="#491D11"/>
<path d="M54.0999 7.33132C54.2708 7.29516 54.2038 7.1041 54.3576 6.99496C54.6973 6.75462 55.2031 6.70085 55.5804 6.79718C56.3519 6.994 56.8112 7.47342 56.5065 8.22358C56.5656 8.60891 56.3045 9.6007 56.3684 10.1147C55.8039 10.2725 55.3867 9.9249 55.2423 9.27106C54.9276 9.33667 54.3431 8.59931 54.498 8.26231C53.9245 8.42297 53.8993 7.37357 54.0999 7.33132Z" fill="#381509"/>
<path d="M54.4095 8.72248C54.4095 8.72248 54.654 8.31635 54.8696 8.82265C55.0476 9.24062 54.609 9.39231 54.609 9.39231L54.4095 8.72248Z" fill="#FFC9B6"/>
<path d="M55.0449 8.1117C55.0449 8.1117 54.4728 8.73257 53.5644 8.01473C52.656 7.29689 53.4566 6.51984 54.0866 6.61777C54.7165 6.7157 55.0449 7.07542 55.0449 7.07542V8.1117Z" fill="#308C66"/>
<path d="M54.101 7.33207C54.1736 6.35307 55.3244 5.79941 56.2049 6.55598C56.6866 6.96978 56.9487 7.84924 56.4821 8.78663C56.3761 9.16363 54.2924 9.03914 54.101 7.33207Z" fill="#3E9B77"/>
<path d="M55.6842 6.44325C55.6542 6.51963 55.7239 6.63596 55.8399 6.70372C55.9558 6.77115 56.0744 6.76412 56.1044 6.68774C56.1343 6.61135 56.0647 6.49471 55.9487 6.42727C55.8325 6.35952 55.7142 6.36687 55.6842 6.44325Z" fill="#308C66"/>
<path d="M54.4591 11.6724C54.4591 11.6724 54.9729 10.5014 56.1453 10.1967C56.4395 10.1202 56.6393 10.1734 56.72 10.6416C56.72 10.6416 56.8851 10.865 56.2715 11.1584C55.6581 11.4516 54.4591 11.6724 54.4591 11.6724Z" fill="#287F57"/>
<path d="M50.784 7.94026C50.8726 7.67271 51.0059 7.52485 50.9257 7.35171C50.8316 7.37315 50.7306 7.39268 50.6964 7.26946C50.6686 7.16929 50.6964 7.08928 50.6964 6.99231C50.7177 6.84029 50.5999 6.79197 50.474 6.74332C50.2432 6.65403 50.1435 6.7462 49.9308 7.05952C49.7525 7.32227 49.5751 7.89257 50.0097 8.15468C50.2744 8.73939 50.1611 9.03638 50.3565 9.53564C50.5197 9.95265 51.0829 9.5046 50.9257 8.82516C50.7971 8.2683 50.7267 8.1134 50.784 7.94026Z" fill="#FFC9B6"/>
<path d="M49.9531 8.82551C50.0509 8.38418 50.2796 7.92717 50.6948 8.00974C51.2701 8.12431 51.3061 8.74198 51.6442 9.39742C51.7452 9.59296 52.1243 10.1495 52.4238 10.6904C52.958 10.7131 53.587 11.0703 53.669 11.5305C54.9058 11.1903 55.851 13.9711 54.8027 15.191C54.3558 15.7111 53.7534 14.9555 53.3051 14.5593C52.9281 14.2261 52.2329 13.556 51.6939 12.8759C51.0923 12.1164 50.318 10.3963 50.0703 9.53376C49.9252 9.4179 49.9049 9.04282 49.9531 8.82551Z" fill="#308C66"/>
<path d="M53.2626 15.3017C53.4114 15.5522 53.4311 15.7808 53.3184 15.9913C53.2056 16.2016 52.7028 16.2694 52.7031 15.8646C52.5551 15.8134 52.61 15.6326 52.6092 15.4687C52.4978 15.2927 52.5401 15.0584 52.6539 15.036C52.9731 14.9739 53.1138 15.0511 53.2626 15.3017Z" fill="#FFC9B6"/>
<path d="M53.5569 15.0772C53.5569 15.0772 53.2827 14.788 53.0776 14.8142C52.8728 14.8404 52.8023 15.0842 52.795 15.2913C52.7876 15.4987 52.9483 15.4879 53.0185 15.3434C53.0887 15.199 53.0887 15.199 53.0887 15.199C53.0887 15.199 53.324 15.5444 53.4975 15.455C53.671 15.3655 53.5569 15.0772 53.5569 15.0772Z" fill="#FFC9B6"/>
<path d="M56.3125 18.0114C56.3125 18.0114 55.7136 18.3284 55.1769 18.2098C54.64 18.0913 54.4108 17.8516 54.4108 17.8516C54.4108 17.8516 54.9963 18.0165 55.2947 18.044C55.5931 18.0711 56.3125 18.0114 56.3125 18.0114Z" fill="#308C66"/>
<path d="M56.502 16.3027C56.502 16.3027 56.0161 17.1076 55.4934 17.3694C54.9707 17.6312 54.6688 17.5474 54.6688 17.5474C54.6688 17.5474 55.1337 17.3224 55.5765 17.0183C56.019 16.714 56.502 16.3027 56.502 16.3027Z" fill="#308C66"/>
<path d="M55.3613 25.1024C55.3613 25.1024 55.075 25.33 54.7974 25.2731C54.5197 25.2162 54.4103 25.0267 54.4103 25.0267C54.4103 25.0267 54.7035 24.9886 54.8857 25.0267C55.0682 25.0647 55.3613 25.1024 55.3613 25.1024Z" fill="#287F57"/>
<path d="M55.2539 24.7917C55.2539 24.7917 54.8579 24.4504 54.677 24.3999C54.4962 24.3497 54.3544 24.3203 54.3544 24.3203C54.3544 24.3203 54.5866 24.5411 54.757 24.6444C54.9274 24.7476 55.2539 24.7917 55.2539 24.7917Z" fill="#287F57"/>
<path d="M57.9375 12.2148C57.9375 12.2148 57.7895 12.8034 56.9039 13.1977C56.3518 13.4435 55.6358 13.7059 55.6358 13.7059V14.5188C55.6358 14.5188 56.3555 14.3162 57.0204 13.9978C57.4193 13.8067 57.7621 13.5232 58.0119 13.0562C58.0303 12.8972 58.0035 12.3758 57.9375 12.2148Z" fill="white"/>
</svg>
