<svg width="24" height="24" viewBox="0 0 24 24" fill="none" xmlns="http://www.w3.org/2000/svg">
<path d="M4 12.0016C4 8.98457 4 7.47608 4.93726 6.53882C5.87452 5.60156 7.38301 5.60156 10.4 5.60156H13.6C16.617 5.60156 18.1255 5.60156 19.0627 6.53882C20 7.47608 20 8.98457 20 12.0016C20 15.0186 20 16.527 19.0627 17.4643C18.1255 18.4016 16.617 18.4016 13.6 18.4016H10.4C7.38301 18.4016 5.87452 18.4016 4.93726 17.4643C4 16.527 4 15.0186 4 12.0016Z" stroke="#006FFD" stroke-width="1.5"/>
<path d="M10.3992 15.6016H7.19922" stroke="#006FFD" stroke-width="1.5" stroke-linecap="round"/>
<path d="M8.79922 13.1992H7.19922" stroke="#006FFD" stroke-width="1.5" stroke-linecap="round"/>
<path d="M4 10.3984L20 10.3984" stroke="#006FFD" stroke-width="1.5" stroke-linecap="round"/>
<path d="M13.5996 14.4008C13.5996 13.6465 13.5996 13.2694 13.8339 13.0351C14.0682 12.8008 14.4454 12.8008 15.1996 12.8008C15.9539 12.8008 16.331 12.8008 16.5653 13.0351C16.7996 13.2694 16.7996 13.6465 16.7996 14.4008C16.7996 15.155 16.7996 15.5322 16.5653 15.7665C16.331 16.0008 15.9539 16.0008 15.1996 16.0008C14.4454 16.0008 14.0682 16.0008 13.8339 15.7665C13.5996 15.5322 13.5996 15.155 13.5996 14.4008Z" stroke="#006FFD" stroke-width="1.5"/>
</svg>
