<svg width="24" height="24" viewBox="0 0 24 24" fill="none" xmlns="http://www.w3.org/2000/svg">
<path d="M16 8.8V7.2C16 5.69151 16 4.93726 15.5314 4.46863C15.0627 4 14.3085 4 12.8 4H11.2C9.69151 4 8.93726 4 8.46863 4.46863C8 4.93726 8 5.69151 8 7.2V8.8" stroke="#006FFD" stroke-width="1.5"/>
<path d="M10.8501 7.02727C11.5663 6.63674 12.4318 6.63674 13.148 7.02727L16.9834 9.11861C17.7546 9.53912 18.2344 10.3473 18.2344 11.2257V15.1758C18.2344 16.0542 17.7546 16.8624 16.9834 17.2829L13.148 19.3743C12.4318 19.7648 11.5663 19.7648 10.8501 19.3743L7.01472 17.2829C6.24353 16.8624 5.76367 16.0542 5.76367 15.1758V11.2257C5.76367 10.3473 6.24353 9.53912 7.01472 9.11861L10.8501 7.02727Z" stroke="#006FFD" stroke-width="1.5"/>
<path d="M11.3164 11.6188C11.6204 11.0735 11.7724 10.8008 11.9996 10.8008C12.2269 10.8008 12.3789 11.0735 12.6828 11.6188L12.7615 11.7599C12.8479 11.9148 12.8911 11.9923 12.9584 12.0435C13.0258 12.0946 13.1096 12.1136 13.2774 12.1515L13.4301 12.1861C14.0204 12.3196 14.3156 12.3864 14.3858 12.6122C14.4561 12.8381 14.2548 13.0734 13.8524 13.544L13.7483 13.6657C13.6339 13.7994 13.5767 13.8663 13.551 13.949C13.5253 14.0318 13.5339 14.121 13.5512 14.2994L13.567 14.4618C13.6278 15.0897 13.6582 15.4037 13.4744 15.5432C13.2905 15.6828 13.0142 15.5556 12.4614 15.3011L12.3185 15.2352C12.1614 15.1629 12.0829 15.1267 11.9996 15.1267C11.9164 15.1267 11.8378 15.1629 11.6808 15.2352L11.5378 15.3011C10.9851 15.5556 10.7087 15.6828 10.5248 15.5432C10.341 15.4037 10.3714 15.0897 10.4323 14.4618L10.448 14.2994C10.4653 14.121 10.4739 14.0318 10.4482 13.949C10.4225 13.8663 10.3653 13.7994 10.2509 13.6657L10.1468 13.544C9.74439 13.0734 9.54317 12.8381 9.61339 12.6122C9.68361 12.3864 9.97878 12.3196 10.5691 12.1861L10.7218 12.1515C10.8896 12.1136 10.9734 12.0946 11.0408 12.0435C11.1081 11.9923 11.1513 11.9148 11.2377 11.7599L11.3164 11.6188Z" stroke="#006FFD" stroke-width="1.5"/>
</svg>
