<svg width="76" height="76" viewBox="0 0 76 76" fill="none" xmlns="http://www.w3.org/2000/svg">
<path d="M76 38C76 42.1013 72.4306 45.5655 71.2781 49.2665C70.0825 53.102 70.9746 58.0817 68.7435 61.2746C66.4912 64.499 61.6553 65.1431 58.56 67.4898C55.4963 69.813 53.4267 74.4199 49.7456 75.6649C46.1928 76.8665 41.9351 74.4475 37.9989 74.4475C34.0627 74.4475 29.8064 76.8673 26.2537 75.6649C22.5726 74.4199 20.5022 69.813 17.4378 67.4891C14.3424 65.1423 9.50651 64.4982 7.25499 61.2738C5.02535 58.0817 5.91751 53.102 4.72193 49.2665C3.56862 45.5655 0 42.1021 0 38C0 33.8979 3.56862 30.4345 4.72193 26.7335C5.91751 22.898 5.02535 17.9183 7.25499 14.7262C9.50727 11.501 14.3439 10.8569 17.4378 8.51095C20.5022 6.18703 22.5726 1.58086 26.2537 0.335143C29.8057 -0.866534 34.0627 1.55255 37.9989 1.55255C41.9366 1.55255 46.1936 -0.86732 49.7456 0.335143C53.4267 1.58007 55.4963 6.18703 58.5615 8.51095C61.6561 10.8577 66.4912 11.5018 68.7435 14.727C70.9739 17.9199 70.0817 22.8988 71.2781 26.7351C72.4306 30.4345 76 33.8987 76 38Z" fill="#006FFD"/>
<path d="M71.6051 37.9996C71.6051 41.6267 68.4486 44.6899 67.4289 47.963C66.3722 51.3549 67.1609 55.759 65.1879 58.5823C63.196 61.4339 58.9194 62.0041 56.1818 64.0787C53.4721 66.1329 51.6425 70.2066 48.3864 71.3084C45.2465 72.3717 41.4801 70.2318 37.999 70.2318C34.5187 70.2318 30.7531 72.3717 27.6125 71.3084C24.3563 70.2074 22.526 66.1329 19.8163 64.0787C17.0794 62.0033 12.8021 61.4339 10.8102 58.5823C8.8387 55.759 9.62745 51.3557 8.57 47.963C7.54953 44.6899 4.39453 41.6267 4.39453 37.9996C4.39453 34.3726 7.55028 31.3086 8.57 28.0363C9.6267 24.6444 8.83795 20.2403 10.811 17.417C12.8028 14.5654 17.0794 13.996 19.8163 11.9206C22.526 9.86562 24.3571 5.79187 27.6125 4.69086C30.7531 3.6276 34.518 5.76749 37.999 5.76749C41.4809 5.76749 45.2465 3.6276 48.3879 4.69086C51.6433 5.79187 53.4736 9.86641 56.1833 11.9206C58.9209 13.996 63.196 14.5654 65.1879 17.4178C67.1601 20.2411 66.3714 24.6444 67.4289 28.037C68.4493 31.3086 71.6051 34.3726 71.6051 37.9996Z" fill="#003FB6"/>
<path d="M68.2287 37.9984C68.2287 55.3928 54.6954 69.4936 38.0003 69.4936C21.3067 69.4936 7.77344 55.3928 7.77344 37.9984C7.77344 20.6047 21.3067 6.50391 38.0003 6.50391C54.6954 6.50391 68.2287 20.6047 68.2287 37.9984Z" fill="#006FFD"/>
<circle cx="38.6369" cy="29.9944" r="5.15452" fill="#003FB6"/>
<path d="M52.5498 31.4608C52.1885 37.8091 49.4368 43.188 45.8448 47.6367C43.6656 50.4445 41.235 53.0008 38.7206 54.9285C38.2597 54.9285 34.5719 51.6598 32.267 48.5587C29.3755 44.9966 26.903 41.1412 25.3105 35.5257C22.6285 25.4262 30.1717 17.7037 38.6368 18.0087C43.5805 18.1869 47.1579 20.0092 49.4487 22.7023C51.4806 25.091 52.7689 27.6116 52.5498 31.4608ZM27.6992 30.9579C27.6992 38.9621 35.1586 47.972 38.6368 51.3245C43.3723 46.5053 45.761 44.1585 48.9878 35.9867C49.9204 32.888 49.9472 29.7634 48.904 27.1863C48.494 26.1736 47.9961 25.2544 47.2277 24.4624C45.492 22.5699 43.2466 20.9841 38.6368 20.9003C35.6196 20.8454 32.3224 21.7803 29.9202 24.7138C28.7068 26.1956 27.813 28.1767 27.6992 30.9579Z" fill="#003FB6"/>
<path d="M29.125 36.2369L33.6509 35.315L38.6378 35.1055L45.5105 35.5245L48.2344 36.2369L47.6477 37.8713L44.379 36.9913L38.6378 36.7398L33.6509 36.9913L29.8793 37.8713L29.125 36.2369Z" fill="#003FB6"/>
<path d="M29.166 36.3218L29.5432 36.0285L30.7585 35.6932L32.7281 35.3999L35.3682 35.2323L37.1702 35.1484H38.6369H40.2294L41.6123 35.2323L43.3305 35.3161L45.1325 35.4837L47.2278 35.8189L47.8145 36.0285L48.3174 36.3218L47.6049 37.9981L47.2278 37.6209L45.1325 37.2019L43.3305 37.0342L41.6123 36.8666L38.6369 36.8247H37.1702L35.3682 36.9085L32.7281 37.1181L30.2556 37.6209L29.8365 37.9981L29.166 36.3218Z" fill="#003FB6"/>
<path d="M51.6699 41.052C51.6699 40.1064 52.4365 39.3398 53.3821 39.3398H54.0502C54.7723 39.3398 55.3577 39.9252 55.3577 40.6473C55.3577 41.1287 54.9675 41.519 54.486 41.519H51.6699V41.052Z" fill="#003FB6"/>
<path d="M51.9966 40.9483L52.5684 41.8392L51.6546 42.4258L51.0408 41.4748L51.9966 40.9483Z" fill="#003FB6"/>
<path d="M52.1797 41.3633H53.6045L54.6032 41.5177L53.346 41.6434L52.8431 41.7272L52.473 41.9081L52.1797 41.3633Z" fill="#003FB6"/>
<path d="M51.0421 41.4766L52.3413 43.1109L53.2213 44.1167L53.5985 44.6196L53.8918 45.1643L54.1013 45.6672L54.3109 46.673L54.3528 47.8883L52.5927 48.6845V47.6787V47.134L52.5508 46.6311L52.467 46.212L52.2574 45.7929L52.0479 45.4577L51.6707 44.9967L51.2098 44.4938L50.7907 44.0329L50.4555 43.6138L50.1621 43.1947L51.0421 41.4766Z" fill="#003FB6"/>
<rect x="53.4297" y="49.4805" width="1.76008" height="7.5432" fill="#003FB6"/>
<rect x="49.2402" y="58.5312" width="1.76008" height="4.19067" transform="rotate(-90 49.2402 58.5312)" fill="#003FB6"/>
<path d="M52.5918 48.6829L54.3519 47.8867L54.729 48.2639L54.9386 48.5153L55.0224 48.7249L55.1062 48.9344L55.19 49.2277V49.4792H53.4299L52.5918 48.6829Z" fill="#003FB6"/>
<path d="M53.9301 56.0379L55.1893 57.0258L55.0217 57.5287L54.7703 57.864L54.435 58.1154L54.1836 58.283L54.016 58.3669L53.8484 58.4507L53.6807 58.5249L53.4191 58.5249L53.1989 56.9178L53.9301 56.0379Z" fill="#003FB6"/>
<path d="M51.6699 41.052C51.6699 40.1064 52.4365 39.3398 53.3821 39.3398H54.0502C54.7723 39.3398 55.3577 39.9252 55.3577 40.6473C55.3577 41.1287 54.9675 41.519 54.486 41.519H51.6699V41.052Z" fill="#003FB6"/>
<path d="M52.1797 41.3633H53.6045L54.6032 41.5177L53.346 41.6434L52.8431 41.7272L52.473 41.9081L52.1797 41.3633Z" fill="#003FB6"/>
<path d="M51.0421 41.4766L52.3413 43.1109L53.2213 44.1167L53.5985 44.6196L53.8918 45.1643L54.1013 45.6672L54.3109 46.673L54.3528 47.8883L52.5927 48.6845V47.6787V47.134L52.5508 46.6311L52.467 46.212L52.2574 45.7929L52.0479 45.4577L51.6707 44.9967L51.2098 44.4938L50.7907 44.0329L50.4555 43.6138L50.1621 43.1947L51.0421 41.4766Z" fill="#003FB6"/>
<rect x="53.4297" y="49.4805" width="1.76008" height="7.5432" fill="#003FB6"/>
<rect x="49.2402" y="58.5312" width="1.76008" height="4.19067" transform="rotate(-90 49.2402 58.5312)" fill="#003FB6"/>
<path d="M52.5918 48.6829L54.3519 47.8867L54.729 48.2639L54.9386 48.5153L55.0224 48.7249L55.1062 48.9344L55.19 49.2277V49.4792H53.4299L52.5918 48.6829Z" fill="#003FB6"/>
<path d="M53.9301 56.0379L55.1893 57.0258L55.0217 57.5287L54.7703 57.864L54.435 58.1154L54.1836 58.283L54.016 58.3669L53.8484 58.4507L53.6807 58.5249L53.4191 58.5249L53.1989 56.9178L53.9301 56.0379Z" fill="#003FB6"/>
<path d="M51.6699 41.052C51.6699 40.1064 52.4365 39.3398 53.3821 39.3398H54.0502C54.7723 39.3398 55.3577 39.9252 55.3577 40.6473C55.3577 41.1287 54.9675 41.519 54.486 41.519H51.6699V41.052Z" fill="#003FB6"/>
<path d="M52.1797 41.3633H53.6045L54.6032 41.5177L53.346 41.6434L52.8431 41.7272L52.473 41.9081L52.1797 41.3633Z" fill="#003FB6"/>
<path d="M51.0421 41.4766L52.3413 43.1109L53.2213 44.1167L53.5985 44.6196L53.8918 45.1643L54.1013 45.6672L54.3109 46.673L54.3528 47.8883L52.5927 48.6845V47.6787V47.134L52.5508 46.6311L52.467 46.212L52.2574 45.7929L52.0479 45.4577L51.6707 44.9967L51.2098 44.4938L50.7907 44.0329L50.4555 43.6138L50.1621 43.1947L51.0421 41.4766Z" fill="#003FB6"/>
<rect x="53.4297" y="49.4805" width="1.76008" height="7.5432" fill="#003FB6"/>
<rect x="49.2402" y="58.5312" width="1.76008" height="4.19067" transform="rotate(-90 49.2402 58.5312)" fill="#003FB6"/>
<path d="M52.5918 48.6829L54.3519 47.8867L54.729 48.2639L54.9386 48.5153L55.0224 48.7249L55.1062 48.9344L55.19 49.2277V49.4792H53.4299L52.5918 48.6829Z" fill="#003FB6"/>
<path d="M53.9301 56.0379L55.1893 57.0258L55.0217 57.5287L54.7703 57.864L54.435 58.1154L54.1836 58.283L54.016 58.3669L53.8484 58.4507L53.6807 58.5249L53.4191 58.5249L53.1989 56.9178L53.9301 56.0379Z" fill="#003FB6"/>
<path d="M51.6699 41.052C51.6699 40.1064 52.4365 39.3398 53.3821 39.3398H54.0502C54.7723 39.3398 55.3577 39.9252 55.3577 40.6473C55.3577 41.1287 54.9675 41.519 54.486 41.519H51.6699V41.052Z" fill="#003FB6"/>
<path d="M52.1797 41.3633H53.6045L54.6032 41.5177L53.346 41.6434L52.8431 41.7272L52.473 41.9081L52.1797 41.3633Z" fill="#003FB6"/>
<path d="M51.0421 41.4766L52.3413 43.1109L53.2213 44.1167L53.5985 44.6196L53.8918 45.1643L54.1013 45.6672L54.3109 46.673L54.3528 47.8883L52.5927 48.6845V47.6787V47.134L52.5508 46.6311L52.467 46.212L52.2574 45.7929L52.0479 45.4577L51.6707 44.9967L51.2098 44.4938L50.7907 44.0329L50.4555 43.6138L50.1621 43.1947L51.0421 41.4766Z" fill="#003FB6"/>
<rect x="53.4297" y="49.4805" width="1.76008" height="7.5432" fill="#003FB6"/>
<rect x="49.2402" y="58.5312" width="1.76008" height="4.19067" transform="rotate(-90 49.2402 58.5312)" fill="#003FB6"/>
<path d="M52.5918 48.6829L54.3519 47.8867L54.729 48.2639L54.9386 48.5153L55.0224 48.7249L55.1062 48.9344L55.19 49.2277V49.4792H53.4299L52.5918 48.6829Z" fill="#003FB6"/>
<path d="M53.9301 56.0379L55.1893 57.0258L55.0217 57.5287L54.7703 57.864L54.435 58.1154L54.1836 58.283L54.016 58.3669L53.8484 58.4507L53.6807 58.5249L53.4191 58.5249L53.1989 56.9178L53.9301 56.0379Z" fill="#003FB6"/>
<path d="M51.7012 41.0737C51.7012 40.1161 52.4775 39.3398 53.4351 39.3398H54.1282C54.8503 39.3398 55.4357 39.9252 55.4357 40.6473C55.4357 41.1287 55.0454 41.519 54.564 41.519H51.7012V41.0737Z" fill="#003FB6"/>
<path d="M52.0322 40.9483L52.6113 41.8392L51.6859 42.4258L51.0644 41.4748L52.0322 40.9483Z" fill="#003FB6"/>
<path d="M52.2168 41.3633H53.6597L54.671 41.5177L53.3978 41.6434L52.8886 41.7272L52.5139 41.9081L52.2168 41.3633Z" fill="#003FB6"/>
<path d="M51.0631 41.4766L52.3786 43.1109L53.2698 44.1167L53.6518 44.6196L53.9488 45.1643L54.161 45.6672L54.3732 46.673L54.4156 47.8883L52.6333 48.6845V47.6787V47.134L52.5908 46.6311L52.5059 46.212L52.2938 45.7929L52.0816 45.4577L51.6996 44.9967L51.2328 44.4938L50.8084 44.0329L50.4689 43.6138L50.1719 43.1947L51.0631 41.4766Z" fill="#003FB6"/>
<rect x="53.4824" y="49.4805" width="1.78238" height="7.5432" fill="#003FB6"/>
<rect x="49.2383" y="58.5312" width="1.76008" height="4.24377" transform="rotate(-90 49.2383 58.5312)" fill="#003FB6"/>
<path d="M52.6348 48.6829L54.4171 47.8867L54.7991 48.2639L55.0113 48.5153L55.0962 48.7249L55.181 48.9344L55.2659 49.2277V49.4792H53.4835L52.6348 48.6829Z" fill="#003FB6"/>
<path d="M53.9904 56.0379L55.2655 57.0258L55.0958 57.5287L54.8412 57.864L54.5017 58.1154L54.2471 58.283L54.0773 58.3669L53.9076 58.4507L53.7378 58.5249L53.4729 58.5249L53.2499 56.9178L53.9904 56.0379Z" fill="#003FB6"/>
<path d="M51.7012 41.0737C51.7012 40.1161 52.4775 39.3398 53.4351 39.3398H54.1282C54.8503 39.3398 55.4357 39.9252 55.4357 40.6473C55.4357 41.1287 55.0454 41.519 54.564 41.519H51.7012V41.0737Z" fill="#003FB6"/>
<path d="M52.2168 41.3633H53.6597L54.671 41.5177L53.3978 41.6434L52.8886 41.7272L52.5139 41.9081L52.2168 41.3633Z" fill="#003FB6"/>
<path d="M51.0631 41.4766L52.3786 43.1109L53.2698 44.1167L53.6518 44.6196L53.9488 45.1643L54.161 45.6672L54.3732 46.673L54.4156 47.8883L52.6333 48.6845V47.6787V47.134L52.5908 46.6311L52.5059 46.212L52.2938 45.7929L52.0816 45.4577L51.6996 44.9967L51.2328 44.4938L50.8084 44.0329L50.4689 43.6138L50.1719 43.1947L51.0631 41.4766Z" fill="#003FB6"/>
<rect x="53.4824" y="49.4805" width="1.78238" height="7.5432" fill="#003FB6"/>
<rect x="49.2383" y="58.5312" width="1.76008" height="4.24377" transform="rotate(-90 49.2383 58.5312)" fill="#003FB6"/>
<path d="M52.6348 48.6829L54.4171 47.8867L54.7991 48.2639L55.0113 48.5153L55.0962 48.7249L55.181 48.9344L55.2659 49.2277V49.4792H53.4835L52.6348 48.6829Z" fill="#003FB6"/>
<path d="M53.9904 56.0379L55.2655 57.0258L55.0958 57.5287L54.8412 57.864L54.5017 58.1154L54.2471 58.283L54.0773 58.3669L53.9076 58.4507L53.7378 58.5249L53.4729 58.5249L53.2499 56.9178L53.9904 56.0379Z" fill="#003FB6"/>
<path d="M51.7012 41.0737C51.7012 40.1161 52.4775 39.3398 53.4351 39.3398H54.1282C54.8503 39.3398 55.4357 39.9252 55.4357 40.6473C55.4357 41.1287 55.0454 41.519 54.564 41.519H51.7012V41.0737Z" fill="#003FB6"/>
<path d="M52.2168 41.3633H53.6597L54.671 41.5177L53.3978 41.6434L52.8886 41.7272L52.5139 41.9081L52.2168 41.3633Z" fill="#003FB6"/>
<path d="M51.0631 41.4766L52.3786 43.1109L53.2698 44.1167L53.6518 44.6196L53.9488 45.1643L54.161 45.6672L54.3732 46.673L54.4156 47.8883L52.6333 48.6845V47.6787V47.134L52.5908 46.6311L52.5059 46.212L52.2938 45.7929L52.0816 45.4577L51.6996 44.9967L51.2328 44.4938L50.8084 44.0329L50.4689 43.6138L50.1719 43.1947L51.0631 41.4766Z" fill="#003FB6"/>
<rect x="53.4824" y="49.4805" width="1.78238" height="7.5432" fill="#003FB6"/>
<rect x="49.2383" y="58.5312" width="1.76008" height="4.24377" transform="rotate(-90 49.2383 58.5312)" fill="#003FB6"/>
<path d="M52.6348 48.6829L54.4171 47.8867L54.7991 48.2639L55.0113 48.5153L55.0962 48.7249L55.181 48.9344L55.2659 49.2277V49.4792H53.4835L52.6348 48.6829Z" fill="#003FB6"/>
<path d="M53.9904 56.0379L55.2655 57.0258L55.0958 57.5287L54.8412 57.864L54.5017 58.1154L54.2471 58.283L54.0773 58.3669L53.9076 58.4507L53.7378 58.5249L53.4729 58.5249L53.2499 56.9178L53.9904 56.0379Z" fill="#003FB6"/>
<path d="M51.7012 41.0737C51.7012 40.1161 52.4775 39.3398 53.4351 39.3398H54.1282C54.8503 39.3398 55.4357 39.9252 55.4357 40.6473C55.4357 41.1287 55.0454 41.519 54.564 41.519H51.7012V41.0737Z" fill="#003FB6"/>
<path d="M52.2168 41.3633H53.6597L54.671 41.5177L53.3978 41.6434L52.8886 41.7272L52.5139 41.9081L52.2168 41.3633Z" fill="#003FB6"/>
<path d="M51.0631 41.4766L52.3786 43.1109L53.2698 44.1167L53.6518 44.6196L53.9488 45.1643L54.161 45.6672L54.3732 46.673L54.4156 47.8883L52.6333 48.6845V47.6787V47.134L52.5908 46.6311L52.5059 46.212L52.2938 45.7929L52.0816 45.4577L51.6996 44.9967L51.2328 44.4938L50.8084 44.0329L50.4689 43.6138L50.1719 43.1947L51.0631 41.4766Z" fill="#003FB6"/>
<rect x="53.4824" y="49.4805" width="1.78238" height="7.5432" fill="#003FB6"/>
<path d="M40.0195 55.2656L42.0311 53.5055H48.9037V55.2656H40.0195Z" fill="#003FB6"/>
<rect x="49.2383" y="58.5312" width="1.76008" height="4.24377" transform="rotate(-90 49.2383 58.5312)" fill="#003FB6"/>
<rect x="47.1445" y="53.5859" width="1.76008" height="2.93347" fill="#003FB6"/>
<path d="M52.6348 48.6829L54.4171 47.8867L54.7991 48.2639L55.0113 48.5153L55.0962 48.7249L55.181 48.9344L55.2659 49.2277V49.4792H53.4835L52.6348 48.6829Z" fill="#003FB6"/>
<path d="M53.9904 56.0379L55.2655 57.0258L55.0958 57.5287L54.8412 57.864L54.5017 58.1154L54.2471 58.283L54.0773 58.3669L53.9076 58.4507L53.7378 58.5249L53.4729 58.5249L53.2499 56.9178L53.9904 56.0379Z" fill="#003FB6"/>
<path d="M49.2809 56.7711L49.2809 58.5312L48.8618 58.4893L48.4846 58.4055L48.0656 58.196L47.7303 57.8607L47.5159 57.57L47.3531 57.3159L47.2693 57.1483L47.1855 56.9388L47.1436 56.7711L47.1436 56.5197L48.9037 56.5197L48.9876 56.6873L49.1552 56.7711L49.2809 56.7711Z" fill="#003FB6"/>
<rect width="1.76008" height="4.19067" transform="matrix(0 -1 -1 0 28.2031 58.5312)" fill="#003FB6"/>
<rect width="1.76008" height="4.19067" transform="matrix(0 -1 -1 0 28.2031 58.5312)" fill="#003FB6"/>
<rect width="1.76008" height="4.19067" transform="matrix(0 -1 -1 0 28.2031 58.5312)" fill="#003FB6"/>
<rect width="1.76008" height="4.19067" transform="matrix(0 -1 -1 0 28.2031 58.5312)" fill="#003FB6"/>
<path d="M25.7402 41.0737C25.7402 40.1161 24.9639 39.3398 24.0063 39.3398H23.3132C22.5911 39.3398 22.0057 39.9252 22.0057 40.6473C22.0057 41.1287 22.396 41.519 22.8774 41.519H25.7402V41.0737Z" fill="#003FB6"/>
<path d="M25.4092 40.9522L24.8301 41.8431L25.7555 42.4297L26.377 41.4787L25.4092 40.9522Z" fill="#003FB6"/>
<path d="M25.2246 41.3633H23.7817L22.7704 41.5177L24.0436 41.6434L24.5528 41.7272L24.9275 41.9081L25.2246 41.3633Z" fill="#003FB6"/>
<path d="M26.3783 41.4766L25.0628 43.1109L24.1716 44.1167L23.7896 44.6196L23.4926 45.1643L23.2804 45.6672L23.0682 46.673L23.0258 47.8883L24.8081 48.6845V47.6787V47.134L24.8506 46.6311L24.9355 46.212L25.1476 45.7929L25.3598 45.4577L25.7418 44.9967L26.2086 44.4938L26.633 44.0329L26.9725 43.6138L27.2695 43.1947L26.3783 41.4766Z" fill="#003FB6"/>
<rect width="1.78239" height="7.5432" transform="matrix(-1 0 0 1 23.959 49.4805)" fill="#003FB6"/>
<rect width="1.76008" height="4.24378" transform="matrix(0 -1 -1 0 28.2031 58.5312)" fill="#003FB6"/>
<path d="M24.8066 48.6829L23.0243 47.8867L22.6423 48.2639L22.4301 48.5153L22.3453 48.7249L22.2604 48.9344L22.1755 49.2277V49.4792H23.9579L24.8066 48.6829Z" fill="#003FB6"/>
<path d="M23.451 56.0379L22.1759 57.0258L22.3456 57.5287L22.6002 57.864L22.9397 58.1154L23.1944 58.283L23.3641 58.3669L23.5339 58.4507L23.7036 58.5249L23.9685 58.5249L24.1916 56.9178L23.451 56.0379Z" fill="#003FB6"/>
<path d="M25.7402 41.0737C25.7402 40.1161 24.9639 39.3398 24.0063 39.3398H23.3132C22.5911 39.3398 22.0057 39.9252 22.0057 40.6473C22.0057 41.1287 22.396 41.519 22.8774 41.519H25.7402V41.0737Z" fill="#003FB6"/>
<path d="M25.2246 41.3633H23.7817L22.7704 41.5177L24.0436 41.6434L24.5528 41.7272L24.9275 41.9081L25.2246 41.3633Z" fill="#003FB6"/>
<path d="M26.3783 41.4766L25.0628 43.1109L24.1716 44.1167L23.7896 44.6196L23.4926 45.1643L23.2804 45.6672L23.0682 46.673L23.0258 47.8883L24.8081 48.6845V47.6787V47.134L24.8506 46.6311L24.9355 46.212L25.1476 45.7929L25.3598 45.4577L25.7418 44.9967L26.2086 44.4938L26.633 44.0329L26.9725 43.6138L27.2695 43.1947L26.3783 41.4766Z" fill="#003FB6"/>
<rect width="1.78239" height="7.5432" transform="matrix(-1 0 0 1 23.959 49.4805)" fill="#003FB6"/>
<rect width="1.76008" height="4.24378" transform="matrix(0 -1 -1 0 28.2031 58.5312)" fill="#003FB6"/>
<path d="M24.8066 48.6829L23.0243 47.8867L22.6423 48.2639L22.4301 48.5153L22.3453 48.7249L22.2604 48.9344L22.1755 49.2277V49.4792H23.9579L24.8066 48.6829Z" fill="#003FB6"/>
<path d="M23.451 56.0379L22.1759 57.0258L22.3456 57.5287L22.6002 57.864L22.9397 58.1154L23.1944 58.283L23.3641 58.3669L23.5339 58.4507L23.7036 58.5249L23.9685 58.5249L24.1916 56.9178L23.451 56.0379Z" fill="#003FB6"/>
<path d="M25.7402 41.0737C25.7402 40.1161 24.9639 39.3398 24.0063 39.3398H23.3132C22.5911 39.3398 22.0057 39.9252 22.0057 40.6473C22.0057 41.1287 22.396 41.519 22.8774 41.519H25.7402V41.0737Z" fill="#003FB6"/>
<path d="M25.2246 41.3633H23.7817L22.7704 41.5177L24.0436 41.6434L24.5528 41.7272L24.9275 41.9081L25.2246 41.3633Z" fill="#003FB6"/>
<path d="M26.3783 41.4766L25.0628 43.1109L24.1716 44.1167L23.7896 44.6196L23.4926 45.1643L23.2804 45.6672L23.0682 46.673L23.0258 47.8883L24.8081 48.6845V47.6787V47.134L24.8506 46.6311L24.9355 46.212L25.1476 45.7929L25.3598 45.4577L25.7418 44.9967L26.2086 44.4938L26.633 44.0329L26.9725 43.6138L27.2695 43.1947L26.3783 41.4766Z" fill="#003FB6"/>
<rect width="1.78239" height="7.5432" transform="matrix(-1 0 0 1 23.959 49.4805)" fill="#003FB6"/>
<rect width="1.76008" height="4.24378" transform="matrix(0 -1 -1 0 28.2031 58.5312)" fill="#003FB6"/>
<path d="M24.8066 48.6829L23.0243 47.8867L22.6423 48.2639L22.4301 48.5153L22.3453 48.7249L22.2604 48.9344L22.1755 49.2277V49.4792H23.9579L24.8066 48.6829Z" fill="#003FB6"/>
<path d="M23.451 56.0379L22.1759 57.0258L22.3456 57.5287L22.6002 57.864L22.9397 58.1154L23.1944 58.283L23.3641 58.3669L23.5339 58.4507L23.7036 58.5249L23.9685 58.5249L24.1916 56.9178L23.451 56.0379Z" fill="#003FB6"/>
<path d="M25.7402 41.0737C25.7402 40.1161 24.9639 39.3398 24.0063 39.3398H23.3132C22.5911 39.3398 22.0057 39.9252 22.0057 40.6473C22.0057 41.1287 22.396 41.519 22.8774 41.519H25.7402V41.0737Z" fill="#003FB6"/>
<path d="M25.2246 41.3633H23.7817L22.7704 41.5177L24.0436 41.6434L24.5528 41.7272L24.9275 41.9081L25.2246 41.3633Z" fill="#003FB6"/>
<path d="M26.3783 41.4766L25.0628 43.1109L24.1716 44.1167L23.7896 44.6196L23.4926 45.1643L23.2804 45.6672L23.0682 46.673L23.0258 47.8883L24.8081 48.6845V47.6787V47.134L24.8506 46.6311L24.9355 46.212L25.1476 45.7929L25.3598 45.4577L25.7418 44.9967L26.2086 44.4938L26.633 44.0329L26.9725 43.6138L27.2695 43.1947L26.3783 41.4766Z" fill="#003FB6"/>
<rect width="1.78239" height="7.5432" transform="matrix(-1 0 0 1 23.959 49.4805)" fill="#003FB6"/>
<path d="M37.4219 55.2656L35.4104 53.5055L28.5377 53.5055V55.2656L37.4219 55.2656Z" fill="#003FB6"/>
<rect width="1.76008" height="4.24378" transform="matrix(0 -1 -1 0 28.2031 58.5312)" fill="#003FB6"/>
<rect width="1.76008" height="2.93347" transform="matrix(-1 0 0 1 30.2969 53.5859)" fill="#003FB6"/>
<path d="M24.8066 48.6829L23.0243 47.8867L22.6423 48.2639L22.4301 48.5153L22.3453 48.7249L22.2604 48.9344L22.1755 49.2277V49.4792H23.9579L24.8066 48.6829Z" fill="#003FB6"/>
<path d="M23.451 56.0379L22.1759 57.0258L22.3456 57.5287L22.6002 57.864L22.9397 58.1154L23.1944 58.283L23.3641 58.3669L23.5339 58.4507L23.7036 58.5249L23.9685 58.5249L24.1916 56.9178L23.451 56.0379Z" fill="#003FB6"/>
<path d="M28.1605 56.7711L28.1605 58.5312L28.5796 58.4893L28.9568 58.4055L29.3759 58.196L29.7111 57.8607L29.9255 57.57L30.0883 57.3159L30.1721 57.1483L30.2559 56.9388L30.2978 56.7711L30.2978 56.5197L28.5377 56.5197L28.4538 56.6873L28.2862 56.7711L28.1605 56.7711Z" fill="#003FB6"/>
<path d="M26.9763 46.0849C26.1328 46.0619 25.4365 46.7395 25.4365 47.5834V47.9635C25.4365 49.1247 26.3778 50.066 27.539 50.066H31.2537H31.6387V49.8146V49.4374L31.5531 49.1022L31.382 48.6831L31.2109 48.4316L30.9971 48.2221L30.6549 48.0545L30.3127 47.845L29.6283 47.3421L29.2006 47.0068L28.7301 46.6297L28.174 46.3363L27.9174 46.2106L27.4896 46.1268L26.9763 46.0849Z" fill="#003FB6"/>
<path d="M50.4651 46.0849C51.3086 46.0619 52.0049 46.7395 52.0049 47.5834V47.9635C52.0049 49.1247 51.0636 50.066 49.9024 50.066H46.1877H45.8027V49.8146V49.4374L45.8883 49.1022L46.0594 48.6831L46.2305 48.4316L46.4443 48.2221L46.7865 48.0545L47.1287 47.845L47.8131 47.3421L48.2408 47.0068L48.7113 46.6297L49.2674 46.3363L49.524 46.2106L49.9518 46.1268L50.4651 46.0849Z" fill="#003FB6"/>
</svg>
