<svg width="302" height="302" viewBox="0 0 302 302" fill="none" xmlns="http://www.w3.org/2000/svg">
<g clip-path="url(#clip0_19952_31818)">
<path d="M165.178 233.772L71.7704 255.373C62.7423 257.461 53.7315 251.835 51.6438 242.807L47.8633 226.46L173.319 197.447L165.178 233.772Z" fill="#D3DCFB"/>
<path d="M237.708 79.2293L264.171 193.658L67.9905 239.026C58.9625 241.114 49.9516 235.488 47.8638 226.46L25.1815 128.378L130.167 61.0456L237.708 79.2293Z" fill="#EBF5FC"/>
<path d="M61.6103 154.396L52.9261 156.405C51.91 156.64 50.8421 156.461 49.9575 155.909C49.0728 155.357 48.4438 154.475 48.2088 153.459L46.2005 144.775C45.9655 143.759 46.1438 142.691 46.6961 141.807C47.2485 140.922 48.1296 140.293 49.1458 140.058L57.83 138.05C58.8461 137.815 59.914 137.993 60.7986 138.545C61.6833 139.098 62.3123 139.979 62.5473 140.995L64.5556 149.679C64.7906 150.695 64.6123 151.763 64.06 152.648C63.5076 153.532 62.6265 154.161 61.6103 154.396ZM94.3045 146.836L85.6203 148.844C84.6042 149.079 83.5363 148.901 82.6516 148.348C81.767 147.796 81.1379 146.915 80.9029 145.899L78.8946 137.214C78.6596 136.198 78.8379 135.13 79.3903 134.246C79.9426 133.361 80.8238 132.732 81.8399 132.497L90.5241 130.489C91.5402 130.254 92.6081 130.432 93.4928 130.984C94.3775 131.537 95.0065 132.418 95.2415 133.434L97.2498 142.118C97.4848 143.134 97.3065 144.202 96.7541 145.087C96.2018 145.972 95.3206 146.601 94.3045 146.836ZM126.998 139.275L118.314 141.283C117.298 141.518 116.23 141.34 115.345 140.787C114.461 140.235 113.832 139.354 113.597 138.338L111.588 129.654C111.353 128.637 111.532 127.57 112.084 126.685C112.636 125.8 113.517 125.171 114.534 124.936L123.218 122.928C124.234 122.693 125.302 122.871 126.186 123.424C127.071 123.976 127.7 124.857 127.935 125.873L129.943 134.557C130.178 135.574 130 136.641 129.448 137.526C128.895 138.411 128.014 139.04 126.998 139.275ZM159.692 131.714L151.008 133.722C149.992 133.957 148.924 133.779 148.039 133.227C147.155 132.674 146.526 131.793 146.291 130.777L144.282 122.093C144.047 121.077 144.226 120.009 144.778 119.124C145.33 118.239 146.212 117.61 147.228 117.375L155.912 115.367C156.928 115.132 157.996 115.31 158.881 115.863C159.765 116.415 160.394 117.296 160.629 118.312L162.638 126.997C162.873 128.013 162.694 129.081 162.142 129.965C161.59 130.85 160.708 131.479 159.692 131.714ZM192.381 124.154L183.697 126.163C182.68 126.398 181.613 126.219 180.728 125.667C179.843 125.115 179.214 124.234 178.979 123.217L176.971 114.533C176.736 113.517 176.914 112.449 177.467 111.565C178.019 110.68 178.9 110.051 179.916 109.816L188.6 107.808C189.616 107.573 190.684 107.751 191.569 108.303C192.454 108.856 193.083 109.737 193.318 110.753L195.326 119.437C195.561 120.453 195.383 121.521 194.83 122.406C194.278 123.29 193.397 123.919 192.381 124.154ZM225.075 116.594L216.391 118.602C215.375 118.837 214.307 118.659 213.422 118.106C212.537 117.554 211.908 116.673 211.673 115.657L209.665 106.972C209.43 105.956 209.608 104.888 210.161 104.004C210.713 103.119 211.594 102.49 212.61 102.255L221.295 100.247C222.311 100.012 223.379 100.19 224.263 100.742C225.148 101.295 225.777 102.176 226.012 103.192L228.02 111.876C228.255 112.892 228.077 113.96 227.525 114.845C226.972 115.73 226.091 116.359 225.075 116.594ZM69.171 187.09L60.4869 189.098C59.4707 189.333 58.4029 189.155 57.5182 188.603C56.6335 188.05 56.0045 187.169 55.7695 186.153L53.7612 177.469C53.5262 176.453 53.7045 175.385 54.2569 174.5C54.8092 173.616 55.6904 172.986 56.7065 172.751L65.3907 170.743C66.4068 170.508 67.4747 170.686 68.3593 171.239C69.244 171.791 69.873 172.672 70.108 173.688L72.1163 182.373C72.3513 183.389 72.173 184.457 71.6207 185.341C71.0683 186.226 70.1872 186.855 69.171 187.09ZM101.865 179.529L93.181 181.537C92.1649 181.772 91.097 181.594 90.2123 181.042C89.3277 180.489 88.6986 179.608 88.4637 178.592L86.4554 169.908C86.2204 168.892 86.3987 167.824 86.951 166.939C87.5034 166.055 88.3845 165.426 89.4006 165.191L98.0848 163.182C99.101 162.947 100.169 163.126 101.054 163.678C101.938 164.23 102.567 165.112 102.802 166.128L104.81 174.812C105.045 175.828 104.867 176.896 104.315 177.781C103.762 178.665 102.881 179.294 101.865 179.529ZM134.559 171.968L125.875 173.977C124.859 174.212 123.791 174.033 122.906 173.481C122.021 172.929 121.392 172.048 121.157 171.031L119.149 162.347C118.914 161.331 119.092 160.263 119.645 159.379C120.197 158.494 121.078 157.865 122.094 157.63L130.779 155.622C131.795 155.387 132.862 155.565 133.747 156.117C134.632 156.67 135.261 157.551 135.496 158.567L137.504 167.251C137.739 168.267 137.561 169.335 137.009 170.22C136.456 171.104 135.575 171.733 134.559 171.968ZM171.084 163.522L168.249 151.261C168.125 150.725 167.896 150.218 167.576 149.769C167.256 149.321 166.851 148.94 166.384 148.649C165.917 148.357 165.397 148.16 164.853 148.069C164.31 147.979 163.754 147.996 163.217 148.12L155.044 150.01C153.96 150.261 153.02 150.932 152.431 151.875C151.842 152.819 151.652 153.958 151.902 155.042L153.792 163.215C154.043 164.299 154.714 165.239 155.658 165.828C156.601 166.417 157.74 166.608 158.824 166.357L171.084 163.522ZM76.7319 219.784L68.0477 221.792C67.0316 222.027 65.9637 221.849 65.079 221.297C64.1943 220.744 63.5653 219.863 63.3303 218.847L61.322 210.163C61.087 209.147 61.2653 208.079 61.8177 207.194C62.37 206.31 63.2512 205.681 64.2673 205.446L72.9515 203.437C73.9676 203.202 75.0355 203.381 75.9202 203.933C76.8049 204.485 77.4339 205.367 77.6689 206.383L79.6772 215.067C79.9122 216.083 79.7339 217.151 79.1815 218.035C78.6292 218.92 77.748 219.549 76.7319 219.784ZM109.426 212.223L100.742 214.232C99.7257 214.467 98.6578 214.288 97.7732 213.736C96.8885 213.184 96.2595 212.302 96.0245 211.286L94.0162 202.602C93.7812 201.586 93.9595 200.518 94.5118 199.634C95.0642 198.749 95.9453 198.12 96.9615 197.885L105.646 195.877C106.662 195.642 107.73 195.82 108.614 196.372C109.499 196.925 110.128 197.806 110.363 198.822L112.371 207.506C112.606 208.522 112.428 209.59 111.876 210.475C111.323 211.359 110.442 211.988 109.426 212.223ZM142.12 204.663L133.436 206.671C132.419 206.906 131.352 206.728 130.467 206.175C129.582 205.623 128.953 204.742 128.718 203.726L126.71 195.041C126.475 194.025 126.653 192.957 127.206 192.073C127.758 191.188 128.639 190.559 129.655 190.324L138.339 188.316C139.355 188.081 140.423 188.259 141.308 188.811C142.193 189.364 142.822 190.245 143.057 191.261L145.065 199.945C145.3 200.961 145.122 202.029 144.569 202.914C144.017 203.799 143.136 204.428 142.12 204.663Z" fill="#3C58A0"/>
<path d="M221.179 100.273L212.726 102.228C212.215 102.346 211.751 102.559 211.343 102.84C212.147 102.96 212.896 103.319 213.493 103.87C214.09 104.421 214.508 105.14 214.691 105.931L216.646 114.384C217.032 116.053 216.324 117.716 214.995 118.632C215.485 118.705 215.995 118.693 216.507 118.575L224.959 116.62C225.478 116.5 225.968 116.279 226.401 115.97C226.834 115.661 227.202 115.27 227.483 114.819C227.765 114.367 227.955 113.865 228.043 113.34C228.131 112.816 228.114 112.279 227.994 111.76L226.039 103.307C225.797 102.261 225.149 101.353 224.238 100.784C223.326 100.215 222.226 100.031 221.179 100.273ZM188.485 107.834L180.032 109.789C179.521 109.907 179.057 110.12 178.649 110.401C179.453 110.521 180.202 110.88 180.799 111.431C181.396 111.982 181.813 112.7 181.997 113.492L183.952 121.945C184.338 123.613 183.63 125.277 182.301 126.192C182.791 126.266 183.301 126.254 183.812 126.135L192.265 124.181C192.784 124.061 193.273 123.84 193.706 123.531C194.139 123.222 194.507 122.831 194.789 122.379C195.071 121.928 195.261 121.426 195.348 120.901C195.436 120.376 195.419 119.84 195.299 119.321L193.345 110.868C193.225 110.35 193.004 109.86 192.695 109.427C192.386 108.994 191.995 108.626 191.543 108.344C191.092 108.063 190.59 107.872 190.065 107.785C189.54 107.697 189.003 107.714 188.485 107.834ZM155.797 115.393L147.344 117.348C146.832 117.466 146.368 117.68 145.961 117.96C147.557 118.199 148.923 119.383 149.309 121.051L151.264 129.504C151.65 131.173 150.942 132.836 149.613 133.752C150.102 133.825 150.613 133.813 151.124 133.695L159.577 131.74C160.095 131.62 160.585 131.4 161.018 131.091C161.451 130.782 161.819 130.39 162.101 129.939C162.383 129.488 162.573 128.985 162.66 128.461C162.748 127.936 162.731 127.399 162.611 126.881L160.657 118.428C160.414 117.381 159.766 116.473 158.855 115.904C157.944 115.335 156.843 115.151 155.797 115.393ZM123.102 122.954L114.65 124.909C114.138 125.027 113.674 125.24 113.266 125.521C114.863 125.76 116.229 126.944 116.615 128.612L118.57 137.065C118.956 138.734 118.248 140.397 116.918 141.313C117.408 141.386 117.918 141.374 118.43 141.256L126.883 139.301C127.401 139.181 127.891 138.961 128.324 138.652C128.757 138.342 129.125 137.951 129.407 137.5C129.689 137.049 129.879 136.546 129.966 136.021C130.054 135.497 130.037 134.96 129.917 134.441L127.962 125.989C127.72 124.942 127.072 124.034 126.161 123.465C125.249 122.896 124.149 122.712 123.102 122.954ZM90.4083 130.515L81.9554 132.47C81.4439 132.588 80.9801 132.801 80.5723 133.082C81.3761 133.202 82.1252 133.561 82.7223 134.112C83.3194 134.663 83.7368 135.382 83.9203 136.173L85.8751 144.626C86.261 146.295 85.5533 147.958 84.2242 148.874C84.714 148.947 85.2243 148.935 85.7358 148.817L94.1886 146.862C94.707 146.742 95.1967 146.521 95.6298 146.212C96.0629 145.903 96.4308 145.512 96.7126 145.061C96.9944 144.609 97.1845 144.107 97.2721 143.582C97.3597 143.057 97.3431 142.521 97.2231 142.002L95.2683 133.549C95.1486 133.031 94.9278 132.541 94.6188 132.108C94.3097 131.675 93.9183 131.307 93.467 131.025C93.0156 130.744 92.5132 130.553 91.9884 130.466C91.4636 130.378 90.9266 130.395 90.4083 130.515ZM57.7146 138.076L49.2617 140.031C48.7503 140.149 48.2865 140.362 47.8786 140.643C49.4752 140.882 50.8413 142.065 51.2271 143.734L53.1819 152.187C53.5678 153.855 52.8601 155.518 51.5306 156.434C52.0203 156.508 52.5306 156.496 53.0421 156.377L61.495 154.423C62.0133 154.303 62.5031 154.082 62.9361 153.773C63.3692 153.464 63.7371 153.073 64.0189 152.621C64.3007 152.17 64.4908 151.668 64.5784 151.143C64.666 150.618 64.6494 150.081 64.5295 149.563L62.5747 141.11C62.3324 140.063 61.6844 139.156 60.773 138.587C59.8616 138.018 58.7615 137.834 57.7146 138.076ZM65.2754 170.77L56.8226 172.725C56.3111 172.843 55.8473 173.056 55.4394 173.337C57.0361 173.576 58.4021 174.759 58.7879 176.428L60.7429 184.881C61.1287 186.55 60.421 188.213 59.0915 189.129C59.5812 189.202 60.0916 189.19 60.603 189.072L69.0559 187.117C69.5743 186.997 70.064 186.777 70.4971 186.468C70.9301 186.159 71.2981 185.767 71.5799 185.316C71.8617 184.865 72.0518 184.362 72.1394 183.838C72.227 183.313 72.2103 182.776 72.0904 182.258L70.1355 173.804C69.8933 172.757 69.2452 171.85 68.3338 171.281C67.4224 170.712 66.3223 170.528 65.2754 170.77ZM72.8363 203.464L64.3834 205.419C63.8719 205.537 63.4081 205.75 63.0002 206.031C64.5969 206.27 65.9629 207.454 66.3488 209.122L68.3037 217.575C68.6896 219.244 67.9819 220.907 66.6523 221.823C67.1421 221.897 67.6524 221.884 68.1639 221.766L76.6167 219.811C77.1351 219.692 77.6248 219.471 78.0579 219.162C78.491 218.853 78.8589 218.461 79.1407 218.01C79.4225 217.559 79.6126 217.057 79.7002 216.532C79.7878 216.007 79.7712 215.47 79.6512 214.952L77.6963 206.498C77.4541 205.452 76.806 204.544 75.8946 203.975C74.9832 203.406 73.8831 203.222 72.8363 203.464ZM97.9691 163.209L89.5162 165.164C89.0048 165.282 88.541 165.495 88.1331 165.776C88.9369 165.896 89.686 166.255 90.2831 166.806C90.8802 167.357 91.2976 168.076 91.4811 168.867L93.4361 177.321C93.8219 178.989 93.1142 180.652 91.7852 181.568C92.2749 181.642 92.7852 181.63 93.2967 181.511L101.75 179.556C102.268 179.437 102.758 179.216 103.191 178.907C103.624 178.598 103.992 178.207 104.274 177.755C104.555 177.304 104.745 176.802 104.833 176.277C104.921 175.752 104.904 175.215 104.784 174.697L102.829 166.244C102.709 165.725 102.489 165.235 102.18 164.802C101.871 164.369 101.479 164.001 101.028 163.719C100.576 163.438 100.074 163.248 99.5492 163.16C99.0244 163.072 98.4875 163.089 97.9691 163.209ZM105.53 195.903L97.0771 197.858C96.5656 197.976 96.1018 198.19 95.6939 198.47C96.4977 198.59 97.2468 198.949 97.8439 199.5C98.441 200.052 98.8584 200.77 99.042 201.562L100.997 210.015C101.383 211.683 100.675 213.347 99.346 214.262C99.8357 214.336 100.346 214.324 100.858 214.205L109.31 212.251C109.829 212.131 110.318 211.91 110.752 211.601C111.185 211.292 111.553 210.901 111.834 210.449C112.116 209.998 112.306 209.496 112.394 208.971C112.481 208.446 112.465 207.909 112.345 207.391L110.39 198.938C110.27 198.419 110.05 197.93 109.74 197.496C109.431 197.063 109.04 196.695 108.589 196.414C108.137 196.132 107.635 195.942 107.11 195.854C106.585 195.767 106.048 195.783 105.53 195.903ZM130.663 155.648L122.21 157.603C121.699 157.721 121.235 157.935 120.827 158.215C122.424 158.454 123.79 159.638 124.176 161.306L126.131 169.76C126.517 171.428 125.809 173.091 124.479 174.007C124.969 174.081 125.479 174.069 125.991 173.95L134.444 171.996C134.962 171.876 135.452 171.655 135.885 171.346C136.318 171.037 136.686 170.646 136.968 170.194C137.249 169.743 137.44 169.241 137.527 168.716C137.615 168.191 137.598 167.654 137.478 167.136L135.523 158.683C135.281 157.636 134.633 156.728 133.722 156.159C132.81 155.59 131.71 155.406 130.663 155.648ZM171.084 163.522L168.217 151.122C168.097 150.603 167.876 150.113 167.567 149.68C167.258 149.247 166.867 148.88 166.415 148.598C165.964 148.316 165.462 148.126 164.937 148.038C164.412 147.951 163.875 147.968 163.357 148.088L154.904 150.042C154.393 150.161 153.929 150.374 153.521 150.654C155.118 150.894 156.484 152.077 156.869 153.746L158.824 162.199C159.21 163.868 158.503 165.531 157.173 166.447C157.663 166.52 158.173 166.508 158.685 166.39L171.084 163.522ZM138.224 188.342L129.771 190.297C129.26 190.416 128.796 190.629 128.388 190.909C129.985 191.149 131.351 192.332 131.737 194.001L133.692 202.454C134.077 204.122 133.37 205.786 132.04 206.702C132.53 206.775 133.04 206.763 133.552 206.645L142.005 204.69C142.523 204.57 143.013 204.349 143.446 204.04C143.879 203.731 144.247 203.34 144.529 202.889C144.81 202.437 145 201.935 145.088 201.41C145.176 200.885 145.159 200.349 145.039 199.83L143.084 191.377C142.964 190.858 142.744 190.369 142.435 189.936C142.125 189.503 141.734 189.135 141.283 188.853C140.831 188.571 140.329 188.381 139.804 188.293C139.279 188.206 138.742 188.222 138.224 188.342Z" fill="#2A428C"/>
<path d="M225.258 77.1245L252.815 196.285L264.17 193.658L237.708 79.2296L225.258 77.1245Z" fill="#D3DCFB"/>
<path d="M237.709 79.2295L228.258 38.3617C226.17 29.3336 217.159 23.7078 208.131 25.7956L28.2975 67.3838C19.2695 69.4716 13.6436 78.4824 15.7314 87.5104L25.1825 128.378L237.709 79.2295Z" fill="#FF4155"/>
<path d="M68.0945 79.2992L57.4544 81.7599C56.4731 81.9868 55.4418 81.8146 54.5874 81.2812C53.7331 80.7477 53.1256 79.8968 52.8987 78.9154C52.6717 77.9341 52.8439 76.9028 53.3773 76.0484C53.9108 75.1941 54.7617 74.5866 55.7431 74.3596L66.3831 71.899C67.3645 71.6721 68.3958 71.8443 69.2501 72.3777C70.1045 72.9111 70.712 73.7621 70.9389 74.7435C71.1659 75.7248 70.9937 76.7561 70.4603 77.6104C69.9268 78.4648 69.0758 79.0723 68.0945 79.2992ZM94.2347 73.2541L83.5946 75.7147C82.6133 75.9416 81.582 75.7695 80.7276 75.236C79.8733 74.7026 79.2658 73.8516 79.0388 72.8703C78.8119 71.8889 78.9841 70.8577 79.5175 70.0033C80.0509 69.1489 80.9019 68.5414 81.8833 68.3145L92.5233 65.8539C94.5673 65.3812 96.6065 66.6548 97.0791 68.6983C97.5517 70.7418 96.2787 72.7814 94.2347 73.2541ZM162.095 57.5607L151.455 60.0214C150.473 60.2484 149.442 60.0762 148.588 59.5428C147.733 59.0093 147.126 58.1583 146.899 57.177C146.672 56.1957 146.844 55.1644 147.378 54.31C147.911 53.4557 148.762 52.8482 149.743 52.6212L160.384 50.1605C162.428 49.6878 164.467 50.9614 164.94 53.0049C165.412 55.0485 164.139 57.088 162.095 57.5607ZM188.236 51.5154L177.595 53.9762C176.614 54.2031 175.583 54.0309 174.728 53.4975C173.874 52.9641 173.266 52.1131 173.039 51.1317C172.813 50.1504 172.985 49.1191 173.518 48.2648C174.052 47.4104 174.903 46.8029 175.884 46.576L186.524 44.1152C187.506 43.8883 188.537 44.0605 189.391 44.5939C190.246 45.1273 190.853 45.9783 191.08 46.9596C191.307 47.941 191.135 48.9723 190.602 49.8266C190.068 50.681 189.217 51.2885 188.236 51.5154Z" fill="#E80054"/>
<path d="M84.7326 69.4008C86.0375 75.0434 82.5212 80.6753 76.8786 81.9802C71.236 83.2851 65.6041 79.7688 64.2992 74.1262L59.5736 53.6923C58.2683 48.0498 61.7846 42.4179 67.4272 41.113C73.0698 39.8081 78.7017 43.3244 80.0066 48.967L84.7321 69.4009L84.7326 69.4008ZM178.733 47.6623C180.038 53.3048 176.522 58.9368 170.879 60.2417C165.237 61.5466 159.604 58.0304 158.299 52.3878L153.574 31.9539C152.269 26.3113 155.785 20.6794 161.428 19.3745C167.07 18.0696 172.702 21.5859 174.007 27.2285L178.733 47.6623Z" fill="#EBF5FC"/>
<path d="M161.427 19.3744C159.329 19.8595 157.528 20.9442 156.156 22.4037C159.321 23.6019 161.85 26.3051 162.67 29.8506L167.395 50.284C168.215 53.8289 167.13 57.3684 164.812 59.8348C166.749 60.5696 168.86 60.7114 170.878 60.2422C176.521 58.9373 180.037 53.3054 178.732 47.6628L174.006 27.2284C172.702 21.5857 167.07 18.0694 161.427 19.3744ZM67.4263 41.1129C65.3286 41.598 63.527 42.6827 62.1552 44.1422C65.3207 45.3404 67.8495 48.0437 68.6694 51.5891L73.3948 72.0225C74.2146 75.5674 73.1295 79.1069 70.8115 81.5733C72.7482 82.3081 74.8597 82.45 76.8773 81.9808C82.5199 80.6759 86.0362 75.0439 84.7313 69.4013L80.0057 48.967C78.7013 43.3243 73.0693 39.8079 67.4263 41.1129Z" fill="#D3DCFB"/>
<path d="M208.131 25.7952L196.779 28.4204C205.807 26.3326 214.818 31.9585 216.906 40.9865L226.357 81.8548L237.708 79.2297L228.257 38.3619C226.17 29.3338 217.159 23.7075 208.131 25.7952Z" fill="#E80054"/>
<path d="M20.5449 108.331L233.072 59.1822L234.783 66.5829L22.2564 115.732L20.5449 108.331Z" fill="#E80054"/>
<path d="M232.439 261.271C266.295 253.441 287.394 219.649 279.564 185.793C271.735 151.937 237.942 130.839 204.086 138.668C170.231 146.498 149.132 180.29 156.962 214.146C164.791 248.002 198.584 269.1 232.439 261.271Z" fill="#4FABF7"/>
<path d="M228.661 244.924C253.488 239.182 268.961 214.401 263.219 189.573C257.477 164.746 232.696 149.273 207.868 155.015C183.041 160.757 167.569 185.538 173.31 210.366C179.052 235.193 203.833 250.665 228.661 244.924Z" fill="#EBF5FC"/>
<path d="M217.229 195.496C216.743 195.608 216.24 195.624 215.748 195.542C215.256 195.46 214.785 195.282 214.362 195.017C213.939 194.753 213.572 194.408 213.282 194.003C212.992 193.597 212.785 193.138 212.673 192.652L207.947 172.218C207.721 171.236 207.893 170.205 208.426 169.351C208.96 168.496 209.811 167.889 210.792 167.662C211.773 167.435 212.805 167.607 213.659 168.141C214.513 168.674 215.121 169.525 215.348 170.506L220.073 190.94C220.3 191.922 220.128 192.953 219.595 193.807C219.061 194.662 218.21 195.269 217.229 195.496ZM239.553 198.944L227.292 201.78C226.311 202.006 225.28 201.834 224.425 201.301C223.571 200.767 222.963 199.916 222.736 198.935C222.509 197.954 222.682 196.923 223.215 196.068C223.749 195.214 224.6 194.606 225.581 194.379L237.842 191.544C238.823 191.317 239.854 191.489 240.709 192.023C241.563 192.556 242.17 193.407 242.397 194.388C242.624 195.37 242.452 196.401 241.919 197.255C241.385 198.11 240.534 198.717 239.553 198.944Z" fill="#3C58A0"/>
<path d="M204.088 138.668C202.175 139.111 200.305 139.641 198.476 140.244C230.333 135.894 260.831 156.475 268.218 188.417C275.605 220.36 257.239 252.241 226.706 262.319C228.614 262.058 230.527 261.713 232.441 261.271C266.296 253.441 287.395 219.649 279.566 185.793C271.736 151.938 237.944 130.839 204.088 138.668Z" fill="#1886EA"/>
<path d="M207.867 155.015C205.947 155.459 204.083 156.018 202.279 156.681C225.075 154.346 246.58 169.289 251.878 192.196C257.175 215.103 244.414 237.97 222.907 245.88C224.819 245.684 226.739 245.368 228.659 244.924C253.487 239.182 268.959 214.401 263.218 189.573C257.476 164.746 232.695 149.273 207.867 155.015Z" fill="#D3DCFB"/>
<path d="M220.153 208.143C224.668 207.099 227.481 202.593 226.437 198.079C225.393 193.565 220.887 190.752 216.373 191.796C211.859 192.84 209.046 197.345 210.089 201.86C211.133 206.374 215.639 209.187 220.153 208.143Z" fill="#FFDD40"/>
</g>
<defs>
<clipPath id="clip0_19952_31818">
<rect width="251.676" height="251.676" fill="white" transform="translate(0 56.7061) rotate(-13.0213)"/>
</clipPath>
</defs>
</svg>
