<svg width="24" height="24" viewBox="0 0 24 24" fill="none" xmlns="http://www.w3.org/2000/svg">
<path d="M17.6016 8C17.5919 6.25998 17.5147 5.31765 16.9 4.70294C16.1971 4 15.0657 4 12.803 4L12.003 4C9.74021 4 8.60884 4 7.9059 4.70294C7.20295 5.40589 7.20295 6.53726 7.20295 8.8L7.20295 15.2C7.20295 17.4627 7.20295 18.5941 7.9059 19.2971C8.60884 20 9.74021 20 12.003 20L12.803 20C15.0657 20 16.1971 20 16.9 19.2971C17.5147 18.6823 17.5919 17.74 17.6016 16" stroke="white" stroke-width="1.5" stroke-linecap="round"/>
<path d="M12 12L22.4 12M19.6 14.4L22.4 12L19.6 9.60002" stroke="white" stroke-width="1.5" stroke-linecap="round" stroke-linejoin="round"/>
</svg>
