<svg width="24" height="24" viewBox="0 0 24 24" fill="none" xmlns="http://www.w3.org/2000/svg">
<rect x="0.5" y="0.5" width="23" height="23" rx="11.5" fill="#EEF4FF"/>
<rect x="0.5" y="0.5" width="23" height="23" rx="11.5" stroke="#006FFD"/>
<path fill-rule="evenodd" clip-rule="evenodd" d="M16.0195 9.3142C16.1131 9.40795 16.1657 9.53503 16.1657 9.66753C16.1657 9.80003 16.1131 9.92711 16.0195 10.0209L11.3528 14.6875C11.259 14.7812 11.132 14.8338 10.9995 14.8338C10.867 14.8338 10.7399 14.7812 10.6461 14.6875L7.97945 12.0209C7.93033 11.9751 7.89093 11.9199 7.8636 11.8586C7.83627 11.7972 7.82157 11.731 7.82039 11.6639C7.81921 11.5967 7.83156 11.5301 7.8567 11.4678C7.88185 11.4055 7.91928 11.349 7.96676 11.3015C8.01424 11.254 8.07079 11.2166 8.13305 11.1914C8.19531 11.1663 8.262 11.1539 8.32913 11.1551C8.39627 11.1563 8.46248 11.171 8.52381 11.1983C8.58514 11.2257 8.64034 11.2651 8.68612 11.3142L10.9995 13.6275L15.3128 9.3142C15.4065 9.22056 15.5336 9.16797 15.6661 9.16797C15.7986 9.16797 15.9257 9.22056 16.0195 9.3142Z" fill="#006FFD"/>
</svg>
