<svg width="76" height="76" viewBox="0 0 76 76" fill="none" xmlns="http://www.w3.org/2000/svg">
<rect x="0.5" y="0.5" width="75" height="75" rx="37.5" stroke="#E3E5E6"/>
<path d="M20.8477 46.75L24.4588 48.5556" stroke="#9098A7" stroke-linecap="round" stroke-linejoin="round"/>
<path d="M55.1523 47.6562L51.5412 48.559" stroke="#9098A7" stroke-linecap="round" stroke-linejoin="round"/>
<path d="M30.7773 56.6819L31.2209 55.5729C31.8806 53.9238 32.2104 53.0993 32.8982 52.6336C33.5859 52.168 34.474 52.168 36.2502 52.168H39.749C41.5251 52.168 42.4132 52.168 43.101 52.6336C43.7888 53.0993 44.1186 53.9238 44.7782 55.5729L45.2218 56.6819" stroke="#9098A7" stroke-linecap="round" stroke-linejoin="round"/>
<path d="M19.9434 55.7812V60.9848C19.9434 61.6687 20.3781 62.2939 21.0662 62.5997C21.5127 62.7982 21.9392 63.0035 22.4541 63.0035H25.5576C26.0725 63.0035 26.499 62.7982 26.9455 62.5997C27.6337 62.2939 28.0684 61.6687 28.0684 60.9848V57.5868" stroke="#9098A7" stroke-linecap="round" stroke-linejoin="round"/>
<path d="M47.9297 57.5868V60.9848C47.9297 61.6687 48.3644 62.2939 49.0525 62.5997C49.499 62.7982 49.9255 63.0035 50.4405 63.0035H53.5439C54.0589 63.0035 54.4853 62.7982 54.9318 62.5997C55.62 62.2939 56.0547 61.6687 56.0547 60.9848V55.7812" stroke="#9098A7" stroke-linecap="round" stroke-linejoin="round"/>
<path d="M52.4434 40.434L54.2489 39.5312" stroke="#9098A7" stroke-linecap="round" stroke-linejoin="round"/>
<path d="M23.5547 40.434L21.7491 39.5312" stroke="#9098A7" stroke-linecap="round" stroke-linejoin="round"/>
<path d="M24.457 41.3333L26.422 35.4384C27.2165 33.055 27.6137 31.8633 28.5594 31.1816C29.5051 30.5 30.7613 30.5 33.2736 30.5H42.7238C45.2361 30.5 46.4923 30.5 47.438 31.1816C48.3837 31.8633 48.7809 33.055 49.5754 35.4384L51.5404 41.3333" stroke="#9098A7" stroke-linejoin="round"/>
<path d="M24.4572 41.3359L51.5406 41.3359C53.2689 43.1659 56.0545 45.7143 56.0545 48.5575V54.8238C56.0545 55.8538 55.3692 56.7208 54.4599 56.8411L48.8322 57.5859L27.1656 57.5859L21.538 56.8411C20.6287 56.7208 19.9434 55.8538 19.9434 54.8238L19.9434 48.5575C19.9434 45.7143 22.7289 43.1659 24.4572 41.3359Z" stroke="#9098A7" stroke-linejoin="round"/>
<path d="M15.5 33L37.3356 13.5905C37.7145 13.2538 38.2855 13.2538 38.6644 13.5905L60.5 33" stroke="#9098A7" stroke-linecap="round"/>
</svg>
