<svg width="60" height="60" viewBox="0 0 60 60" fill="none" xmlns="http://www.w3.org/2000/svg">
<path d="M56.8081 34.9695L56.7906 34.9782C54.734 36.5554 53.8626 39.2394 54.5947 41.723L54.6033 41.7405C55.771 45.6881 52.878 49.6703 48.7647 49.775H48.7474C46.1505 49.8447 43.8673 51.5003 43.0046 53.9491V53.9578C41.6276 57.8443 36.9396 59.3692 33.5497 57.025C31.4447 55.5877 28.6621 55.5127 26.4475 57.025H26.4388C23.0491 59.3605 18.3608 57.8442 16.9926 53.949C16.5703 52.7538 15.7952 51.7149 14.7699 50.9696C13.7445 50.2243 12.5171 49.8077 11.2499 49.7749H11.2325C7.11943 49.6702 4.22619 45.688 5.39396 41.7404L5.40264 41.7229C6.13447 39.2392 5.26307 36.5553 3.20666 34.9781L3.1892 34.9694C-0.0786915 32.4596 -0.0786915 27.5449 3.1892 25.0352L3.20666 25.0265C5.26307 23.4493 6.13447 20.7652 5.39396 18.2817V18.2642C4.2174 14.3167 7.11932 10.3342 11.2325 10.2297H11.2499C13.838 10.16 16.1299 8.50425 16.9926 6.05561V6.04694C18.3606 2.16042 23.0491 0.635457 26.4388 2.97968H26.4475C28.5824 4.45237 31.4058 4.45237 33.5497 2.97968C36.9737 0.615183 41.6357 2.18374 43.0046 6.04694V6.05561C43.8673 8.49557 46.1504 10.1601 48.7474 10.2297H48.7647C52.8779 10.3342 55.771 14.3167 54.6033 18.2642L54.5947 18.2817C53.8626 20.7652 54.734 23.4493 56.7906 25.0265L56.8081 25.0352C60.076 27.5449 60.076 32.4597 56.8081 34.9695Z" fill="#3EB655"/>
<path d="M29.9981 46.2325C38.963 46.2325 46.2305 38.965 46.2305 30C46.2305 21.0351 38.963 13.7676 29.9981 13.7676C21.0331 13.7676 13.7656 21.0351 13.7656 30C13.7656 38.965 21.0331 46.2325 29.9981 46.2325Z" fill="#8BD399"/>
<path d="M42.4632 19.6092C39.6555 17.2995 36.0634 15.9111 32.1475 15.9111C23.1826 15.9111 15.9111 23.1826 15.9111 32.1475C15.9111 36.0634 17.2995 39.6555 19.6091 42.4632C16.0418 39.4875 13.7695 35.0113 13.7695 29.9996C13.7695 21.0347 21.0348 13.7695 29.9996 13.7695C35.0113 13.7695 39.4875 16.0418 42.4632 19.6092Z" fill="black" fill-opacity="0.0627451"/>
<path d="M26.1352 36.3549L22.5456 32.536C21.6055 31.5357 21.654 29.9629 22.654 29.0228C23.654 28.0816 25.2274 28.1321 26.1667 29.1317L27.8802 30.9539L35.1638 22.6292C36.0666 21.596 37.6369 21.4913 38.6708 22.3954C39.704 23.2995 39.8083 24.8693 38.9046 25.9024L29.8161 36.2894C28.8479 37.3948 27.1392 37.4237 26.1352 36.3549Z" fill="white"/>
</svg>
