<svg width="24" height="24" viewBox="0 0 24 24" fill="none" xmlns="http://www.w3.org/2000/svg">
<path d="M4 11.5C4 7.72876 4 5.84315 5.17157 4.67157C6.34315 3.5 8.22876 3.5 12 3.5C15.7712 3.5 17.6569 3.5 18.8284 4.67157C20 5.84315 20 7.72876 20 11.5C20 15.2712 20 17.1569 18.8284 18.3284C17.6569 19.5 15.7712 19.5 12 19.5C8.22876 19.5 6.34315 19.5 5.17157 18.3284C4 17.1569 4 15.2712 4 11.5Z" stroke="white" stroke-width="1.5" stroke-linejoin="round"/>
<path d="M15.7899 11.4999C15.7899 13.5928 14.0933 15.2894 12.0004 15.2894C9.90754 15.2894 8.21094 13.5928 8.21094 11.4999C8.21094 9.40705 9.90754 7.71045 12.0004 7.71045C14.0933 7.71045 15.7899 9.40705 15.7899 11.4999Z" stroke="white" stroke-width="1.5"/>
<path d="M16.6387 6.86841L16.6309 6.86841" stroke="white" stroke-width="2" stroke-linecap="round" stroke-linejoin="round"/>
</svg>
