<svg width="152" height="48" viewBox="0 0 152 48" fill="none" xmlns="http://www.w3.org/2000/svg">
<ellipse cx="23.7215" cy="16.7936" rx="4.25862" ry="4.32925" fill="white"/>
<path d="M35.2158 18.0256C34.9173 23.3575 32.6438 27.8753 29.6761 31.6117C27.8757 33.9699 25.8676 36.117 23.7902 37.736C23.4094 37.736 20.3625 34.9906 18.4583 32.3861C16.0693 29.3943 14.0265 26.1562 12.7109 21.4397C10.495 12.9572 16.7271 6.47108 23.721 6.7273C27.8054 6.87693 30.761 8.40752 32.6537 10.6694C34.3324 12.6756 35.3967 14.7927 35.2158 18.0256ZM14.6844 17.6032C14.6844 24.3259 20.8473 31.8933 23.721 34.7091C27.6333 30.6614 29.6069 28.6903 32.2728 21.8269C33.0433 19.2243 33.0655 16.6 32.2036 14.4355C31.8649 13.5849 31.4535 12.8129 30.8187 12.1477C29.3846 10.5582 27.5295 9.22629 23.721 9.1559C21.2281 9.10982 18.5041 9.89505 16.5194 12.3589C15.5169 13.6034 14.7784 15.2674 14.6844 17.6032Z" fill="white"/>
<path d="M15.8613 22.038L19.6006 21.2636L23.7207 21.0876L29.3989 21.4396L31.6494 22.038L31.1646 23.4107L28.4641 22.6715L23.7207 22.4603L19.6006 22.6715L16.4845 23.4107L15.8613 22.038Z" fill="white"/>
<path d="M15.8965 22.1086L16.2081 21.8622L17.2122 21.5806L18.8394 21.3342L21.0207 21.1934L22.5095 21.123H23.7213H25.0369L26.1795 21.1934L27.599 21.2638L29.0878 21.4046L30.819 21.6862L31.3037 21.8622L31.7191 22.1086L31.1306 23.5165L30.819 23.1997L29.0878 22.8477L27.599 22.7069L26.1795 22.5661L23.7213 22.5309H22.5095L21.0207 22.6013L18.8394 22.7773L16.7967 23.1997L16.4505 23.5165L15.8965 22.1086Z" fill="white"/>
<path d="M34.4883 26.0572C34.4883 25.2759 35.1216 24.6426 35.9029 24.6426H36.4369C37.0434 24.6426 37.5351 25.1342 37.5351 25.7407C37.5351 26.1451 37.2073 26.4728 36.803 26.4728H34.4883V26.0572Z" fill="white"/>
<path d="M34.7592 25.9956L35.2317 26.7438L34.4767 27.2365L33.9696 26.4378L34.7592 25.9956Z" fill="white"/>
<path d="M34.9102 26.3433H36.0873L36.9124 26.4729L35.8737 26.5785L35.4582 26.6489L35.1525 26.8008L34.9102 26.3433Z" fill="white"/>
<path d="M33.9693 26.4377L35.0426 27.8104L35.7697 28.6552L36.0813 29.0775L36.3236 29.5351L36.4967 29.9575L36.6699 30.8022L36.7045 31.8229L35.2503 32.4917V31.6469V31.1894L35.2157 30.767L35.1464 30.415L34.9733 30.0631L34.8002 29.7815L34.4886 29.3943L34.1078 28.9719L33.7615 28.5848L33.4845 28.2328L33.2422 27.8808L33.9693 26.4377Z" fill="white"/>
<rect x="35.9434" y="33.1604" width="1.45416" height="6.33549" fill="white"/>
<rect x="32.4805" y="40.7629" width="1.47828" height="3.46229" transform="rotate(-90 32.4805 40.7629)" fill="white"/>
<path d="M35.25 32.4917L36.7042 31.823L37.0158 32.1398L37.1889 32.351L37.2581 32.5269L37.3274 32.7029L37.3966 32.9493V33.1605H35.9425L35.25 32.4917Z" fill="white"/>
<path d="M36.3562 38.6663L37.3965 39.496L37.2581 39.9184L37.0504 40.2L36.7734 40.4112L36.5656 40.552L36.4272 40.6224L36.2887 40.6928L36.1502 40.7551L35.934 40.7551L35.7521 39.4053L36.3562 38.6663Z" fill="white"/>
<path d="M34.4883 26.0572C34.4883 25.2759 35.1216 24.6426 35.9029 24.6426H36.4369C37.0434 24.6426 37.5351 25.1342 37.5351 25.7407C37.5351 26.1451 37.2073 26.4728 36.803 26.4728H34.4883V26.0572Z" fill="white"/>
<path d="M34.9102 26.3433H36.0873L36.9124 26.4729L35.8737 26.5785L35.4582 26.6489L35.1525 26.8008L34.9102 26.3433Z" fill="white"/>
<path d="M33.9693 26.4377L35.0426 27.8104L35.7697 28.6552L36.0813 29.0775L36.3236 29.5351L36.4967 29.9575L36.6699 30.8022L36.7045 31.8229L35.2503 32.4917V31.6469V31.1894L35.2157 30.767L35.1464 30.415L34.9733 30.0631L34.8002 29.7815L34.4886 29.3943L34.1078 28.9719L33.7615 28.5848L33.4845 28.2328L33.2422 27.8808L33.9693 26.4377Z" fill="white"/>
<rect x="35.9434" y="33.1604" width="1.45416" height="6.33549" fill="white"/>
<rect x="32.4805" y="40.7629" width="1.47828" height="3.46229" transform="rotate(-90 32.4805 40.7629)" fill="white"/>
<path d="M35.25 32.4917L36.7042 31.823L37.0158 32.1398L37.1889 32.351L37.2581 32.5269L37.3274 32.7029L37.3966 32.9493V33.1605H35.9425L35.25 32.4917Z" fill="white"/>
<path d="M36.3562 38.6663L37.3965 39.496L37.2581 39.9184L37.0504 40.2L36.7734 40.4112L36.5656 40.552L36.4272 40.6224L36.2887 40.6928L36.1502 40.7551L35.934 40.7551L35.7521 39.4053L36.3562 38.6663Z" fill="white"/>
<path d="M34.4883 26.0572C34.4883 25.2759 35.1216 24.6426 35.9029 24.6426H36.4369C37.0434 24.6426 37.5351 25.1342 37.5351 25.7407C37.5351 26.1451 37.2073 26.4728 36.803 26.4728H34.4883V26.0572Z" fill="white"/>
<path d="M34.9102 26.3433H36.0873L36.9124 26.4729L35.8737 26.5785L35.4582 26.6489L35.1525 26.8008L34.9102 26.3433Z" fill="white"/>
<path d="M33.9693 26.4377L35.0426 27.8104L35.7697 28.6552L36.0813 29.0775L36.3236 29.5351L36.4967 29.9575L36.6699 30.8022L36.7045 31.8229L35.2503 32.4917V31.6469V31.1894L35.2157 30.767L35.1464 30.415L34.9733 30.0631L34.8002 29.7815L34.4886 29.3943L34.1078 28.9719L33.7615 28.5848L33.4845 28.2328L33.2422 27.8808L33.9693 26.4377Z" fill="white"/>
<rect x="35.9434" y="33.1604" width="1.45416" height="6.33549" fill="white"/>
<rect x="32.4805" y="40.7629" width="1.47828" height="3.46229" transform="rotate(-90 32.4805 40.7629)" fill="white"/>
<path d="M35.25 32.4917L36.7042 31.823L37.0158 32.1398L37.1889 32.351L37.2581 32.5269L37.3274 32.7029L37.3966 32.9493V33.1605H35.9425L35.25 32.4917Z" fill="white"/>
<path d="M36.3562 38.6663L37.3965 39.496L37.2581 39.9184L37.0504 40.2L36.7734 40.4112L36.5656 40.552L36.4272 40.6224L36.2887 40.6928L36.1502 40.7551L35.934 40.7551L35.7521 39.4053L36.3562 38.6663Z" fill="white"/>
<path d="M34.4883 26.0572C34.4883 25.2759 35.1216 24.6426 35.9029 24.6426H36.4369C37.0434 24.6426 37.5351 25.1342 37.5351 25.7407C37.5351 26.1451 37.2073 26.4728 36.803 26.4728H34.4883V26.0572Z" fill="white"/>
<path d="M34.9102 26.3433H36.0873L36.9124 26.4729L35.8737 26.5785L35.4582 26.6489L35.1525 26.8008L34.9102 26.3433Z" fill="white"/>
<path d="M33.9693 26.4377L35.0426 27.8104L35.7697 28.6552L36.0813 29.0775L36.3236 29.5351L36.4967 29.9575L36.6699 30.8022L36.7045 31.8229L35.2503 32.4917V31.6469V31.1894L35.2157 30.767L35.1464 30.415L34.9733 30.0631L34.8002 29.7815L34.4886 29.3943L34.1078 28.9719L33.7615 28.5848L33.4845 28.2328L33.2422 27.8808L33.9693 26.4377Z" fill="white"/>
<rect x="35.9434" y="33.1604" width="1.45416" height="6.33549" fill="white"/>
<rect x="32.4805" y="40.7629" width="1.47828" height="3.46229" transform="rotate(-90 32.4805 40.7629)" fill="white"/>
<path d="M35.25 32.4917L36.7042 31.823L37.0158 32.1398L37.1889 32.351L37.2581 32.5269L37.3274 32.7029L37.3966 32.9493V33.1605H35.9425L35.25 32.4917Z" fill="white"/>
<path d="M36.3562 38.6663L37.3965 39.496L37.2581 39.9184L37.0504 40.2L36.7734 40.4112L36.5656 40.552L36.4272 40.6224L36.2887 40.6928L36.1502 40.7551L35.934 40.7551L35.7521 39.4053L36.3562 38.6663Z" fill="white"/>
<path d="M34.5137 26.0751C34.5137 25.2839 35.155 24.6426 35.9462 24.6426H36.5009C37.1074 24.6426 37.5991 25.1342 37.5991 25.7407C37.5991 26.1451 37.2713 26.4728 36.867 26.4728H34.5137V26.0751Z" fill="white"/>
<path d="M34.787 25.9953L35.2654 26.7436L34.5009 27.2362L33.9873 26.4375L34.787 25.9953Z" fill="white"/>
<path d="M34.9395 26.3433H36.1315L36.9671 26.4729L35.9152 26.5785L35.4945 26.6489L35.1849 26.8008L34.9395 26.3433Z" fill="white"/>
<path d="M33.9882 26.4377L35.0752 27.8104L35.8115 28.6552L36.127 29.0775L36.3724 29.5351L36.5477 29.9575L36.7231 30.8022L36.7581 31.8229L35.2855 32.4917V31.6469V31.1894L35.2505 30.767L35.1803 30.415L35.005 30.0631L34.8297 29.7815L34.5142 29.3943L34.1285 28.9719L33.7779 28.5848L33.4974 28.2328L33.252 27.8808L33.9882 26.4377Z" fill="white"/>
<rect x="35.9863" y="33.1604" width="1.47259" height="6.33549" fill="white"/>
<rect x="32.4805" y="40.7629" width="1.47828" height="3.50616" transform="rotate(-90 32.4805 40.7629)" fill="white"/>
<path d="M35.2852 32.4915L36.7577 31.8228L37.0733 32.1395L37.2486 32.3507L37.3187 32.5267L37.3889 32.7027L37.459 32.9491V33.1602H35.9864L35.2852 32.4915Z" fill="white"/>
<path d="M36.4052 38.666L37.4587 39.4958L37.3185 39.9182L37.1082 40.1997L36.8277 40.4109L36.6173 40.5517L36.4771 40.6221L36.3368 40.6925L36.1966 40.7549L35.9777 40.7549L35.7934 39.405L36.4052 38.666Z" fill="white"/>
<path d="M34.5137 26.0751C34.5137 25.2839 35.155 24.6426 35.9462 24.6426H36.5009C37.1074 24.6426 37.5991 25.1342 37.5991 25.7407C37.5991 26.1451 37.2713 26.4728 36.867 26.4728H34.5137V26.0751Z" fill="white"/>
<path d="M34.9395 26.3433H36.1315L36.9671 26.4729L35.9152 26.5785L35.4945 26.6489L35.1849 26.8008L34.9395 26.3433Z" fill="white"/>
<path d="M33.9882 26.4377L35.0752 27.8104L35.8115 28.6552L36.127 29.0775L36.3724 29.5351L36.5477 29.9575L36.7231 30.8022L36.7581 31.8229L35.2855 32.4917V31.6469V31.1894L35.2505 30.767L35.1803 30.415L35.005 30.0631L34.8297 29.7815L34.5142 29.3943L34.1285 28.9719L33.7779 28.5848L33.4974 28.2328L33.252 27.8808L33.9882 26.4377Z" fill="white"/>
<rect x="35.9863" y="33.1604" width="1.47259" height="6.33549" fill="white"/>
<rect x="32.4805" y="40.7629" width="1.47828" height="3.50616" transform="rotate(-90 32.4805 40.7629)" fill="white"/>
<path d="M35.2852 32.4915L36.7577 31.8228L37.0733 32.1395L37.2486 32.3507L37.3187 32.5267L37.3889 32.7027L37.459 32.9491V33.1602H35.9864L35.2852 32.4915Z" fill="white"/>
<path d="M36.4052 38.666L37.4587 39.4958L37.3185 39.9182L37.1082 40.1997L36.8277 40.4109L36.6173 40.5517L36.4771 40.6221L36.3368 40.6925L36.1966 40.7549L35.9777 40.7549L35.7934 39.405L36.4052 38.666Z" fill="white"/>
<path d="M34.5137 26.0751C34.5137 25.2839 35.155 24.6426 35.9462 24.6426H36.5009C37.1074 24.6426 37.5991 25.1342 37.5991 25.7407C37.5991 26.1451 37.2713 26.4728 36.867 26.4728H34.5137V26.0751Z" fill="white"/>
<path d="M34.9395 26.3433H36.1315L36.9671 26.4729L35.9152 26.5785L35.4945 26.6489L35.1849 26.8008L34.9395 26.3433Z" fill="white"/>
<path d="M33.9882 26.4377L35.0752 27.8104L35.8115 28.6552L36.127 29.0775L36.3724 29.5351L36.5477 29.9575L36.7231 30.8022L36.7581 31.8229L35.2855 32.4917V31.6469V31.1894L35.2505 30.767L35.1803 30.415L35.005 30.0631L34.8297 29.7815L34.5142 29.3943L34.1285 28.9719L33.7779 28.5848L33.4974 28.2328L33.252 27.8808L33.9882 26.4377Z" fill="white"/>
<rect x="35.9863" y="33.1604" width="1.47259" height="6.33549" fill="white"/>
<rect x="32.4805" y="40.7629" width="1.47828" height="3.50616" transform="rotate(-90 32.4805 40.7629)" fill="white"/>
<path d="M35.2852 32.4915L36.7577 31.8228L37.0733 32.1395L37.2486 32.3507L37.3187 32.5267L37.3889 32.7027L37.459 32.9491V33.1602H35.9864L35.2852 32.4915Z" fill="white"/>
<path d="M36.4052 38.666L37.4587 39.4958L37.3185 39.9182L37.1082 40.1997L36.8277 40.4109L36.6173 40.5517L36.4771 40.6221L36.3368 40.6925L36.1966 40.7549L35.9777 40.7549L35.7934 39.405L36.4052 38.666Z" fill="white"/>
<path d="M34.5137 26.0751C34.5137 25.2839 35.155 24.6426 35.9462 24.6426H36.5009C37.1074 24.6426 37.5991 25.1342 37.5991 25.7407C37.5991 26.1451 37.2713 26.4728 36.867 26.4728H34.5137V26.0751Z" fill="white"/>
<path d="M34.9395 26.3433H36.1315L36.9671 26.4729L35.9152 26.5785L35.4945 26.6489L35.1849 26.8008L34.9395 26.3433Z" fill="white"/>
<path d="M33.9882 26.4377L35.0752 27.8104L35.8115 28.6552L36.127 29.0775L36.3724 29.5351L36.5477 29.9575L36.7231 30.8022L36.7581 31.8229L35.2855 32.4917V31.6469V31.1894L35.2505 30.767L35.1803 30.415L35.005 30.0631L34.8297 29.7815L34.5142 29.3943L34.1285 28.9719L33.7779 28.5848L33.4974 28.2328L33.252 27.8808L33.9882 26.4377Z" fill="white"/>
<rect x="35.9863" y="33.1604" width="1.47259" height="6.33549" fill="white"/>
<path d="M24.8633 38.0176L26.5252 36.5393H32.2033V38.0176H24.8633Z" fill="white"/>
<rect x="32.4805" y="40.7629" width="1.47828" height="3.50616" transform="rotate(-90 32.4805 40.7629)" fill="white"/>
<rect x="30.748" y="36.6096" width="1.45416" height="2.4638" fill="white"/>
<path d="M35.2852 32.4915L36.7577 31.8228L37.0733 32.1395L37.2486 32.3507L37.3187 32.5267L37.3889 32.7027L37.459 32.9491V33.1602H35.9864L35.2852 32.4915Z" fill="white"/>
<path d="M36.4052 38.666L37.4587 39.4958L37.3185 39.9182L37.1082 40.1997L36.8277 40.4109L36.6173 40.5517L36.4771 40.6221L36.3368 40.6925L36.1966 40.7549L35.9777 40.7549L35.7934 39.405L36.4052 38.666Z" fill="white"/>
<path d="M32.5155 39.2846L32.5155 40.7629L32.1692 40.7277L31.8576 40.6573L31.5114 40.4813L31.2344 40.1997L31.0573 39.9556L30.9228 39.7422L30.8535 39.6014L30.7843 39.4254L30.7497 39.2846L30.7497 39.0734L32.2039 39.0734L32.2731 39.2142L32.4116 39.2846L32.5155 39.2846Z" fill="white"/>
<rect width="1.47828" height="3.46229" transform="matrix(0 -1 -1 0 15.0996 40.7629)" fill="white"/>
<rect width="1.47828" height="3.46229" transform="matrix(0 -1 -1 0 15.0996 40.7629)" fill="white"/>
<rect width="1.47828" height="3.46229" transform="matrix(0 -1 -1 0 15.0996 40.7629)" fill="white"/>
<rect width="1.47828" height="3.46229" transform="matrix(0 -1 -1 0 15.0996 40.7629)" fill="white"/>
<path d="M13.0664 26.0751C13.0664 25.2839 12.425 24.6426 11.6339 24.6426H11.0791C10.4726 24.6426 9.98098 25.1342 9.98098 25.7407C9.98098 26.1451 10.3088 26.4728 10.7131 26.4728H13.0664V26.0751Z" fill="white"/>
<path d="M12.7931 25.9953L12.3147 26.7436L13.0792 27.2362L13.5927 26.4375L12.7931 25.9953Z" fill="white"/>
<path d="M12.6387 26.3433H11.4466L10.6111 26.4729L11.6629 26.5785L12.0836 26.6489L12.3932 26.8008L12.6387 26.3433Z" fill="white"/>
<path d="M13.5918 26.4377L12.5049 27.8104L11.7686 28.6552L11.4531 29.0775L11.2076 29.5351L11.0323 29.9575L10.857 30.8022L10.822 31.8229L12.2945 32.4917V31.6469L12.2945 31.1894L12.3296 30.767L12.3997 30.415L12.575 30.0631L12.7503 29.7815L13.0659 29.3943L13.4516 28.9719L13.8022 28.5848L14.0827 28.2328L14.3281 27.8808L13.5918 26.4377Z" fill="white"/>
<rect width="1.47259" height="6.33549" transform="matrix(-1 0 0 1 11.5938 33.1604)" fill="white"/>
<rect width="1.47828" height="3.50617" transform="matrix(0 -1 -1 0 15.0996 40.7629)" fill="white"/>
<path d="M12.2949 32.4915L10.8223 31.8228L10.5068 32.1395L10.3315 32.3507L10.2613 32.5267L10.1912 32.7027L10.1211 32.9491V33.1602H11.5937L12.2949 32.4915Z" fill="white"/>
<path d="M11.1748 38.666L10.1214 39.4958L10.2615 39.9182L10.4719 40.1997L10.7524 40.4109L10.9628 40.5517L11.103 40.6221L11.2433 40.6925L11.3835 40.7549L11.6024 40.7549L11.7867 39.405L11.1748 38.666Z" fill="white"/>
<path d="M13.0664 26.0751C13.0664 25.2839 12.425 24.6426 11.6339 24.6426H11.0791C10.4726 24.6426 9.98098 25.1342 9.98098 25.7407C9.98098 26.1451 10.3088 26.4728 10.7131 26.4728H13.0664V26.0751Z" fill="white"/>
<path d="M12.6387 26.3433H11.4466L10.6111 26.4729L11.6629 26.5785L12.0836 26.6489L12.3932 26.8008L12.6387 26.3433Z" fill="white"/>
<path d="M13.5918 26.4377L12.5049 27.8104L11.7686 28.6552L11.4531 29.0775L11.2076 29.5351L11.0323 29.9575L10.857 30.8022L10.822 31.8229L12.2945 32.4917V31.6469L12.2945 31.1894L12.3296 30.767L12.3997 30.415L12.575 30.0631L12.7503 29.7815L13.0659 29.3943L13.4516 28.9719L13.8022 28.5848L14.0827 28.2328L14.3281 27.8808L13.5918 26.4377Z" fill="white"/>
<rect width="1.47259" height="6.33549" transform="matrix(-1 0 0 1 11.5938 33.1604)" fill="white"/>
<rect width="1.47828" height="3.50617" transform="matrix(0 -1 -1 0 15.0996 40.7629)" fill="white"/>
<path d="M12.2949 32.4915L10.8223 31.8228L10.5068 32.1395L10.3315 32.3507L10.2613 32.5267L10.1912 32.7027L10.1211 32.9491V33.1602H11.5937L12.2949 32.4915Z" fill="white"/>
<path d="M11.1748 38.666L10.1214 39.4958L10.2615 39.9182L10.4719 40.1997L10.7524 40.4109L10.9628 40.5517L11.103 40.6221L11.2433 40.6925L11.3835 40.7549L11.6024 40.7549L11.7867 39.405L11.1748 38.666Z" fill="white"/>
<path d="M13.0664 26.0751C13.0664 25.2839 12.425 24.6426 11.6339 24.6426H11.0791C10.4726 24.6426 9.98098 25.1342 9.98098 25.7407C9.98098 26.1451 10.3088 26.4728 10.7131 26.4728H13.0664V26.0751Z" fill="white"/>
<path d="M12.6387 26.3433H11.4466L10.6111 26.4729L11.6629 26.5785L12.0836 26.6489L12.3932 26.8008L12.6387 26.3433Z" fill="white"/>
<path d="M13.5918 26.4377L12.5049 27.8104L11.7686 28.6552L11.4531 29.0775L11.2076 29.5351L11.0323 29.9575L10.857 30.8022L10.822 31.8229L12.2945 32.4917V31.6469L12.2945 31.1894L12.3296 30.767L12.3997 30.415L12.575 30.0631L12.7503 29.7815L13.0659 29.3943L13.4516 28.9719L13.8022 28.5848L14.0827 28.2328L14.3281 27.8808L13.5918 26.4377Z" fill="white"/>
<rect width="1.47259" height="6.33549" transform="matrix(-1 0 0 1 11.5938 33.1604)" fill="white"/>
<rect width="1.47828" height="3.50617" transform="matrix(0 -1 -1 0 15.0996 40.7629)" fill="white"/>
<path d="M12.2949 32.4915L10.8223 31.8228L10.5068 32.1395L10.3315 32.3507L10.2613 32.5267L10.1912 32.7027L10.1211 32.9491V33.1602H11.5937L12.2949 32.4915Z" fill="white"/>
<path d="M11.1748 38.666L10.1214 39.4958L10.2615 39.9182L10.4719 40.1997L10.7524 40.4109L10.9628 40.5517L11.103 40.6221L11.2433 40.6925L11.3835 40.7549L11.6024 40.7549L11.7867 39.405L11.1748 38.666Z" fill="white"/>
<path d="M13.0664 26.0751C13.0664 25.2839 12.425 24.6426 11.6339 24.6426H11.0791C10.4726 24.6426 9.98098 25.1342 9.98098 25.7407C9.98098 26.1451 10.3088 26.4728 10.7131 26.4728H13.0664V26.0751Z" fill="white"/>
<path d="M12.6387 26.3433H11.4466L10.6111 26.4729L11.6629 26.5785L12.0836 26.6489L12.3932 26.8008L12.6387 26.3433Z" fill="white"/>
<path d="M13.5918 26.4377L12.5049 27.8104L11.7686 28.6552L11.4531 29.0775L11.2076 29.5351L11.0323 29.9575L10.857 30.8022L10.822 31.8229L12.2945 32.4917V31.6469L12.2945 31.1894L12.3296 30.767L12.3997 30.415L12.575 30.0631L12.7503 29.7815L13.0659 29.3943L13.4516 28.9719L13.8022 28.5848L14.0827 28.2328L14.3281 27.8808L13.5918 26.4377Z" fill="white"/>
<rect width="1.47259" height="6.33549" transform="matrix(-1 0 0 1 11.5938 33.1604)" fill="white"/>
<path d="M22.7168 38.0176L21.0549 36.5393H15.3767V38.0176H22.7168Z" fill="white"/>
<rect width="1.47828" height="3.50617" transform="matrix(0 -1 -1 0 15.0996 40.7629)" fill="white"/>
<rect width="1.45416" height="2.4638" transform="matrix(-1 0 0 1 16.8301 36.6096)" fill="white"/>
<path d="M12.2949 32.4915L10.8223 31.8228L10.5068 32.1395L10.3315 32.3507L10.2613 32.5267L10.1912 32.7027L10.1211 32.9491V33.1602H11.5937L12.2949 32.4915Z" fill="white"/>
<path d="M11.1748 38.666L10.1214 39.4958L10.2615 39.9182L10.4719 40.1997L10.7524 40.4109L10.9628 40.5517L11.103 40.6221L11.2433 40.6925L11.3835 40.7549L11.6024 40.7549L11.7867 39.405L11.1748 38.666Z" fill="white"/>
<path d="M15.0646 39.2846L15.0646 40.7629L15.4109 40.7277L15.7225 40.6573L16.0687 40.4813L16.3457 40.1997L16.5228 39.9556L16.6573 39.7422L16.7265 39.6014L16.7958 39.4254L16.8304 39.2846L16.8304 39.0734L15.3762 39.0734L15.3069 39.2142L15.1684 39.2846L15.0646 39.2846Z" fill="white"/>
<path d="M14.0875 30.3094C13.3906 30.2901 12.8153 30.8497 12.8153 31.5469V31.8876C12.8153 32.8626 13.6057 33.6531 14.5808 33.6531H17.6214H17.9395V33.4419V33.1251L17.8688 32.8436L17.7274 32.4916L17.5861 32.2804L17.4094 32.1044L17.1267 31.9636L16.8439 31.7876L16.2785 31.3653L15.9251 31.0837L15.5364 30.7669L15.077 30.5206L14.8649 30.415L14.5115 30.3446L14.0875 30.3094Z" fill="white"/>
<path d="M33.4926 30.3094C34.1895 30.2901 34.7648 30.8497 34.7648 31.5469V31.8876C34.7648 32.8626 33.9744 33.6531 32.9993 33.6531H29.9587H29.6406V33.4419V33.1251L29.7113 32.8436L29.8527 32.4916L29.994 32.2804L30.1707 32.1044L30.4534 31.9636L30.7361 31.7876L31.3016 31.3653L31.655 31.0837L32.0437 30.7669L32.5031 30.5206L32.7151 30.415L33.0685 30.3446L33.4926 30.3094Z" fill="white"/>
<path d="M138.446 19.8663H134.107V22.5281H138.136V24.6344H134.107V27.7606H138.446V29.8834H131.578V17.76H138.446V19.8663Z" fill="white"/>
<path d="M128.568 29.8834H126.21V24.1451C126.21 23.7582 126.213 23.4513 126.219 23.2247C126.224 22.998 126.262 22.0527 126.333 20.3887H126.259L123.184 29.8834H120.868L117.996 20.3721H117.923C118.026 22.2572 118.078 23.5481 118.078 24.2446V29.8834H115.818V17.76H119.261L122.083 27.0309H122.132L125.126 17.76H128.568V29.8834Z" fill="white"/>
<path d="M112.816 29.8834H110.287V17.76H112.816V29.8834Z" fill="white"/>
<path d="M108.453 19.8994H105.214V29.8834H102.686V19.8994H99.4473V17.76H108.453V19.8994Z" fill="white"/>
<path d="M98.6069 25.1131H94.2266V23.04H98.6069V25.1131Z" fill="white"/>
<path d="M82.8726 28.623C81.8937 27.545 81.4043 25.9971 81.4043 23.9793C81.4043 21.9615 81.8937 20.4219 82.8726 19.3604C83.8569 18.2935 85.2626 17.76 87.0898 17.76C88.9224 17.76 90.3254 18.2962 91.2988 19.3687C92.2722 20.4412 92.7589 21.9836 92.7589 23.9959C92.7589 26.0026 92.2695 27.545 91.2907 28.623C90.3118 29.701 88.9088 30.24 87.0816 30.24C85.2544 30.24 83.8514 29.701 82.8726 28.623ZM87.0979 19.8994C86.0919 19.8994 85.3333 20.245 84.8221 20.936C84.3109 21.6215 84.0553 22.6414 84.0553 23.9959C84.0553 26.7213 85.0641 28.084 87.0816 28.084C89.0991 28.084 90.1079 26.7213 90.1079 23.9959C90.1079 21.2649 89.1046 19.8994 87.0979 19.8994Z" fill="white"/>
<path d="M80.0991 19.8994H76.8608V29.8834H74.3321V19.8994H71.0938V17.76H80.0991V19.8994Z" fill="white"/>
<path d="M66.6956 29.8834H63.9385L59.8926 17.76H62.4457L64.6889 24.9744C64.8249 25.4443 64.9554 25.9473 65.0805 26.4836C65.2055 27.0143 65.2871 27.4013 65.3252 27.6445C65.385 27.1304 65.5889 26.2403 65.937 24.9744L68.1965 17.76H70.7496L66.6956 29.8834Z" fill="white"/>
<path d="M59.8853 29.9332H57.1608L56.288 27.0475H51.9485L51.0838 29.9332H48.3594L52.5684 17.76H55.6599L59.8853 29.9332ZM55.6926 24.8914L54.3385 20.455C54.2352 20.0902 54.1645 19.8193 54.1264 19.6424C53.947 20.3445 53.4331 22.0942 52.5847 24.8914H55.6926Z" fill="white"/>
</svg>
