<svg width="64" height="64" viewBox="0 0 64 64" fill="none" xmlns="http://www.w3.org/2000/svg">
<g filter="url(#filter0_d_19952_32712)">
<rect x="20" y="16" width="24" height="24" rx="8" fill="#006FFD" shape-rendering="crispEdges"/>
<g clip-path="url(#clip0_19952_32712)">
<path d="M35.6189 22.7149L33.0661 20.9277V20H32.5328V20.8H31.4661V20H30.9328V20.9277L28.38 22.7144C28.3334 22.7468 28.2983 22.7934 28.2799 22.8471C28.2615 22.9009 28.2608 22.9592 28.2779 23.0134C28.2949 23.0676 28.3289 23.1149 28.3747 23.1485C28.4206 23.1821 28.476 23.2001 28.5328 23.2H35.4661C35.5228 23.2 35.578 23.1818 35.6237 23.1483C35.6694 23.1148 35.7032 23.0675 35.7203 23.0135C35.7373 22.9594 35.7367 22.9013 35.7184 22.8476C35.7002 22.7939 35.6654 22.7475 35.6189 22.7149ZM29.3787 22.6667L31.2835 21.3333H32.7155L34.6203 22.6667H29.3787ZM27.4661 30.4H26.9328C26.491 30.4 26.1328 30.7582 26.1328 31.2V31.4667C26.1328 31.9085 26.491 32.2667 26.9328 32.2667H27.4661C27.908 32.2667 28.2661 31.9085 28.2661 31.4667V31.2C28.2661 30.7582 27.908 30.4 27.4661 30.4ZM27.7328 31.4667C27.7328 31.5374 27.7047 31.6052 27.6547 31.6552C27.6047 31.7052 27.5369 31.7333 27.4661 31.7333H26.9328C26.8621 31.7333 26.7943 31.7052 26.7443 31.6552C26.6942 31.6052 26.6661 31.5374 26.6661 31.4667V31.2C26.6661 31.1293 26.6942 31.0614 26.7443 31.0114C26.7943 30.9614 26.8621 30.9333 26.9328 30.9333H27.4661C27.5369 30.9333 27.6047 30.9614 27.6547 31.0114C27.7047 31.0614 27.7328 31.1293 27.7328 31.2V31.4667ZM37.0661 30.4H36.5328C36.091 30.4 35.7328 30.7582 35.7328 31.2V31.4667C35.7328 31.9085 36.091 32.2667 36.5328 32.2667H37.0661C37.508 32.2667 37.8661 31.9085 37.8661 31.4667V31.2C37.8661 30.7582 37.508 30.4 37.0661 30.4ZM37.3328 31.4667C37.3328 31.5374 37.3047 31.6052 37.2547 31.6552C37.2047 31.7052 37.1369 31.7333 37.0661 31.7333H36.5328C36.4621 31.7333 36.3943 31.7052 36.3443 31.6552C36.2942 31.6052 36.2661 31.5374 36.2661 31.4667V31.2C36.2661 31.1293 36.2942 31.0614 36.3443 31.0114C36.3943 30.9614 36.4621 30.9333 36.5328 30.9333H37.0661C37.1369 30.9333 37.2047 30.9614 37.2547 31.0114C37.3047 31.0614 37.3328 31.1293 37.3328 31.2V31.4667ZM34.3995 30.4H29.5995C29.1576 30.4 28.7995 30.7582 28.7995 31.2V31.4667C28.7995 31.9085 29.1576 32.2667 29.5995 32.2667H34.3995C34.8413 32.2667 35.1995 31.9085 35.1995 31.4667V31.2C35.1995 30.7582 34.8413 30.4 34.3995 30.4ZM34.6661 31.4667C34.6661 31.5374 34.6381 31.6052 34.588 31.6552C34.538 31.7052 34.4702 31.7333 34.3995 31.7333H29.5995C29.5288 31.7333 29.4609 31.7052 29.4109 31.6552C29.3609 31.6052 29.3328 31.5374 29.3328 31.4667V31.2C29.3328 31.1293 29.3609 31.0614 29.4109 31.0114C29.4609 30.9614 29.5288 30.9333 29.5995 30.9333H34.3995C34.4702 30.9333 34.538 30.9614 34.588 31.0114C34.6381 31.0614 34.6661 31.1293 34.6661 31.2V31.4667Z" fill="white"/>
<path d="M38.0945 29.6173L37.5033 29.3807L35.7348 26.949C35.6109 26.7792 35.4486 26.6409 35.2612 26.5455C35.0739 26.4501 34.8667 26.4002 34.6564 26.3999H29.3428C29.1325 26.4002 28.9253 26.4501 28.738 26.5455C28.5506 26.6409 28.3884 26.7792 28.2644 26.949L26.4959 29.3807L25.9047 29.6173C25.6567 29.7155 25.4441 29.8862 25.2945 30.107C25.145 30.3279 25.0654 30.5887 25.0663 30.8554V35.4666C25.0663 35.7612 25.305 35.9999 25.5996 35.9999H27.1996C27.4942 35.9999 27.7329 35.7612 27.7329 35.4666V34.3999H36.2663V35.4666C36.2663 35.7612 36.505 35.9999 36.7996 35.9999H38.3996C38.6942 35.9999 38.9329 35.7612 38.9329 35.4666V30.8554C38.9338 30.5887 38.8543 30.3279 38.7047 30.107C38.5552 29.8862 38.3425 29.7155 38.0945 29.6173ZM28.6956 27.2629C28.77 27.1609 28.8673 27.0779 28.9798 27.0207C29.0922 26.9634 29.2166 26.9335 29.3428 26.9333H34.6564C34.7826 26.9335 34.907 26.9634 35.0194 27.0207C35.1319 27.0779 35.2292 27.1609 35.3036 27.2629L36.8092 29.3333H27.19L28.6956 27.2629ZM27.1996 35.4666H25.5996V34.3543C25.622 34.3623 25.6463 34.3666 25.6697 34.3725C25.6852 34.3765 25.7001 34.3818 25.7161 34.3847C25.7656 34.3945 25.8159 34.3996 25.8663 34.3999H27.1996V35.4666ZM38.3996 35.4666H36.7996V34.3999H38.1329C38.1834 34.3996 38.2336 34.3945 38.2831 34.3847C38.2991 34.3818 38.314 34.3765 38.3297 34.3725C38.3529 34.3666 38.3772 34.3623 38.3996 34.3543V35.4666ZM38.3996 33.5999C38.3996 33.6706 38.3715 33.7385 38.3215 33.7885C38.2715 33.8385 38.2037 33.8666 38.1329 33.8666H25.8663C25.7955 33.8666 25.7277 33.8385 25.6777 33.7885C25.6277 33.7385 25.5996 33.6706 25.5996 33.5999V33.3333H38.3996V33.5999ZM38.3996 32.7999H25.5996V30.8554C25.599 30.6954 25.6467 30.5389 25.7365 30.4064C25.8262 30.274 25.9538 30.1716 26.1025 30.1127L26.7175 29.8666H37.2817L37.8967 30.1127C38.0455 30.1716 38.173 30.274 38.2628 30.4064C38.3525 30.5389 38.4002 30.6954 38.3996 30.8554V32.7999ZM31.7329 23.7333H32.2663V24.5333H31.7329V23.7333ZM31.7329 25.0666H32.2663V25.8666H31.7329V25.0666ZM28.6199 24.183L29.1269 23.5641L29.5395 23.9021L29.0325 24.521L28.6199 24.183ZM27.7752 25.2147L28.2823 24.5959L28.6948 24.9339L28.1878 25.5527L27.7752 25.2147ZM26.9302 26.246L27.4373 25.6272L27.8498 25.9652L27.3428 26.584L26.9302 26.246ZM26.0849 27.2785L26.5919 26.6597L27.0044 26.9977L26.4974 27.6165L26.0849 27.2785ZM30.1862 24.4276L30.4104 23.6597L30.9224 23.8092L30.6981 24.5771L30.1862 24.4276ZM29.812 25.7054L30.0366 24.9376L30.5485 25.0873L30.3239 25.8552L29.812 25.7054ZM27.0256 24.0248L27.6137 23.4824L27.9751 23.8743L27.387 24.4167L27.0256 24.0248ZM26.0452 24.9297L26.6333 24.3873L26.9947 24.7791L26.4066 25.3215L26.0452 24.9297ZM25.0657 25.8331L25.6538 25.2907L26.0152 25.6825L25.4272 26.2249L25.0657 25.8331ZM24.0859 26.7371L24.674 26.1947L25.0354 26.5865L24.4473 27.1289L24.0859 26.7371ZM34.4604 23.9578L34.8729 23.6201L35.3797 24.2391L34.9672 24.5768L34.4604 23.9578ZM35.3038 24.9878L35.7164 24.6498L36.2234 25.2687L35.8108 25.6067L35.3038 24.9878ZM36.1494 26.0201L36.562 25.6821L37.0689 26.3009L36.6564 26.6389L36.1494 26.0201ZM36.9924 27.0527L37.405 26.7147L37.912 27.3335L37.4994 27.6715L36.9924 27.0527ZM33.0767 23.8669L33.5887 23.7176L33.8127 24.4856L33.3007 24.6349L33.0767 23.8669ZM33.4502 25.1432L33.9621 24.9935L34.1866 25.7614L33.6747 25.911L33.4502 25.1432ZM36.0235 23.9292L36.3849 23.5374L36.9729 24.0798L36.6115 24.4716L36.0235 23.9292ZM37.004 24.8339L37.3655 24.4422L37.9534 24.9846L37.5919 25.3764L37.004 24.8339ZM37.983 25.7384L38.3444 25.3466L38.9324 25.8891L38.5709 26.2809L37.983 25.7384ZM38.9634 26.6415L39.3248 26.2497L39.9128 26.7921L39.5514 27.1839L38.9634 26.6415Z" fill="white"/>
</g>
</g>
<defs>
<filter id="filter0_d_19952_32712" x="0" y="0" width="64" height="64" filterUnits="userSpaceOnUse" color-interpolation-filters="sRGB">
<feFlood flood-opacity="0" result="BackgroundImageFix"/>
<feColorMatrix in="SourceAlpha" type="matrix" values="0 0 0 0 0 0 0 0 0 0 0 0 0 0 0 0 0 0 127 0" result="hardAlpha"/>
<feOffset dy="4"/>
<feGaussianBlur stdDeviation="10"/>
<feComposite in2="hardAlpha" operator="out"/>
<feColorMatrix type="matrix" values="0 0 0 0 0.271 0 0 0 0 0.267612 0 0 0 0 0.267612 0 0 0 0.2 0"/>
<feBlend mode="normal" in2="BackgroundImageFix" result="effect1_dropShadow_19952_32712"/>
<feBlend mode="normal" in="SourceGraphic" in2="effect1_dropShadow_19952_32712" result="shape"/>
</filter>
<clipPath id="clip0_19952_32712">
<rect width="16" height="16" fill="white" transform="translate(24 20)"/>
</clipPath>
</defs>
</svg>
