<svg width="80" height="80" viewBox="0 0 80 80" fill="none" xmlns="http://www.w3.org/2000/svg">
<g filter="url(#filter0_d_19952_32721)">
<rect x="20" y="16" width="40" height="40" rx="8" fill="#006FFD" shape-rendering="crispEdges"/>
<g clip-path="url(#clip0_19952_32721)">
<path d="M47.2379 25.4299L42.1323 21.8555V20H41.0656V21.6H38.9323V20H37.8656V21.8555L32.76 25.4288C32.6667 25.4937 32.5966 25.5867 32.5598 25.6943C32.5231 25.8018 32.5217 25.9183 32.5558 26.0268C32.5899 26.1352 32.6578 26.2299 32.7495 26.297C32.8412 26.3642 32.952 26.4002 33.0656 26.4H46.9323C47.0457 26.3999 47.1561 26.3637 47.2475 26.2966C47.3389 26.2295 47.4065 26.135 47.4406 26.0269C47.4746 25.9188 47.4733 25.8026 47.4369 25.6952C47.4005 25.5879 47.3307 25.4949 47.2379 25.4299ZM34.7574 25.3333L38.567 22.6667H41.431L45.2406 25.3333H34.7574ZM30.9323 40.8H29.8656C28.982 40.8 28.2656 41.5163 28.2656 42.4V42.9333C28.2656 43.817 28.982 44.5333 29.8656 44.5333H30.9323C31.816 44.5333 32.5323 43.817 32.5323 42.9333V42.4C32.5323 41.5163 31.816 40.8 30.9323 40.8ZM31.4656 42.9333C31.4656 43.0748 31.4094 43.2104 31.3094 43.3105C31.2094 43.4105 31.0737 43.4667 30.9323 43.4667H29.8656C29.7242 43.4667 29.5885 43.4105 29.4885 43.3105C29.3885 43.2104 29.3323 43.0748 29.3323 42.9333V42.4C29.3323 42.2586 29.3885 42.1229 29.4885 42.0229C29.5885 41.9229 29.7242 41.8667 29.8656 41.8667H30.9323C31.0737 41.8667 31.2094 41.9229 31.3094 42.0229C31.4094 42.1229 31.4656 42.2586 31.4656 42.4V42.9333ZM50.1323 40.8H49.0656C48.182 40.8 47.4656 41.5163 47.4656 42.4V42.9333C47.4656 43.817 48.182 44.5333 49.0656 44.5333H50.1323C51.016 44.5333 51.7323 43.817 51.7323 42.9333V42.4C51.7323 41.5163 51.016 40.8 50.1323 40.8ZM50.6656 42.9333C50.6656 43.0748 50.6094 43.2104 50.5094 43.3105C50.4094 43.4105 50.2737 43.4667 50.1323 43.4667H49.0656C48.9242 43.4667 48.7885 43.4105 48.6885 43.3105C48.5885 43.2104 48.5323 43.0748 48.5323 42.9333V42.4C48.5323 42.2586 48.5885 42.1229 48.6885 42.0229C48.7885 41.9229 48.9242 41.8667 49.0656 41.8667H50.1323C50.2737 41.8667 50.4094 41.9229 50.5094 42.0229C50.6094 42.1229 50.6656 42.2586 50.6656 42.4V42.9333ZM44.799 40.8H35.199C34.3153 40.8 33.599 41.5163 33.599 42.4V42.9333C33.599 43.817 34.3153 44.5333 35.199 44.5333H44.799C45.6826 44.5333 46.399 43.817 46.399 42.9333V42.4C46.399 41.5163 45.6826 40.8 44.799 40.8ZM45.3323 42.9333C45.3323 43.0748 45.2761 43.2104 45.1761 43.3105C45.0761 43.4105 44.9404 43.4667 44.799 43.4667H35.199C35.0575 43.4667 34.9219 43.4105 34.8218 43.3105C34.7218 43.2104 34.6656 43.0748 34.6656 42.9333V42.4C34.6656 42.2586 34.7218 42.1229 34.8218 42.0229C34.9219 41.9229 35.0575 41.8667 35.199 41.8667H44.799C44.9404 41.8667 45.0761 41.9229 45.1761 42.0229C45.2761 42.1229 45.3323 42.2586 45.3323 42.4V42.9333Z" fill="white"/>
<path d="M52.1891 39.2345L51.0067 38.7614L47.4696 33.898C47.2217 33.5583 46.8972 33.2819 46.5225 33.0911C46.1478 32.9003 45.7333 32.8005 45.3128 32.7998H34.6856C34.2651 32.8005 33.8507 32.9003 33.4759 33.0911C33.1012 33.2819 32.7767 33.5583 32.5288 33.898L28.9917 38.7614L27.8093 39.2345C27.3134 39.431 26.8881 39.7723 26.589 40.214C26.2899 40.6557 26.1308 41.1773 26.1325 41.7108V50.9332C26.1325 51.5223 26.6101 51.9998 27.1992 51.9998H30.3992C30.9883 51.9998 31.4659 51.5223 31.4659 50.9332V48.7998H48.5325V50.9332C48.5325 51.5223 49.0101 51.9998 49.5992 51.9998H52.7992C53.3883 51.9998 53.8659 51.5223 53.8659 50.9332V41.7108C53.8676 41.1773 53.7085 40.6557 53.4094 40.214C53.1103 39.7723 52.685 39.431 52.1891 39.2345ZM33.3912 34.5257C33.54 34.3218 33.7347 34.1559 33.9596 34.0413C34.1845 33.9268 34.4332 33.8669 34.6856 33.8665H45.3128C45.5652 33.8669 45.8139 33.9268 46.0388 34.0413C46.2637 34.1559 46.4585 34.3218 46.6072 34.5257L49.6184 38.6665H30.38L33.3912 34.5257ZM30.3992 50.9332H27.1992V48.7086C27.244 48.7246 27.2925 48.7332 27.3395 48.7449C27.3704 48.7529 27.4003 48.7636 27.4323 48.7694C27.5312 48.7891 27.6317 48.7992 27.7325 48.7998H30.3992V50.9332ZM52.7992 50.9332H49.5992V48.7998H52.2659C52.3667 48.7992 52.4672 48.7891 52.5661 48.7694C52.5981 48.7636 52.628 48.7529 52.6595 48.7449C52.7059 48.7332 52.7544 48.7246 52.7992 48.7086V50.9332ZM52.7992 47.1998C52.7992 47.3413 52.743 47.4769 52.643 47.577C52.543 47.677 52.4073 47.7332 52.2659 47.7332H27.7325C27.5911 47.7332 27.4554 47.677 27.3554 47.577C27.2554 47.4769 27.1992 47.3413 27.1992 47.1998V46.6665H52.7992V47.1998ZM52.7992 45.5998H27.1992V41.7108C27.1981 41.3908 27.2935 41.0778 27.4729 40.8129C27.6524 40.5479 27.9075 40.3432 28.2051 40.2254L29.4349 39.7332H50.5635L51.7933 40.2254C52.0909 40.3432 52.3461 40.5479 52.5255 40.8129C52.7049 41.0778 52.8003 41.3908 52.7992 41.7108V45.5998ZM39.4659 27.4665H40.5325V29.0665H39.4659V27.4665ZM39.4659 30.1332H40.5325V31.7332H39.4659V30.1332ZM33.2399 28.366L34.2538 27.1282L35.0789 27.8042L34.0651 29.042L33.2399 28.366ZM31.5505 30.4294L32.5645 29.1918L33.3896 29.8678L32.3756 31.1054L31.5505 30.4294ZM29.8605 32.492L30.8745 31.2544L31.6996 31.9304L30.6856 33.168L29.8605 32.492ZM28.1697 34.557L29.1837 33.3194L30.0089 33.9954L28.9948 35.233L28.1697 34.557ZM36.3723 28.8552L36.8208 27.3193L37.8447 27.6183L37.3962 29.1542L36.3723 28.8552ZM35.6241 31.4108L36.0732 29.8752L37.097 30.1746L36.6479 31.7103L35.6241 31.4108ZM30.0513 28.0496L31.2274 26.9648L31.9502 27.7486L30.7741 28.8334L30.0513 28.0496ZM28.0905 29.8593L29.2666 28.7745L29.9895 29.5582L28.8133 30.643L28.0905 29.8593ZM26.1315 31.6661L27.3077 30.5813L28.0305 31.365L26.8543 32.4498L26.1315 31.6661ZM24.1719 33.4742L25.348 32.3894L26.0709 33.173L24.8946 34.2578L24.1719 33.4742ZM44.9209 27.9155L45.7458 27.2402L46.7594 28.4782L45.9345 29.1536L44.9209 27.9155ZM46.6076 29.9756L47.4328 29.2996L48.4467 30.5374L47.6215 31.2134L46.6076 29.9756ZM48.2989 32.0401L49.1239 31.3641L50.1379 32.6018L49.3128 33.2777L48.2989 32.0401ZM49.9849 34.1054L50.8099 33.4294L51.8239 34.667L50.9988 35.343L49.9849 34.1054ZM42.1535 27.7338L43.1775 27.4352L43.6255 28.9712L42.6015 29.2698L42.1535 27.7338ZM42.9005 30.2863L43.9243 29.987L44.3732 31.5227L43.3494 31.822L42.9005 30.2863ZM48.047 27.8584L48.7699 27.0748L49.9459 28.1596L49.223 28.9432L48.047 27.8584ZM50.008 29.6678L50.731 28.8843L51.9068 29.9692L51.1839 30.7528L50.008 29.6678ZM51.9659 31.4768L52.6889 30.6932L53.8647 31.7782L53.1417 32.5617L51.9659 31.4768ZM53.9267 33.283L54.6495 32.4994L55.8255 33.5842L55.1027 34.3678L53.9267 33.283Z" fill="white"/>
</g>
</g>
<path d="M37.469 63.0227C38.6479 64.8752 41.3521 64.8752 42.531 63.0227L47 56H33L37.469 63.0227Z" fill="#006FFD"/>
<defs>
<filter id="filter0_d_19952_32721" x="0" y="0" width="80" height="80" filterUnits="userSpaceOnUse" color-interpolation-filters="sRGB">
<feFlood flood-opacity="0" result="BackgroundImageFix"/>
<feColorMatrix in="SourceAlpha" type="matrix" values="0 0 0 0 0 0 0 0 0 0 0 0 0 0 0 0 0 0 127 0" result="hardAlpha"/>
<feOffset dy="4"/>
<feGaussianBlur stdDeviation="10"/>
<feComposite in2="hardAlpha" operator="out"/>
<feColorMatrix type="matrix" values="0 0 0 0 0.271 0 0 0 0 0.267612 0 0 0 0 0.267612 0 0 0 0.2 0"/>
<feBlend mode="normal" in2="BackgroundImageFix" result="effect1_dropShadow_19952_32721"/>
<feBlend mode="normal" in="SourceGraphic" in2="effect1_dropShadow_19952_32721" result="shape"/>
</filter>
<clipPath id="clip0_19952_32721">
<rect width="32" height="32" fill="white" transform="translate(24 20)"/>
</clipPath>
</defs>
</svg>
