<svg width="40" height="40" viewBox="0 0 40 40" fill="none" xmlns="http://www.w3.org/2000/svg">
<rect x="0.5" y="0.5" width="39" height="39" rx="19.5" fill="white"/>
<rect x="0.5" y="0.5" width="39" height="39" rx="19.5" stroke="#E3E5E6"/>
<path d="M24.8008 16.7998L25.5597 17.0528C26.3517 17.3168 26.7478 17.4488 26.9743 17.7631C27.2008 18.0773 27.2008 18.4948 27.2008 19.3296V23.863C27.2008 24.8957 27.2008 25.4121 26.929 25.7438C26.8367 25.8564 26.7247 25.9513 26.5984 26.0239C26.2265 26.2374 25.7172 26.1525 24.6985 25.9828C23.6933 25.8152 23.1908 25.7315 22.6927 25.7732C22.5178 25.7878 22.3442 25.8139 22.1728 25.8513C21.6844 25.958 21.2247 26.1878 20.3053 26.6476C19.1055 27.2474 18.5056 27.5474 17.867 27.6398C17.6747 27.6677 17.4806 27.6815 17.2863 27.6811C16.6411 27.6799 16.0103 27.4696 14.7487 27.0491L14.4418 26.9468C13.6498 26.6828 13.2538 26.5508 13.0273 26.2365C12.8008 25.9223 12.8008 25.5048 12.8008 24.67V20.7262C12.8008 19.3991 12.8008 18.7355 13.1915 18.3787C13.2599 18.3162 13.3353 18.2619 13.4161 18.2168C13.8782 17.959 14.5077 18.1688 15.7667 18.5885" stroke="#626C7A" stroke-width="1.5"/>
<path d="M15.1992 16.5602C15.1992 14.0417 17.3483 12 19.9992 12C22.6502 12 24.7992 14.0417 24.7992 16.5602C24.7992 19.0591 23.2672 21.975 20.877 23.0177C20.3198 23.2608 19.6787 23.2608 19.1215 23.0177C16.7312 21.975 15.1992 19.0591 15.1992 16.5602Z" stroke="#626C7A" stroke-width="1.5"/>
<circle cx="19.9984" cy="16.8002" r="1.6" stroke="#626C7A" stroke-width="1.5"/>
</svg>
