<svg width="24" height="24" viewBox="0 0 24 24" fill="none" xmlns="http://www.w3.org/2000/svg">
<rect x="2.25" y="5.58203" width="19.5" height="12.8333" rx="3.75" fill="white" stroke="#1A1F28" stroke-width="0.5"/>
<path fill-rule="evenodd" clip-rule="evenodd" d="M12.2258 15.2655C11.3657 15.9872 10.25 16.4228 9.0309 16.4228C6.31066 16.4228 4.10547 14.254 4.10547 11.5786C4.10547 8.9032 6.31066 6.73438 9.0309 6.73438C10.25 6.73438 11.3657 7.17001 12.2258 7.89165C13.0859 7.17003 14.2016 6.73441 15.4207 6.73441C18.141 6.73441 20.3462 8.90323 20.3462 11.5786C20.3462 14.254 18.141 16.4228 15.4207 16.4228C14.2016 16.4228 13.0859 15.9872 12.2258 15.2655Z" fill="#ED0006"/>
<path fill-rule="evenodd" clip-rule="evenodd" d="M12.2266 15.2656C13.2856 14.3771 13.9572 13.055 13.9572 11.5786C13.9572 10.1022 13.2856 8.78008 12.2266 7.89156C13.0866 7.16998 14.2023 6.73438 15.4214 6.73438C18.1416 6.73438 20.3468 8.9032 20.3468 11.5786C20.3468 14.254 18.1416 16.4228 15.4214 16.4228C14.2023 16.4228 13.0866 15.9872 12.2266 15.2656Z" fill="#F9A000"/>
<path fill-rule="evenodd" clip-rule="evenodd" d="M12.2266 15.2645C13.2856 14.376 13.9571 13.0539 13.9571 11.5776C13.9571 10.1012 13.2856 8.77914 12.2266 7.89062C11.1676 8.77914 10.4961 10.1012 10.4961 11.5776C10.4961 13.0539 11.1676 14.376 12.2266 15.2645Z" fill="#FF5E00"/>
</svg>
