<svg width="76" height="76" viewBox="0 0 76 76" fill="none" xmlns="http://www.w3.org/2000/svg">
<rect x="0.5" y="0.5" width="75" height="75" rx="37.5" stroke="#E3E5E6"/>
<path d="M18 38C18 30.4575 18 26.6863 20.3431 24.3431C22.6863 22 26.4575 22 34 22H42C49.5425 22 53.3137 22 55.6569 24.3431C58 26.6863 58 30.4575 58 38C58 45.5425 58 49.3137 55.6569 51.6569C53.3137 54 49.5425 54 42 54H34C26.4575 54 22.6863 54 20.3431 51.6569C18 49.3137 18 45.5425 18 38Z" stroke="#626C7A" stroke-width="1.5"/>
<path d="M34 47H26" stroke="#626C7A" stroke-width="1.5" stroke-linecap="round"/>
<path d="M30 41H26" stroke="#626C7A" stroke-width="1.5" stroke-linecap="round"/>
<path d="M18 34L58 34" stroke="#626C7A" stroke-width="1.5" stroke-linecap="round"/>
<path d="M42 44C42 42.1144 42 41.1716 42.5858 40.5858C43.1716 40 44.1144 40 46 40C47.8856 40 48.8284 40 49.4142 40.5858C50 41.1716 50 42.1144 50 44C50 45.8856 50 46.8284 49.4142 47.4142C48.8284 48 47.8856 48 46 48C44.1144 48 43.1716 48 42.5858 47.4142C42 46.8284 42 45.8856 42 44Z" stroke="#626C7A" stroke-width="1.5"/>
</svg>
