<svg width="24" height="24" viewBox="0 0 24 24" fill="none" xmlns="http://www.w3.org/2000/svg">
<path d="M5.13867 15.5L6.58312 16.2222" stroke="#626C7A" stroke-linecap="round" stroke-linejoin="round"/>
<path d="M18.8613 15.8633L17.4169 16.2244" stroke="#626C7A" stroke-linecap="round" stroke-linejoin="round"/>
<path d="M9.11133 19.4735L9.28876 19.03C9.55261 18.3703 9.68454 18.0405 9.95965 17.8542C10.2348 17.668 10.59 17.668 11.3005 17.668H12.7C13.4104 17.668 13.7657 17.668 14.0408 17.8542C14.3159 18.0405 14.4478 18.3703 14.7117 19.03L14.8891 19.4735" stroke="#626C7A" stroke-linecap="round" stroke-linejoin="round"/>
<path d="M4.77734 19.1133L4.77734 21.1947C4.77734 21.4683 4.95122 21.7183 5.22648 21.8407C5.40509 21.9201 5.57568 22.0022 5.78165 22.0022H7.02304C7.22901 22.0022 7.3996 21.9201 7.5782 21.8407C7.85347 21.7183 8.02734 21.4683 8.02734 21.1947V19.8355" stroke="#626C7A" stroke-linecap="round" stroke-linejoin="round"/>
<path d="M15.9727 19.8355V21.1947C15.9727 21.4683 16.1465 21.7183 16.4218 21.8407C16.6004 21.9201 16.771 22.0022 16.977 22.0022H18.2184C18.4243 22.0022 18.5949 21.9201 18.7735 21.8407C19.0488 21.7183 19.2227 21.4683 19.2227 21.1947V19.1133" stroke="#626C7A" stroke-linecap="round" stroke-linejoin="round"/>
<path d="M17.7773 12.9744L18.4996 12.6133" stroke="#626C7A" stroke-linecap="round" stroke-linejoin="round"/>
<path d="M6.22266 12.9744L5.50043 12.6133" stroke="#626C7A" stroke-linecap="round" stroke-linejoin="round"/>
<path d="M6.58203 13.3333L7.36803 10.9753C7.68582 10.022 7.84471 9.5453 8.22299 9.27265C8.60127 9 9.10374 9 10.1087 9L13.8887 9C14.8937 9 15.3961 9 15.7744 9.27265C16.1527 9.5453 16.3116 10.022 16.6294 10.9753L17.4154 13.3333" stroke="#626C7A" stroke-linejoin="round"/>
<path d="M6.5829 13.3359L17.4162 13.3359C18.1076 14.0679 19.2218 15.0873 19.2218 16.2246V18.7311C19.2218 19.1431 18.9477 19.4899 18.584 19.538L16.3329 19.8359L7.66623 19.8359L5.41518 19.538C5.05146 19.4899 4.77734 19.1431 4.77734 18.7311V16.2246C4.77734 15.0873 5.89158 14.0679 6.5829 13.3359Z" stroke="#626C7A" stroke-linejoin="round"/>
<path d="M3 10L11.3356 2.59055C11.7145 2.25376 12.2855 2.25376 12.6644 2.59055L21 10" stroke="#626C7A" stroke-linecap="round"/>
</svg>
