<svg width="719" height="501" viewBox="0 0 719 501" fill="none" xmlns="http://www.w3.org/2000/svg">
<path d="M300.347 561.137C292.867 560.247 285.401 558.828 278.016 556.885C253.724 550.492 230.648 538.547 211.282 522.347L210.586 521.762L211.462 522.065C260.845 539.307 313.992 550.048 368.076 553.894C408.955 539.879 439.955 508.447 464.84 456.126C511.738 357.521 530.348 255.545 517.236 168.98C511.346 130.08 493.172 63.649 437.447 46.9102C434.343 46.1173 431.24 45.3742 428.108 44.6705L428.189 44.3489L432.244 45.1803C434.012 45.5936 435.758 46.0576 437.481 46.5724C467.013 54.0807 495.517 65.5127 522.344 80.6169C551.088 96.8039 577.515 116.975 600.896 140.577C624.052 163.949 643.784 190.241 659.551 218.725C675.519 247.576 687.11 278.138 694.008 309.564C701.092 341.838 703.227 374.909 700.357 407.859C698.806 425.661 693.385 442.205 684.245 457.027C675.506 471.204 663.148 484.155 647.521 495.525C598.756 531.005 529.768 551.059 442.481 555.128C417.654 556.285 392.751 555.967 368.055 554.216C363.521 555.778 358.877 557.117 354.142 558.238C336.805 562.334 318.529 563.288 300.338 561.125L300.347 561.137ZM212.217 522.682C252.689 556.192 305.647 569.364 354.072 557.927C358.586 556.861 362.981 555.61 367.273 554.169C313.738 550.299 261.15 539.675 212.217 522.682ZM442.49 48.2473C463.184 55.8336 480.243 71.1117 493.299 93.7886C507.768 118.917 514.487 148.526 517.579 168.939C524.487 214.559 522.796 263.886 512.544 315.551C503.267 362.309 487.322 409.653 465.152 456.267C452.401 483.08 438.327 503.969 422.135 520.133C412.845 529.403 402.673 537.244 391.895 543.431C384.621 547.606 376.912 551.127 368.852 553.954C393.293 555.661 417.911 555.96 442.479 554.814C529.694 550.747 598.611 530.717 647.322 495.277C679.262 472.039 696.992 442.623 700.018 407.847C702.884 374.929 700.752 341.89 693.675 309.645C666.382 185.267 566.397 81.9168 442.49 48.2473Z" fill="#65BDF7"/>
<path d="M333.321 550.785C325.578 549.863 317.902 548.813 310.319 547.641C282.76 543.374 256.24 537.429 231.489 529.968C175.899 513.216 129.078 488.923 92.3246 457.77C77.2365 444.982 56.8579 424.092 45.4482 397.201C34.6555 371.762 34.3551 346.889 44.5547 323.269C53.7257 302.031 70.4008 283.04 94.1085 266.825C113.1 253.833 136.632 242.578 164.052 233.37C212.023 217.261 265.059 209.015 321.695 208.855C373.995 208.709 427.209 215.387 479.86 228.706C506.659 235.486 574.921 255.338 629.887 293.18C655.392 310.74 674.382 329.799 686.332 349.831C700.147 372.994 704.639 397.683 699.684 423.209C697.109 435.96 691.739 448.329 683.727 459.974C660.19 494.186 617.09 520.287 555.629 537.561C505.659 551.605 449.736 557.533 389.419 555.188C370.491 554.453 351.705 552.978 333.317 550.788L333.321 550.785ZM396.084 213.471C313.603 203.647 233.416 210.425 164.168 233.681C121.19 248.113 65.6073 275.392 44.8787 323.39C26.3239 366.347 44.1488 416.49 92.5595 457.526C184.852 535.757 318.18 552.087 389.441 554.858C449.724 557.203 505.606 551.276 555.54 537.242C616.919 519.994 659.953 493.935 683.442 459.793C691.43 448.184 696.779 435.856 699.347 423.151C708.637 375.306 685.202 331.668 629.687 293.446C574.768 255.635 506.553 235.8 479.772 229.025C451.839 221.959 423.829 216.775 396.084 213.471Z" fill="#65BDF7"/>
<path d="M252.856 639.469C237.96 637.698 224.1 631.98 211.603 622.442C179.831 598.199 161.303 556.36 156.271 497.712C102.513 471.343 66.2063 439.112 48.0494 401.529C36.0271 376.644 34.7679 351.748 44.3027 327.523C51.12 310.207 63.2154 293.807 80.2597 278.779C95.5799 265.271 114.609 253.295 135.289 244.15C169.924 228.829 209.252 218.693 255.524 213.164L256.496 213.048L255.617 213.475C168.838 255.577 123.951 359.277 155.551 444.646L155.561 444.704C154.861 463.593 155.207 481.198 156.598 497.502C173.006 505.54 191.044 513.035 210.684 519.972L210.736 520.003C247.709 551.016 295.963 564.335 343.126 556.541C387.534 549.205 424.63 524.187 447.574 486.106L449.913 482.086L450.216 482.239C429.65 519.644 407.467 550.499 382.396 576.572C368.069 591.474 338.707 618.499 303.04 632.103C286.831 638.284 271.244 640.886 256.721 639.836C255.425 639.743 254.129 639.617 252.849 639.465L252.856 639.469ZM156.634 497.891C161.685 556.337 180.163 598.029 211.82 622.187C237.54 641.811 268.189 645.046 302.924 631.801C338.527 618.224 367.842 591.233 382.151 576.354C405.198 552.389 425.804 524.369 444.956 490.938C433.638 508.314 419.258 522.789 402.145 534.027C384.456 545.642 364.623 553.324 343.19 556.866C320.503 560.616 296.609 559.404 274.087 553.358C250.575 547.048 229.196 535.916 210.539 520.272C190.974 513.362 172.995 505.895 156.634 497.891ZM254.594 213.61C208.779 219.161 169.795 229.249 135.433 244.448C90.7574 264.21 57.6593 294.529 44.6267 327.637C35.1273 351.773 36.3836 376.586 48.3658 401.388C66.4709 438.865 102.653 471.007 156.238 497.324C154.863 481.071 154.518 463.538 155.213 444.727C139.709 402.819 141.657 355.726 160.703 312.124C169.934 290.992 182.699 271.738 198.64 254.897C214.85 237.775 233.674 223.885 254.594 213.61Z" fill="#65BDF7"/>
<path d="M155.021 448.123L154.721 447.309C139.185 405.328 141.133 358.156 160.208 314.473C169.361 293.516 181.98 274.406 197.731 257.656C201.81 247.668 206.128 237.89 210.67 228.35C226.649 194.783 245.585 163.816 266.956 136.312C291.686 104.486 317.154 80.4818 342.66 64.9675C376.108 44.6149 409.802 38.7948 442.802 47.6596C477.627 57.2197 510.771 72.102 541.313 91.8866C596.559 127.674 640.526 177.826 668.465 236.916C694.222 291.392 705.05 350.71 700.064 409.383C699.958 414.421 699.417 419.433 698.439 424.407L698.098 424.359C698.755 419.344 699.299 414.314 699.72 409.299C700.522 369.422 673.725 336.765 656.332 319.84C554.236 220.472 376.461 201.629 255.224 215.683C233.171 226.389 213.822 241.065 197.741 258.407C188.631 280.804 180.707 304.292 173.997 328.81C162.971 369.081 156.599 408.934 155.051 447.255L155.021 448.123ZM197.169 259.031C150.507 309.775 131.689 383.03 154.746 446.376C156.355 408.298 162.717 368.722 173.663 328.731C180.252 304.659 188.123 281.329 197.166 259.031L197.169 259.031ZM408.327 215.742C429.304 218.237 449.857 221.734 469.65 226.216C506.86 234.642 541.197 246.432 571.71 261.259C604.731 277.305 633.287 296.938 656.583 319.613C672.083 334.699 683.688 350.758 691.074 367.342C696.701 379.977 699.7 392.609 700.05 405.087C708.792 282.483 647.84 161.301 541.115 92.1629C510.604 72.3963 477.491 57.5319 442.703 47.9797C384.139 32.2447 325.095 62.0291 267.227 136.509C239.682 171.96 216.623 212.313 198.295 257.056C214.733 239.717 233.843 225.694 255.1 215.382L255.158 215.364C305.292 209.55 357.998 209.757 408.327 215.742Z" fill="#65BDF7"/>
<path d="M253.977 639.765C235.132 637.519 218.218 629.088 203.535 614.586C184.113 595.402 173.511 570.463 168.034 552.924C154.834 510.632 151.35 462.414 157.679 409.607C163.048 364.808 175.321 317.358 194.159 268.576C214.264 216.512 239.962 170.598 270.535 132.11C309.074 83.5964 347.022 55.3076 386.547 45.6253C399.051 42.562 411.295 41.7567 422.928 43.2352C446.831 46.4281 467.094 58.9581 483.147 80.4804C499.086 101.847 507.507 127.717 511.766 145.655C517.198 168.535 519.973 193.526 520.019 219.93C520.057 243.215 517.966 268.366 513.804 294.684C497.198 399.646 453.983 496.056 392.12 566.153C374.015 586.669 355.847 603.119 338.117 615.049C315.208 630.468 292.238 638.938 269.847 640.223C264.418 640.536 259.128 640.382 253.98 639.769L253.977 639.765ZM422.212 43.4698C410.818 42.1122 398.85 42.9397 386.625 45.9331C347.181 55.5966 309.295 83.8431 270.805 132.296C240.251 170.757 214.573 216.641 194.48 268.678C165.518 343.684 137.478 453.866 168.362 552.821C175.045 574.229 202.11 643.779 269.825 639.89C309.498 637.611 350.553 612.728 391.85 565.936C453.673 495.888 496.86 399.538 513.458 294.632C522.422 237.952 521.759 189.242 511.428 145.725C503.157 110.88 480.652 51.2682 422.874 43.5523C422.655 43.5261 422.432 43.496 422.212 43.4698Z" fill="#65BDF7"/>
<path d="M698.19 425.054L699.196 416.976L700.003 408.881L700.606 400.773L701.009 392.655L701.21 384.528L701.206 376.401L701 368.278L700.594 360.164L699.984 352.061L699.173 343.977L698.161 335.912L696.95 327.873L695.545 319.865L693.939 311.893L692.137 303.958L690.141 296.072L687.951 288.23L685.571 280.441L683.002 272.71L680.244 265.043L677.301 257.44L674.175 249.907L670.867 242.445L667.383 235.066L663.718 227.769L659.883 220.558L655.877 213.437L651.701 206.41L647.36 199.485L642.859 192.658L638.196 185.94L633.378 179.332L628.409 172.837L623.293 166.457L618.026 160.202L612.623 154.069L607.077 148.062L601.4 142.186L595.591 136.447L589.653 130.842L583.597 125.376L577.42 120.057L571.127 114.883L564.727 109.854L558.218 104.98L551.607 100.26L544.9 95.6969L538.101 91.2902L531.212 87.0472L524.238 82.9653L517.184 79.0518L510.054 75.3039L502.857 71.7227L495.59 68.3183L488.264 65.0851L480.883 62.0234L473.446 59.1404L465.963 56.4372L458.436 53.9104L450.872 51.5609L443.273 49.3961L435.644 47.4129L427.992 45.6123L428.08 45.2914L435.736 47.0925L443.372 49.0801L450.978 51.2492L458.55 53.5961L466.084 56.1273L473.577 58.8353L481.021 61.7227L488.409 64.7852L495.746 68.0198L503.016 71.4316L510.223 75.0141L517.358 78.7625L524.418 82.6838L531.399 86.7666L538.295 91.014L545.1 95.4251L551.815 99.9929L558.432 104.72L564.944 109.599L571.355 114.629L577.65 119.81L583.835 125.134L589.897 130.604L595.838 136.213L601.654 141.96L607.338 147.84L612.887 153.851L618.297 159.992L623.565 166.255L628.689 172.639L633.661 179.137L638.485 185.753L643.151 192.479L647.655 199.309L652.002 206.243L656.181 213.277L660.19 220.402L664.031 227.621L667.695 234.925L671.186 242.312L674.497 249.778L677.626 257.318L680.571 264.929L683.332 272.604L685.903 280.341L688.287 288.138L690.476 295.983L692.474 303.881L694.278 311.823L695.883 319.802L697.295 327.818L698.504 335.864L699.515 343.936L700.329 352.031L700.937 360.141L701.346 368.262L701.552 376.392L701.554 384.529L701.356 392.661L700.952 400.785L700.348 408.904L699.54 417.006L698.533 425.087L698.19 425.054Z" fill="#65BDF7"/>
<path d="M568.939 533.642L568.657 533.459C586.25 509.154 599.376 482.516 607.668 454.277C622.505 403.761 621.672 349.561 605.26 297.547C589.084 246.282 558.648 199.657 517.241 162.713L517.477 162.472C558.927 199.453 589.396 246.128 605.59 297.448C613.629 322.924 617.953 349.216 618.447 375.601C618.95 402.551 615.435 429.05 608.001 454.359C599.697 482.632 586.551 509.304 568.939 533.642Z" fill="#65BDF7"/>
<path d="M387.214 554.096L387.13 553.78C407.003 548.643 425.547 540.201 442.247 528.686C503.589 486.395 530.075 406.795 509.724 325.895L510.059 325.815C514.688 344.219 516.922 363.068 516.696 381.841C516.467 401.061 513.658 419.75 508.351 437.38C496.888 475.466 474.096 507.131 442.446 528.952C425.709 540.49 407.13 548.95 387.217 554.1L387.214 554.096Z" fill="#65BDF7"/>
<path d="M299.367 560.858C285.856 559.246 272.413 555.921 259.398 550.895C240.226 543.49 222.452 532.635 206.572 518.634L206.81 518.389C222.661 532.365 240.4 543.198 259.533 550.588C294.168 563.965 331.874 565.268 365.709 554.261C400.045 543.09 429.741 518.915 449.331 486.193L449.631 486.355C429.996 519.147 400.233 543.375 365.814 554.571C344.616 561.469 321.898 563.546 299.367 560.858Z" fill="#65BDF7"/>
<path d="M256.625 624.784C233.982 622.09 211.87 615.517 190.862 605.231C147.427 583.969 110.472 547.599 86.8031 502.828C73.2277 477.155 64.2168 449.249 60.013 419.888L60.3578 419.84C64.5558 449.164 73.5566 477.036 87.1139 502.679C110.753 547.393 147.657 583.707 191.024 604.94C236.087 627 285.75 631.802 330.863 618.455L330.963 618.771C308.063 625.545 283.987 627.676 259.402 625.097C258.478 625.001 257.548 624.894 256.625 624.784Z" fill="#65BDF7"/>
<path d="M186.112 594.069C165.645 584.878 146.76 571.849 129.991 555.348C114.194 539.809 100.694 521.634 89.8607 501.331C78.0496 479.193 69.7463 455.191 65.1919 429.99C60.6999 405.153 59.9526 379.781 62.9702 354.577C66.4022 325.909 74.7318 297.756 87.7247 270.906L88.0365 271.039C75.0592 297.859 66.7384 325.977 63.3115 354.611C57.2427 405.299 66.7792 457.353 90.169 501.183C112.542 543.112 146.666 575.995 186.263 593.775L186.112 594.073L186.112 594.069Z" fill="#65BDF7"/>
<path d="M154.687 440.505C144.206 409.607 142.975 375.696 151.136 342.443C155.452 324.855 162.332 307.887 171.58 292.018C180.899 276.029 192.426 261.501 205.842 248.829C221.164 234.356 238.809 222.416 258.283 213.347L258.43 213.642C238.987 222.697 221.375 234.612 206.079 249.059C179.101 274.543 160.215 306.856 151.467 342.511C143.323 375.706 144.547 409.556 155.011 440.398L154.687 440.505Z" fill="#65BDF7"/>
<path d="M189.624 276.243L189.344 276.052C211.152 247.563 240.862 225.377 275.26 211.892C309.941 198.297 347.215 194.433 383.056 200.718C404.442 204.469 424.7 211.606 443.267 221.927L443.089 222.215C424.557 211.912 404.338 204.79 382.99 201.044C310.26 188.283 234.356 217.804 189.624 276.243Z" fill="#65BDF7"/>
<path d="M612.697 287.061C601.597 258.703 585.911 232.662 566.077 209.666C531.488 169.568 484.044 139.104 432.485 123.893C381.323 108.798 327.673 108.462 277.333 122.923L277.237 122.606C302.33 115.397 328.541 111.854 355.144 112.073C381.398 112.29 407.456 116.159 432.592 123.576C458.539 131.23 483.268 142.558 506.089 157.241C528.777 171.836 549.052 189.403 566.344 209.454C586.204 232.478 601.909 258.546 613.023 286.942L612.697 287.061Z" fill="#65BDF7"/>
<path d="M279.588 544.913C218.057 537.586 164.897 522.025 121.542 498.649C87.7771 480.442 45.641 449.162 36.6534 403.515C32.4547 382.187 36.2928 360.646 48.0611 339.49C57.9836 321.652 73.6488 304.241 93.3618 289.133C112.994 274.088 136.213 260.859 162.38 249.807C185.116 240.204 210.761 231.965 238.602 225.32C269.688 217.897 302.174 212.914 335.15 210.504C367.231 208.158 400.064 208.23 432.737 210.709C496.599 215.557 553.054 229.315 600.524 251.592C649.512 274.583 681.462 303.139 695.481 336.467C700.543 348.502 702.986 360.935 702.734 373.411C702.437 394.078 694.791 414.446 680.005 433.95C667.776 450.081 651.023 465.258 630.213 479.064C608.67 493.356 583.81 505.72 556.322 515.823C532.069 524.736 505.126 532.119 476.241 537.767C444.612 543.951 411.986 547.71 379.269 548.938C346.81 550.157 314.049 548.895 281.895 545.187C281.123 545.096 280.348 545.007 279.58 544.915L279.588 544.913ZM459.256 213.617C450.557 212.581 441.709 211.721 432.711 211.039C365.822 205.96 300.543 210.873 238.686 225.641C179.008 239.889 130.188 261.337 93.5834 289.389C49.9356 322.839 29.3085 364.412 36.9968 403.452C45.9614 448.975 88.0166 480.191 121.719 498.362C165.579 522.01 219.502 537.661 281.954 544.858C347.182 552.382 412.534 549.884 476.187 537.442C537.749 525.406 589.509 505.675 630.03 478.795C656.747 461.074 701.678 423.813 702.399 373.414C702.649 360.98 700.215 348.592 695.169 336.598C681.18 303.346 649.289 274.846 600.378 251.893C559.636 232.774 512.261 219.936 459.258 213.624L459.256 213.617Z" fill="#65BDF7"/>
<path d="M230.678 546.56C192.568 542.024 158.304 533.319 128.295 520.513C95.2548 506.415 53.2031 480.69 40.5208 438.199C35.1314 420.151 35.8896 401.035 42.7743 381.378C48.6972 364.466 59.3078 347.174 73.4599 331.38C90.3015 312.58 111.589 295.199 136.72 279.718C158.194 266.492 183.163 254.24 210.933 243.309C242.038 231.065 275.072 221.279 309.117 214.222C342.222 207.361 376.45 203.045 410.851 201.394C478.829 198.129 539.248 205.629 590.432 223.685C613.266 231.742 632.948 241.534 648.932 252.789C668.417 266.507 682.529 282.513 690.876 300.358C694.574 308.262 697.114 316.794 698.426 325.712C700.889 344.592 697.235 364.029 687.568 383.483C679.335 400.053 666.957 416.315 650.779 431.821C631.736 450.073 608.573 466.748 581.937 481.385C558.804 494.095 532.387 505.63 503.419 515.664C471.272 526.8 437.591 535.389 403.312 541.198C369.35 546.951 334.704 549.99 300.341 550.229C275.898 550.401 252.648 549.175 230.678 546.56ZM504.522 204.586C475.222 201.099 443.94 200.137 410.863 201.724C340.284 205.113 273.06 219.208 211.061 243.614C150.23 267.562 105.304 296.336 73.7182 331.59C55.6024 351.81 27.2459 392.532 40.8503 438.102C53.5011 480.475 95.4642 506.139 128.437 520.211C175.707 540.382 233.542 550.372 300.34 549.904C369.265 549.424 439.447 537.477 503.302 515.36C565.473 493.826 615.008 465.643 650.534 431.595C675.413 407.751 703.854 370.033 698.084 325.768C696.779 316.879 694.246 308.377 690.559 300.5C675.268 267.813 641.536 242.073 590.303 223.999C564.063 214.744 535.39 208.261 504.518 204.586L504.522 204.586Z" fill="#65BDF7"/>
<path d="M199.307 554.807C188.654 553.54 178.267 551.86 168.13 549.764C126.429 541.139 72.2372 521.405 50.8917 476.364C41.7301 457.033 40.2476 435.534 46.491 412.471C51.7126 393.175 62.4634 372.913 77.574 353.879C111.357 311.326 162.387 274.249 229.243 243.68C270.864 224.651 315.378 209.908 361.544 199.862C423.65 186.351 482.022 182.715 535.166 189.038C537.401 189.304 539.618 189.586 541.832 189.889C570.039 193.72 594.858 200.137 615.59 208.963C641.601 220.032 661.409 235.003 674.469 253.461C680.336 261.752 684.728 270.789 687.52 280.322C693.349 301.068 691.467 323.346 681.923 346.536C674.039 365.69 661.201 385.013 643.765 403.968C605.907 445.117 552.363 480.304 484.62 508.555C443.849 525.555 400.631 538.493 356.164 547.007C299.476 557.86 246.864 560.469 199.303 554.81L199.307 554.807ZM535.118 189.365C482.015 183.047 423.685 186.68 361.617 200.185C315.474 210.223 270.987 224.958 229.387 243.976C162.583 274.522 111.596 311.565 77.8458 354.072C44.2054 396.446 34.4944 440.966 51.2051 476.222C72.4938 521.138 126.58 540.832 168.207 549.441C223.548 560.887 286.764 559.958 356.1 546.681C400.544 538.172 443.738 525.241 484.485 508.249C552.18 480.018 605.686 444.859 643.505 403.747C665.914 379.386 701.387 330.968 687.185 280.407C684.403 270.907 680.025 261.904 674.18 253.641C650.577 220.281 606.03 198.939 541.777 190.211C539.566 189.912 537.346 189.627 535.115 189.361L535.118 189.365Z" fill="#65BDF7"/>
<path d="M177.859 566.964C137.865 562.207 90.2377 548.351 65.9222 511.218C54.4302 493.671 50.0125 473.116 52.792 450.122C55.1185 430.876 62.6355 409.963 74.5306 389.645C87.2407 367.938 104.227 346.626 125.025 326.299C143.069 308.663 164.515 291.252 188.769 274.55C237.709 240.851 292.441 214.019 351.445 194.794C410.992 175.394 467.42 166.075 519.166 167.098C546.85 167.645 571.575 171.064 592.645 177.259C619.034 185.018 639.964 197.224 654.854 213.536C661.446 220.758 666.718 228.752 670.515 237.288C679.177 256.669 680.369 278.661 674.065 302.658C668.899 322.319 658.924 342.784 644.423 363.484C629.719 384.475 611.2 404.912 589.382 424.218C570.132 441.254 547.756 457.904 522.876 473.707C497.525 489.807 470.492 504.307 442.527 516.811C414.742 529.233 385.799 539.792 356.506 548.185C296.784 565.3 241.116 572.045 191.047 568.233C186.779 567.907 182.364 567.486 177.858 566.95L177.859 566.964ZM553.23 169.703C542.506 168.428 531.148 167.67 519.155 167.433C467.45 166.411 411.06 175.723 351.552 195.11C292.58 214.325 237.88 241.143 188.97 274.82C136.927 310.657 98.5234 349.34 74.8337 389.802C59.3164 416.303 37.569 467.287 66.2184 511.039C90.4636 548.064 137.994 561.887 177.908 566.634C182.415 567.17 186.815 567.59 191.083 567.916C241.11 571.727 296.737 564.984 356.415 547.881C415.746 530.877 471.689 505.831 522.69 473.442C575.642 439.813 616.502 402.761 644.138 363.311C662.907 336.519 691.251 284.533 670.199 237.425C666.412 228.919 661.162 220.956 654.593 213.758C632.8 189.883 598.785 175.122 553.23 169.703Z" fill="#65BDF7"/>
<path d="M170.287 581.707C139.024 577.99 106.976 567.533 85.7014 543.277C71.7599 527.386 64.562 507.565 64.3119 484.365C64.1007 465.009 68.8772 443.373 78.1199 421.787C87.6021 399.641 101.09 377.339 118.203 355.501C133.053 336.555 151.14 317.322 171.972 298.331C217.179 257.116 270.058 222.204 329.142 194.562C385.897 168.009 440.962 151.996 492.807 146.966C553.272 141.103 599.11 150.727 629.056 175.579C636.837 182.037 643.255 189.414 648.132 197.503C659.222 215.467 663.213 236.972 659.99 261.418C657.371 281.276 650.14 302.581 638.495 324.734C627.011 346.581 611.87 368.383 593.494 389.529C577.264 408.204 558.022 426.932 536.298 445.186C512.467 465.212 486.606 483.755 459.435 500.298C432.473 516.713 403.985 531.309 374.751 543.679C318.154 567.629 264.353 580.899 214.839 583.12C201.13 583.733 185.808 583.549 170.291 581.704L170.287 581.707ZM555.173 147.294C536.54 145.078 515.737 145.073 492.83 147.297C441.027 152.321 386.005 168.325 329.286 194.86C270.238 222.486 217.387 257.38 172.207 298.569C127.004 339.781 96.3312 380.123 78.4389 421.911C57.8515 469.984 60.5989 514.143 85.9684 543.067C117.712 579.255 173.561 584.643 214.823 582.793C264.296 580.574 318.054 567.314 374.611 543.381C433.841 518.317 488.163 485.196 536.064 444.944C582.243 406.139 616.599 365.645 638.178 324.593C653.292 295.835 674.646 241.11 647.827 197.67C642.967 189.612 636.572 182.262 628.821 175.829C610.286 160.447 585.636 150.913 555.177 147.291L555.173 147.294Z" fill="#65BDF7"/>
<path d="M172.624 596.965C170.376 596.698 168.161 596.388 165.981 596.04C143.189 592.389 124.264 584.251 109.729 571.84C95.5487 559.736 86.13 543.732 81.7398 524.277C77.9799 507.616 78.0471 488.396 81.9392 468.696C90.6598 424.549 114.339 379.095 154.322 329.734C174.855 304.386 198.391 280.125 224.282 257.62C249.337 235.839 276.741 215.57 305.739 197.373C362.617 161.683 418.576 138.423 472.061 128.237C525.985 117.969 568.738 122.525 599.143 141.78C606.519 146.453 613.169 152.152 618.906 158.715C631.014 172.975 638.087 190.699 639.938 211.392C641.501 228.889 639.347 248.119 633.541 268.546C626.62 292.886 615.324 317.886 599.977 342.846C586.748 364.362 570.04 386.583 550.32 408.892C528.388 433.703 503.776 457.184 477.167 478.684C450.938 499.877 422.647 519.245 393.083 536.249C366.21 551.701 339.607 564.449 314.003 574.136C284.897 585.145 256.249 592.52 228.858 596.05C208.461 598.678 189.58 598.985 172.623 596.969L172.624 596.965ZM546.428 124.491C524.744 121.913 499.927 123.26 472.123 128.555C418.684 138.731 362.765 161.975 305.928 197.645C246.316 235.048 195.401 279.556 154.596 329.931C114.646 379.249 90.9885 424.656 82.2793 468.751C77.2785 494.064 74.2257 541.087 109.963 571.597C143.139 599.921 192.909 600.35 228.816 595.72C280.291 589.085 335.498 568.982 392.904 535.964C452.302 501.803 506.644 457.789 550.052 408.678C592.988 360.107 620.187 314.241 633.205 268.46C642.182 236.894 646.935 192.261 618.636 158.921C612.922 152.382 606.295 146.708 598.945 142.052C584.284 132.767 566.728 126.909 546.427 124.495L546.428 124.491Z" fill="#65BDF7"/>
<path d="M182.554 611.408C166.158 609.458 151.588 604.701 139.032 597.182C120.47 586.064 107.605 569.213 100.793 547.092C95.1175 528.667 93.8335 506.719 97.0817 483.626C103.261 439.698 122.225 393.818 155.065 343.36C186.978 294.326 227.436 249.115 275.321 208.99C322.274 169.641 370.418 140.212 418.418 121.519C443.794 111.638 467.478 105.28 488.82 102.63C515.853 99.2703 539.896 101.731 560.278 109.942C569.871 113.807 578.486 119.013 585.885 125.413C602.025 139.477 612.067 158.798 615.731 182.849C618.703 202.37 617.477 224.472 612.086 248.536C606.857 271.875 598.149 296.064 586.207 320.431C575.67 341.924 562.295 364.202 546.451 386.641C511.518 436.121 468.801 480.678 419.486 519.074C371.827 556.181 323.798 582.888 276.736 598.456C251.483 606.81 228 611.46 206.942 612.285C198.423 612.618 190.284 612.323 182.551 611.404L182.554 611.408ZM529.388 102.543C498.173 98.8309 461.051 105.271 418.548 121.826C370.588 140.507 322.477 169.914 275.55 209.238C227.694 249.342 187.256 294.523 155.362 343.53C122.55 393.949 103.6 439.788 97.4271 483.667C93.9859 508.126 91.1728 568.121 139.219 596.902C172.542 616.866 218.773 617.282 276.628 598.147C323.655 582.593 371.647 555.907 419.272 518.824C468.562 480.447 511.257 435.915 546.166 386.465C579.867 338.73 601.932 292.304 611.751 248.474C618.757 217.206 624.673 159.664 585.655 125.66C578.286 119.281 569.702 114.097 560.144 110.247C550.643 106.417 540.381 103.851 529.388 102.543Z" fill="#65BDF7"/>
<path d="M197.548 623.546C187.54 622.355 178.121 619.925 169.335 616.257C147.346 607.078 131.406 590.33 121.963 566.473C112.263 541.976 111.67 515.52 112.882 497.641C114.436 474.683 119.258 450.423 127.217 425.539C134.198 403.71 143.824 380.672 155.834 357.075C180.511 308.585 212.662 262.702 251.393 220.699C288.902 180.017 328.764 147.007 369.865 122.586C395.88 107.128 419.501 96.3328 442.075 89.5874C470.799 81.0041 497.206 79.4481 520.559 84.9598C531.232 87.4787 541.023 91.626 549.659 97.2835C569.515 110.155 582.631 130.283 588.65 157.107C593.309 177.876 593.617 203.017 589.542 229.811C586.069 252.641 579.685 276.466 570.566 300.625C562.411 322.236 551.823 344.746 539.098 367.54C512.447 415.275 478.814 459.96 439.132 500.351C401.676 538.477 362.137 568.982 321.619 591.013C295.276 605.339 270.338 615.184 247.494 620.282C229.575 624.278 212.871 625.362 197.549 623.539L197.548 623.546ZM507.358 82.9728C468.543 78.3548 422.439 91.7355 370.044 122.867C328.972 147.27 289.14 180.259 251.649 220.915C212.94 262.896 180.808 308.755 156.142 357.218C130.215 408.165 116.174 454.106 113.223 497.661C111.343 525.385 113.065 592.412 169.476 615.957C178.371 619.67 187.851 622.122 197.888 623.316C232.577 627.443 273.982 616.546 321.447 590.733C361.933 568.715 401.443 538.233 438.876 500.132C478.537 459.76 512.155 415.102 538.791 367.393C565.67 319.246 582.63 272.945 589.197 229.774C594.702 193.587 596.857 128.292 549.457 97.5621C540.856 91.9264 531.099 87.7975 520.466 85.2868C516.195 84.2769 511.822 83.5074 507.354 82.9758L507.358 82.9728Z" fill="#65BDF7"/>
<path d="M214.458 632.441C208.597 631.743 202.931 630.557 197.475 628.883C179.92 623.496 165.251 612.911 153.877 597.418C144.117 584.124 136.915 567.154 133.054 548.344C124.37 506.039 129.005 457.093 147.225 398.712C156.62 368.604 169.117 338.432 184.371 309.032C199.116 280.607 216.549 252.676 236.19 226.007C275.196 173.045 318.062 131.399 363.594 102.231C383.907 89.216 403.467 79.5111 421.729 73.3831C444.689 65.6801 466.286 63.3778 485.905 66.5454C494.858 67.9917 503.195 70.5598 510.682 74.1863C527.181 82.0369 540.381 95.0578 549.917 112.882C557.874 127.754 563.107 145.507 565.474 165.648C568.324 189.896 567.345 216.318 562.57 244.187C558.434 268.316 551.615 293.335 541.723 320.68C530.771 350.951 516.907 380.947 500.52 409.831C484.371 438.292 465.669 465.862 444.926 491.774C425.947 515.487 406.242 536.667 386.368 554.722C363.799 575.227 340.244 592.402 316.36 605.772C296.252 617.026 276.913 624.925 258.875 629.245C243.122 633.018 228.248 634.082 214.451 632.44L214.458 632.441ZM481.528 66.2663C447.291 62.1909 407.707 74.3674 363.785 102.503C318.29 131.65 275.455 173.265 236.473 226.193C196.115 280.989 166.2 339.063 147.559 398.802C129.357 457.131 124.723 506.024 133.396 548.278C138.354 572.429 153.287 614.976 197.588 628.569C203.105 630.261 208.814 631.46 214.701 632.16C244.192 635.671 278.233 626.74 316.196 605.489C361.022 580.399 404.244 542.071 444.66 491.579C486.891 438.816 519.44 381.284 541.401 320.581C562.702 261.707 570.462 211.041 565.135 165.693C562.102 139.889 550.98 93.73 510.53 74.4848C503.074 70.8727 494.77 68.3155 485.85 66.8732C484.421 66.6426 482.977 66.4387 481.528 66.2663Z" fill="#65BDF7"/>
<path d="M233.57 637.986C211.667 635.377 193.003 625.087 178.055 607.358C161.467 587.69 153.55 563.673 149.829 546.993C140.869 506.827 141.863 461.369 152.864 408.019C164.302 352.556 185.07 297.301 214.595 243.796C242.878 192.54 276.041 149.214 313.163 115.024C355.081 76.4165 393.754 55.9499 431.398 52.4514C443.708 51.3078 455.553 52.2919 466.605 55.3787C518.422 70.4206 534.368 126.585 539.259 158.725C545.732 201.236 542.336 248.307 528.883 302.616C514.966 358.794 492.016 413.725 460.671 465.883C431.156 514.994 397.52 555.594 360.701 586.549C316.292 623.889 274.746 641.315 237.219 638.346C235.992 638.249 234.776 638.129 233.57 637.986ZM452.814 52.9932C445.897 52.1693 438.742 52.0959 431.425 52.7746C393.865 56.2653 355.255 76.7039 313.397 115.254C276.302 149.419 243.162 192.716 214.898 243.943C185.391 297.421 164.632 352.641 153.202 408.077C142.211 461.386 141.216 506.801 150.165 546.919C162.14 600.595 194.686 634.638 237.252 638.023C274.683 640.984 316.139 623.586 360.475 586.309C397.265 555.375 430.873 514.807 460.37 465.726C491.7 413.595 514.638 358.694 528.546 302.548C541.99 248.276 545.384 201.248 538.916 158.777C534.036 126.713 518.129 70.688 466.499 55.6932C462.058 54.4532 457.489 53.5535 452.814 52.9967L452.814 52.9932Z" fill="#65BDF7"/>
</svg>
