<svg width="100" height="100" viewBox="0 0 100 100" fill="none" xmlns="http://www.w3.org/2000/svg">
<g clip-path="url(#clip0_19952_31844)">
<path d="M78.2422 56.4846C66.2448 56.4846 56.4844 66.2447 56.4844 78.242C56.4844 90.2393 66.2448 99.9994 78.2422 100C90.2393 99.9994 99.9997 90.2391 99.9997 78.242C99.9997 66.2449 90.2393 56.4844 78.2422 56.4844V56.4846ZM78.2422 74.8957C80.0877 74.8957 81.5891 76.3971 81.5891 78.242C81.5891 80.0875 80.0877 81.5889 78.2422 81.5889C76.3972 81.5881 74.8951 80.0875 74.8951 78.2428C74.8951 76.3971 76.3964 74.8957 78.2422 74.8957Z" fill="#194BCB"/>
<path d="M21.7576 43.5156C33.755 43.515 43.5154 33.7547 43.5154 21.7574C43.5154 15.9463 41.2525 10.482 37.1425 6.37266C33.0331 2.26309 27.569 0 21.7576 0H21.757C15.9456 0 10.4815 2.26289 6.37212 6.37285C2.26271 10.482 0 15.9463 0 21.7576C0 33.7547 9.76043 43.5148 21.7576 43.5156ZM18.4115 21.7576C18.4115 19.9121 19.9129 18.4115 21.7576 18.4115C23.6023 18.4115 25.1039 19.9121 25.1039 21.7576C25.1039 23.6031 23.6025 25.1039 21.7576 25.1039C19.9127 25.1039 18.4115 23.6033 18.4115 21.7576ZM97.3037 2.69629C95.5652 0.957422 93.2533 0 90.7943 0C88.336 0 86.0243 0.956641 84.2848 2.69629L2.69553 84.2842C-0.893366 87.874 -0.893366 93.7133 2.69553 97.3029C4.43421 99.0418 6.74673 100 9.20574 100C11.6647 100 13.9765 99.0426 15.7152 97.3029L97.3037 15.715C100.894 12.1254 100.894 6.28516 97.3037 2.69629Z" fill="#194BCB"/>
<path d="M97.3041 2.69629C95.5656 0.957422 93.2537 0 90.7947 0C88.3364 0 86.0247 0.956641 84.2852 2.69629L50 36.9805V63.018L97.3041 15.715C100.894 12.1254 100.894 6.28516 97.3041 2.69629Z" fill="#194BCB"/>
</g>
<defs>
<clipPath id="clip0_19952_31844">
<rect width="100" height="100" fill="white"/>
</clipPath>
</defs>
</svg>
