<svg width="24" height="24" viewBox="0 0 24 24" fill="none" xmlns="http://www.w3.org/2000/svg">
<path d="M11.2305 5.85299L11.7497 6.78333C12.2182 7.62292 12.0301 8.72431 11.2922 9.46229C11.2922 9.46229 10.397 10.3574 12.02 11.9804C13.643 13.6034 14.5381 12.7083 14.5381 12.7083C15.2761 11.9703 16.3775 11.7822 17.2171 12.2508L18.1475 12.77C19.4152 13.4775 19.565 15.2554 18.4506 16.3698C17.781 17.0394 16.9607 17.5604 16.0539 17.5948C14.5274 17.6527 11.935 17.2663 9.33455 14.6659C6.73409 12.0654 6.34776 9.47303 6.40563 7.94652C6.44001 7.03973 6.96103 6.21944 7.63064 5.54983C8.74499 4.43547 10.5229 4.5852 11.2305 5.85299Z" stroke="white" stroke-width="1.5" stroke-linecap="round"/>
</svg>
