<svg width="128" height="42" viewBox="0 0 128 42" fill="none" xmlns="http://www.w3.org/2000/svg">
<rect x="0.5" y="0.5" width="127" height="41" rx="20.5" stroke="white"/>
<g clip-path="url(#clip0_19952_31453)">
<mask id="mask0_19952_31453" style="mask-type:luminance" maskUnits="userSpaceOnUse" x="12" y="8" width="104" height="26">
<path d="M116 8H12V33.9984H116V8Z" fill="white"/>
</mask>
<g mask="url(#mask0_19952_31453)">
<path fill-rule="evenodd" clip-rule="evenodd" d="M51.6266 11.695C51.6273 12.5279 51.3538 13.2432 50.813 13.8199C50.2719 14.3992 49.5891 14.6912 48.7867 14.6905C47.9838 14.6912 47.3009 14.3992 46.7609 13.8199C46.219 13.2429 45.9466 12.5279 45.9473 11.695C45.9466 10.8622 46.219 10.1468 46.7609 9.56978C47.3009 8.99052 47.9838 8.6982 48.7867 8.69922C49.5852 8.6982 50.266 8.99228 50.8096 9.57377C51.3531 10.153 51.6273 10.8669 51.6266 11.695ZM47.3964 13.2252C47.0179 12.8253 46.8288 12.3224 46.8278 11.695C46.8288 11.0677 47.0179 10.5647 47.3964 10.1649C47.7782 9.76513 48.2339 9.56904 48.7867 9.56793C49.3388 9.56904 49.796 9.76513 50.1768 10.1649C50.5562 10.5647 50.7451 11.0677 50.7461 11.695C50.7451 12.3224 50.5562 12.8253 50.1768 13.2252C49.796 13.6249 49.3388 13.821 48.7867 13.8221C48.234 13.821 47.7782 13.6248 47.3964 13.2252Z" fill="white"/>
<path fill-rule="evenodd" clip-rule="evenodd" d="M40.5003 13.6977C40.9105 13.315 41.1257 12.6645 41.1261 11.7243L41.1257 11.6643V8.823H44.8772V13.6977H45.4748V15.7451H44.6386V14.5656H40.7577V15.7451H39.9219V13.6977H40.5003ZM41.9912 11.6624L41.9919 11.7395C41.9919 12.5223 41.8476 13.177 41.5552 13.6977H44.0106V9.69097H41.9912V11.6624Z" fill="white"/>
<path d="M56.2389 14.4137C55.8586 14.5986 55.4431 14.6904 54.9985 14.6904C54.1909 14.6912 53.5028 14.4031 52.9546 13.8329C52.4038 13.2631 52.1279 12.5431 52.1289 11.695C52.1279 10.847 52.4038 10.1269 52.9546 9.55747C53.5028 8.98691 54.1909 8.69848 54.9985 8.69922C55.8264 8.6982 56.5139 9.01442 57.032 9.63962L57.087 9.70576L57.0264 9.76661L56.477 10.3191L56.4156 10.2394C56.0675 9.79014 55.6045 9.56942 54.9985 9.56793C54.4348 9.56905 53.9704 9.76226 53.5846 10.1548C53.2014 10.5463 53.0101 11.0517 53.0093 11.695C53.0101 12.3383 53.2011 12.8445 53.5843 13.2352C53.9701 13.6278 54.4348 13.821 54.9985 13.8221C55.617 13.821 56.1347 13.5681 56.576 13.0468L56.6387 12.9722L57.2418 13.5989L57.1899 13.6636C56.9366 13.9798 56.6195 14.2306 56.2389 14.4137Z" fill="white"/>
<path d="M59.9921 9.69072V14.5654H59.1257V9.69072H57.6309V8.82275H61.487V9.69072H59.9921Z" fill="white"/>
<path d="M64.0036 11.9057L65.2525 8.82373H66.2569L64.1755 13.6423C63.8914 14.3242 63.4374 14.6933 62.8462 14.6905C62.6671 14.6905 62.4786 14.6455 62.2804 14.5591L62.2075 14.5273L62.2291 14.4484L62.4392 13.6752L62.5382 13.7331C62.6413 13.7935 62.744 13.8221 62.8531 13.8221C63.0016 13.8225 63.1065 13.7914 63.1716 13.7425C63.2385 13.6937 63.3145 13.5887 63.3853 13.4263L63.5626 13.0218L61.7207 8.82373H62.7256L64.0036 11.9057Z" fill="white"/>
<path d="M66.8105 14.5654V8.82275H70.861V14.5654H69.9945V9.69072H67.676V14.5654H66.8105Z" fill="white"/>
<path d="M71.9062 14.5654V8.82275H72.7721V11.2053H75.2697V8.82275H76.1363V14.5654H75.2697V12.0581H72.7721V14.5654H71.9062Z" fill="white"/>
<path fill-rule="evenodd" clip-rule="evenodd" d="M82.5252 11.695C82.5259 12.5279 82.2526 13.2432 81.7116 13.8199C81.1706 14.3992 80.4879 14.6912 79.6851 14.6905C78.8823 14.6912 78.1997 14.3992 77.6593 13.8199C77.1176 13.2429 76.845 12.5279 76.8457 11.695C76.845 10.8622 77.1176 10.1468 77.6593 9.56978C78.1997 8.99052 78.8823 8.6982 79.6851 8.69922C80.4837 8.6982 81.1646 8.99228 81.7081 9.57377C82.2517 10.153 82.5259 10.8669 82.5252 11.695ZM77.7262 11.695C77.7273 12.3224 77.9165 12.8253 78.2949 13.2252C78.6765 13.6249 79.1328 13.821 79.6851 13.8221C80.2375 13.821 80.6946 13.6249 81.0753 13.2252C81.4548 12.8253 81.644 12.3224 81.6447 11.695C81.644 11.0677 81.4548 10.5647 81.0753 10.1649C80.6946 9.76513 80.2375 9.56904 79.6851 9.56793C79.1328 9.56904 78.6765 9.76513 78.2949 10.1649C77.9165 10.5647 77.7273 11.0677 77.7262 11.695Z" fill="white"/>
<path fill-rule="evenodd" clip-rule="evenodd" d="M88.1899 11.5917C88.4027 11.6939 88.5843 11.8449 88.73 12.0407C88.911 12.2838 89.0039 12.5715 89.003 12.8895C89.0039 13.3674 88.8299 13.7766 88.491 14.0911C88.1547 14.4062 87.7497 14.5661 87.2912 14.5654H85.1621V8.82276H87.1868C87.6248 8.82202 88.0129 8.97577 88.3339 9.27717C88.6586 9.57967 88.8245 9.97184 88.8237 10.4288C88.8237 10.7085 88.7523 10.9622 88.6096 11.1795C88.4995 11.3495 88.3583 11.4871 88.1899 11.5917ZM86.0273 13.6974H87.3216C87.5651 13.6959 87.7488 13.6128 87.8978 13.4405C88.0503 13.2625 88.1208 13.0779 88.1217 12.8735C88.1208 12.6706 88.0485 12.4886 87.8915 12.312C87.7381 12.1431 87.5463 12.0591 87.2912 12.0581H86.0273V13.6974ZM86.0273 11.2053H87.1868C87.4268 11.2042 87.6043 11.1268 87.7453 10.9679C87.8898 10.8026 87.9566 10.6321 87.9576 10.4444C87.9566 10.2559 87.8915 10.0866 87.7515 9.92451C87.6159 9.76853 87.4465 9.69221 87.2172 9.69073H86.0273V11.2053Z" fill="white"/>
<path d="M98.4894 30.2206H100.154V18.6416H98.4894V30.2206ZM113.481 22.8126L111.573 27.8327H111.516L109.536 22.8126H107.743L110.712 29.8291L109.019 33.7319H110.756L115.332 22.8126H113.481ZM104.042 28.9054C103.496 28.9054 102.736 28.6225 102.736 27.9221C102.736 27.0283 103.683 26.6857 104.5 26.6857C105.233 26.6857 105.576 26.8496 106.021 27.0733C105.892 28.1457 105.003 28.9054 104.042 28.9054ZM104.243 22.5593C103.038 22.5593 101.79 23.1107 101.273 24.3322L102.75 24.9726C103.066 24.3322 103.654 24.1234 104.271 24.1234C105.132 24.1234 106.007 24.66 106.021 25.6133V25.7324C105.72 25.5536 105.075 25.2855 104.285 25.2855C102.693 25.2855 101.072 26.194 101.072 27.8923C101.072 29.4416 102.378 30.4398 103.84 30.4398C104.96 30.4398 105.576 29.9185 105.964 29.3078H106.021V30.2014H107.628V25.762C107.628 23.7066 106.151 22.5593 104.243 22.5593ZM93.9563 24.2221H91.589V20.2531H93.9563C95.2006 20.2531 95.9071 21.3229 95.9071 22.2376C95.9071 23.1349 95.2006 24.2221 93.9563 24.2221ZM93.9135 18.6416H89.9254V30.2206H91.589V25.8337H93.9135C95.7581 25.8337 97.5715 24.4468 97.5715 22.2376C97.5715 20.0284 95.7581 18.6416 93.9135 18.6416ZM72.1661 28.9076C71.0162 28.9076 70.0535 27.9079 70.0535 26.5348C70.0535 25.1473 71.0162 24.1325 72.1661 24.1325C73.3013 24.1325 74.1922 25.1473 74.1922 26.5348C74.1922 27.9079 73.3013 28.9076 72.1661 28.9076ZM74.0772 23.461H74.0197C73.6463 22.9985 72.9274 22.5807 72.0222 22.5807C70.1253 22.5807 68.3867 24.3115 68.3867 26.5348C68.3867 28.7433 70.1253 30.4594 72.0222 30.4594C72.9274 30.4594 73.6463 30.0415 74.0197 29.5643H74.0772V30.1312C74.0772 31.6386 73.3013 32.4443 72.0511 32.4443C71.0309 32.4443 70.3985 31.683 70.1395 31.0415L68.6884 31.6682C69.1051 32.7127 70.2118 33.9961 72.0511 33.9961C74.0054 33.9961 75.658 32.8021 75.658 29.8924V22.8195H74.0772V23.461ZM76.8075 30.2206H78.4745V18.6412H76.8075V30.2206ZM80.9319 26.4006C80.8887 24.8785 82.0671 24.1027 82.9148 24.1027C83.5763 24.1027 84.1365 24.4457 84.3229 24.9386L80.9319 26.4006ZM86.1051 25.0876C85.7893 24.2069 84.826 22.5807 82.8573 22.5807C80.903 22.5807 79.2793 24.1773 79.2793 26.52C79.2793 28.7285 80.8887 30.4594 83.044 30.4594C84.7831 30.4594 85.7893 29.3551 86.2059 28.7136L84.9124 27.8181C84.4816 28.4748 83.8921 28.9076 83.044 28.9076C82.1963 28.9076 81.5929 28.5046 81.2047 27.7139L86.2773 25.5352L86.1051 25.0876ZM45.691 23.7894V25.4606H49.5421C49.4272 26.4006 49.1254 27.087 48.6655 27.5645C48.1052 28.1467 47.2285 28.7882 45.691 28.7882C43.3199 28.7882 41.4662 26.8036 41.4662 24.3415C41.4662 21.8794 43.3199 19.8946 45.691 19.8946C46.97 19.8946 47.9038 20.417 48.5936 21.0885L49.7289 19.9098C48.7662 18.9546 47.4871 18.2234 45.691 18.2234C42.4432 18.2234 39.7129 20.9691 39.7129 24.3415C39.7129 27.7139 42.4432 30.4594 45.691 30.4594C47.4442 30.4594 48.7662 29.8628 49.8007 28.7433C50.8641 27.6391 51.1948 26.0873 51.1948 24.834C51.1948 24.4457 51.1662 24.0879 51.1083 23.7894H45.691ZM55.5732 28.9076C54.4233 28.9076 53.4316 27.9227 53.4316 26.52C53.4316 25.1024 54.4233 24.1325 55.5732 24.1325C56.7226 24.1325 57.7141 25.1024 57.7141 26.52C57.7141 27.9227 56.7226 28.9076 55.5732 28.9076ZM55.5732 22.5807C53.4749 22.5807 51.7648 24.237 51.7648 26.52C51.7648 28.7882 53.4749 30.4594 55.5732 30.4594C57.671 30.4594 59.3811 28.7882 59.3811 26.52C59.3811 24.237 57.671 22.5807 55.5732 22.5807ZM63.8804 28.9076C62.731 28.9076 61.7392 27.9227 61.7392 26.52C61.7392 25.1024 62.731 24.1325 63.8804 24.1325C65.0299 24.1325 66.0214 25.1024 66.0214 26.52C66.0214 27.9227 65.0299 28.9076 63.8804 28.9076ZM63.8804 22.5807C61.7822 22.5807 60.0724 24.237 60.0724 26.52C60.0724 28.7882 61.7822 30.4594 63.8804 30.4594C65.9783 30.4594 67.6884 28.7882 67.6884 26.52C67.6884 24.237 65.9783 22.5807 63.8804 22.5807Z" fill="white"/>
<path d="M12.4791 32.4296L12.4128 32.3637C12.1532 32.0785 12 31.6357 12 31.0623V31.1972V10.7127V10.8484C12 10.2275 12.1787 9.75971 12.478 9.47925L23.5295 20.9548L12.4791 32.4296Z" fill="url(#paint0_linear_19952_31453)"/>
<path d="M27.2137 24.7863L23.5293 20.9598L27.2133 17.134L31.661 19.7579C32.2258 20.0911 32.5429 20.5206 32.5959 20.9595C32.5959 20.9598 32.5959 20.9606 32.5959 20.9612C32.5429 21.3991 32.2258 21.8289 31.661 22.1621L27.2137 24.7863Z" fill="url(#paint1_linear_19952_31453)"/>
<path d="M13.2668 32.7353C12.9581 32.7357 12.6887 32.6311 12.4786 32.4343L23.529 20.9592L27.2133 24.7856L14.2661 32.4245C13.9078 32.6355 13.5684 32.7353 13.2668 32.7353ZM12.4755 32.5675C12.456 32.549 12.4368 32.5295 12.418 32.5092L12.4755 32.5675Z" fill="url(#paint2_linear_19952_31453)"/>
<path d="M23.53 20.9569L12.4785 9.48139C12.6886 9.28493 12.9576 9.18073 13.266 9.18073C13.5684 9.18073 13.9081 9.28095 14.267 9.49222L27.214 17.1311L23.53 20.9569ZM14.267 9.35699C13.9081 9.14563 13.5684 9.04541 13.266 9.04541C13.2645 9.04541 13.2636 9.04541 13.2621 9.04541C13.2639 9.04541 13.2652 9.04541 13.2674 9.04541C13.5691 9.04541 13.9084 9.14563 14.267 9.35699Z" fill="url(#paint3_linear_19952_31453)"/>
<path d="M12.4761 32.5722L12.4733 32.5697C12.4743 32.5704 12.4754 32.5715 12.4761 32.5722ZM12.4158 32.5114L12.4102 32.5057C12.4123 32.5079 12.414 32.5096 12.4158 32.5114Z" fill="white"/>
<path d="M13.2649 32.871C12.9562 32.871 12.6865 32.7664 12.4764 32.5696C12.4757 32.5688 12.4743 32.5682 12.4733 32.5675L12.4158 32.5092C12.414 32.5074 12.4123 32.5052 12.4102 32.5031L12.4764 32.4343C12.6865 32.6311 12.9559 32.7357 13.2646 32.7353C13.5663 32.7353 13.9056 32.6355 14.2639 32.4245L27.2111 24.7856L27.2941 24.8718L27.2101 24.9213L14.2639 32.5599C13.9374 32.752 13.6269 32.8522 13.3465 32.8689C13.3189 32.8703 13.2917 32.871 13.2649 32.871Z" fill="url(#paint4_linear_19952_31453)"/>
<path d="M12.4128 32.5C12.1532 32.2148 12 31.7723 12 31.1985V31.0635C12 31.637 12.1532 32.0798 12.4128 32.365L12.4791 32.4309L12.4128 32.5Z" fill="url(#paint5_linear_19952_31453)"/>
<path d="M27.2978 24.8712L27.2148 24.7851L31.6622 22.1609C32.227 21.8277 32.5441 21.3978 32.597 20.96C32.597 21.1207 32.5626 21.2813 32.494 21.4377C32.3556 21.7528 32.0783 22.0505 31.6622 22.2962L27.2978 24.8712Z" fill="url(#paint6_linear_19952_31453)"/>
<path d="M32.5935 20.9569C32.5406 20.5181 32.2234 20.0886 31.6586 19.7553L27.2109 17.1315L27.2938 17.0454L31.6586 19.6204C32.2813 19.988 32.5931 20.4724 32.5935 20.9569Z" fill="url(#paint7_linear_19952_31453)"/>
<path d="M12 10.8515V10.7162V10.7111V10.71C12 10.6589 12.0013 10.609 12.0038 10.5606V10.5583L12.0041 10.5562V10.5518V10.5507C12.031 10.0568 12.1787 9.67149 12.4128 9.41426L12.478 9.48225C12.1787 9.76273 12 10.2305 12 10.8515ZM12.4762 9.34951L12.4787 9.34692L12.4762 9.34951Z" fill="url(#paint8_linear_19952_31453)"/>
<path d="M27.2108 17.1328L14.2639 9.49393C13.9049 9.28266 13.5653 9.18244 13.2628 9.18244C12.9544 9.18244 12.6854 9.28664 12.4754 9.48309L12.4102 9.41511C12.4308 9.39269 12.4516 9.37092 12.4736 9.35036C12.4743 9.34962 12.4754 9.34888 12.4761 9.34814C12.6844 9.15317 12.9506 9.04897 13.2562 9.04712C13.2569 9.04712 13.2579 9.04712 13.259 9.04712C13.2604 9.04712 13.2614 9.04712 13.2628 9.04712C13.5653 9.04712 13.9049 9.14733 14.2639 9.3587L27.2941 17.0464L27.2108 17.1328Z" fill="url(#paint9_linear_19952_31453)"/>
</g>
</g>
<defs>
<linearGradient id="paint0_linear_19952_31453" x1="22.5495" y1="10.4966" x2="7.01612" y2="25.4557" gradientUnits="userSpaceOnUse">
<stop stop-color="#00A0FF"/>
<stop offset="0.00657445" stop-color="#00A1FF"/>
<stop offset="0.2601" stop-color="#00BEFF"/>
<stop offset="0.5122" stop-color="#00D2FF"/>
<stop offset="0.7604" stop-color="#00DFFF"/>
<stop offset="1" stop-color="#00E3FF"/>
</linearGradient>
<linearGradient id="paint1_linear_19952_31453" x1="33.284" y1="20.9604" x2="11.7008" y2="20.9604" gradientUnits="userSpaceOnUse">
<stop stop-color="#FFE000"/>
<stop offset="0.4087" stop-color="#FFBD00"/>
<stop offset="0.7754" stop-color="#FFA500"/>
<stop offset="1" stop-color="#FF9C00"/>
</linearGradient>
<linearGradient id="paint2_linear_19952_31453" x1="25.2493" y1="23.0852" x2="4.18481" y2="43.3708" gradientUnits="userSpaceOnUse">
<stop stop-color="#FF3A44"/>
<stop offset="1" stop-color="#C31162"/>
</linearGradient>
<linearGradient id="paint3_linear_19952_31453" x1="9.6141" y1="2.59477" x2="19.0202" y2="11.6531" gradientUnits="userSpaceOnUse">
<stop stop-color="#32A071"/>
<stop offset="0.0685" stop-color="#2DA771"/>
<stop offset="0.4762" stop-color="#15CF74"/>
<stop offset="0.8009" stop-color="#06E775"/>
<stop offset="1" stop-color="#00F076"/>
</linearGradient>
<linearGradient id="paint4_linear_19952_31453" x1="25.2471" y1="23.0852" x2="4.18264" y2="43.3708" gradientUnits="userSpaceOnUse">
<stop stop-color="#CC2E36"/>
<stop offset="1" stop-color="#9C0E4E"/>
</linearGradient>
<linearGradient id="paint5_linear_19952_31453" x1="22.5495" y1="10.4965" x2="7.0152" y2="25.4556" gradientUnits="userSpaceOnUse">
<stop stop-color="#008DE0"/>
<stop offset="0.00657445" stop-color="#008DE0"/>
<stop offset="0.2601" stop-color="#00A7E0"/>
<stop offset="0.5122" stop-color="#00B8E0"/>
<stop offset="0.7604" stop-color="#00C4E0"/>
<stop offset="1" stop-color="#00C7E0"/>
</linearGradient>
<linearGradient id="paint6_linear_19952_31453" x1="33.2853" y1="20.9592" x2="11.7019" y2="20.9592" gradientUnits="userSpaceOnUse">
<stop stop-color="#E0C500"/>
<stop offset="0.4087" stop-color="#E0A600"/>
<stop offset="0.7754" stop-color="#E09100"/>
<stop offset="1" stop-color="#E08900"/>
</linearGradient>
<linearGradient id="paint7_linear_19952_31453" x1="33.2816" y1="20.9579" x2="11.6984" y2="20.9579" gradientUnits="userSpaceOnUse">
<stop stop-color="#FFE840"/>
<stop offset="0.4087" stop-color="#FFCE40"/>
<stop offset="0.7754" stop-color="#FFBC40"/>
<stop offset="1" stop-color="#FFB540"/>
</linearGradient>
<linearGradient id="paint8_linear_19952_31453" x1="22.5495" y1="10.4997" x2="7.01518" y2="25.4587" gradientUnits="userSpaceOnUse">
<stop stop-color="#40B8FF"/>
<stop offset="0.00657445" stop-color="#40B9FF"/>
<stop offset="0.2601" stop-color="#40CEFF"/>
<stop offset="0.5122" stop-color="#40DDFF"/>
<stop offset="0.7604" stop-color="#40E7FF"/>
<stop offset="1" stop-color="#40EAFF"/>
</linearGradient>
<linearGradient id="paint9_linear_19952_31453" x1="9.61094" y1="2.59647" x2="19.0171" y2="11.6548" gradientUnits="userSpaceOnUse">
<stop stop-color="#65B895"/>
<stop offset="0.0685" stop-color="#62BD95"/>
<stop offset="0.4762" stop-color="#50DB97"/>
<stop offset="0.8009" stop-color="#44ED98"/>
<stop offset="1" stop-color="#40F498"/>
</linearGradient>
<clipPath id="clip0_19952_31453">
<rect width="104" height="26" fill="white" transform="translate(12 8)"/>
</clipPath>
</defs>
</svg>
