<svg width="58" height="42" viewBox="0 0 58 42" fill="none" xmlns="http://www.w3.org/2000/svg">
<path d="M28.7211 35.1947L27.3155 34.3905L23.0175 31.3009C23.0175 31.3009 23.6614 29.7537 25.8751 29.9628C28.0888 30.1719 29.2009 32.2858 29.3106 33.0436C29.4203 33.8011 28.7211 35.1947 28.7211 35.1947Z" fill="#CC211D"/>
<path d="M55.4431 19.6309L54.0203 18.7831L49.7223 15.6935C49.7223 15.6935 50.3662 14.1462 52.5799 14.3554C54.7936 14.5645 55.9057 16.6784 56.0153 17.4362C56.1254 18.1937 55.4431 19.6309 55.4431 19.6309Z" fill="#CC211D"/>
<path d="M16.4015 10.6826C17.1115 10.8717 18.5118 12.0586 18.9375 12.4295C18.5231 13.085 17.8243 14.1391 17.6166 14.1388C17.315 14.1381 16.2307 12.9384 15.8113 11.8906C15.6117 11.3915 15.6532 10.9901 15.8314 10.7283C15.9966 10.6544 16.1867 10.6253 16.4015 10.6826Z" fill="#FF766C"/>
<path d="M17.3084 10.3687C18.0862 10.7652 19.5977 11.8274 19.5977 11.8274C19.5977 11.8274 19.1249 12.1332 18.9379 12.4291C18.5123 12.0583 17.1119 10.8713 16.4019 10.6822C16.1875 10.6249 15.9973 10.6545 15.8318 10.7283C16.0546 10.4007 16.8026 10.1107 17.3084 10.3687Z" fill="#FF8B88"/>
<path d="M19.5808 37.8436C19.5808 35.3361 21.1053 32.4236 22.9857 31.3379C23.4609 31.0634 24.0254 30.9228 24.4732 30.9238C24.8251 30.9245 25.7231 30.9586 26.6553 31.5347C27.7266 32.1969 27.8711 33.7013 27.8711 33.7013L24.0458 41.5589C24.0458 41.5589 22.8138 42.1635 21.5481 41.4707C20.7604 41.0394 20.2852 40.3266 20.0687 39.9322C19.9738 39.7589 19.83 39.4102 19.7872 39.2791C19.6539 38.8707 19.5808 38.3902 19.5808 37.8436Z" fill="#381509"/>
<path d="M27.9844 34.801C27.9844 37.3082 26.46 40.221 24.5795 41.3067C22.699 42.3925 21.1746 41.24 21.1746 38.7328C21.1746 36.2256 22.699 33.3128 24.5795 32.227C26.46 31.1413 27.9844 32.2935 27.9844 34.801Z" fill="#4C2011"/>
<path d="M23.0086 40.573C21.82 40.0671 21.5812 37.954 22.4753 35.8531C23.3693 33.7522 25.0576 32.4592 26.2463 32.965C27.4349 33.4708 27.6737 35.584 26.7796 37.6849C25.8856 39.7857 24.1972 41.0788 23.0086 40.573Z" fill="#B3DDFF"/>
<path d="M22.9193 40.6563C21.665 40.1225 21.413 37.8924 22.3566 35.6752C23.3001 33.4581 25.0819 32.0934 26.3362 32.6272C27.5906 33.161 27.8425 35.3911 26.899 37.6083C25.9554 39.8255 24.1737 41.1901 22.9193 40.6563Z" fill="white"/>
<path d="M24.1113 35.8632C24.0495 35.6491 23.8069 34.8161 23.602 34.2168C23.3591 34.505 23.1381 34.8308 22.9447 35.1813L23.9521 36.124C23.9999 36.0326 24.054 35.9458 24.1113 35.8632Z" fill="#4C2011"/>
<path d="M23.7371 36.6883C23.7571 36.6088 23.7824 36.5305 23.8105 36.4528C23.7413 36.4029 23.1522 35.9793 22.6875 35.6953C22.5262 36.0581 22.3969 36.4366 22.3044 36.8187L23.7237 36.7273L23.7371 36.6883Z" fill="#4C2011"/>
<path d="M23.6677 37.1984C23.6677 37.1443 23.6748 37.0884 23.6797 37.0332C23.5229 37.0817 22.7609 37.3204 22.1764 37.5372C22.156 37.7197 22.1426 37.901 22.1426 38.0792C22.1426 38.2603 22.1563 38.4283 22.1774 38.5893L23.6765 37.3042C23.6737 37.2687 23.6677 37.2364 23.6677 37.1984Z" fill="#4C2011"/>
<path d="M23.7427 37.6543C23.5617 37.822 22.8235 38.507 22.2706 39.0539C22.355 39.3436 22.4798 39.5847 22.6365 39.7745L23.8418 37.8336C23.8031 37.7822 23.769 37.7232 23.7427 37.6543Z" fill="#4C2011"/>
<path d="M25.5838 35.8715C25.7227 35.7988 26.5163 35.3812 27.1191 35.0293C27.1051 34.6796 27.0492 34.3692 26.9564 34.1035L25.5315 35.6518C25.5554 35.7183 25.5726 35.7917 25.5838 35.8715Z" fill="#4C2011"/>
<path d="M25.4118 35.4341C25.552 35.2556 26.2423 34.3744 26.7559 33.6816C26.6177 33.4612 26.4458 33.2911 26.2455 33.1797L25.2782 35.3154C25.3274 35.3463 25.3724 35.3853 25.4118 35.4341Z" fill="#4C2011"/>
<path d="M25.0702 35.2451C25.1795 34.9467 25.5742 33.8627 25.8516 33.0405C25.6217 33.0012 25.3697 33.0223 25.1022 33.1091L24.8727 35.2588C24.9423 35.2426 25.0076 35.2388 25.0702 35.2451Z" fill="#4C2011"/>
<path d="M24.5745 35.3946C24.5952 35.1138 24.6704 34.0628 24.7031 33.2832C24.6803 33.2955 24.6581 33.3046 24.6349 33.318C24.385 33.4625 24.1439 33.6519 23.9161 33.8748L24.3706 35.5591C24.4363 35.4962 24.5038 35.4414 24.5745 35.3946Z" fill="#4C2011"/>
<path d="M25.3209 37.1501C25.426 37.3139 25.833 37.9417 26.1592 38.3838C26.3683 38.0464 26.5525 37.6826 26.7012 37.3034L25.4474 36.8633C25.4101 36.9617 25.3687 37.0577 25.3209 37.1501Z" fill="#4C2011"/>
<path d="M25.5882 36.2497C25.5802 36.3411 25.5661 36.4328 25.5454 36.5252C25.6561 36.5481 26.3475 36.6894 26.8845 36.759C26.9946 36.3853 27.0701 36.0061 27.1035 35.6328L25.5882 36.2497Z" fill="#4C2011"/>
<path d="M24.1943 38.0356C24.1406 38.0296 24.0903 38.0159 24.0432 37.9941C23.955 38.1407 23.324 39.1889 22.8639 39.999C23.0471 40.14 23.2594 40.2244 23.4928 40.2504L24.2031 38.0391L24.1943 38.0356Z" fill="#4C2011"/>
<path d="M24.4062 38.0215C24.3517 38.2771 24.1159 39.3864 23.9602 40.2264C24.1753 40.1829 24.4009 40.0989 24.6354 39.9635C24.6726 39.9421 24.7092 39.9157 24.7461 39.8922L24.609 37.9414C24.5391 37.979 24.4716 38.005 24.4062 38.0215Z" fill="#4C2011"/>
<path d="M24.9044 37.7152C24.9301 37.9454 25.0376 38.8983 25.1431 39.5988C25.4071 39.3735 25.6545 39.0997 25.8809 38.7942L25.0925 37.5039C25.0331 37.5809 24.9705 37.6512 24.9044 37.7152Z" fill="#4C2011"/>
<path d="M25.3652 36.2176C25.3652 36.7568 25.0373 37.3831 24.6327 37.6169C24.2282 37.8503 23.9006 37.6025 23.9006 37.0633C23.9006 36.5241 24.2285 35.8977 24.6327 35.664C25.0373 35.4306 25.3652 35.6784 25.3652 36.2176Z" fill="#9B5143"/>
<path d="M25.1387 36.4591C25.1387 36.7497 24.9619 37.0875 24.7439 37.2134C24.526 37.3392 24.3492 37.2056 24.3492 36.9149C24.3492 36.6243 24.526 36.2865 24.7439 36.1606C24.9619 36.0348 25.1387 36.1684 25.1387 36.4591Z" fill="#824030"/>
<path d="M46.2937 22.0878C46.2937 19.5806 47.8181 16.6678 49.6986 15.582C50.1738 15.3075 50.7383 15.1669 51.1861 15.168C51.5376 15.1687 52.436 15.2028 53.3682 15.7789C54.4395 16.4411 54.584 17.9455 54.584 17.9455L50.7587 25.803C50.7587 25.803 49.5267 26.4076 48.261 25.7145C47.4733 25.2832 46.9981 24.5703 46.7816 24.176C46.6867 24.0027 46.5426 23.654 46.5001 23.5229C46.3668 23.1148 46.2937 22.634 46.2937 22.0878Z" fill="#381509"/>
<path d="M49.25 25.8259C47.747 25.1864 47.4448 22.5144 48.5751 19.8578C49.7053 17.2012 51.84 15.566 53.343 16.2054C54.846 16.8449 55.1482 19.5169 54.0179 22.1735C52.8877 24.8301 50.753 26.4653 49.25 25.8259Z" fill="#4C2011"/>
<path d="M49.7234 24.8191C48.5348 24.3132 48.296 22.2001 49.1901 20.0992C50.0841 17.9983 51.7725 16.7052 52.9611 17.2111C54.1497 17.7169 54.3885 19.8301 53.4945 21.931C52.6004 24.0318 50.9121 25.3249 49.7234 24.8191Z" fill="#B3DDFF"/>
<path d="M54.1895 19.2452C54.1895 21.338 52.9171 23.7689 51.3477 24.675C49.7782 25.5812 48.5059 24.6192 48.5059 22.5267C48.5059 20.434 49.7782 18.0031 51.3477 17.0969C52.9174 16.1908 54.1895 17.1524 54.1895 19.2452Z" fill="white"/>
<path d="M50.8223 20.1093C50.7604 19.8952 50.5179 19.0622 50.313 18.4629C50.0701 18.7511 49.849 19.0769 49.6557 19.4274L50.663 20.3701C50.7112 20.2787 50.7653 20.1919 50.8223 20.1093Z" fill="#4C2011"/>
<path d="M50.4503 20.9344C50.4704 20.8549 50.4957 20.7765 50.5234 20.6989C50.4545 20.649 49.8651 20.2254 49.4008 19.9414C49.2394 20.3041 49.1101 20.6827 49.0177 21.0648L50.437 20.9734L50.4503 20.9344Z" fill="#4C2011"/>
<path d="M50.3806 21.4445C50.3806 21.3904 50.3877 21.3345 50.3926 21.2793C50.2358 21.3278 49.4738 21.5665 48.8889 21.7833C48.8685 21.9658 48.8552 22.1471 48.8552 22.3253C48.8552 22.5064 48.8689 22.6744 48.89 22.8353L50.3891 21.5503C50.3866 21.5148 50.3806 21.4825 50.3806 21.4445Z" fill="#4C2011"/>
<path d="M50.4556 21.9004C50.2745 22.0681 49.5364 22.7531 48.9835 23.3C49.0679 23.5897 49.1927 23.8308 49.3494 24.0206L50.5547 22.0796C50.516 22.028 50.4819 21.9689 50.4556 21.9004Z" fill="#4C2011"/>
<path d="M52.2967 20.1176C52.4356 20.0448 53.2292 19.6273 53.832 19.2754C53.818 18.9257 53.7621 18.6153 53.6693 18.3496L52.2443 19.8979C52.2683 19.9644 52.2855 20.0378 52.2967 20.1176Z" fill="#4C2011"/>
<path d="M52.1246 19.6802C52.2649 19.5017 52.9552 18.6205 53.4688 17.9277C53.3306 17.7073 53.1587 17.5372 52.9584 17.4258L51.9911 19.5614C52.0406 19.5924 52.0853 19.631 52.1246 19.6802Z" fill="#4C2011"/>
<path d="M51.7831 19.4912C51.8924 19.1928 52.2871 18.1088 52.5645 17.2866C52.3346 17.2473 52.0826 17.2683 51.8151 17.3552L51.5856 19.5052C51.6548 19.4884 51.7205 19.4848 51.7831 19.4912Z" fill="#4C2011"/>
<path d="M51.2874 19.6407C51.3081 19.3599 51.3833 18.3093 51.416 17.5293C51.3932 17.5416 51.371 17.5507 51.3478 17.5641C51.0979 17.7086 50.8568 17.898 50.629 18.1209L51.0835 19.8052C51.1492 19.7423 51.2171 19.6874 51.2874 19.6407Z" fill="#4C2011"/>
<path d="M52.0338 21.3962C52.1389 21.56 52.5459 22.1877 52.8721 22.6299C53.0812 22.2925 53.2654 21.9287 53.4141 21.5494L52.1603 21.1094C52.123 21.2074 52.0816 21.3037 52.0338 21.3962Z" fill="#4C2011"/>
<path d="M52.3011 20.4958C52.293 20.5872 52.2786 20.6789 52.2582 20.7713C52.369 20.7942 53.0603 20.9355 53.5974 21.0051C53.7074 20.6315 53.783 20.2522 53.8164 19.8789L52.3011 20.4958Z" fill="#4C2011"/>
<path d="M50.9076 22.2817C50.8538 22.2757 50.8035 22.262 50.7561 22.2402C50.6679 22.3868 50.0369 23.435 49.5768 24.2451C49.76 24.3861 49.9723 24.4704 50.2057 24.4965L50.916 22.2852L50.9076 22.2817Z" fill="#4C2011"/>
<path d="M51.1171 22.2676C51.0627 22.5232 50.8268 23.6325 50.6711 24.4725C50.8862 24.429 51.1119 24.345 51.3463 24.2096C51.3836 24.1882 51.4201 24.1618 51.457 24.1383L51.32 22.1875C51.25 22.2251 51.1825 22.2511 51.1171 22.2676Z" fill="#4C2011"/>
<path d="M51.6173 21.9612C51.643 22.1915 51.7505 23.1444 51.856 23.8449C52.1199 23.6196 52.3674 23.3458 52.5938 23.0403L51.8054 21.75C51.7456 21.827 51.6834 21.8976 51.6173 21.9612Z" fill="#4C2011"/>
<path d="M52.0801 20.4637C52.0801 21.0029 51.7521 21.6292 51.3479 21.863C50.9434 22.0964 50.6158 21.8486 50.6158 21.3094C50.6158 20.7702 50.9437 20.1438 51.3479 19.9101C51.7521 19.6767 52.0801 19.9245 52.0801 20.4637Z" fill="#9B5143"/>
<path d="M51.8535 20.7051C51.8535 20.9958 51.6767 21.3336 51.4588 21.4594C51.2409 21.5853 51.0641 21.4517 51.0641 21.161C51.0641 20.8703 51.2409 20.5326 51.4588 20.4067C51.6767 20.2809 51.8535 20.4145 51.8535 20.7051Z" fill="#824030"/>
<path d="M12.3008 35.7446C12.9557 35.9607 14.021 35.6862 14.5926 35.2433C15.2882 34.7045 15.7194 33.7597 16.2354 33.0616C16.9033 32.1583 17.6192 31.2901 18.3778 30.4617C21.2797 27.2933 24.7303 24.9735 28.5928 23.1408C28.7735 23.1591 28.9017 22.8976 28.7116 22.8034C26.2413 21.5791 23.8259 20.2488 21.48 18.8003C19.2871 17.446 17.2178 15.9328 15.0941 14.4818C15.111 14.466 15.1307 14.4502 15.1469 14.4344C16.6077 13.0042 18.4284 10.1761 20.221 7.71424C20.963 6.69562 22.1644 5.29388 23.6898 4.42008C24.1682 4.14591 27.4374 2.16737 30.2627 0.975816C31.6915 0.373361 32.6072 -0.00624895 33.1467 7.78789e-05C34.1122 0.0113256 37.7674 0.471432 38.4756 0.479516C38.9814 0.48514 39.3734 0.595858 39.7013 0.788475L39.703 0.787773L55.543 9.92231L54.2379 12.2453C54.2379 12.2453 41.9206 21.3939 38.206 24.9088C34.4915 28.4237 25.2044 29.1569 22.0276 31.894C18.8505 34.631 16.3753 41.418 16.3753 41.418L0.751923 32.4251L0.752274 32.423C0.499905 32.2602 0.278465 32.0297 0.199028 31.7281C-0.0287399 30.862 -0.0551033 29.9534 0.0925217 29.0005C1.28583 29.7998 2.59514 30.5587 3.79653 31.3C6.4306 32.9256 10.7209 35.2226 12.3008 35.7446Z" fill="#FF5E4C"/>
<path d="M8.20117 18.5864C11.212 16.7576 13.927 15.5843 15.0953 14.4824C17.2187 15.9337 19.2879 17.4465 21.4812 18.8008C23.827 20.2497 26.2428 21.5801 28.7128 22.804C28.9026 22.8982 28.7746 23.1597 28.594 23.1414C24.7314 24.9741 21.2808 27.2935 18.3789 30.4622C17.6201 31.2907 16.9044 32.1589 16.2366 33.0622C15.7203 33.7603 15.289 34.7051 14.5937 35.2439C14.0222 35.6864 12.9568 35.961 12.302 35.7451C10.7221 35.2235 6.43177 32.9265 3.79735 31.3009C2.59595 30.5592 1.28665 29.8004 0.093338 29.0014C0.21847 28.1916 0.467329 27.3505 0.843071 26.4714C2.17838 23.3431 4.37695 20.9094 8.20117 18.5864Z" fill="#FF766C"/>
<path d="M16.5593 35.5287C17.895 32.4012 20.0936 29.9678 23.9178 27.6448C26.9719 25.7896 29.7248 24.609 30.8643 23.493C32.3251 22.0628 34.1458 19.2343 35.9384 16.7728C36.6804 15.7542 37.8818 14.3525 39.4073 13.4787C39.8856 13.2045 43.1549 11.226 45.9801 10.0344C47.4089 9.43195 48.3246 9.05234 48.8641 9.05867C49.8297 9.06992 53.4848 9.53002 54.1931 9.5381C55.4971 9.55252 56.0549 10.2506 56.6704 11.3089C57.0261 11.9209 57.3315 12.9525 57.5832 14.1198C57.7164 14.7384 57.9245 16.1767 57.87 16.9792C57.56 17.5679 56.4472 18.6786 55.6314 19.4519C55.6324 19.3939 55.6377 19.3352 55.6377 19.2776C55.6377 15.4892 53.3344 13.7479 50.4933 15.3883C47.6522 17.0287 45.3489 21.4297 45.3489 25.2177C45.3489 25.3777 45.3587 25.5285 45.3668 25.681L28.9132 35.0841C28.9174 34.966 28.9262 34.8468 28.9262 34.7301C28.9262 30.9418 26.6229 29.2005 23.7818 30.8409C20.9407 32.4813 18.6373 36.882 18.6373 40.6703C18.6373 40.7912 18.6461 40.9037 18.651 41.0204C18.2001 41.2865 17.7625 41.5448 17.4546 41.7266C17.2061 41.8731 16.1157 41.5445 15.9165 40.7863C15.495 39.1846 15.7421 37.4426 16.5593 35.5287Z" fill="#EF4335"/>
<path d="M50.4943 15.3888C53.3354 13.7484 55.6387 15.4897 55.6387 19.2781C55.6387 19.3357 55.6334 19.3944 55.6323 19.4524C55.5687 19.5129 55.5026 19.5758 55.4432 19.6317C55.4432 19.6088 55.4457 19.5853 55.4457 19.5624C55.4457 16.1073 53.3448 14.5193 50.7537 16.0152C48.1621 17.5115 46.0616 21.5252 46.0616 24.9803C46.0616 25.0833 46.0693 25.1793 46.0732 25.2787L45.3678 25.6819C45.3597 25.5293 45.3498 25.3786 45.3498 25.2186C45.3498 21.4303 47.6532 17.0293 50.4943 15.3888Z" fill="#DD2F26"/>
<path d="M23.7814 30.84C26.6228 29.1996 28.9258 30.9409 28.9258 34.7293C28.9258 34.8463 28.917 34.9655 28.9128 35.0832L28.7209 35.1929C28.7226 35.124 28.7286 35.0537 28.7286 34.9851C28.7286 31.53 26.6277 29.942 24.0365 31.4379C21.445 32.9342 19.3445 36.9479 19.3445 40.403C19.3445 40.4726 19.3505 40.5369 19.3522 40.6051C19.1255 40.7387 18.8865 40.88 18.6507 41.0192C18.6461 40.9025 18.637 40.79 18.637 40.6691C18.637 36.8811 20.9403 32.4804 23.7814 30.84Z" fill="#DD2F26"/>
<path d="M22.1755 7.24609C22.838 7.76103 24.1104 8.6728 26.1846 9.87032C29.5648 11.8222 36.0801 15.0625 36.0801 15.0625C36.0801 15.0625 34.5831 17.1529 34.0597 17.8973C33.3813 18.8625 31.2731 21.9015 31.2731 21.9015C28.6081 19.5679 19.741 14.4253 17.9885 13.5005C18.5428 12.4847 20.5667 9.38913 22.1755 7.24609Z" fill="#B5E0FF"/>
<path d="M21.5509 18.2406C16.9579 15.5837 16.2905 14.5932 16.2905 14.5932L21.6011 6.77148C21.6011 6.77148 21.779 6.93774 22.1758 7.246C20.5667 9.38904 18.5432 12.4846 17.9889 13.5008C19.7414 14.4255 28.6084 19.5682 31.2734 21.9017L30.5996 22.7432C30.5996 22.7432 26.4573 21.0793 21.5509 18.2406Z" fill="#97CDFC"/>
<path opacity="0.5" d="M35.7226 15.5619C35.7226 15.5619 28.5758 14.2744 24.7287 12.5964C20.2746 10.6537 19.418 9.98622 19.418 9.98622L21.6008 6.77148C21.6008 6.77148 23.8496 8.49203 26.9315 10.2948C28.8127 11.3957 36.0801 15.0628 36.0801 15.0628L35.7226 15.5619Z" fill="white"/>
<path d="M30.599 22.7455C30.599 22.7455 33.3993 19.2355 34.0187 18.3884C34.5009 17.7283 35.5768 16.277 36.0745 15.5603C36.2158 15.3572 36.2401 14.8419 35.9445 14.6485C35.7634 14.5301 35.529 14.4064 35.2566 14.2826C34.5399 13.9568 28.4465 10.8285 26.133 9.46019C23.8194 8.09149 22.1576 6.95442 21.8645 6.77376C21.5713 6.59274 21.3559 6.77375 20.7566 7.53789C20.0427 8.44861 16.1295 14.4833 16.1295 14.4833L16.2902 14.5955C16.2902 14.5955 19.4701 10.1906 19.9256 9.46019C20.482 8.56846 21.2455 7.41487 21.5386 7.24826C21.8318 7.08166 24.946 9.4602 27.7716 11.0243C30.5972 12.5885 34.8984 14.4545 35.3547 14.7596C35.8109 15.0647 35.5828 15.2278 35.0288 16.1403C34.4749 17.0527 31.6552 20.7673 31.2728 21.3539C31.0834 21.6446 30.5621 22.4077 30.4419 22.6812C30.516 22.73 30.599 22.7455 30.599 22.7455Z" fill="#4C2011"/>
<path d="M37.3299 16.7149C39.377 15.5325 41.3566 14.2538 43.4768 13.1863C44.7502 12.5452 46.0757 11.8246 47.4282 11.3659C49.346 10.7153 49.5537 12.8597 49.6113 14.2984C48.4985 14.9371 46.7716 15.9096 45.7586 16.4745C43.5629 17.6987 38.7742 20.4537 37.2294 21.3047C36.6733 21.6112 36.0803 21.9384 35.5187 22.2495V19.4955C36.1974 18.4101 36.8684 17.3651 37.3299 16.7149Z" fill="#B5E0FF"/>
<path d="M47.4288 11.3657C46.0762 11.8247 44.7508 12.5449 43.4773 13.186C41.3571 14.2535 39.3775 15.5322 37.3305 16.7146C37.3997 16.6173 37.4644 16.528 37.5234 16.4493C38.7944 14.7593 40.1494 13.9758 41.2383 13.321C42.2222 12.7294 44.3086 11.6816 45.2952 11.1681C46.9817 10.2904 48.0639 9.90979 48.6077 9.9024C49.0579 9.89643 50.1346 10.3312 50.6231 10.8985L50.6484 13.6876C50.5546 13.7526 50.1556 13.986 49.6126 14.2978C49.5539 12.8591 49.3465 10.7147 47.4288 11.3657Z" fill="#97CDFC"/>
<path d="M34.6387 23.1802C34.6387 23.1802 33.1775 23.4733 32.8682 23.2881C32.5593 23.1029 32.5807 22.5141 32.9807 22.4002C33.3807 22.2863 34.2454 22.4002 34.2454 22.4002L34.6387 23.1802Z" fill="#4C2011"/>
<path d="M46.2776 10.8443C46.2776 10.8443 46.1113 14.8913 46.3208 17.2822C46.5303 19.673 48.2441 16.3729 48.2441 16.3729L47.4076 10.3086L46.2776 10.8443Z" fill="#EF4335"/>
<path d="M46.9241 10.5664L47.4453 17.2138L47.0706 17.5723L46.7121 10.6156L46.9241 10.5664Z" fill="#DD2F26"/>
<path d="M35.518 19.4928C35.518 19.4928 37.0086 16.9487 38.5974 15.128C39.1882 14.451 41.4789 12.9843 43.7661 11.8409C46.1123 10.6683 48.2261 9.66584 48.715 9.77586C49.3238 9.91294 50.6201 10.7657 50.6201 10.7657L50.6465 13.6862L50.3105 13.889L50.2792 10.998C50.0746 10.8532 49.2567 10.231 48.7273 10.1425C48.2142 10.057 46.6072 10.8078 44.6704 11.792C42.6497 12.8191 39.9548 14.3948 39.3183 14.9691C38.1267 16.0443 35.518 20.0007 35.518 20.0007V19.4928Z" fill="#4C2011"/>
<path d="M3.55847 30.5371C3.53773 30.6376 3.52754 30.7596 3.53211 30.9136C3.56374 31.9494 3.63967 32.6587 4.24248 33.0875C4.84528 33.5163 7.34192 34.9817 9.4962 36.1922C10.9897 37.0316 11.7317 37.0274 12.1426 36.7782C11.8389 37.259 11.2059 37.6987 9.15174 36.5448C6.99746 35.3343 4.50082 33.8689 3.89801 33.4401C3.29521 33.0112 3.21929 32.3019 3.18765 31.2661C3.17113 30.722 3.32649 30.5382 3.55847 30.5371Z" fill="#4C2011"/>
<path d="M9.49661 36.1922C7.34233 34.9817 4.84569 33.5163 4.24289 33.0875C3.64008 32.6587 3.56415 31.9494 3.53252 30.9136C3.52795 30.7596 3.53814 30.6376 3.55888 30.5371C3.76872 30.5361 4.04078 30.6844 4.30756 30.857C6.19893 32.0816 11.305 34.917 12.1855 35.3216C12.9855 35.6893 12.3634 36.3965 12.1855 36.7082C12.1722 36.7314 12.1574 36.7546 12.143 36.7778C11.7321 37.0274 10.9901 37.0316 9.49661 36.1922Z" fill="#381509"/>
<path d="M3.39571 30.7949C4.6776 31.5654 5.86458 32.4037 7.3781 33.261C8.98933 34.1735 10.9092 35.1151 12.5703 35.9611C12.5552 36.0241 12.5215 36.1228 12.4986 36.1777C11.3246 35.7618 8.69689 34.4698 7.23504 33.5875C5.78971 32.7151 4.61397 32.0427 3.38551 31.1657C3.39149 31.0417 3.39712 30.9176 3.39571 30.7949Z" fill="#4C2011"/>
<path d="M3.39309 31.6973C4.60714 32.4375 5.753 33.2378 7.19552 34.0547C8.74981 34.9348 10.5913 35.842 12.2109 36.6649C12.1635 36.7412 12.1424 36.802 12.0714 36.88C10.8078 36.39 8.42011 35.2062 7.05281 34.3812C5.71223 33.5721 4.60433 32.9377 3.47077 32.1503C3.43773 32.0003 3.40961 31.8509 3.39309 31.6973Z" fill="#4C2011"/>
<path d="M15.9867 33.2514C17.3196 30.939 19.6861 28.9404 21.7631 27.3186C23.8991 25.6508 26.3989 24.061 28.8151 22.8241C28.9511 22.7545 29.0495 22.9363 28.9321 23.0245C26.7093 24.7028 24.2404 26.0329 22.0411 27.7598C21.0334 28.551 19.8067 29.3749 18.8999 30.2806C17.9118 31.2676 17.0099 32.2553 16.2907 33.4504C16.211 33.5836 15.9122 33.3808 15.9867 33.2514Z" fill="#EF4335"/>
<path d="M2.36171 25.6264C3.69456 23.314 6.06115 21.3154 8.1381 19.6936C10.2741 18.0258 12.7739 16.436 15.1901 15.1991C15.3261 15.1295 15.4245 15.3112 15.3071 15.3995C13.0846 17.0778 10.6154 18.4079 8.41613 20.1348C7.40841 20.926 6.1817 21.7499 5.27486 22.6556C4.28682 23.6426 3.3849 24.6303 2.66575 25.8254C2.58596 25.9586 2.28719 25.7554 2.36171 25.6264Z" fill="#EF4335"/>
<path d="M16.8203 33.7198L14.8295 32.6035C14.8295 32.6035 13.7785 33.8397 13.2949 35.039C12.6956 36.5251 12.8386 38.047 12.8386 38.047L14.8913 39.2867C14.8913 39.2867 14.8333 37.7883 15.4291 36.1919C16.1296 34.3135 16.8203 33.7198 16.8203 33.7198Z" fill="white"/>
<path d="M4.38867 26.6886L2.39783 25.5723C2.39783 25.5723 1.59151 26.8085 1.10751 28.0077C0.508214 29.4938 0.651274 31.0158 0.651274 31.0158L2.70398 32.2555C2.70398 32.2555 2.64633 30.7571 3.24176 29.1606C3.94263 27.2823 4.38867 26.6886 4.38867 26.6886Z" fill="white"/>
<path d="M21.9297 24.4648C21.9297 24.4648 17.9192 26.642 15.8201 28.2177C13.721 29.7931 12.1424 31.6627 12.1424 31.6627C12.1424 31.6627 11.0082 31.1752 10.0771 30.4525C10.56 29.6307 12.4612 28.2177 15.0384 26.7952C17.2401 25.5798 21.9297 24.4648 21.9297 24.4648Z" fill="#FF5E4C"/>
<path d="M12.6934 19.1855C12.6934 19.1855 10.9102 21.3824 9.46281 24.6312C8.70289 26.3373 7.97952 28.151 7.73277 29.0849C6.90255 28.673 5.88464 28.0631 5.88464 28.0631C5.88464 28.0631 7.34121 24.8797 9.76087 21.8421C11.1106 20.1483 12.6934 19.1855 12.6934 19.1855Z" fill="#FF5E4C"/>
<path opacity="0.5" d="M15.507 16.3535C16.7144 17.1806 19.1421 18.8213 21.4978 20.2972C21.7168 20.4343 21.6107 20.7468 21.372 20.7616C19.0237 20.9092 16.8364 20.1542 14.9924 18.796C13.3137 17.5598 15.5032 16.3563 15.507 16.3535Z" fill="white"/>
<path d="M32.292 0.173828L43.0996 6.35971C43.0996 6.35971 40.894 5.74355 38.0884 5.14531C35.9949 4.69856 34.2146 4.69787 32.2424 4.84057C27.1834 5.20718 23.5529 7.05953 21.6169 6.05989C22.5086 4.98784 25.1202 3.47784 27.44 2.32179C29.8748 1.10844 32.292 0.173828 32.292 0.173828Z" fill="#FF766C"/>
<path opacity="0.5" d="M30.9821 1.66927C30.993 1.53605 31.2932 1.28123 31.3385 1.26752C31.9891 1.01023 32.6299 1.2633 33.188 1.6039C33.6801 1.90442 34.3444 2.30582 34.7494 2.8081C34.9342 3.03762 35.0422 3.2675 34.5455 3.2668C34.0741 3.2661 31.6482 2.45802 31.2099 2.18632C30.9505 2.02533 30.9055 1.83096 30.9821 1.66927Z" fill="white"/>
<path opacity="0.5" d="M46.1582 20.1895C46.1582 20.1895 44.1853 20.9392 38.7579 23.781C34.4606 26.0309 32.655 26.9574 28.8058 30.3788C30.0111 30.7946 30.1742 32.9531 30.1742 32.9531C30.1742 32.9531 40.7815 26.8186 44.8809 24.5226C45 22.9501 45.2988 21.7026 46.1582 20.1895Z" fill="#FF5E4C"/>
<path d="M35.926 22.7031L36.4473 29.3505L36.0645 29.5554L35.7141 22.752L35.926 22.7031Z" fill="#DD2F26"/>
<path d="M45.581 17.4198C46.0752 17.2286 46.3965 17.1703 46.4861 17.462C46.613 17.8743 46.0271 18.1755 45.8176 18.2852C45.3385 18.5362 44.7357 18.9822 44.4998 18.4901C44.2608 17.991 45.181 17.5741 45.581 17.4198Z" fill="#4C2011"/>
<path d="M36.6052 22.8089C35.8049 22.0406 34.3828 21.203 33.8366 20.9914C33.878 20.9464 33.9188 20.8996 33.9638 20.8606C34.3571 20.5169 34.6661 20.8237 35.0531 21.0083C35.9673 21.4445 37.2885 22.1935 37.8414 23.2873C38.2984 24.191 38.2214 24.8082 37.5051 24.8978C37.6682 24.2996 37.3276 23.5028 36.6052 22.8089Z" fill="#FF766C"/>
<path d="M34.9034 24.1707C33.5438 23.5275 33.2229 22.6129 33.3797 21.8628C33.4503 21.524 33.6215 21.2238 33.8359 20.9922C34.3818 21.2038 35.8043 22.041 36.6046 22.8097C37.3273 23.5036 37.6679 24.3004 37.5048 24.8987C36.9867 24.9633 36.1375 24.7545 34.9034 24.1707Z" fill="#FF5E4C"/>
<path d="M45.7823 24.7305L28.915 34.2893L28.7213 35.1943L46.0723 25.2788L45.7823 24.7305Z" fill="#DD2F26"/>
<path d="M34.2799 0.564453L48.2425 8.5925L51.582 8.90392L37.8387 0.999595L34.2799 0.564453Z" fill="#97CDFC"/>
<path d="M16.84 38.6408C16.9127 39.1096 17.0133 39.6334 16.9855 40.1058C16.9771 40.2478 16.7936 40.2242 16.7426 40.1297C16.5321 39.7395 16.298 38.9191 16.6772 38.5676C16.7388 38.51 16.8294 38.5722 16.84 38.6408Z" fill="#DD2F26"/>
<path d="M17.8401 39.5039C17.8756 39.4575 17.9673 39.4645 17.9627 39.5373C17.9402 39.8965 17.8028 40.4072 17.5016 40.628C17.4341 40.6775 17.3315 40.6111 17.335 40.5323C17.3504 40.19 17.6365 39.7696 17.8401 39.5039Z" fill="#DD2F26"/>
<path d="M43.4739 23.0041C43.5934 23.1521 43.696 23.312 43.8317 23.4459C43.9473 23.5602 44.0485 23.6157 44.1023 23.7728C44.1259 23.8417 44.064 23.9127 43.9955 23.9127C43.6387 23.9138 43.3526 23.4171 43.2978 23.1064C43.2816 23.0153 43.4007 22.9134 43.4739 23.0041Z" fill="#DD2F26"/>
<path d="M42.783 24.2392C42.8825 24.0087 42.9528 23.7693 43.015 23.5264C43.0477 23.3978 43.2294 23.4329 43.2375 23.5566C43.2625 23.9352 43.1988 24.6579 42.776 24.8016C42.7285 24.8178 42.6614 24.783 42.653 24.7317C42.621 24.538 42.7064 24.4167 42.783 24.2392Z" fill="#DD2F26"/>
<path d="M29.1168 31.6651C29.367 31.638 29.6398 31.8008 29.8742 31.8813C30.134 31.9706 30.398 32.0328 30.6486 32.1452C30.7136 32.1744 30.6967 32.2858 30.6285 32.2992C30.1765 32.3878 29.2623 32.1976 29.0939 31.695C29.0887 31.6792 29.1024 31.6665 29.1168 31.6651Z" fill="#DD2F26"/>
<path d="M38.5636 26.9263C38.6979 26.6444 38.8655 26.3888 39.0378 26.1287C39.0923 26.0468 39.2188 26.0978 39.1966 26.1959C39.1281 26.5006 39.0589 26.7962 38.9488 27.0887C38.8757 27.2837 38.8339 27.4454 38.6163 27.5027C38.572 27.5143 38.52 27.4953 38.4972 27.4542C38.3868 27.2546 38.4715 27.1199 38.5636 26.9263Z" fill="#DD2F26"/>
<path d="M34.7768 29.7587C34.8724 29.5632 34.9937 29.3833 35.0738 29.1805C35.1459 28.9994 35.1786 28.8054 35.2503 28.6261C35.2678 28.5829 35.3357 28.5601 35.361 28.6117C35.5779 29.0518 35.342 29.6736 34.9389 29.9207C34.8316 29.9868 34.7273 29.8599 34.7768 29.7587Z" fill="#DD2F26"/>
<path d="M33.155 28.8997C33.4197 28.9988 33.7269 29.1886 33.9532 29.3584C34.0784 29.4522 34.0098 29.6558 33.8436 29.6185C33.5322 29.5486 33.188 29.2825 33.0738 28.9809C33.0569 28.9356 33.11 28.8828 33.155 28.8997Z" fill="#DD2F26"/>
<path d="M56.6315 16.9583C56.6853 16.7421 56.6677 16.5214 56.6473 16.3024C56.6385 16.21 56.7605 16.2008 56.8044 16.2599C57.0881 16.6423 57.0853 17.4908 56.5784 17.6943C56.4694 17.7379 56.397 17.6152 56.41 17.5256C56.4382 17.3256 56.5812 17.159 56.6315 16.9583Z" fill="#DD2F26"/>
<path d="M55.2276 15.8637C55.6554 16.0907 55.8754 16.6735 55.6407 17.1122C55.589 17.2088 55.4653 17.1512 55.454 17.0616C55.4023 16.6486 55.3412 16.3238 55.1373 15.9537C55.1053 15.895 55.1693 15.8328 55.2276 15.8637Z" fill="#DD2F26"/>
<path d="M56.1921 10.5664C56.1921 10.5664 55.7253 11.1819 55.5439 11.3875C55.2406 11.7312 55.5492 12.301 55.8761 13.1488C56.1629 13.8926 56.409 14.9818 56.8293 14.7706C57.2054 14.5815 57.584 14.1193 57.584 14.1193C57.584 14.1193 57.3408 12.9724 56.9949 12.0103C56.6494 11.0483 56.1921 10.5664 56.1921 10.5664Z" fill="#B5E0FF"/>
</svg>
