<svg width="100" height="100" viewBox="0 0 100 100" fill="none" xmlns="http://www.w3.org/2000/svg">
<path d="M93.4025 38.9748C93.0447 37.8708 92.3882 36.8875 91.5056 36.134C90.623 35.3805 89.5489 34.8863 88.4025 34.7061L65.9431 31.2592L55.8775 9.90293C55.3883 8.81493 54.595 7.89155 53.5931 7.24397C52.5912 6.59639 51.4235 6.25223 50.2306 6.25293C47.7994 6.25293 45.6337 7.65293 44.5837 9.89668L34.515 31.2623L12.0556 34.7092C10.9105 34.8927 9.83805 35.3882 8.95602 36.1413C8.074 36.8943 7.41647 37.8758 7.05561 38.9779C6.66657 40.117 6.59989 41.3415 6.86294 42.5161C7.12599 43.6907 7.70852 44.7698 8.54623 45.6342L24.89 62.4529L21.0275 86.2404C20.6212 88.7467 21.6337 91.1904 23.6744 92.6248C24.6173 93.2908 25.7293 93.6767 26.8821 93.7381C28.0349 93.7994 29.1816 93.5338 30.19 92.9717L50.1775 81.8217L70.2744 92.9717C71.2812 93.5368 72.4279 93.8042 73.5809 93.7428C74.7339 93.6814 75.8457 93.2937 76.7869 92.6248C77.786 91.92 78.565 90.9465 79.0335 89.8171C79.502 88.6877 79.6407 87.4486 79.4337 86.2436L75.5712 62.4561L91.915 45.6373C92.7527 44.7729 93.3352 43.6939 93.5983 42.5192C93.8613 41.3446 93.7946 40.1202 93.4056 38.9811L93.4025 38.9748Z" fill="#194BCB"/>
</svg>
