<svg width="24" height="24" viewBox="0 0 24 24" fill="none" xmlns="http://www.w3.org/2000/svg">
<path d="M19.435 8.12191L8.12132 19.4356C7.7308 19.8261 7.09763 19.8261 6.70711 19.4356C6.31658 19.0451 6.31658 18.4119 6.70711 18.0214L18.0208 6.7077C18.4113 6.31718 19.0445 6.31718 19.435 6.7077C19.8256 7.09822 19.8256 7.73139 19.435 8.12191Z" fill="#9098A7"/>
<path d="M18.7279 14.4859L14.4853 18.7285C14.0948 19.119 13.4616 19.119 13.0711 18.7285C12.6805 18.338 12.6805 17.7048 13.0711 17.3143L17.3137 13.0717C17.7042 12.6811 18.3374 12.6811 18.7279 13.0717C19.1184 13.4622 19.1184 14.0954 18.7279 14.4859Z" fill="#9098A7"/>
</svg>
