<svg width="44" height="44" viewBox="0 0 44 44" fill="none" xmlns="http://www.w3.org/2000/svg">
<path d="M17.8253 12.3329C19.683 9.0003 20.6119 7.33398 22.0007 7.33398C23.3894 7.33398 24.3183 9.0003 26.176 12.3329L26.6566 13.1951C27.1845 14.1422 27.4485 14.6157 27.8601 14.9281C28.2716 15.2405 28.7842 15.3565 29.8094 15.5885L30.7427 15.7996C34.3502 16.6159 36.154 17.024 36.5831 18.404C37.0122 19.784 35.7826 21.222 33.3232 24.0979L32.6869 24.8419C31.988 25.6592 31.6386 26.0678 31.4814 26.5733C31.3242 27.0788 31.377 27.624 31.4827 28.7144L31.5789 29.7071C31.9507 33.5442 32.1366 35.4627 31.0131 36.3156C29.8896 37.1685 28.2007 36.3909 24.823 34.8357L23.9491 34.4333C22.9893 33.9914 22.5094 33.7704 22.0007 33.7704C21.4919 33.7704 21.012 33.9914 20.0522 34.4333L19.1783 34.8357C15.8006 36.3909 14.1117 37.1685 12.9882 36.3156C11.8647 35.4627 12.0506 33.5442 12.4224 29.7071L12.5186 28.7144C12.6243 27.624 12.6771 27.0788 12.5199 26.5733C12.3627 26.0678 12.0133 25.6592 11.3144 24.8419L10.6781 24.0979C8.21875 21.222 6.98906 19.784 7.4182 18.404C7.84734 17.024 9.65111 16.6159 13.2586 15.7996L14.192 15.5885C15.2171 15.3565 15.7297 15.2405 16.1412 14.9281C16.5528 14.6157 16.8168 14.1422 17.3447 13.1951L17.8253 12.3329Z" stroke="#626C7A" stroke-width="1.5"/>
</svg>
