<svg width="24" height="24" viewBox="0 0 24 24" fill="none" xmlns="http://www.w3.org/2000/svg">
<rect x="2.25" y="5.58203" width="19.5" height="12.8333" rx="3.75" fill="white" stroke="#1A1F28" stroke-width="0.5"/>
<path d="M10.5566 14.2676H9.42578L10.1331 10.0156H11.2639L10.5566 14.2676Z" fill="#00579F"/>
<path d="M14.6559 10.1185C14.4328 10.0325 14.0791 9.9375 13.6416 9.9375C12.5249 9.9375 11.7385 10.5165 11.7336 11.3442C11.7244 11.9549 12.2967 12.2941 12.7247 12.4978C13.1622 12.7058 13.311 12.8416 13.311 13.0271C13.3065 13.312 12.9574 13.4433 12.6319 13.4433C12.1804 13.4433 11.9385 13.3756 11.5708 13.2171L11.4219 13.1492L11.2637 14.1036C11.5289 14.2211 12.0175 14.3254 12.5249 14.3299C13.7114 14.3299 14.4839 13.7599 14.4931 12.8778C14.4976 12.3938 14.1954 12.0229 13.5439 11.7198C13.1483 11.5253 12.9061 11.3941 12.9061 11.1951C12.9107 11.0141 13.111 10.8287 13.5575 10.8287C13.9251 10.8197 14.1952 10.9056 14.3998 10.9915L14.5021 11.0367L14.6559 10.1185Z" fill="#00579F"/>
<path d="M16.1598 12.7613C16.2529 12.517 16.6112 11.5716 16.6112 11.5716C16.6065 11.5807 16.7042 11.3228 16.76 11.1645L16.8391 11.5309C16.8391 11.5309 17.0532 12.5487 17.0997 12.7613C16.923 12.7613 16.3831 12.7613 16.1598 12.7613ZM17.5556 10.0156H16.6809C16.4112 10.0156 16.2063 10.0925 16.0899 10.3684L14.4102 14.2676H15.5967C15.5967 14.2676 15.7921 13.7428 15.8341 13.6297C15.9642 13.6297 17.1185 13.6297 17.286 13.6297C17.3184 13.779 17.4209 14.2676 17.4209 14.2676H18.468L17.5556 10.0156Z" fill="#00579F"/>
<path d="M8.48141 10.0156L7.37394 12.9151L7.25292 12.327C7.04817 11.6485 6.40604 10.9113 5.68945 10.5448L6.70386 14.2631H7.8997L9.67719 10.0156H8.48141Z" fill="#00579F"/>
<path d="M6.34585 10.0156H4.52643L4.50781 10.1015C5.92707 10.4544 6.86702 11.3051 7.25321 12.3275L6.85769 10.3731C6.79257 10.1015 6.59246 10.0246 6.34585 10.0156Z" fill="#FAA61A"/>
</svg>
