<svg width="24" height="24" viewBox="0 0 24 24" fill="none" xmlns="http://www.w3.org/2000/svg">
<path d="M4.80078 10.4C4.80078 7.38301 4.80078 5.87452 5.73804 4.93726C6.6753 4 8.18379 4 11.2008 4H12.8008C15.8178 4 17.3263 4 18.2635 4.93726C19.2008 5.87452 19.2008 7.38301 19.2008 10.4V13.6C19.2008 16.617 19.2008 18.1255 18.2635 19.0627C17.3263 20 15.8178 20 12.8008 20H11.2008C8.18379 20 6.6753 20 5.73804 19.0627C4.80078 18.1255 4.80078 16.617 4.80078 13.6V10.4Z" stroke="white" stroke-width="1.5"/>
<path d="M8.80078 12H15.2008" stroke="white" stroke-width="1.5" stroke-linecap="round"/>
<path d="M8.80078 8.80078H15.2008" stroke="white" stroke-width="1.5" stroke-linecap="round"/>
<path d="M8.80078 15.1992H12.8008" stroke="white" stroke-width="1.5" stroke-linecap="round"/>
</svg>
