<svg width="60" height="43" viewBox="0 0 60 43" fill="none" xmlns="http://www.w3.org/2000/svg">
<path d="M13.3245 13.2303C14.0138 13.414 15.3732 14.5665 15.7866 14.9264C15.3842 15.563 14.7062 16.586 14.5043 16.5857C14.2116 16.5849 13.1586 15.4206 12.7516 14.4033C12.558 13.9189 12.5983 13.5291 12.771 13.2751C12.9316 13.2034 13.1164 13.1749 13.3245 13.2303Z" fill="#FFB24D"/>
<path d="M14.2053 12.9264C14.9603 13.3113 16.4275 14.3427 16.4275 14.3427C16.4275 14.3427 15.9685 14.6399 15.7871 14.9269C15.3741 14.567 14.0143 13.4146 13.325 13.2308C13.1166 13.1754 12.9321 13.2035 12.7715 13.2756C12.9882 12.9575 13.7141 12.6758 14.2053 12.9264Z" fill="#FEC76E"/>
<path d="M27.0115 36.2344L23.5039 34.1651C23.5039 34.1651 24.9567 31.5622 26.499 32.217C28.0417 32.8714 27.0115 36.2344 27.0115 36.2344Z" fill="#FF911A"/>
<path d="M55.1921 20.0839L50.291 17.1928C50.291 17.1928 53.1373 15.4117 54.6797 16.0665C56.2224 16.7213 55.1921 20.0839 55.1921 20.0839Z" fill="#FF911A"/>
<path d="M34.7775 0.0078125C35.2604 0.0419772 39.9671 1.22977 40.4477 1.3167C40.967 1.41046 41.2832 1.48866 41.5281 1.4583C42.0964 1.38807 42.6855 1.24382 43.2052 1.18005C43.5859 1.13374 43.9075 1.1007 44.2229 1.1417C44.2438 1.14436 44.3007 1.1436 44.4636 1.24002C46.37 2.3667 58.6685 9.42286 58.6685 9.42286L55.8906 12.3827C55.8906 12.3827 49.7162 9.08311 45.5648 6.79103C45.5603 6.83393 45.5565 6.88138 45.5519 6.92162C45.5519 6.92162 34.6006 1.21611 34.7775 0.0078125Z" fill="#FCBD60"/>
<path d="M18.9862 9.35248C19.7655 8.28236 20.5908 7.40623 21.8446 6.68573C22.3211 6.41203 31.1097 1.34958 31.4286 1.17989C32.5078 0.605546 33.4865 0.172036 34.2377 0.0429688C36.9341 1.62821 44.1512 6.18199 44.1512 6.18199C44.1512 6.18199 37.858 4.95547 32.2691 5.42467C27.3531 5.83768 23.5047 7.53795 22.2554 8.75232C20.5297 10.4298 17.2616 16.3399 14.7604 16.7264C14.4746 16.7704 14.2783 16.7636 14.082 16.6964C15.5219 14.9266 17.1026 11.9384 18.9862 9.35248Z" fill="#FFD79C"/>
<path d="M1.46273 32.0377C1.72884 31.4045 2.18816 30.9045 2.96484 30.6973C3.13529 30.6517 3.5912 30.6749 4.13366 31.0689C5.56326 32.1068 7.11434 32.82 8.69161 33.473C10.3106 34.143 11.7934 34.3381 13.2306 33.1887C14.9889 31.7822 16.3954 30.0371 18.2528 28.7115C20.2518 27.2846 22.3993 25.9753 24.7054 25.1387C25.0277 25.0218 25.3124 24.9546 24.7434 24.685C20.6948 22.7673 16.6228 20.3317 12.9732 17.5207C13.1216 17.4106 13.2682 17.3024 13.412 17.1958C13.6364 17.0295 13.8585 16.8647 14.0809 16.6973C14.276 16.7641 14.5922 16.6863 14.7995 16.6681C17.3205 16.4449 20.2757 10.3852 22.0018 8.70695C23.2511 7.4922 27.352 5.83825 32.2676 5.42562C37.8565 4.95604 44.1497 6.18293 44.1497 6.18293C44.1497 6.18293 36.9326 1.62915 34.2362 0.0439092C34.3972 0.0161978 34.5513 -0.00240512 34.6895 0.000252142C34.8527 0.00328901 35.0516 0.0962922 35.1613 0.154752C35.1985 0.174491 49.5959 8.49399 49.5959 8.49399C49.5959 8.49399 38.7543 22.5266 37.1254 23.8939C33.8372 26.6545 27.0586 30.8271 23.6949 32.5623C20.1554 34.3882 15.099 42.502 15.099 42.502C15.099 42.502 13.1456 41.9511 9.46602 39.828C8.19737 39.0957 4.46582 36.8773 3.65231 36.3512C2.21436 35.4207 1.09489 34.6384 0.349718 33.807C0.33871 32.9852 1.16474 32.7464 1.46273 32.0377Z" fill="#FEC76E"/>
<path d="M0.219235 33.5724C0.0537255 32.7126 -0.151645 31.1179 0.308819 30.0329C1.74108 26.6594 4.7901 23.5173 8.97148 20.2683C10.4501 19.1196 12.0634 18.1937 12.9729 17.5195C16.6225 20.3305 20.6945 22.7661 24.7431 24.6839C25.3125 24.9534 25.0274 25.0206 24.7051 25.1375C22.399 25.9742 20.2515 27.2834 18.2525 28.7104C16.3951 30.0364 14.9887 31.781 13.2303 33.1875C11.7931 34.3369 10.3104 34.1418 8.69133 33.4718C7.11406 32.8193 5.56298 32.106 4.13338 31.0677C3.59054 30.6737 3.135 30.6506 2.96456 30.6961C2.18788 30.9034 1.72893 31.4029 1.46245 32.0365C1.16446 32.7452 1.12839 33.7432 1.13978 34.5643C0.726766 34.1813 0.263269 33.8006 0.219235 33.5724Z" fill="#FFD79C"/>
<path d="M14.4222 17.2313C14.4222 17.2313 14.1603 17.0267 13.9082 16.827C13.9674 16.7526 14.1489 16.6141 14.3694 16.3305C14.6686 16.2789 15.1009 16.5613 15.1009 16.5613L14.4222 17.2313Z" fill="#FFD79C"/>
<path d="M47.2715 22.259C47.2715 20.0896 48.5906 17.5694 50.2176 16.6298C50.6287 16.3922 51.1173 16.2707 51.5045 16.2715C51.8086 16.2722 52.586 16.3015 53.3923 16.8003C54.3193 17.3735 54.4442 18.6748 54.4442 18.6748L51.1344 25.4736C51.1344 25.4736 50.0685 25.9967 48.9733 25.3969C48.2915 25.0237 47.8808 24.4073 47.6932 24.0656C47.6109 23.9157 47.4867 23.6143 47.4495 23.5004C47.3349 23.1477 47.2715 22.7317 47.2715 22.259Z" fill="#381509"/>
<path d="M54.5427 19.6257C54.5427 21.7951 53.2235 24.3154 51.5965 25.2549C49.9695 26.1944 48.6504 25.1972 48.6504 23.0277C48.6504 20.8583 49.9695 18.3381 51.5965 17.3985C53.2239 16.459 54.5427 17.4562 54.5427 19.6257Z" fill="#4C2011"/>
<path d="M53.9726 19.9823C53.9726 21.6982 52.9294 23.6911 51.6425 24.434C50.3557 25.1769 49.3125 24.3885 49.3125 22.6726C49.3125 20.9568 50.3557 18.9638 51.6425 18.221C52.9298 17.4781 53.9726 18.2669 53.9726 19.9823Z" fill="#B3DDFF"/>
<path d="M51.7256 18.5773C50.5697 19.2446 49.6328 21.0349 49.6328 22.5757C49.6328 24.1169 50.5697 24.8249 51.7256 24.1579C52.8815 23.4905 53.8184 21.7003 53.8184 20.1595C53.8184 18.6187 52.8811 17.9099 51.7256 18.5773ZM51.2716 19.0943C51.3228 19.0203 51.5491 18.84 51.7146 18.7489C51.8941 18.6502 52.0855 18.5044 52.4897 18.5348C52.5771 18.5412 52.6659 18.5928 52.7092 18.6388C52.7745 18.7082 52.7612 18.7952 52.6883 18.9368C52.6192 19.0708 52.5186 19.264 52.4233 19.406C52.3759 19.4766 52.347 19.4447 52.2487 19.4538C52.1504 19.4629 52.0441 19.4709 51.967 19.5039C51.7765 19.5855 51.636 19.6755 51.502 19.7833C51.4344 19.8376 51.4014 19.8197 51.3745 19.7814C51.3023 19.6797 51.2477 19.5396 51.2059 19.4003C51.1805 19.3156 51.1862 19.2181 51.2716 19.0943ZM52.8401 20.724C52.8401 21.5447 52.3409 22.4983 51.7256 22.8536C51.1102 23.2089 50.611 22.8315 50.611 22.0108C50.611 21.1901 51.1102 20.2365 51.7256 19.8812C52.3409 19.5259 52.8401 19.9032 52.8401 20.724ZM49.9369 21.3689C50.091 20.7164 50.2474 20.4746 50.3738 20.2316C50.4907 20.0076 50.6794 19.7252 50.7394 19.6755C50.8396 19.592 50.8927 19.6239 50.9261 19.6998C50.9812 19.8247 51.0309 19.9701 51.0537 20.1268C51.062 20.1857 51.0575 20.2457 51.0009 20.3295C50.8886 20.4966 50.7826 20.6814 50.6604 20.9487C50.6111 21.0565 50.5621 21.2216 50.5161 21.3735C50.4702 21.5249 50.4748 21.5842 50.4182 21.6297C50.3043 21.7208 50.1616 21.7994 50.0629 21.8522C49.9585 21.9083 49.9076 21.8928 49.8989 21.7599C49.8932 21.6722 49.9038 21.5098 49.9369 21.3689ZM50.4023 24.019C50.3465 24.0182 50.192 23.8815 50.1047 23.7445C50.0101 23.5957 49.8833 23.4738 49.8291 22.9097C49.8173 22.7879 49.8336 22.6228 49.8545 22.5241C49.8864 22.3741 49.9433 22.313 50.0458 22.2811C50.1426 22.2511 50.2827 22.2094 50.389 22.2071C50.4421 22.206 50.4273 22.2731 50.4509 22.3954C50.4744 22.5176 50.4987 22.6516 50.5336 22.7237C50.6198 22.9022 50.7018 23.0073 50.794 23.0874C50.8404 23.1276 50.8354 23.1876 50.8161 23.2582C50.7652 23.4465 50.687 23.6458 50.6073 23.8284C50.5583 23.9389 50.4957 24.0197 50.4023 24.019ZM52.3296 23.4154C52.2756 23.5023 52.1712 23.6359 52.0767 23.7198C51.6383 24.1074 51.4576 24.1196 51.2822 24.1716C51.1201 24.2194 50.9083 24.2251 50.8662 24.1905C50.7956 24.1328 50.8058 24.0334 50.8476 23.9203C50.9163 23.7339 50.9986 23.5357 51.0932 23.3634C51.1288 23.2985 51.1672 23.2506 51.2302 23.2495C51.3555 23.2468 51.491 23.2199 51.6815 23.1402C51.7582 23.1079 51.871 23.0229 51.975 22.9462C52.0786 22.8695 52.1151 22.8099 52.1538 22.8441C52.2316 22.9124 52.3068 23.0308 52.358 23.114C52.4123 23.202 52.4115 23.2837 52.3296 23.4154ZM53.5014 21.5249C53.4167 21.785 53.3534 22.0651 52.9939 22.6334C52.916 22.7564 52.8071 22.8782 52.7403 22.9359C52.6389 23.0236 52.5918 22.999 52.5584 22.8862C52.5269 22.7795 52.4821 22.6247 52.4673 22.4808C52.4597 22.409 52.5057 22.3703 52.582 22.2314C52.6583 22.0921 52.7422 21.9414 52.7847 21.8309C52.8898 21.5564 52.9479 21.3518 52.9882 21.1556C53.0087 21.0569 53.0482 21.0113 53.0964 20.9756C53.2251 20.8807 53.3644 20.8132 53.4927 20.7631C53.5705 20.7327 53.6312 20.7475 53.6422 20.8766C53.6491 20.9536 53.5796 21.285 53.5014 21.5249ZM53.4957 20.4677C53.3666 20.5231 53.2292 20.5691 53.1085 20.5763C53.0633 20.5789 53.0292 20.5638 53.0254 20.4746C53.0182 20.2977 52.9939 20.1268 52.9316 19.9211C52.9066 19.838 52.8443 19.7472 52.7877 19.6626C52.7315 19.5779 52.6894 19.5753 52.7107 19.4914C52.7532 19.324 52.8303 19.119 52.8842 18.9774C52.9411 18.8274 52.9961 18.7614 53.0888 18.7694C53.1499 18.7747 53.2448 18.813 53.3055 18.8794C53.5868 19.1854 53.6028 19.4329 53.6456 19.6406C53.6851 19.8323 53.6984 20.1299 53.6768 20.2183C53.6415 20.3668 53.5739 20.4339 53.4957 20.4677Z" fill="white"/>
<path d="M51.8432 20.3061C51.3421 20.5954 50.9355 21.3717 50.9355 22.0402C50.9355 22.7083 51.3417 23.0158 51.8432 22.7261C52.3443 22.4369 52.7508 21.6606 52.7508 20.9921C52.7504 20.324 52.3443 20.0169 51.8432 20.3061Z" fill="#824030"/>
<path d="M50.062 21.8511C50.1607 21.798 50.3034 21.7198 50.4173 21.6287C50.4738 21.5831 50.4693 21.5239 50.5152 21.3724C50.5611 21.2206 50.6101 21.0555 50.6595 20.9477C50.7821 20.6804 50.888 20.4955 51 20.3285C51.0565 20.2446 51.0611 20.1846 51.0527 20.1258C51.03 19.969 50.9802 19.8236 50.9252 19.6987C50.8918 19.6228 50.8386 19.5909 50.7384 19.6745C50.6784 19.7242 50.4894 20.007 50.3729 20.2306C50.2461 20.4731 50.09 20.7153 49.9359 21.3679C49.9025 21.5091 49.8923 21.6716 49.898 21.7589C49.9067 21.8917 49.9576 21.9073 50.062 21.8511Z" fill="#4C2011"/>
<path d="M51.3752 19.782C51.4021 19.8203 51.4352 19.8378 51.5027 19.7839C51.6367 19.6764 51.7776 19.5865 51.9677 19.5045C52.0448 19.4714 52.1511 19.4635 52.2494 19.4544C52.3473 19.4453 52.3762 19.4775 52.424 19.4065C52.5193 19.2649 52.6199 19.0717 52.689 18.9373C52.7619 18.7954 52.7752 18.7088 52.7099 18.6393C52.667 18.5934 52.5778 18.5418 52.4905 18.5353C52.0862 18.505 51.8949 18.6507 51.7153 18.7494C51.5498 18.8402 51.3236 19.0205 51.2723 19.0949C51.1869 19.2186 51.1812 19.3162 51.2066 19.4008C51.2484 19.5402 51.3031 19.6802 51.3752 19.782Z" fill="#4C2011"/>
<path d="M53.6457 19.6414C53.6028 19.4337 53.5869 19.1862 53.3056 18.8803C53.2448 18.8142 53.1499 18.7755 53.0888 18.7702C52.9962 18.7622 52.9411 18.8282 52.8842 18.9782C52.8303 19.1198 52.7532 19.3248 52.7107 19.4922C52.6895 19.5757 52.7312 19.5784 52.7878 19.6634C52.8443 19.7484 52.9066 19.8391 52.9317 19.9219C52.9939 20.1277 53.0182 20.2985 53.0254 20.4754C53.0292 20.5642 53.063 20.5798 53.1086 20.5771C53.2293 20.5699 53.3667 20.5243 53.4957 20.4685C53.5739 20.4348 53.6419 20.3676 53.6776 20.2195C53.6981 20.1303 53.6852 19.8327 53.6457 19.6414Z" fill="#4C2011"/>
<path d="M53.4929 20.7634C53.3646 20.8132 53.2249 20.8807 53.0965 20.976C53.0483 21.0117 53.0088 21.0572 52.9883 21.1559C52.9477 21.3522 52.89 21.5568 52.7849 21.8313C52.7424 21.9421 52.6585 22.0924 52.5822 22.2318C52.5059 22.3707 52.4603 22.4094 52.4675 22.4812C52.4823 22.625 52.5271 22.7803 52.5586 22.8866C52.5921 22.9993 52.6391 23.0236 52.7405 22.9363C52.8073 22.8786 52.9166 22.7568 52.994 22.6338C53.3535 22.0655 53.4166 21.7853 53.5016 21.5253C53.5798 21.2854 53.6493 20.954 53.6424 20.8769C53.6314 20.7475 53.5707 20.7331 53.4929 20.7634Z" fill="#4C2011"/>
<path d="M52.1536 22.8438C52.1148 22.8096 52.0784 22.8696 51.9748 22.9459C51.8708 23.0226 51.7584 23.1076 51.6813 23.1399C51.4911 23.2196 51.3556 23.2466 51.23 23.2492C51.167 23.2504 51.1286 23.2986 51.0929 23.3631C50.9984 23.5355 50.9161 23.7336 50.8473 23.92C50.8056 24.0331 50.7953 24.1326 50.866 24.1903C50.9081 24.2248 51.1199 24.2191 51.282 24.1713C51.4577 24.1193 51.6381 24.1071 52.0765 23.7196C52.1714 23.6357 52.2754 23.5024 52.3293 23.4151C52.4113 23.283 52.4117 23.2018 52.3578 23.1137C52.3066 23.031 52.2314 22.9121 52.1536 22.8438Z" fill="#4C2011"/>
<path d="M50.7931 23.0874C50.7013 23.0073 50.6189 22.9021 50.5327 22.7237C50.4982 22.6516 50.4735 22.5176 50.45 22.3953C50.4264 22.2731 50.4412 22.2059 50.3881 22.207C50.2814 22.2093 50.1417 22.2511 50.0449 22.2811C49.9424 22.313 49.8855 22.3741 49.8536 22.524C49.8327 22.6227 49.8164 22.7878 49.8282 22.9097C49.8828 23.4738 50.0092 23.5957 50.1038 23.7445C50.1911 23.8815 50.3456 24.0182 50.4014 24.0189C50.4948 24.0201 50.5574 23.9388 50.6056 23.8284C50.6857 23.6461 50.7635 23.4465 50.8144 23.2582C50.8341 23.1876 50.8394 23.1276 50.7931 23.0874Z" fill="#4C2011"/>
<path d="M19.3262 38.4016C19.3262 36.2322 20.6453 33.7119 22.2723 32.7724C22.6834 32.5348 23.172 32.4133 23.5592 32.4141C23.8633 32.4148 24.6407 32.4441 25.447 32.9429C26.374 33.5161 26.4989 34.8174 26.4989 34.8174L23.1891 41.6158C23.1891 41.6158 22.1231 42.1389 21.028 41.5391C20.3462 41.1659 19.9355 40.5494 19.7479 40.2078C19.6656 40.0579 19.5414 39.7565 19.5042 39.6426C19.3896 39.2903 19.3262 38.8742 19.3262 38.4016Z" fill="#381509"/>
<path d="M26.5974 35.7683C26.5974 37.9377 25.2782 40.4579 23.6512 41.3975C22.0242 42.337 20.7051 41.3398 20.7051 39.1703C20.7051 37.0009 22.0242 34.4806 23.6512 33.5411C25.2786 32.6016 26.5974 33.5988 26.5974 35.7683Z" fill="#4C2011"/>
<path d="M26.0273 36.125C26.0273 37.8408 24.9841 39.8337 23.6972 40.5766C22.4104 41.3195 21.3672 40.5311 21.3672 38.8153C21.3672 37.0994 22.4104 35.1065 23.6972 34.3636C24.9841 33.6207 26.0273 34.4091 26.0273 36.125Z" fill="#B3DDFF"/>
<path d="M23.7783 34.7199C22.6224 35.3873 21.6855 37.1775 21.6855 38.7183C21.6855 40.2592 22.6224 40.9675 23.7783 40.3002C24.9342 39.6328 25.8711 37.843 25.8711 36.3017C25.8711 34.7609 24.9342 34.0526 23.7783 34.7199ZM23.3247 35.2366C23.3759 35.1625 23.6022 34.9822 23.7677 34.8911C23.9472 34.7924 24.1386 34.6467 24.5429 34.677C24.6302 34.6835 24.719 34.7351 24.7623 34.781C24.8276 34.8505 24.8143 34.9374 24.7414 35.079C24.6723 35.213 24.5717 35.4062 24.4764 35.5482C24.429 35.6188 24.4001 35.5869 24.3018 35.5961C24.2035 35.6052 24.0972 35.6131 24.0201 35.6462C23.8296 35.7278 23.6891 35.8177 23.5551 35.9256C23.4875 35.9798 23.4545 35.962 23.4276 35.9237C23.3554 35.8219 23.3008 35.6818 23.259 35.5425C23.2336 35.4583 23.2393 35.3603 23.3247 35.2366ZM24.8932 36.8666C24.8932 37.6873 24.3944 38.6409 23.7787 38.9962C23.1634 39.3515 22.6642 38.9746 22.6642 38.1535C22.6642 37.3328 23.1634 36.3792 23.7787 36.0239C24.3941 35.6686 24.8932 36.0459 24.8932 36.8666ZM21.99 37.5112C22.1441 36.8586 22.3001 36.6168 22.4269 36.3739C22.5438 36.1499 22.7325 35.8675 22.7925 35.8177C22.8927 35.7342 22.9458 35.7661 22.9792 35.842C23.0343 35.9669 23.084 36.1123 23.1064 36.2691C23.1148 36.3279 23.1102 36.3879 23.0537 36.4718C22.9413 36.6388 22.8354 36.8237 22.7131 37.091C22.6638 37.1988 22.6148 37.3639 22.5689 37.5157C22.523 37.6672 22.5275 37.7264 22.471 37.772C22.3571 37.8631 22.2143 37.9417 22.1156 37.9944C22.0112 38.0506 21.9604 38.035 21.9516 37.9022C21.9463 37.8149 21.957 37.6524 21.99 37.5112ZM22.4554 40.1612C22.3996 40.1605 22.2451 40.0242 22.1578 39.8868C22.0633 39.738 21.9365 39.6161 21.8822 39.052C21.8704 38.9302 21.8867 38.765 21.9076 38.6663C21.9395 38.5164 21.9964 38.4553 22.0989 38.4234C22.1957 38.3934 22.3358 38.3516 22.4421 38.3493C22.4953 38.3482 22.4804 38.4154 22.504 38.5376C22.5275 38.6599 22.5518 38.7939 22.5867 38.866C22.6729 39.0444 22.7549 39.1496 22.8471 39.2297C22.8935 39.2699 22.8882 39.3299 22.8692 39.4005C22.8183 39.5888 22.7401 39.7881 22.6604 39.9707C22.6114 40.0811 22.5488 40.1624 22.4554 40.1612ZM24.3827 39.558C24.3288 39.645 24.2247 39.7786 24.1298 39.8625C23.6914 40.25 23.5107 40.2622 23.3353 40.3142C23.1732 40.362 22.9614 40.3677 22.9193 40.3332C22.8487 40.2755 22.8593 40.176 22.9007 40.0629C22.9694 39.8765 23.0518 39.6784 23.1463 39.506C23.182 39.4411 23.2203 39.3933 23.2833 39.3921C23.4086 39.3895 23.5441 39.3625 23.7347 39.2828C23.8114 39.2505 23.9241 39.1655 24.0281 39.0888C24.1317 39.0121 24.1682 38.9526 24.2069 38.9867C24.2851 39.055 24.3599 39.1735 24.4111 39.257C24.4654 39.3447 24.4647 39.4259 24.3827 39.558ZM25.5545 37.6672C25.4699 37.9272 25.4065 38.207 25.047 38.7757C24.9692 38.8986 24.8602 39.0205 24.7934 39.0782C24.692 39.1655 24.645 39.1412 24.6116 39.0285C24.5797 38.9218 24.5353 38.7669 24.5205 38.623C24.5129 38.5513 24.5588 38.5126 24.6351 38.3736C24.7114 38.2343 24.7957 38.0836 24.8378 37.9728C24.943 37.6983 25.001 37.4937 25.0413 37.2975C25.0618 37.1988 25.1013 37.1532 25.1495 37.1175C25.2782 37.0226 25.4175 36.955 25.5458 36.9049C25.6236 36.8746 25.6843 36.8894 25.6953 37.0184C25.7022 37.0963 25.6327 37.4277 25.5545 37.6672ZM25.5488 36.6104C25.4198 36.6658 25.2823 36.7117 25.1616 36.7189C25.1165 36.7216 25.0823 36.7064 25.0785 36.6172C25.0713 36.4403 25.047 36.2695 24.9847 36.0637C24.9597 35.9806 24.8974 35.8899 24.8409 35.8052C24.7847 35.7206 24.7425 35.7179 24.7638 35.634C24.8063 35.4666 24.8834 35.2616 24.9373 35.12C24.9942 34.9701 25.0493 34.904 25.1419 34.912C25.203 34.9173 25.2979 34.9557 25.3586 35.0221C25.6399 35.328 25.6559 35.5756 25.6988 35.7832C25.7382 35.9749 25.7515 36.2725 25.7299 36.361C25.6946 36.5094 25.627 36.5766 25.5488 36.6104Z" fill="white"/>
<path d="M23.8979 36.4489C23.3968 36.7381 22.9902 37.5144 22.9902 38.1829C22.9902 38.851 23.3964 39.1585 23.8979 38.8689C24.399 38.5796 24.8055 37.8029 24.8055 37.1348C24.8051 36.4667 24.399 36.1592 23.8979 36.4489Z" fill="#824030"/>
<path d="M22.1163 37.9937C22.215 37.9406 22.3581 37.8624 22.4716 37.7713C22.5281 37.7257 22.5236 37.6665 22.5695 37.515C22.6155 37.3632 22.6644 37.198 22.7138 37.0902C22.8364 36.823 22.9423 36.6381 23.0543 36.4711C23.1108 36.3872 23.1154 36.3272 23.107 36.2684C23.0843 36.1116 23.0345 35.9662 22.9799 35.8413C22.9465 35.7654 22.8933 35.7335 22.7931 35.817C22.7331 35.8671 22.5441 36.1496 22.4276 36.3732C22.3008 36.6161 22.1447 36.8579 21.9906 37.5105C21.9572 37.6517 21.947 37.8142 21.9527 37.9015C21.961 38.0343 22.0119 38.0499 22.1163 37.9937Z" fill="#4C2011"/>
<path d="M23.4281 35.9245C23.455 35.9629 23.4881 35.9803 23.5556 35.9264C23.6896 35.819 23.8305 35.7291 24.0206 35.6471C24.0977 35.614 24.204 35.6061 24.3023 35.5969C24.4003 35.5878 24.4291 35.6201 24.4769 35.5491C24.5722 35.4075 24.6728 35.2143 24.7419 35.0799C24.8152 34.9379 24.8281 34.8514 24.7628 34.7819C24.7195 34.736 24.6307 34.6844 24.5434 34.6779C24.1391 34.6475 23.9478 34.7933 23.7682 34.892C23.6027 34.9831 23.3764 35.1631 23.3252 35.2375C23.2398 35.3612 23.2337 35.4588 23.2595 35.5434C23.3013 35.6831 23.3559 35.8228 23.4281 35.9245Z" fill="#4C2011"/>
<path d="M25.7004 35.784C25.6575 35.5763 25.6415 35.3288 25.3603 35.0228C25.2995 34.9568 25.2046 34.9181 25.1435 34.9128C25.0509 34.9048 24.9958 34.9708 24.9389 35.1208C24.885 35.2624 24.8079 35.4674 24.7654 35.6348C24.7441 35.7183 24.7859 35.7209 24.8425 35.806C24.899 35.891 24.9613 35.9817 24.9863 36.0645C25.0486 36.2702 25.0729 36.4411 25.0801 36.618C25.0839 36.7068 25.1177 36.722 25.1632 36.7197C25.2839 36.7125 25.4214 36.6669 25.5504 36.6111C25.6286 36.5773 25.6966 36.5101 25.7323 36.3621C25.7528 36.2733 25.7399 35.9757 25.7004 35.784Z" fill="#4C2011"/>
<path d="M25.5456 36.9059C25.4173 36.9557 25.2776 37.0236 25.1493 37.1185C25.1011 37.1542 25.0616 37.1998 25.0411 37.2985C25.0005 37.4947 24.9428 37.6993 24.8376 37.9738C24.7951 38.0846 24.7112 38.2353 24.6349 38.3746C24.5586 38.5136 24.5131 38.5523 24.5203 38.6241C24.5351 38.7679 24.5799 38.9232 24.6114 39.0295C24.6448 39.1422 24.6919 39.1665 24.7932 39.0792C24.86 39.0215 24.9694 38.8993 25.0468 38.7766C25.4063 38.2084 25.4693 37.9282 25.5543 37.6682C25.6325 37.4283 25.7016 37.0969 25.6952 37.0198C25.6838 36.8904 25.6234 36.8756 25.5456 36.9059Z" fill="#4C2011"/>
<path d="M24.2063 38.9864C24.1676 38.9522 24.1311 39.0122 24.0275 39.0885C23.9239 39.1652 23.8111 39.2502 23.7341 39.2825C23.5439 39.3622 23.4084 39.3892 23.2827 39.3918C23.2197 39.3929 23.1814 39.4412 23.1457 39.5057C23.0512 39.678 22.9688 39.8762 22.9001 40.0626C22.8583 40.1757 22.8481 40.2752 22.9187 40.3329C22.9608 40.3674 23.173 40.3617 23.3347 40.3139C23.5105 40.2619 23.6908 40.2497 24.1292 39.8621C24.2242 39.7782 24.3282 39.645 24.3821 39.5577C24.4641 39.4256 24.4648 39.3444 24.4105 39.2563C24.3597 39.1732 24.2845 39.0547 24.2063 38.9864Z" fill="#4C2011"/>
<path d="M22.8459 39.2299C22.754 39.1498 22.6716 39.0447 22.5855 38.8663C22.5505 38.7941 22.5262 38.6601 22.5027 38.5379C22.4792 38.4157 22.494 38.3485 22.4408 38.3496C22.3345 38.3519 22.1945 38.3937 22.0977 38.4237C21.9952 38.4555 21.9382 38.5166 21.9063 38.6666C21.8855 38.7653 21.8691 38.9304 21.8809 39.0523C21.9356 39.6164 22.062 39.7382 22.1565 39.887C22.2438 40.0245 22.3983 40.1607 22.4541 40.1615C22.5475 40.1626 22.6101 40.0814 22.6587 39.9709C22.7388 39.7887 22.8166 39.589 22.8675 39.4008C22.8869 39.3302 22.8918 39.2706 22.8459 39.2299Z" fill="#4C2011"/>
<path d="M15.0993 37.215C16.6743 34.3968 20.0126 31.4108 23.3118 28.8356C25.4038 27.2025 27.1864 25.9149 28.4262 24.9822C29.8657 23.212 31.4468 20.2238 33.33 17.6379C34.1093 16.5678 34.9346 15.6916 36.1885 14.9711C36.9147 14.5539 42.1597 11.5429 43.8565 10.5684C44.3162 10.3046 45.5974 9.55905 45.8396 9.43112C45.8449 9.42808 45.8529 9.42353 45.8582 9.42049C45.8582 9.42049 46.8118 8.93574 47.2453 8.75238C47.9464 8.45553 48.561 8.27673 49.0348 8.28546C50.0472 8.30406 55.0478 9.79441 55.8176 9.69951C56.8023 9.57803 57.8265 9.28535 58.5341 9.38481C59.3039 9.493 59.9155 11.5353 59.9459 13.0997C59.9603 13.8452 60.043 14.9502 59.8411 16.0238C59.3112 17.0297 57.0449 18.7532 55.8829 19.5951C55.8055 16.2694 53.737 14.7616 51.1906 16.2318C48.9509 17.5247 47.0809 20.6949 46.6098 23.7632L27.5292 34.6644C27.0038 32.2748 25.1737 31.341 22.9891 32.6024C20.4711 34.0563 18.4216 37.882 18.3013 41.2689C17.5588 41.7069 16.5946 42.276 16.0366 42.6055C15.7754 42.7596 14.4528 42.5569 14.4206 41.6177C14.3652 40.0188 14.1784 38.8633 15.0993 37.215Z" fill="#FFB24D"/>
<path opacity="0.5" d="M47.2722 19.1738C47.2722 19.1738 44.8476 19.7546 39.5817 22.5197C33.8519 25.5281 30.5136 27.7985 26.5 31.4902C27.3492 31.9108 28.1946 33.2455 28.1946 33.2455C28.1946 33.2455 41.5462 25.4689 45.526 23.2398C46.0062 21.7423 46.4378 20.6429 47.2722 19.1738Z" fill="#FEC76E"/>
<path d="M22.9893 32.6014C25.174 31.3399 27.0037 32.2738 27.5294 34.6638L46.6101 23.7626C47.0812 20.6942 48.9515 17.5241 51.1908 16.2311C53.7372 14.7609 55.8057 16.2691 55.8831 19.5945C55.4663 19.8962 55.1881 20.0876 55.1881 20.0876C55.19 20.0219 55.1953 19.9551 55.1953 19.8898C55.1953 17.064 53.4772 15.7654 51.3578 16.9888C49.2385 18.2123 47.5204 21.4952 47.5204 24.321C47.5204 24.3859 47.5257 24.4459 47.5276 24.5089L46.4951 25.0992L27.6767 35.8535L27.0101 36.2342C27.0101 33.4084 25.2924 32.101 23.1731 33.3249C21.0537 34.5484 19.3356 37.8312 19.3356 40.657C19.3356 40.657 18.8873 40.9216 18.3008 41.2678C18.4219 37.881 20.4714 34.0553 22.9893 32.6014ZM46.5311 24.4155C46.5304 24.4223 46.5292 24.4288 46.5288 24.4356C46.5292 24.4292 46.5307 24.4223 46.5311 24.4155ZM27.6255 35.2233C27.6259 35.2275 27.627 35.2313 27.6274 35.2355C27.6266 35.2313 27.6259 35.2275 27.6255 35.2233Z" fill="#FCA032"/>
<path d="M45.6008 11.9828C47.0486 11.2159 48.5136 11.0284 49.7515 12.324C50.1011 12.69 50.3698 13.1307 50.6739 13.5399L30.5137 25.1882V23.4401C31.2953 22.1665 32.2447 20.6485 33.0924 19.373C35.9903 17.5797 38.5511 16.3615 41.2186 14.6977C42.6668 13.7942 44.0923 12.7818 45.6008 11.9828Z" fill="#B5E0FF"/>
<path d="M35.0715 16.7542C36.342 15.7581 40.9523 12.9494 44.674 10.879C46.7789 9.7079 47.7864 9.10736 48.7468 9.25692C49.5869 9.38789 49.9456 9.81381 50.5409 10.5685C51.3532 11.5983 52.0893 12.7224 52.0893 12.7224L50.6734 13.5404C50.3693 13.1312 50.1005 12.6905 49.7509 12.3245C48.5134 11.0289 47.0485 11.2161 45.6003 11.9833C44.0917 12.7823 42.6663 13.7948 41.2181 14.6982C38.5506 16.3621 35.9897 17.5802 33.0918 19.3735C33.9474 18.0859 34.6998 17.0457 35.0715 16.7542Z" fill="#97CDFC"/>
<path d="M14.1305 34.345C14.5219 33.3315 18.6099 29.4553 21.3313 27.5945C22.4713 26.8151 25.2804 25.3726 25.8054 25.3635C26.3099 25.3551 26.2431 25.5871 26.1736 25.6288C24.8693 26.4143 23.4416 27.1758 22.1703 28.0432C19.4466 29.9017 16.9487 32.0336 14.3685 34.5629C14.1894 34.7387 14.0406 34.5774 14.1305 34.345Z" fill="#FFB24D"/>
<path d="M3.5313 28.0836C4.8212 25.4783 6.56361 23.5845 8.57781 21.5183C9.75801 20.3073 12.3496 18.7695 13.0978 18.7695C13.2963 18.7695 13.1844 19.0178 13.1001 19.0706C11.3778 20.1513 9.71815 21.3425 8.33904 22.7638C6.67597 24.4777 5.18867 26.6103 3.69529 28.4313C3.4922 28.6784 3.40109 28.3463 3.5313 28.0836Z" fill="#FFB24D"/>
<path d="M41.3014 12.3833C41.3014 12.3833 41.0979 17.4268 41.3014 19.7477C41.5048 22.069 43.4689 19.6251 43.4689 19.6251L42.3984 11.8633L41.3014 12.3833Z" fill="#FFB24D"/>
<path d="M0.953262 32.9939C1.13168 33.1643 1.24063 33.4149 1.39361 33.6115C1.5409 33.8005 1.80206 33.9695 1.85293 34.209C1.8647 34.2648 1.82674 34.3335 1.76183 34.329C1.49838 34.3092 1.33476 34.0553 1.18824 33.8537C1.02956 33.6358 0.837099 33.3154 0.848108 33.0375C0.850385 32.984 0.914163 32.9563 0.953262 32.9939Z" fill="#FCA032"/>
<path d="M11.8324 39.7365C12.1251 39.7616 12.3938 39.8523 12.6762 39.9252C12.9507 39.9962 13.2563 39.9817 13.5103 40.1123C13.5604 40.1381 13.5494 40.2034 13.5103 40.2315C13.027 40.5819 12.0958 40.2843 11.7819 39.825C11.7576 39.7897 11.7891 39.7327 11.8324 39.7365Z" fill="#FCA032"/>
<path d="M11.2835 38.9446C11.4532 38.6469 11.5598 38.3277 11.7553 38.0392C11.8107 37.9576 11.7238 37.8703 11.6403 37.9177C11.3799 38.0662 11.1791 38.251 11.0234 38.5095C10.9376 38.6519 10.7748 38.9571 10.9665 39.0869C11.0963 39.1746 11.2182 39.0592 11.2835 38.9446Z" fill="#FCA032"/>
<path d="M1.93073 32.7506C1.96755 32.669 2.07687 32.7206 2.08332 32.792C2.10951 33.079 2.1714 33.3667 2.18431 33.6522C2.19038 33.7854 2.00019 33.831 1.93642 33.7194C1.77242 33.4324 1.79824 33.0456 1.93073 32.7506Z" fill="#FCA032"/>
<path d="M20.2152 9.99805C20.8673 10.5052 22.12 11.4026 24.1616 12.5813C27.4892 14.5025 32.6409 17.0125 32.6409 17.0125L28.1945 23.9889C25.5711 21.6919 17.8191 17.0656 16.0938 16.1553C16.6392 15.1546 18.6314 12.1075 20.2152 9.99805Z" fill="#B5E0FF"/>
<path d="M19.6001 20.8212C15.079 18.2057 14.4219 17.2308 14.4219 17.2308L19.6495 9.53125C19.6495 9.53125 19.8245 9.69486 20.2151 9.99855C18.6313 12.108 16.6392 15.1551 16.0937 16.1558C17.8186 17.0661 25.571 21.6924 28.1944 23.9894L27.6387 24.8617C27.6383 24.861 24.4302 23.6151 19.6001 20.8212Z" fill="#97CDFC"/>
<path opacity="0.5" d="M32.3601 17.5193C32.3601 17.5193 26.5146 16.9169 22.7276 15.2652C18.3431 13.3528 17.5 12.6957 17.5 12.6957L19.6486 9.53125C19.6486 9.53125 21.8625 11.2247 24.8959 12.9993C26.748 14.0827 32.6399 17.0126 32.6399 17.0126L32.3601 17.5193Z" fill="white"/>
<path opacity="0.5" d="M13.7081 19.7793C14.8803 20.5822 17.2369 22.175 19.5241 23.608C19.7366 23.7413 19.6338 24.0442 19.4018 24.059C17.1219 24.2025 14.9988 23.4695 13.2085 22.1507C11.5789 20.9504 13.7043 19.782 13.7081 19.7793Z" fill="white"/>
<path d="M15.7697 40.6953C16.2203 40.7906 16.7305 40.8802 17.1496 41.0677C17.2756 41.1243 17.191 41.2825 17.0877 41.2966C16.661 41.3532 15.8358 41.2833 15.6471 40.8179C15.616 40.742 15.7037 40.6816 15.7697 40.6953Z" fill="#FF911A"/>
<path d="M17.8359 39.2725C17.8704 39.2277 17.9596 39.2342 17.9551 39.3048C17.9334 39.6533 17.7998 40.1494 17.5075 40.3635C17.4418 40.4117 17.3424 40.3468 17.3458 40.2709C17.3606 39.9383 17.6385 39.5303 17.8359 39.2725Z" fill="#FF911A"/>
<path d="M44.3562 22.8974C44.4724 23.0409 44.5718 23.1962 44.7035 23.3264C44.8159 23.4372 44.9142 23.4911 44.9662 23.6437C44.989 23.7105 44.929 23.7796 44.8626 23.7796C44.5164 23.7808 44.2385 23.2987 44.185 22.9969C44.1695 22.9084 44.2852 22.8097 44.3562 22.8974Z" fill="#FF911A"/>
<path d="M43.686 24.0969C43.7828 23.873 43.8507 23.6406 43.9111 23.4049C43.943 23.28 44.1191 23.3142 44.1271 23.4341C44.151 23.8016 44.0895 24.5035 43.6788 24.6428C43.6328 24.6584 43.5672 24.6246 43.5592 24.5748C43.5288 24.3873 43.6116 24.2693 43.686 24.0969Z" fill="#FF911A"/>
<path d="M29.2556 31.7295C29.4986 31.7033 29.7635 31.8612 29.9909 31.9394C30.243 32.0263 30.4992 32.0863 30.7429 32.1956C30.8063 32.2241 30.7896 32.3323 30.7232 32.3452C30.2844 32.4314 29.3968 32.2465 29.2336 31.7583C29.2283 31.7427 29.242 31.731 29.2556 31.7295Z" fill="#FF911A"/>
<path d="M39.5901 26.7063C39.7203 26.4327 39.8831 26.1848 40.0502 25.9323C40.1029 25.8526 40.2259 25.9023 40.2043 25.9972C40.1375 26.293 40.0703 26.5799 39.9636 26.8639C39.8926 27.0533 39.852 27.2101 39.6409 27.2659C39.598 27.2773 39.5472 27.2587 39.5255 27.2188C39.4181 27.0252 39.5005 26.8946 39.5901 26.7063Z" fill="#FF911A"/>
<path d="M35.9985 28.9079C36.0916 28.7181 36.2089 28.5434 36.2871 28.3464C36.3569 28.1707 36.3884 27.9824 36.4583 27.8085C36.4753 27.7664 36.541 27.7444 36.5657 27.7945C36.776 28.2215 36.5471 28.8251 36.1557 29.0654C36.0517 29.1292 35.9507 29.0058 35.9985 28.9079Z" fill="#FF911A"/>
<path d="M34.0623 28.9738C34.3193 29.0699 34.6176 29.2544 34.8374 29.4191C34.9589 29.5102 34.8921 29.7076 34.7312 29.6715C34.4286 29.6036 34.0945 29.3451 33.9837 29.0524C33.967 29.0084 34.0186 28.9575 34.0623 28.9738Z" fill="#FF911A"/>
<path d="M57.1307 17.027C57.1831 16.8171 57.166 16.603 57.1459 16.39C57.1376 16.3001 57.256 16.2913 57.2985 16.3487C57.5741 16.7199 57.5711 17.5437 57.0791 17.7411C56.9732 17.7836 56.903 17.6644 56.9155 17.5774C56.9428 17.3835 57.0821 17.2217 57.1307 17.027Z" fill="#FF911A"/>
<path d="M55.7679 15.965C56.1831 16.1855 56.3965 16.7511 56.1687 17.1771C56.1186 17.2708 55.9986 17.215 55.9876 17.1281C55.9375 16.7268 55.8783 16.4118 55.6802 16.0527C55.649 15.9957 55.7117 15.935 55.7679 15.965Z" fill="#FF911A"/>
<path d="M42.0333 12.3828C42.0333 12.3828 42.6137 18.7728 42.731 20.03C42.8483 21.2873 42.9766 24.9957 42.7515 25.5271C42.6084 24.572 42.4372 23.0399 42.3385 21.1389C42.2398 19.2382 41.8306 14.703 41.8306 13.946C41.8306 13.5243 41.7562 12.8759 41.7691 12.5753C41.8944 12.4595 42.0333 12.3828 42.0333 12.3828Z" fill="#FF911A"/>
<path opacity="0.5" d="M59.7568 11.3789C59.1745 11.6602 58.654 12.1787 58.5341 12.7463C58.435 13.2139 58.3974 13.6922 58.3112 14.1622C58.2869 14.2954 58.2607 14.5839 58.1898 14.7195C58.1362 15.1906 57.6617 15.5045 57.1789 15.0361C56.7188 14.5896 56.7446 13.7515 56.0491 13.8304C55.2922 13.9162 54.8386 14.7855 54.1052 14.9803C52.9838 15.2779 51.7812 15.1674 50.6466 15.4931C49.775 15.7433 48.9414 16.1327 48.244 16.7185C47.6105 17.2507 47.0809 17.9389 46.8095 18.727C46.4618 19.7364 46.5297 22.473 45.7287 22.1624C44.9646 21.8663 44.4654 20.2097 43.6033 20.6246C43.2507 20.7943 43.1599 21.1986 43.1166 21.5558C43.0255 22.3067 43.2495 23.2686 43.0324 24.0191C42.8764 24.5581 42.4375 24.9974 42.0511 24.409C41.7512 23.9523 41.2907 23.6308 40.6799 23.8559C40.3694 23.9701 40.131 24.1865 39.9947 24.4902C39.8194 24.882 39.9412 25.451 39.7708 25.8522C39.5354 26.1905 39.1813 26.4194 38.6737 26.1062C38.4771 25.9847 38.3412 25.7053 38.1749 25.5444C37.9418 25.3189 37.6807 25.1272 37.3439 25.112C36.562 25.0771 36.089 25.8355 35.8916 26.4892C35.7739 26.8794 35.7644 27.3061 35.6163 27.6873C35.2895 28.5285 34.8287 28.4134 33.9715 28.3808C33.6701 28.3694 33.5179 28.3485 33.2529 28.5201C32.3065 29.1317 31.4733 31.8994 30.1952 30.2284C29.7024 29.5842 28.9872 28.1648 28.0933 28.0008C27.3747 27.8691 26.937 28.533 26.8136 29.159C26.661 29.9326 26.9886 31.4454 25.5556 30.6592C25.4846 30.6201 23.7798 29.6779 21.3693 31.9529C20.8507 32.4422 20.3337 32.9414 19.9526 33.5446C19.7624 33.846 19.5976 34.163 19.4606 34.4917C19.3433 34.7726 19.2059 35.7239 18.9975 35.9008C18.6452 36.1996 18.1536 35.3994 17.7121 35.4024C17.2608 35.4051 16.8709 35.7384 16.6777 36.1271C16.2939 36.8988 14.9178 37.321 15.4424 35.9631C15.6463 35.4358 15.98 34.6709 15.7495 34.108C15.5954 33.7314 15.2952 33.5769 14.8856 33.6258C14.222 33.7048 13.3964 35.3174 12.7028 34.5221C12.0203 33.7397 13.0247 32.3405 13.4954 31.7077C14.0857 30.9143 14.9019 30.3301 15.4865 29.539C15.9287 28.9407 16.4769 27.5438 15.3988 27.2401C14.2061 26.9045 12.4963 28.311 11.6794 29.0182C11.0781 29.5386 10.5349 30.1243 10.0266 30.7348C9.77755 31.0339 9.53954 31.352 9.26736 31.631C8.66112 32.2524 7.68819 32.2608 7.39703 32.0402C7.06487 31.7885 7.21975 30.7757 7.30516 30.3753C7.43537 29.7645 8.05868 27.8133 6.66666 28.3914C6.53303 28.4469 5.9697 28.7407 5.5229 29.1096C4.83467 29.6779 5.00664 28.672 5.26705 28.1918C5.3908 27.9636 6.01449 27.0765 6.14431 26.8521C6.44534 26.3309 6.79952 25.6093 6.48179 25.0095C5.97691 24.0571 3.90767 25.4616 3.35382 25.809C3.07253 25.9855 2.79579 26.1776 2.52703 26.3844C2.03733 27.0328 1.12514 28.2179 0.617599 29.3249C-0.0702514 30.8251 -0.154527 32.074 0.221285 33.5738C0.354148 34.1042 2.53386 35.7695 5.88428 37.7101C9.14588 39.599 12.7594 41.8284 15.5115 42.6526C16.0335 42.7774 18.3688 41.1421 19.3384 40.6585C19.3289 38.5118 20.3755 36.3404 21.0318 35.443C22.4553 33.4975 24.2353 32.276 25.7845 33.1889C26.4097 33.8453 26.5991 34.9685 26.5991 35.9923C26.7354 36.0728 26.8721 36.1533 27.0129 36.2353C28.813 35.2065 32.9785 32.8385 37.1731 30.4288C41.3849 28.0095 45.6255 25.5489 47.53 24.5099C47.4776 23.7807 47.6875 22.7391 47.7782 22.2828C48.063 21.2502 48.4805 20.2481 49.0382 19.3731C50.0718 17.751 51.5978 16.515 52.8403 16.523C54.5956 17.032 54.5375 19.3731 54.5633 19.7113C54.7945 19.8464 55.0041 19.9725 55.1931 20.0841C55.4418 19.9262 57.2073 18.7357 58.602 17.4306C59.0947 16.9694 59.4356 16.5917 59.8433 16.0238C60.1303 15.0083 59.9758 12.0015 59.7568 11.3789Z" fill="#964F41"/>
<path d="M12.1785 36.6647C13.0242 37.2178 15.5092 37.4805 17.2371 37.4288C17.4193 37.4235 17.5757 37.6687 17.4448 37.7906C16.9209 38.2776 15.8383 38.7696 14.9883 38.8531C13.5284 38.9962 12.3326 38.1281 11.8239 36.9919C11.6087 36.5121 11.8634 36.4586 12.1785 36.6647Z" fill="white"/>
<path d="M0.75808 29.1074C1.59436 29.9836 2.05672 30.5253 2.83416 31.0165C3.04863 31.152 2.95601 31.524 2.62955 31.4868C1.90829 31.4048 0.839313 31.2723 0.121094 30.6642C0.20195 30.28 0.34165 29.6897 0.75808 29.1074Z" fill="white"/>
<path d="M2.67195 33.5261C2.67461 33.3181 2.69321 33.1279 2.72472 32.9453C3.75688 33.9475 5.03235 34.7264 6.2695 35.4238C7.59243 36.1693 9.10935 37.1939 10.6388 37.4668C10.6016 37.7792 10.4327 38.0135 10.241 38.1809C7.51993 36.839 5.04564 35.5593 2.67802 33.6871C2.67613 33.6332 2.67119 33.5758 2.67195 33.5261Z" fill="#381509"/>
<path d="M3.87917 31.7535C3.94219 31.7877 5.42949 32.8183 6.88643 33.6523C8.25074 34.4336 9.82536 35.1309 10.1738 35.3465C10.3633 35.4638 10.536 35.8639 10.5546 35.985C10.5629 36.0386 10.5683 36.0875 10.5751 36.1388C7.99717 34.8625 5.63752 33.6178 3.37695 31.8371C3.54588 31.7156 3.71594 31.6655 3.87917 31.7535Z" fill="#381509"/>
<path d="M3.06087 32.1427C3.09199 32.1036 3.1235 32.074 3.155 32.0391C4.17843 33.0188 5.43266 33.7845 6.65044 34.4705C7.85456 35.1492 9.21925 36.0652 10.6082 36.43C10.6337 36.6969 10.6454 36.9668 10.65 37.3194C7.81774 35.9244 5.255 34.6075 2.80273 32.637C2.86195 32.4627 2.93939 32.2961 3.06087 32.1427Z" fill="#381509"/>
<path d="M10.0432 38.3296C9.976 38.374 9.91032 38.4131 9.85414 38.4439C9.52692 38.6211 8.79845 38.4139 7.93104 37.9868C6.17156 37.1206 4.04386 35.8382 3.08193 34.8972C2.88415 34.7036 2.7828 34.4246 2.72852 34.1406C3.70601 35.0164 4.86495 35.7164 5.99048 36.3507C7.22193 37.0446 8.62194 37.9826 10.0432 38.3296Z" fill="#381509"/>
<path d="M10.241 38.1817C10.175 38.239 10.1082 38.2872 10.0425 38.3301C8.62088 37.9831 7.22127 37.0451 5.98944 36.3512C4.8639 35.7169 3.70495 35.0169 2.72746 34.1411C2.69747 33.9851 2.68229 33.8329 2.67773 33.6875C5.04573 35.5601 7.52001 36.8401 10.241 38.1817Z" fill="#4C2011"/>
<path d="M2.72461 32.9461C2.74321 32.8391 2.77017 32.7358 2.80357 32.6367C5.25584 34.6073 7.81895 35.9241 10.6508 37.3192C10.6508 37.3241 10.6512 37.3275 10.6512 37.3325C10.652 37.3803 10.644 37.4232 10.6387 37.4676C9.10924 37.1951 7.59194 36.1701 6.26938 35.4246C5.03224 34.7272 3.75676 33.9483 2.72461 32.9461Z" fill="#4C2011"/>
<path d="M3.15625 32.0379C3.22913 31.9567 3.30278 31.8895 3.37718 31.8359C5.63775 33.6167 7.9974 34.8614 10.5753 36.1377C10.5886 36.2356 10.6 36.3339 10.6091 36.4288C9.22049 36.064 7.85542 35.1476 6.6513 34.4693C5.43428 33.7833 4.17967 33.0177 3.15625 32.0379Z" fill="#4C2011"/>
<path d="M31.0279 25.3631C31.0279 25.3631 29.6093 25.6478 29.3094 25.4678C29.0095 25.2879 29.03 24.7162 29.4187 24.6057C29.8071 24.4953 30.6464 24.6057 30.6464 24.6057L31.0279 25.3631Z" fill="#4C2011"/>
<path d="M32.9376 25.0037C32.1606 24.2578 30.7799 23.4447 30.25 23.2393C30.2906 23.1957 30.3301 23.1501 30.3734 23.1121C30.7553 22.7781 31.0551 23.0761 31.431 23.2553C32.3189 23.6789 33.6012 24.4059 34.1379 25.468C34.5813 26.3453 34.5069 26.9443 33.8115 27.0316C33.9698 26.4512 33.6391 25.6775 32.9376 25.0037Z" fill="#FFD79C"/>
<path d="M31.2862 26.3257C29.9663 25.7012 29.6546 24.8133 29.8068 24.0852C29.8755 23.7565 30.0414 23.4646 30.2495 23.2402C30.7794 23.4456 32.1604 24.2587 32.9371 25.0047C33.6386 25.6785 33.9692 26.4517 33.8109 27.0325C33.3087 27.0952 32.4842 26.8924 31.2862 26.3257Z" fill="#FEC76E"/>
<path d="M5.30816 33.9083C5.14834 34.1851 5.45279 34.6603 5.98879 34.9697C6.5248 35.2791 7.08815 35.3053 7.24834 35.0286C7.40816 34.7518 7.10333 34.2765 6.56771 33.9672C6.03208 33.6578 5.46797 33.6316 5.30816 33.9083Z" fill="white"/>
<path d="M59.3221 10.2148C59.3221 10.2148 58.6251 11.1665 58.1388 11.6103C57.7091 12.0024 57.7911 12.2886 57.8522 12.8004C57.9054 13.2445 58.6874 12.8592 59.0799 12.6572C59.6117 12.3832 59.8581 11.9899 59.8581 11.9899C59.8581 11.9899 59.7757 10.9794 59.3221 10.2148Z" fill="#B5E0FF"/>
<path d="M41.7694 1.93654C41.7694 1.93654 45.8608 4.17775 48.5841 5.90573C50.4412 7.08441 53.8178 8.93386 53.8178 8.93386C53.8178 8.93386 50.8588 8.07747 49.5977 7.86223C48.5022 7.09238 37.8887 1.12305 37.8887 1.12305C37.8887 1.12305 40.4275 1.67348 41.7694 1.93654Z" fill="#97CDFC"/>
<path d="M40.8902 19.7764C41.3701 19.5908 41.6821 19.5343 41.769 19.8174C41.892 20.2176 41.3234 20.5102 41.1199 20.6165C40.6549 20.8602 40.0695 21.2934 39.8406 20.8154C39.6087 20.3311 40.5019 19.9268 40.8902 19.7764Z" fill="#4C2011"/>
<path d="M51.4977 13.755C51.9775 13.5693 52.2895 13.5128 52.3765 13.796C52.4994 14.1961 51.9308 14.4884 51.7273 14.595C51.2623 14.8388 50.6769 15.2719 50.448 14.794C50.2161 14.3096 51.1093 13.9053 51.4977 13.755Z" fill="#4C2011"/>
<path opacity="0.5" d="M32.6818 1.73978C32.6951 1.57769 33.0603 1.26793 33.1153 1.25122C33.9064 0.938427 34.6865 1.24591 35.3653 1.66044C35.9639 2.02601 36.7721 2.51456 37.2644 3.12535C37.4895 3.40436 37.6209 3.68451 37.0162 3.68337C36.4426 3.68261 33.4911 2.69943 32.9578 2.36879C32.6431 2.17329 32.5884 1.9368 32.6818 1.73978Z" fill="white"/>
<path opacity="0.5" d="M18.9649 32.0226C18.6483 31.7443 17.954 31.9744 17.4696 33.0251C17.3816 33.2157 17.4818 33.4685 17.6822 33.5684C17.9206 33.6868 18.1089 33.4864 18.2767 33.3429C18.5519 33.1075 19.4436 32.4432 18.9649 32.0226Z" fill="#964F41"/>
<path opacity="0.5" d="M16.8482 32.0543C16.4329 31.9366 15.7857 32.76 16.0207 33.3981C16.2158 33.9288 16.7101 33.3757 16.8858 33.1145C17.0836 32.8211 17.3725 32.2027 16.8482 32.0543Z" fill="#964F41"/>
<path opacity="0.5" d="M7.42516 24.4969C7.41453 24.6241 7.46768 24.7566 7.57587 24.8279C7.73872 24.9358 7.93536 24.8302 8.09214 24.7577C8.36432 24.6317 8.93562 24.3432 8.93828 23.9461C8.94131 23.5153 8.45998 23.5426 8.19198 23.6789C7.58688 23.9864 7.44718 24.2285 7.42516 24.4969Z" fill="#964F41"/>
<path opacity="0.5" d="M31.3155 28.8278C31.2882 28.5765 31.2244 28.3127 31.0672 28.1085C30.8303 27.801 30.2651 27.7038 30.2044 28.2053C30.1721 28.4729 30.3923 28.6661 30.4822 28.8988C30.7825 29.6759 31.1207 29.8399 31.2737 29.6007C31.4017 29.4003 31.339 29.0469 31.3155 28.8278Z" fill="#964F41"/>
<path opacity="0.5" d="M39.0212 22.9984C38.7502 23.2471 38.5566 24.2128 39.0888 24.7443C39.5128 25.1675 39.7398 23.9057 39.7683 23.591C39.8009 23.2251 39.4001 22.6503 39.0212 22.9984Z" fill="#964F41"/>
<path opacity="0.5" d="M56.5308 11.7192C56.2602 11.9678 56.0662 12.9335 56.5984 13.465C57.0224 13.8883 57.2494 12.6264 57.2779 12.3118C57.3109 11.9454 56.9101 11.3711 56.5308 11.7192Z" fill="#964F41"/>
<path opacity="0.5" d="M37.6245 22.6782C37.2423 22.6323 37.0927 23.2404 37.3968 23.7662C37.5114 23.9643 37.7802 24.2988 38.0265 24.339C38.2786 24.3804 38.3371 24.0308 38.3651 23.8539C38.4433 23.3574 38.1814 22.745 37.6245 22.6782Z" fill="#964F41"/>
<path opacity="0.5" d="M28.7989 19.7789C28.5943 19.0903 27.6259 18.7676 26.3319 19.6282C25.6303 20.0947 25.5597 21.0251 24.5625 21.0259C24.0739 21.0263 22.877 20.9151 22.781 21.6431C22.7461 21.9089 22.9495 22.0387 23.0429 22.246C23.4184 23.0788 22.6326 23.5378 22.2275 24.2021C21.9105 24.7221 21.7822 25.4369 22.4511 25.7368C23.2282 26.0849 24.0831 25.418 24.5598 24.8728C24.7625 24.6413 24.84 24.4963 25.1615 24.3801C25.54 24.2435 25.5301 24.3387 25.8505 24.4166C26.1773 24.4955 26.5349 24.4416 26.8136 24.245C27.0512 24.0768 27.2213 23.8008 27.2794 23.5165C27.3021 23.4049 27.3059 23.2819 27.2968 23.1692C27.2888 23.0708 27.2133 22.9304 27.219 22.8389C27.2361 22.5633 27.5139 22.2384 27.7417 22.0626C28.3863 21.5668 29.0848 20.7408 28.7989 19.7789Z" fill="#964F41"/>
<path opacity="0.5" d="M36.0674 23.346C35.9403 22.8335 35.6385 22.4558 35.7573 21.8913C35.8123 21.6302 36.0363 21.3572 35.9923 21.0763C35.941 20.7498 35.6484 20.6716 35.3656 20.7703C34.8018 20.9666 34.4921 21.6533 34.3809 22.1916C34.314 22.5154 34.2275 23.7795 34.6371 24.3523C34.8929 24.7099 35.4263 24.798 35.7865 24.5178C36.1438 24.24 36.1677 23.7495 36.0674 23.346Z" fill="#964F41"/>
<path opacity="0.5" d="M23.008 18.4368C22.5506 18.1429 22.1265 18.5651 21.8752 18.9067C21.5378 19.3645 21.2557 19.8368 20.8469 20.241C20.2782 20.6096 19.6781 20.9205 19.032 21.225C18.6224 21.4178 17.4194 21.9204 17.3511 22.5012C17.1966 23.8211 20.4274 22.6124 20.8848 22.2241C21.6444 21.5792 22.3289 20.5827 22.9044 19.7696C23.1522 19.4196 23.5296 18.7716 23.008 18.4368Z" fill="#964F41"/>
<path opacity="0.5" d="M19.3259 23.7807C18.7854 24.0946 17.7323 23.9803 17.3003 24.4818C16.6337 25.2554 18.717 25.5238 19.1646 25.4904C19.8263 25.4407 20.4454 25.164 20.9575 24.7479C21.2232 24.5319 21.8628 24.0031 21.8423 23.6026C21.8029 22.8392 20.1614 23.2955 19.3259 23.7807Z" fill="#964F41"/>
<path opacity="0.5" d="M55.5899 11.3672C55.4768 10.5738 54.7172 10.3388 54.2256 9.88936C54.0369 9.47672 53.7887 9.09826 53.4231 8.83367C52.7816 8.36941 51.634 7.57831 50.7913 7.59197C50.4709 7.59729 50.237 7.66827 50.291 8.04636C50.3213 8.25932 50.4675 8.32993 50.6193 8.45368C50.8023 8.60286 51.1151 8.72168 51.2335 8.94299C51.3504 9.16165 51.3675 9.54809 51.4336 9.78307C51.8546 11.2875 53.1479 12.5421 54.8178 12.3181C55.3769 12.2433 55.6738 11.9563 55.5899 11.3672Z" fill="#964F41"/>
</svg>
