<svg width="44" height="44" viewBox="0 0 44 44" fill="none" xmlns="http://www.w3.org/2000/svg">
<path d="M17.8233 12.3329C19.6811 9.0003 20.61 7.33398 21.9987 7.33398C23.3874 7.33398 24.3163 9.0003 26.1741 12.3329L26.6547 13.1951C27.1826 14.1422 27.4466 14.6157 27.8581 14.9281C28.2697 15.2405 28.7823 15.3565 29.8074 15.5885L30.7407 15.7996C34.3482 16.6159 36.152 17.024 36.5811 18.404C37.0103 19.784 35.7806 21.222 33.3212 24.0979L32.685 24.8419C31.9861 25.6592 31.6366 26.0678 31.4794 26.5733C31.3222 27.0788 31.3751 27.624 31.4807 28.7144L31.5769 29.7071C31.9487 33.5442 32.1347 35.4627 31.0111 36.3156C29.8876 37.1685 28.1988 36.3909 24.821 34.8357L23.9472 34.4333C22.9873 33.9914 22.5074 33.7704 21.9987 33.7704C21.49 33.7704 21.0101 33.9914 20.0502 34.4333L19.1764 34.8357C15.7986 36.3909 14.1098 37.1685 12.9862 36.3156C11.8627 35.4627 12.0487 33.5442 12.4205 29.7071L12.5167 28.7144C12.6223 27.624 12.6752 27.0788 12.518 26.5733C12.3608 26.0678 12.0113 25.6592 11.3124 24.8419L10.6762 24.0979C8.2168 21.222 6.98711 19.784 7.41625 18.404C7.84539 17.024 9.64915 16.6159 13.2567 15.7996L14.19 15.5885C15.2151 15.3565 15.7277 15.2405 16.1393 14.9281C16.5508 14.6157 16.8148 14.1422 17.3427 13.1951L17.8233 12.3329Z" fill="#FFD650"/>
</svg>
